<svg width="1024" height="768" viewBox="0 0 1024 768" fill="none" xmlns="http://www.w3.org/2000/svg">
<g clip-path="url(#clip0_0_233)">
<path d="M1024 0H0V768H1024V0Z" fill="url(#paint0_radial_0_233)"/>
<path opacity="0.61" d="M508.166 52.8715C505.802 51.7349 504.299 52.2445 503.163 54.6222C504.299 52.2575 503.79 50.7551 501.412 49.6185C503.777 50.7551 505.279 50.2456 506.416 47.8679C505.279 50.2326 505.789 51.7349 508.166 52.8715Z" fill="#D5E5D0"/>
<path opacity="0.93" d="M870.389 44.9153C868.26 43.3737 866.692 43.635 865.164 45.7645C866.705 43.635 866.444 42.0672 864.314 40.5387C866.444 42.0803 868.012 41.8191 869.54 39.6896C867.999 41.8191 868.26 43.3868 870.389 44.9153Z" fill="#DFEAD7"/>
<path opacity="0.69" d="M668.479 47.5152C665.709 47.3845 664.481 48.508 664.337 51.2646C664.468 48.495 663.344 47.267 660.588 47.1232C663.358 47.2539 664.586 46.1304 664.729 43.3738C664.599 46.1434 665.722 47.3715 668.479 47.5152Z" fill="#D9E3D5"/>
<path opacity="0.68" d="M788.162 116.417C784.334 116.234 782.623 117.788 782.44 121.616C782.623 117.788 781.068 116.077 777.24 115.894C781.068 116.077 782.78 114.522 782.962 110.694C782.78 114.522 784.334 116.234 788.162 116.417Z" fill="#DAE7D6"/>
<path opacity="0.99" d="M59.863 79.5489C54.9639 77.6546 52.0636 78.9479 50.1693 83.8471C52.0636 78.9479 50.7702 76.0477 45.8711 74.1533C50.7702 76.0477 53.6705 74.7542 55.5649 69.8551C53.6705 74.7542 54.9639 77.6546 59.863 79.5489Z" fill="#DAE7D6"/>
<path opacity="0.92" d="M698.684 151.534C694.895 150.606 692.883 151.821 691.943 155.623C692.87 151.834 691.655 149.822 687.854 148.882C691.642 149.809 693.654 148.594 694.595 144.792C693.667 148.581 694.882 150.593 698.684 151.534Z" fill="#DFE9D6"/>
<path opacity="0.65" d="M206.564 156.067C203.99 154.408 202.2 154.8 200.541 157.373C202.2 154.8 201.808 153.01 199.234 151.351C201.808 153.01 203.598 152.618 205.257 150.044C203.598 152.618 203.99 154.408 206.564 156.067Z" fill="#DFEAD7"/>
<path opacity="0.84" d="M194.112 46.9403C190.336 47.9724 189.174 50.0104 190.206 53.7729C189.174 49.9973 187.136 48.8346 183.373 49.8667C187.149 48.8346 188.311 46.7966 187.279 43.0341C188.311 46.8097 190.349 47.9724 194.112 46.9403Z" fill="#DAE7DA"/>
<path opacity="0.92" d="M989.654 19.4921C987.525 20.2759 986.95 21.5171 987.734 23.6596C986.95 21.5301 985.709 20.9553 983.566 21.7392C985.696 20.9553 986.271 19.7142 985.487 17.5717C986.271 19.7011 987.512 20.2759 989.654 19.4921Z" fill="#D4E3D6"/>
<path opacity="0.98" d="M922.633 104.058C919.38 104.293 918.086 105.795 918.334 109.048C918.099 105.795 916.597 104.502 913.344 104.75C916.597 104.515 917.89 103.013 917.642 99.7595C917.877 103.013 919.38 104.306 922.633 104.058Z" fill="#D5EAD5"/>
<path opacity="0.99" d="M780.075 16.7746C777.894 16.4742 776.835 17.2842 776.535 19.4659C776.835 17.2842 776.025 16.226 773.844 15.9255C776.025 16.226 777.084 15.416 777.384 13.2343C777.084 15.416 777.894 16.4742 780.075 16.7746Z" fill="#D4E6D7"/>
<path d="M258.871 0.0133057C258.793 1.51571 258.754 3.03113 258.754 4.5466C258.754 54.0213 298.861 94.1158 348.323 94.1158C397.785 94.1158 437.892 54.0083 437.892 4.5466C437.892 3.01807 437.853 1.51571 437.775 0.0133057H258.858H258.871Z" fill="#DAECD9"/>
<path d="M347.503 75.1808C349.938 67.6874 346.877 59.977 340.667 57.9592C334.457 55.9414 327.449 60.3802 325.014 67.8736C322.579 75.3671 325.64 83.0774 331.85 85.0952C338.06 87.113 345.068 82.6742 347.503 75.1808Z" fill="#D0E2CF"/>
<path d="M374.675 71.5273C384.711 71.5273 392.847 61.7125 392.847 49.6053C392.847 37.4981 384.711 27.6833 374.675 27.6833C364.638 27.6833 356.502 37.4981 356.502 49.6053C356.502 61.7125 364.638 71.5273 374.675 71.5273Z" fill="#CBE0CF"/>
<path d="M319.442 41.9532C325.971 41.8392 331.152 35.3606 331.015 27.4827C330.877 19.6049 325.473 13.311 318.944 13.425C312.416 13.539 307.235 20.0176 307.372 27.8954C307.51 35.7733 312.914 42.0671 319.442 41.9532Z" fill="#D0E6D1"/>
<path d="M392.454 0.0130771C391.997 3.05707 392.363 6.42762 393.747 9.66758C397.157 17.7022 405.322 21.922 411.972 19.087C418.465 16.3304 421.117 7.87781 418.073 0H392.454V0.0130771Z" fill="#D0E6D1"/>
<path d="M202.891 268.603C202.891 268.603 495.963 272 494.16 272C492.358 272 475.962 249.294 436.442 259.628C436.442 259.628 429.701 243.454 410.836 243.912C391.971 244.369 397.811 245.715 397.811 245.715C397.811 245.715 382.539 211.577 356.946 213.38C331.352 215.183 317.426 238.085 317.426 238.085C317.426 238.085 297.66 226.34 273.412 246.133C273.412 246.133 274.313 243.925 263.535 243.925C252.757 243.925 247.819 263.691 202.904 268.629L202.891 268.603Z" fill="#072B47"/>
<g opacity="0.5">
<path d="M494.16 272C493.102 271.673 491.834 270.511 490.907 269.897C475.086 257.721 455.541 256.336 436.441 259.628C454.64 252.626 477.411 254.82 491.377 269.348C492.174 270.066 493.232 271.49 494.16 272Z" fill="#CBE0CF"/>
</g>
<g opacity="0.5">
<path d="M317.426 238.059C304.414 233.303 290.2 236.413 278.533 243.128C276.835 244.095 275.189 245.166 273.412 246.106C274.823 244.709 276.286 243.35 277.815 242.056C288.632 233.343 305.381 229.894 317.426 238.059Z" fill="#CBE0CF"/>
</g>
<g opacity="0.5">
<path d="M410.849 243.899C388.914 247.152 382.8 220.605 364.784 215.392C355.913 213.184 346.442 215.967 338.446 219.952C330.216 224.276 323.017 230.586 317.426 238.059C322.22 229.946 329.144 222.956 337.466 218.162C343.711 214.53 350.87 212.348 358.108 212.048C382.865 210.898 386.615 244.97 410.836 243.899H410.849Z" fill="#CBE0CF"/>
</g>
<g opacity="0.5">
<path d="M436.442 259.628C431.321 252.077 423.979 245.95 414.821 244.513C413.527 244.212 412.208 244.199 410.836 243.912C421.823 240.646 433.986 248.667 436.442 259.628Z" fill="#CBE0CF"/>
</g>
<path d="M867.956 209.578C867.956 209.578 634.954 212.283 636.378 212.283C637.802 212.283 650.84 194.228 682.273 202.445C682.273 202.445 687.629 189.59 702.627 189.943C717.625 190.295 712.987 191.367 712.987 191.367C712.987 191.367 725.124 164.232 745.478 165.656C765.832 167.08 776.898 185.292 776.898 185.292C776.898 185.292 792.614 175.951 811.897 191.693C811.897 191.693 811.179 189.93 819.749 189.93C828.319 189.93 832.252 205.646 867.956 209.565V209.578Z" fill="#072B47"/>
<g opacity="0.5">
<path d="M636.378 212.27C637.123 211.852 637.946 210.754 638.599 210.166C649.678 198.591 667.811 196.867 682.26 202.432C664.009 199.532 651.298 201.243 636.365 212.27H636.378Z" fill="#CBE0CF"/>
</g>
<g opacity="0.5">
<path d="M776.898 185.292C787.964 177.871 803.328 182.47 811.898 191.693C810.487 190.936 809.18 190.099 807.835 189.316C798.559 183.985 787.245 181.503 776.911 185.292H776.898Z" fill="#CBE0CF"/>
</g>
<g opacity="0.5">
<path d="M702.629 189.93C719.6 190.87 723.819 169.353 738.7 165.264C746.251 163.396 754.351 165.774 760.974 169.471C767.585 173.286 773.098 178.838 776.913 185.292C774.679 182.287 772.118 179.543 769.296 177.14C763.078 171.744 755.448 167.707 747.204 166.871C726.955 163.304 722.735 192.987 702.629 189.93Z" fill="#CBE0CF"/>
</g>
<g opacity="0.5">
<path d="M682.273 202.432C684.22 193.718 693.901 187.343 702.628 189.93C700.472 190.269 698.408 190.491 696.461 191.145C690.4 192.934 685.945 197.207 682.273 202.419V202.432Z" fill="#CBE0CF"/>
</g>
</g>
<defs>
<radialGradient id="paint0_radial_0_233" cx="0" cy="0" r="1" gradientUnits="userSpaceOnUse" gradientTransform="translate(355.142 200.571) scale(629.514 610.999)">
<stop offset="0.24" stop-color="#11546E"/>
<stop offset="0.78" stop-color="#081633"/>
</radialGradient>
<clipPath id="clip0_0_233">
<rect width="1024" height="768" fill="white"/>
</clipPath>
</defs>
</svg>
