<svg width="1024" height="768" viewBox="0 0 1024 768" fill="none" xmlns="http://www.w3.org/2000/svg">
<g clip-path="url(#clip0_82_772)">
<rect width="1024" height="768" fill="white"/>
<path d="M1024 0H0V768H1024V0Z" fill="url(#paint0_radial_82_772)"/>
<path opacity="0.61" d="M508.165 52.8714C505.801 51.7348 504.298 52.2444 503.162 54.6221C504.298 52.2574 503.789 50.755 501.411 49.6184C503.776 50.755 505.278 50.2455 506.415 47.8678C505.278 50.2325 505.788 51.7348 508.165 52.8714Z" fill="#D5E5D0"/>
<path opacity="0.93" d="M870.387 44.9153C868.258 43.3737 866.69 43.6349 865.162 45.7644C866.703 43.6349 866.442 42.0672 864.312 40.5387C866.442 42.0803 868.01 41.819 869.538 39.6895C867.997 41.819 868.258 43.3867 870.387 44.9153Z" fill="#DFEAD7"/>
<path opacity="0.69" d="M668.478 47.5151C665.708 47.3844 664.48 48.508 664.336 51.2645C664.467 48.4949 663.343 47.2669 660.587 47.1232C663.357 47.2538 664.585 46.1303 664.728 43.3737C664.598 46.1433 665.721 47.3714 668.478 47.5151Z" fill="#D9E3D5"/>
<path opacity="0.68" d="M788.161 116.416C784.333 116.234 782.621 117.788 782.438 121.616C782.621 117.788 781.067 116.077 777.239 115.894C781.067 116.077 782.778 114.522 782.961 110.694C782.778 114.522 784.333 116.234 788.161 116.416Z" fill="#DAE7D6"/>
<path opacity="0.99" d="M59.862 79.5489C54.9629 77.6546 52.0626 78.9479 50.1683 83.847C52.0626 78.9479 50.7693 76.0476 45.8701 74.1533C50.7693 76.0476 53.6696 74.7542 55.5639 69.8551C53.6696 74.7542 54.9629 77.6546 59.862 79.5489Z" fill="#DAE7D6"/>
<path opacity="0.92" d="M698.683 151.533C694.894 150.606 692.882 151.821 691.942 155.623C692.869 151.834 691.654 149.822 687.853 148.881C691.641 149.809 693.653 148.594 694.594 144.792C693.666 148.581 694.881 150.593 698.683 151.533Z" fill="#DFE9D6"/>
<path opacity="0.65" d="M206.562 156.067C203.988 154.408 202.199 154.8 200.539 157.373C202.199 154.8 201.807 153.01 199.233 151.351C201.807 153.01 203.596 152.618 205.256 150.044C203.596 152.618 203.988 154.408 206.562 156.067Z" fill="#DFEAD7"/>
<path opacity="0.84" d="M194.111 46.9402C190.336 47.9723 189.173 50.0103 190.205 53.7729C189.173 49.9973 187.135 48.8346 183.373 49.8666C187.148 48.8346 188.311 46.7965 187.279 43.034C188.311 46.8096 190.349 47.9723 194.111 46.9402Z" fill="#DAE7DA"/>
<path opacity="0.92" d="M989.652 19.492C987.523 20.2759 986.948 21.517 987.732 23.6595C986.948 21.53 985.707 20.9553 983.564 21.7391C985.694 20.9553 986.269 19.7141 985.485 17.5716C986.269 19.7011 987.51 20.2759 989.652 19.492Z" fill="#D4E3D6"/>
<path opacity="0.98" d="M922.633 104.058C919.38 104.293 918.086 105.795 918.334 109.048C918.099 105.795 916.597 104.502 913.344 104.75C916.597 104.515 917.89 103.012 917.642 99.7594C917.877 103.012 919.38 104.306 922.633 104.058Z" fill="#D5EAD5"/>
<path opacity="0.99" d="M780.074 16.7746C777.892 16.4741 776.834 17.2841 776.533 19.4658C776.834 17.2841 776.024 16.2259 773.842 15.9255C776.024 16.2259 777.082 15.4159 777.382 13.2342C777.082 15.4159 777.892 16.4741 780.074 16.7746Z" fill="#D4E6D7"/>
<path d="M258.871 0.0132675C258.793 1.51567 258.753 3.0311 258.753 4.54656C258.753 54.0213 298.861 94.1158 348.323 94.1158C397.784 94.1158 437.892 54.0082 437.892 4.54656C437.892 3.01803 437.853 1.51567 437.774 0.0132675H258.858H258.871Z" fill="#DAECD9"/>
<path d="M347.503 75.1808C349.938 67.6874 346.877 59.977 340.667 57.9592C334.457 55.9414 327.449 60.3802 325.014 67.8736C322.579 75.3671 325.64 83.0774 331.85 85.0952C338.06 87.1131 345.068 82.6742 347.503 75.1808Z" fill="#D0E2CF"/>
<path d="M374.674 71.5274C384.71 71.5274 392.846 61.7125 392.846 49.6053C392.846 37.4982 384.71 27.6834 374.674 27.6834C364.637 27.6834 356.501 37.4982 356.501 49.6053C356.501 61.7125 364.637 71.5274 374.674 71.5274Z" fill="#CBE0CF"/>
<path d="M319.441 41.9531C325.97 41.8392 331.151 35.3605 331.014 27.4827C330.876 19.6049 325.472 13.311 318.943 13.425C312.415 13.5389 307.234 20.0175 307.371 27.8954C307.509 35.7732 312.913 42.0671 319.441 41.9531Z" fill="#D0E6D1"/>
<path d="M392.454 0.0130771C391.997 3.05707 392.363 6.42762 393.747 9.66758C397.157 17.7022 405.322 21.922 411.972 19.087C418.465 16.3304 421.117 7.87781 418.073 0H392.454V0.0130771Z" fill="#D0E6D1"/>
<path d="M202.891 268.603C202.891 268.603 495.963 272 494.16 272C492.358 272 475.962 249.294 436.442 259.628C436.442 259.628 429.701 243.454 410.836 243.912C391.971 244.369 397.811 245.715 397.811 245.715C397.811 245.715 382.539 211.577 356.946 213.38C331.352 215.183 317.426 238.085 317.426 238.085C317.426 238.085 297.66 226.34 273.412 246.132C273.412 246.132 274.313 243.925 263.535 243.925C252.757 243.925 247.819 263.691 202.904 268.629L202.891 268.603Z" fill="#072B47"/>
<g opacity="0.5">
<path d="M494.161 272C493.103 271.673 491.835 270.511 490.908 269.897C475.087 257.721 455.542 256.336 436.442 259.628C454.641 252.626 477.412 254.82 491.378 269.348C492.175 270.066 493.233 271.49 494.161 272Z" fill="#CBE0CF"/>
</g>
<g opacity="0.5">
<path d="M317.426 238.059C304.414 233.303 290.2 236.413 278.533 243.128C276.835 244.094 275.189 245.166 273.412 246.106C274.823 244.709 276.286 243.35 277.815 242.056C288.632 233.342 305.381 229.893 317.426 238.059Z" fill="#CBE0CF"/>
</g>
<g opacity="0.5">
<path d="M410.849 243.899C388.914 247.152 382.8 220.605 364.784 215.392C355.913 213.184 346.442 215.967 338.446 219.952C330.216 224.276 323.017 230.586 317.426 238.059C322.22 229.946 329.144 222.956 337.466 218.162C343.711 214.53 350.87 212.348 358.108 212.048C382.865 210.898 386.615 244.97 410.836 243.899H410.849Z" fill="#CBE0CF"/>
</g>
<g opacity="0.5">
<path d="M436.442 259.628C431.321 252.077 423.979 245.95 414.821 244.512C413.527 244.212 412.208 244.199 410.836 243.912C421.823 240.645 433.986 248.667 436.442 259.628Z" fill="#CBE0CF"/>
</g>
<path d="M867.957 209.578C867.957 209.578 634.955 212.283 636.379 212.283C637.803 212.283 650.841 194.228 682.274 202.445C682.274 202.445 687.63 189.59 702.628 189.943C717.626 190.295 712.988 191.367 712.988 191.367C712.988 191.367 725.125 164.232 745.479 165.656C765.833 167.08 776.899 185.292 776.899 185.292C776.899 185.292 792.615 175.951 811.898 191.693C811.898 191.693 811.18 189.93 819.75 189.93C828.32 189.93 832.253 205.646 867.957 209.565V209.578Z" fill="#072B47"/>
<g opacity="0.5">
<path d="M636.379 212.27C637.123 211.852 637.946 210.754 638.6 210.166C649.678 198.591 667.812 196.867 682.261 202.432C664.01 199.532 651.298 201.243 636.366 212.27H636.379Z" fill="#CBE0CF"/>
</g>
<g opacity="0.5">
<path d="M776.899 185.292C787.964 177.871 803.328 182.47 811.898 191.693C810.487 190.936 809.181 190.099 807.835 189.316C798.56 183.985 787.246 181.503 776.912 185.292H776.899Z" fill="#CBE0CF"/>
</g>
<g opacity="0.5">
<path d="M702.628 189.93C719.599 190.87 723.819 169.353 738.699 165.264C746.25 163.396 754.35 165.774 760.974 169.471C767.584 173.286 773.098 178.838 776.912 185.292C774.678 182.287 772.118 179.543 769.296 177.14C763.077 171.744 755.448 167.707 747.204 166.871C726.954 163.304 722.734 192.987 702.628 189.93Z" fill="#CBE0CF"/>
</g>
<g opacity="0.5">
<path d="M682.274 202.432C684.221 193.718 693.901 187.343 702.628 189.93C700.473 190.269 698.408 190.491 696.462 191.145C690.4 192.934 685.945 197.206 682.274 202.419V202.432Z" fill="#CBE0CF"/>
</g>
</g>
<defs>
<radialGradient id="paint0_radial_82_772" cx="0" cy="0" r="1" gradientUnits="userSpaceOnUse" gradientTransform="translate(355.142 200.571) scale(629.514 610.999)">
<stop offset="0.24" stop-color="#11546E"/>
<stop offset="0.78" stop-color="#081633"/>
</radialGradient>
<clipPath id="clip0_82_772">
<rect width="1024" height="768" fill="white"/>
</clipPath>
</defs>
</svg>
