<svg width="1024" height="768" viewBox="0 0 1024 768" fill="none" xmlns="http://www.w3.org/2000/svg">
<g clip-path="url(#clip0_1_1208)">
<path d="M1024 638.624H0V778.169H1024V638.624Z" fill="#FCB873"/>
<path d="M816.627 672.524L737.06 651.397C726.2 651.397 710.555 649.846 710.555 649.846L298.24 650.518C293.508 654.85 275.782 654.138 275.782 654.138L239.735 675.071C255.677 675.071 235.326 679.118 235.326 679.118H808.559C798.81 674.696 816.64 672.511 816.64 672.511L816.627 672.524ZM251.979 675.989C253.117 674.644 258.159 673.183 256.608 671.684C255.767 670.882 248.462 673.054 246.588 672.666L276.726 656.479C276.907 656.479 287.392 655.341 285.311 658.289C283.229 661.237 295.021 655.238 299.688 651.824L710.012 651.152C713.361 651.889 725.954 652.781 736.504 652.923L808.895 672.421C805.96 673.145 803.568 673.752 802.767 675.342C802.495 675.886 802.909 677.023 803.53 677.825L251.992 675.976L251.979 675.989Z" fill="#914120"/>
<g filter="url(#filter0_d_1_1208)">
<path d="M0.699219 729.568C127.251 728.262 257.824 729.827 384.441 731.715C575.536 732.723 768.867 731.689 960.053 735.348L1024 736.576V736.964L960.04 737.313C768.803 738.347 575.562 734.675 384.441 733.059C258.07 732.826 126.243 733.731 0.712161 729.568H0.699219Z" fill="#914120"/>
<path d="M0.349609 647.454C126.902 646.148 257.475 647.713 384.091 649.6C575.186 650.609 768.518 649.575 959.703 653.234L1023.65 654.462V654.85L959.69 655.199C768.453 656.233 575.212 652.561 384.091 650.945C257.72 650.712 125.893 651.617 0.362551 647.454H0.349609Z" fill="#914120"/>
<path d="M273.753 679.066C263.927 684.535 253.713 689.151 243.214 693.095C237.939 694.995 232.521 696.521 227.298 698.538C222.075 700.542 216.967 702.843 211.925 705.3C201.866 710.239 191.6 714.712 181.231 718.953C170.81 723.026 160.273 726.853 149.451 729.943L149.309 729.581C164.151 721.552 179.537 714.868 195.298 708.985C205.706 704.873 216.58 701.912 226.833 697.374C236.982 692.642 246.925 687.419 257.578 683.85C262.854 681.95 268.155 680.139 273.611 678.704L273.753 679.066Z" fill="#914120"/>
<path d="M448.389 679.57C445.531 684.626 441.962 689.125 437.812 693.12C435.692 695.047 433.3 696.715 431.27 698.732C429.24 700.749 427.443 702.972 425.775 705.313C422.465 710.006 418.793 714.389 414.901 718.578C410.893 722.651 406.691 726.542 401.907 729.891L401.623 729.633C406.097 722.134 411.605 715.617 417.849 709.644C421.819 705.545 426.706 702.287 430.352 697.878C433.817 693.327 436.894 688.427 441.329 684.703C443.45 682.777 445.622 680.902 448.104 679.312L448.389 679.57Z" fill="#914120"/>
<path d="M747.868 679.26C757.604 682.738 766.952 687.07 775.99 692.047C780.463 694.607 784.743 697.516 789.281 699.947C793.806 702.404 798.474 704.563 803.219 706.58C812.709 710.575 821.992 715.036 831.146 719.729C840.223 724.564 849.182 729.646 857.767 735.451L857.586 735.8C843.041 730.396 829.155 723.698 815.631 716.186C806.542 711.39 798.008 705.468 788.699 701.072C779.313 696.87 769.68 693.146 760.824 687.806C756.35 685.246 751.928 682.622 747.688 679.622L747.868 679.273V679.26Z" fill="#914120"/>
<path d="M778.175 775.325C773.326 773.101 768.956 770.127 765.065 766.546C763.19 764.697 761.548 762.564 759.583 760.831C757.63 759.086 755.471 757.586 753.208 756.228C748.683 753.526 744.429 750.449 740.357 747.126C736.4 743.687 732.612 740.041 729.328 735.774L729.574 735.477C736.801 739.007 743.111 743.622 748.929 749.04C752.911 752.44 756.104 756.797 760.384 759.862C764.78 762.732 769.499 765.175 773.158 769.067C775.033 770.916 776.869 772.804 778.434 775.028L778.188 775.325H778.175Z" fill="#914120"/>
<path d="M226.107 775.002C231.447 770.269 237.304 766.287 243.575 762.938C246.73 761.348 250.091 760.068 253.181 758.362C256.271 756.668 259.206 754.69 262.051 752.569C267.714 748.316 273.648 744.463 279.725 740.855C285.88 737.403 292.176 734.171 298.873 731.624L299.067 731.96C290.909 738.916 282.04 744.656 272.627 749.634C266.499 753.125 259.736 755.556 253.815 759.435C248.035 763.507 242.541 768.033 236.076 771.032C232.921 772.635 229.728 774.161 226.314 775.325L226.12 774.989L226.107 775.002Z" fill="#914120"/>
</g>
<path d="M327.474 729.361L348.458 715.242L348.471 716.483L327.5 701.692L327.293 701.55L327.474 701.369L334.714 694.517L327.771 701.667L327.745 701.343L349.311 715.229L350.23 715.824L349.324 716.483L328.961 731.469L327.474 729.361Z" fill="#914120"/>
<path d="M311.105 677.489L316.523 688.181L316.755 688.647L316.238 688.724C316.238 688.543 268.089 696.637 268.555 696.029L281.51 704.317L268.452 696.21L268.219 696.068C268.426 696.029 315.889 688.026 316.135 687.987L315.863 688.543L309.98 678.096L311.118 677.489H311.105Z" fill="#914120"/>
<path d="M355.013 651.281L354.25 657.048L354.211 657.371L353.901 657.397L332.063 658.625L332.089 658.418L341.256 661.663L332.025 658.625L331.533 658.457L332.05 658.418L353.849 656.634L353.5 656.983L353.72 651.165L355.013 651.281Z" fill="#914120"/>
<path d="M375.997 694.517C375.997 694.517 364.956 704.757 364.904 704.808C364.865 704.821 337.959 709.01 337.908 709.036L337.727 707.756C337.727 707.795 365.201 704.239 364.645 704.433L375.997 694.53V694.517Z" fill="#914120"/>
<path d="M49.4675 666.137L0 677.644V778.273H78.1705L275.769 651.204L49.4675 666.137Z" fill="#914120"/>
<path d="M49.4675 666.137L1.69366 685.57L0 778.273L60.3668 777.019L275.769 651.204L49.4675 666.137Z" fill="#3A1610"/>
<path d="M273.674 627.168L275.769 651.204L190.436 684.82V645.217L273.674 627.168Z" fill="#914120"/>
<path d="M190.436 645.218L48.291 631.59L49.4676 666.137L190.436 684.82V645.218Z" fill="#3A1610"/>
<path d="M48.291 631.59L154.725 622.41L273.674 627.168L190.436 645.217L48.291 631.59Z" fill="#FCB873"/>
<path d="M77.7579 631.15L58.7129 632.585L176.848 643.899L212.21 635.611C212.21 635.611 76.0512 621.169 77.7708 631.15H77.7579Z" fill="#3A1610"/>
<path d="M241.105 612.429C235.093 612.429 207.813 607.748 161.422 607.748C115.032 607.748 86.9366 611.187 82.6699 612.222C68.2537 615.7 71.0723 627.103 71.0723 629.638C71.0723 634.344 112.563 637.589 162.302 637.589C212.041 637.589 254.332 631.887 254.332 627.181C254.332 624.66 251.501 612.442 241.118 612.442L241.105 612.429Z" fill="url(#paint0_linear_1_1208)"/>
<path d="M232.883 601.439C229.56 600.547 201.995 596.655 161.436 596.655C120.877 596.655 94.9277 601.413 91.2945 601.646C83.8861 602.111 82.6836 610.244 82.6836 612.222C82.6836 615.907 117.942 618.893 161.436 618.893C204.93 618.893 240.188 615.907 240.188 612.222C240.188 610.244 240.188 603.404 232.883 601.439Z" fill="url(#paint1_linear_1_1208)"/>
<path d="M91.2817 601.646L72.8574 -13H216.98L232.883 601.439C143.141 610.567 91.2817 601.646 91.2817 601.646Z" fill="url(#paint2_linear_1_1208)"/>
<g style="mix-blend-mode:multiply">
<path d="M232.728 591.018C232.974 595.698 230.491 600.948 225.707 602.37C218.273 604.826 212.442 600.857 212.843 592.88L214.847 593.061C214.342 599.06 209.856 604.115 204.051 605.486C196.022 607.412 184.528 605.085 182.989 595.556L186.092 595.828C185.316 598.297 184.062 600.159 182.51 601.917C173.382 612.649 145.688 612.713 141.783 596.901L144.602 597.444C140.969 602.745 135.435 606.921 128.88 607.36C122.144 608.123 115.744 603.585 114.528 596.836L116.416 597.03C113.649 602.137 107.081 603.133 101.858 602.654C95.7679 602.331 92.083 597.741 93.544 591.742C92.6907 597.444 96.1687 601.568 101.935 601.503C106.538 601.607 112.227 600.65 114.593 596.293L116.481 596.487C117.14 599.06 118.795 601.568 120.954 603.055C128.246 607.735 137.879 602.538 141.99 595.866L144.809 596.409C147.188 604.335 156.561 606.391 164.009 606.042C170.913 605.874 178.127 603.546 181.864 597.482C182.342 596.694 182.808 595.75 183.041 595.026L186.144 595.297C187.424 602.421 196.138 603.96 202.318 603.133C207.71 602.59 212.093 598.297 212.856 592.918L214.86 593.099C214.148 601.051 220.665 603.52 227.194 600.715C230.776 598.956 232.534 594.935 232.754 591.031L232.728 591.018Z" fill="#914120"/>
<path d="M193.875 -13L213.838 592.983" stroke="#914120" stroke-width="3.29935" stroke-linejoin="bevel"/>
<path d="M168.883 -13L184.54 595.427" stroke="#914120" stroke-width="3.29935" stroke-linejoin="bevel"/>
<path d="M126.707 -13L143.269 596.655" stroke="#914120" stroke-width="3.29935" stroke-linejoin="bevel"/>
<path d="M96.4277 -13L115.498 596.655" stroke="#914120" stroke-width="3.29935" stroke-linejoin="bevel"/>
</g>
<path d="M974.532 666.137L1024 677.644V778.273H945.829L748.23 651.204L974.532 666.137Z" fill="#914120"/>
<path d="M974.532 666.137L1022.31 685.57L1024 778.273L963.633 777.019L748.23 651.204L974.532 666.137Z" fill="#3A1610"/>
<path d="M750.325 627.168L748.23 651.204L833.564 684.82V645.217L750.325 627.168Z" fill="#914120"/>
<path d="M833.564 645.218L975.709 631.59L974.533 666.137L833.564 684.82V645.218Z" fill="#3A1610"/>
<path d="M975.709 631.59L869.276 622.41L750.326 627.168L833.565 645.217L975.709 631.59Z" fill="#FCB873"/>
<path d="M946.243 631.15L965.288 632.585L847.153 643.899L811.791 635.611C811.791 635.611 947.949 621.169 946.23 631.15H946.243Z" fill="#3A1610"/>
<path d="M782.895 612.429C788.907 612.429 816.187 607.748 862.578 607.748C908.968 607.748 937.064 611.187 941.33 612.222C955.746 615.7 952.928 627.103 952.928 629.638C952.928 634.344 911.438 637.589 861.699 637.589C811.947 637.589 769.668 631.887 769.668 627.181C769.668 624.66 772.499 612.442 782.882 612.442L782.895 612.429Z" fill="url(#paint3_linear_1_1208)"/>
<path d="M791.117 601.439C794.44 600.547 822.006 596.655 862.565 596.655C903.124 596.655 929.073 601.413 932.706 601.646C940.115 602.111 941.317 610.244 941.317 612.222C941.317 615.907 906.059 618.893 862.565 618.893C819.071 618.893 783.813 615.907 783.813 612.222C783.813 610.244 783.812 603.404 791.117 601.439Z" fill="url(#paint4_linear_1_1208)"/>
<path d="M932.719 601.646L951.143 -13H807.02L791.117 601.439C880.859 610.567 932.719 601.646 932.719 601.646Z" fill="url(#paint5_linear_1_1208)"/>
<g style="mix-blend-mode:multiply">
<path d="M791.273 591.018C791.493 594.922 793.252 598.943 796.833 600.702C803.401 603.52 809.879 600.999 809.168 593.087L811.171 592.905C811.947 598.284 816.305 602.564 821.709 603.12C827.902 603.96 836.604 602.409 837.884 595.284L840.987 595.013C841.219 595.724 841.685 596.668 842.163 597.47C845.9 603.533 853.114 605.861 860.018 606.029C867.466 606.378 876.84 604.322 879.219 596.396L882.037 595.853C886.136 602.525 895.781 607.71 903.073 603.042C905.232 601.555 906.874 599.047 907.546 596.474L909.434 596.28C911.8 600.637 917.476 601.594 922.092 601.491C927.807 601.555 931.362 597.47 930.483 591.729C931.918 597.689 928.298 602.318 922.17 602.641C916.959 603.107 910.378 602.111 907.611 597.017L909.499 596.823C908.271 603.572 901.91 608.11 895.148 607.348C888.605 606.908 883.071 602.732 879.425 597.431L882.244 596.888C878.339 612.7 850.645 612.636 841.516 601.904C839.965 600.146 838.711 598.284 837.935 595.815L841.038 595.543C839.487 605.072 828.005 607.399 819.976 605.473C814.171 604.102 809.685 599.047 809.18 593.048L811.184 592.867C811.611 600.844 805.677 604.826 798.32 602.357C793.536 600.935 791.041 595.685 791.299 591.005L791.273 591.018Z" fill="#914120"/>
<path d="M830.125 -13L810.162 592.983" stroke="#914120" stroke-width="3.29935" stroke-linejoin="bevel"/>
<path d="M855.118 -13L839.461 595.427" stroke="#914120" stroke-width="3.29935" stroke-linejoin="bevel"/>
<path d="M897.293 -13L880.73 596.655" stroke="#914120" stroke-width="3.29935" stroke-linejoin="bevel"/>
<path d="M927.575 -13L908.504 596.655" stroke="#914120" stroke-width="3.29935" stroke-linejoin="bevel"/>
</g>
<path d="M433.856 642.45C433.856 642.45 447.639 655.147 447.393 665.49C447.134 675.834 436.739 679.635 436.739 679.635C436.739 679.635 427.934 687.729 436.493 695.667C445.052 703.606 477.738 713.975 477.027 715.32C476.316 716.665 455.875 712.928 454.892 727.861C453.909 742.795 459.042 746.066 459.042 746.066C459.042 746.066 403.511 760.366 401.184 777.484L654.843 781.065C654.843 781.065 627.498 753.539 621.9 748.406C621.9 748.406 629.838 747.475 626.567 741.877C626.567 741.877 621.55 733.447 615.655 734.856C609.772 736.278 620.167 726.323 658.593 725.702L665.07 727.409C665.07 727.409 635.992 717.376 606.539 714.932C577.086 712.488 608.828 698.951 608.828 698.951C608.828 698.951 613.974 696.921 615.655 687.082C615.655 687.082 562.166 700.412 525.305 687.082C488.443 673.752 461.253 653.738 461.253 653.738L433.843 642.463L433.856 642.45Z" fill="#914120"/>
<path d="M436.739 679.635L471.208 695.926L608.853 698.926C608.853 698.926 584.262 704.964 587.856 711.752C591.45 718.539 610.004 730.163 617.93 726.452C625.855 722.741 658.618 725.676 658.618 725.676C658.618 725.676 614.154 726.336 609.034 734.83C609.034 734.83 620.153 738.205 617.93 743.325C615.706 748.445 612.693 753.061 612.693 753.061L631.583 777.652L423.551 777.445C423.551 777.445 450.638 745.872 480.646 742.291C480.646 742.291 454.697 721.087 467.821 715.294C480.944 709.502 442.001 695.668 439.958 691.052C437.915 686.436 436.764 679.609 436.764 679.609L436.739 679.635Z" fill="#341511"/>
<path d="M488.546 432.336C488.546 432.336 487.822 440.973 482.793 444.813C482.793 444.813 483.995 448.175 487.59 444.813C487.59 444.813 489.271 456.812 482.793 461.117C482.793 461.117 487.835 462.552 488.546 459.682C488.546 459.682 487.59 472.637 482.793 477.912C482.793 477.912 488.068 477.666 488.546 476.477C489.025 475.287 488.068 477.679 488.068 477.679C488.068 477.679 485.431 489.186 480.866 493.75C480.866 493.75 483.401 494.475 484.771 493.75C484.771 493.75 482.78 503.59 477.272 509.822C477.272 509.822 478.953 511.735 481.345 509.822C481.345 509.822 478.94 516.299 473.432 523.734H476.315C476.315 523.734 469.114 529.487 468.635 537.4L471.997 535.241C471.997 535.241 471.519 550.355 468.635 552.514C465.752 554.673 465.998 558.035 465.998 558.035L468.635 557.078C468.635 557.078 464.796 588.264 463.593 594.974C462.391 601.684 454.478 632.146 452.319 635.029C452.319 635.029 451.595 630.956 448 631.667C448 631.667 445.841 628.073 441.523 629.508C437.204 630.943 437.204 633.348 437.204 633.348C437.204 633.348 433.61 634.55 433.843 642.463C433.843 642.463 442.001 648.217 445.841 653.738C445.841 653.738 456.275 658.78 461.253 653.738C466.231 648.695 477.738 608.162 477.738 608.162C477.738 608.162 469.347 634.305 477.014 640.537C477.014 640.537 457.581 655.651 466.218 672.201C466.218 672.201 455.189 664.999 451.103 666.68C451.103 666.68 443.669 663.318 441.742 667.882C439.816 672.446 441.018 672.201 441.018 672.201C441.018 672.201 436.7 668.606 436.467 675.317L436.713 679.635C436.713 679.635 437.191 681.316 449.901 685.388C462.61 689.461 476.768 703.14 487.073 703.373C487.073 703.373 509.143 717.039 530.967 711.764C552.792 706.489 568.385 708.881 579.892 707.213C591.399 705.532 615.628 687.069 615.628 687.069C615.628 687.069 619.223 678.2 617.309 677.23C615.396 676.26 613.715 676.984 613.715 676.984C613.715 676.984 614.918 671.709 610.599 671.942C606.281 672.188 606.281 672.666 606.281 672.666C606.281 672.666 602.441 671.231 601.006 673.39C599.571 675.549 591.89 677.23 591.89 677.23C591.89 677.23 598.368 674.114 601.73 660.926C605.091 647.738 586.383 634.059 586.383 634.059C586.383 634.059 577.306 554.298 559.037 530.922L563.11 533.081C563.11 533.081 553.995 516.532 554.24 512.692L559.761 521.083C559.761 521.083 554.24 499.491 552.805 495.897L557.848 499.258C557.848 499.258 551.137 470.711 550.646 464.957L553.762 469.999C553.762 469.999 548.008 452.247 549.689 444.813C551.37 437.379 554.732 438.103 554.732 438.103C554.732 438.103 587.831 422.277 595.511 411.96C603.191 401.642 618.538 384.136 609.901 378.615C601.264 373.094 593.351 385.571 586.15 386.528C578.948 387.485 557.123 384.123 557.123 384.123C557.123 384.123 549.443 371.414 548.008 367.328C546.573 363.242 547.284 356.778 537.691 356.778C537.691 356.778 533.372 335.91 528.821 335.431C528.821 335.431 527.14 332.07 519.952 332.548C512.763 333.026 510.591 336.866 510.591 336.866C510.591 336.866 506.997 335.91 502.2 353.416C502.2 353.416 495.244 352.938 492.361 357.489C489.478 362.04 480.608 386.748 480.608 386.748C480.608 386.748 456.857 384.588 446.785 380.037C436.713 375.486 432.395 374.517 430.235 377.4C428.076 380.283 420.875 384.834 444.147 413.136C444.147 413.136 451.827 421.773 457.335 422.73L455.176 426.092C455.176 426.092 460.451 436.642 488.521 432.323L488.546 432.336Z" fill="#914120"/>
<path d="M487.823 619.191C487.823 619.191 487.345 606.003 482.303 599.047C482.303 599.047 484.009 595.31 477.027 572.658C477.027 572.658 479.665 568.585 482.419 557.065C485.173 545.545 500.287 539.081 500.287 539.081C500.287 539.081 488.289 550.834 486.375 560.905C484.462 570.977 482.535 573.861 482.535 573.861C482.535 573.861 484.694 571.456 486.608 570.977C486.608 570.977 483.014 575.774 483.725 578.179L487.086 576.744C487.086 576.744 482.768 580.584 485.173 587.061C485.173 587.061 484.449 583.7 486.854 582.743C486.854 582.743 484.216 587.061 487.332 595.698C490.448 604.335 487.81 619.204 487.81 619.204L487.823 619.191Z" fill="#FCB873"/>
<path d="M487.538 379.287C487.241 372.668 495.192 368.698 495.192 368.698C495.192 368.698 495.942 365.195 501.67 363.255C508.147 361.057 514.327 361.781 516.926 363.397C519.525 365.014 520.21 368.543 526.39 364.574C532.57 360.605 534.781 361.342 541.401 361.781C543.78 361.936 545.965 364.005 547.801 366.565C546.65 362.492 546.741 356.778 537.729 356.778C537.729 356.778 533.411 335.91 528.86 335.431C528.86 335.431 527.179 332.07 519.99 332.548C512.802 333.026 510.629 336.866 510.629 336.866C510.629 336.866 507.035 335.91 502.238 353.416C502.238 353.416 495.283 352.938 492.399 357.489C489.516 362.04 480.646 386.748 480.646 386.748C486.051 387.342 487.848 385.881 487.551 379.262L487.538 379.287Z" fill="#FCB873"/>
<path d="M519.758 338.082C519.758 338.082 525.719 335.134 528.848 335.431C528.848 335.431 527.167 332.07 519.978 332.548C512.789 333.026 510.617 336.866 510.617 336.866C510.617 336.866 517.703 335.729 519.758 338.082Z" fill="#341511"/>
<path d="M433.973 382.533C435.189 379.456 444.278 382.533 444.278 382.533C464.267 385.675 470.912 385.61 470.912 385.61C463.168 384.537 452.682 382.701 446.812 380.051C436.74 375.499 432.422 374.53 430.263 377.413C428.104 380.296 420.902 384.847 444.175 413.15C434.866 397.971 430.017 392.514 433.973 382.533Z" fill="#341511"/>
<path d="M470.988 385.933C470.988 385.933 479.043 388.118 479.043 390.471C479.043 392.825 477.168 388.855 475.009 389.592C472.85 390.329 471.996 394.298 478.319 396.212C478.319 396.212 487.718 402.534 490.226 420.054C490.226 420.054 492.58 415.929 493.019 406.659C493.019 406.659 495.515 416.226 493.019 423.725C493.019 423.725 493.899 424.165 495.23 422.109C495.23 422.109 496.407 426.079 491.261 433.733H493.911L491.856 444.619C491.856 444.619 494.441 443.882 495.359 440.792C495.359 440.792 497.532 446.235 495.359 455.208C495.359 455.208 496.859 456.243 498.036 452.997C498.036 452.997 501.721 458.738 495.825 470.943C495.825 470.943 495.89 472.559 499.174 468.151C499.174 468.151 500.829 492.432 496.42 502.142C496.42 502.142 497.894 504.055 500.247 500.37C500.247 500.37 497.014 505.374 494.364 517.734C491.713 530.095 491.713 533.327 490.834 534.659C490.834 534.659 485.094 537.012 484.512 541.873C484.512 541.873 491.726 536.572 501.721 536.288C501.721 536.288 495.838 541.873 495.398 545.7C495.398 545.7 497.454 541.576 500.105 541.731C500.105 541.731 495.398 550.265 494.364 557.621C493.329 564.978 488.572 571.934 493.187 599.111C493.187 599.111 495.98 616.32 483.335 633.102C483.335 633.102 489.076 632.508 491.571 638.843C494.067 645.178 483.477 652.083 483.477 660.176C483.477 668.27 479.211 661.353 481.124 671.8C483.038 682.247 482.443 681.807 480.53 682.105C478.616 682.402 482.301 679.312 476.405 682.105C470.509 684.897 468.686 694.827 468.906 695.939C469.126 697.051 494.364 717.712 494.364 717.712L590.416 707.86L593.493 700.425C593.493 700.425 586.925 684.471 577.499 685.647C577.499 685.647 579.71 672.692 570 671.515C570 671.515 574.267 647.092 567.789 643.562C567.789 643.562 568.229 629.586 580.732 633.413C580.732 633.413 567.337 614.575 559.541 614.872C559.541 614.872 565.578 611.64 568.811 612.079C568.811 612.079 558.959 560.724 544.53 549.993L547.62 550.29C547.62 550.29 539.668 536.016 527.605 535.435C527.605 535.435 538.931 537.645 543.353 532.344C547.775 527.043 546.004 526.901 546.004 526.901C546.068 527.457 537.78 501.637 536.772 468.758C535.841 438.103 540.108 436.707 540.108 436.707C540.108 436.707 550.257 433.914 550.697 404.332C550.697 404.332 552.016 390.652 564.673 390.058C577.331 389.463 581.882 390.058 587.778 387.704C593.661 385.351 601.457 381.382 602.634 385.209C603.81 389.036 602.931 398.449 596.751 405.224C590.571 411.986 563.639 432.414 563.639 432.414C563.639 432.414 600.087 418.45 607.47 391.829C607.47 391.829 613.895 381.072 607.599 378.654C601.315 376.236 600.242 377.917 583.848 386.567C583.848 386.567 555.985 384.627 551.861 386.243C551.861 386.243 550.386 391.829 544.206 392.424C544.206 392.424 547.736 405.224 543.612 405.521C539.487 405.818 529.997 405.081 526.506 403.026C526.506 403.026 522.278 401.707 522.278 397.44C522.278 397.44 521.244 399.056 525.511 398.914C525.511 398.914 522.278 397.634 522.123 394.531C522.123 394.531 518.891 396.716 513.447 397.738C513.447 397.738 517.275 398.617 519.77 398.035C519.77 398.035 518.891 405.831 512.853 407.305C512.853 407.305 513.15 408.34 515.646 408.34C515.646 408.34 499.161 410.693 496.523 405.547C493.873 400.401 494.61 389.359 494.467 388.92C494.325 388.48 491.52 391.57 492.696 395.54C492.696 395.54 488.43 392.643 489.167 386.955C489.167 386.955 488.132 393.329 484.757 391.713C481.37 390.096 479.65 386.722 470.962 385.998L470.988 385.933Z" fill="#341511" stroke="black" stroke-width="1.28379" stroke-miterlimit="10"/>
<path d="M520.688 694.982C520.688 694.982 513.008 729.762 568.178 734.804C568.178 734.804 580.887 736.007 613.754 725.935C646.62 715.863 651.895 724.5 651.895 724.5V721.617C651.895 721.617 653.33 724.5 658.605 725.689C663.88 726.892 665.083 723.052 665.083 723.052C665.083 723.052 658.372 722.328 655.722 719.69H658.605C658.605 719.69 655.489 713.962 645.896 712.98C636.302 711.997 649.012 708.455 606.565 714.906C564.118 721.358 548.525 715.359 546.366 700.012C546.366 700.012 541.569 685.621 533.178 685.621C524.787 685.621 520.701 694.982 520.701 694.982H520.688Z" fill="#914120"/>
<path d="M514.212 336.595C514.212 336.595 517.353 340.138 516.733 345.723C516.112 351.309 515.518 351.309 515.518 351.309C515.518 351.309 512.402 352.55 509.195 352.86C509.195 352.86 517.147 352.86 520.974 354.101C524.801 355.343 527.18 354.722 527.18 354.722C527.18 354.722 523.766 353.067 522.939 351.309C522.112 349.55 521.362 336.556 525.098 336C525.098 336 519.125 333.466 514.212 336.608V336.595Z" fill="#914120"/>
<path d="M539.656 691.375C539.656 691.375 537.057 684.897 533.152 685.621C529.248 686.345 527.231 685.453 522.318 692.15C517.404 698.848 526.326 714.066 535.906 722.082C545.487 730.098 568.786 732.904 573.505 732.128C578.224 731.339 623.334 723.245 625.817 722.754C628.299 722.263 645.986 718.811 651.869 724.487V721.603C651.869 721.603 655.774 725.508 658.579 725.676C658.579 725.676 653.615 721.888 653.227 719.716L655.709 719.677C655.709 719.677 654.222 715.772 645.947 715.979C637.673 716.186 643 716.962 626.062 716.574C609.125 716.186 587.481 724.254 573.298 721.694C559.127 719.134 550.271 713.225 546.922 706.541C543.573 699.856 539.643 691.388 539.643 691.388L539.656 691.375Z" fill="#341511"/>
<path d="M654.856 715.992C652.865 714.673 649.969 713.393 645.896 712.993C636.303 712.023 649.012 708.467 606.565 714.919C595.071 716.665 585.555 717.492 577.733 717.479C576.918 717.634 576.479 717.712 576.479 717.712C576.479 717.712 576.673 721.112 591.438 718.552C606.203 715.992 626.088 716.587 639.276 714.311C645.508 713.238 650.9 714.441 654.856 716.005V715.992Z" fill="#FCB873"/>
<path d="M440.631 674.243C443.785 675.226 447.121 675.821 447.121 675.821L467.795 683.501L466.23 672.188C466.23 672.188 455.202 664.986 451.116 666.667C451.116 666.667 443.682 663.305 441.755 667.869C440.618 670.584 440.579 671.593 440.734 671.968C439.764 671.308 436.674 669.653 436.48 675.304L436.726 679.622C436.726 679.622 437.476 673.261 440.631 674.243Z" fill="#FCB873"/>
<path d="M591.93 677.23C591.93 677.23 592.434 676.971 593.236 676.351L591.93 677.23Z" fill="#FCB873"/>
<path d="M617.349 677.23C615.435 676.274 613.754 676.985 613.754 676.985C613.754 676.985 614.957 671.71 610.638 671.942C606.32 672.188 606.32 672.666 606.32 672.666C606.32 672.666 602.48 671.231 601.045 673.39C599.609 675.55 591.93 677.23 591.93 677.23C591.93 677.23 595.576 679.765 598.33 679.765C601.084 679.765 604.82 677.605 608.764 676.416C612.707 675.239 612.112 678.575 612.112 678.575C616.831 678.575 615.681 687.057 615.681 687.057C615.681 687.057 619.275 678.187 617.362 677.217L617.349 677.23Z" fill="#FCB873"/>
<path d="M450.678 640.976C452.061 642.153 450.29 644.131 450.29 644.131C450.29 644.131 456.586 639.606 460.53 629.961C464.473 620.315 471.752 573.46 471.752 567.952C471.752 562.444 475.696 547.872 477.04 535.861C478.398 523.85 484.151 522.751 484.151 522.751H481.785C485.522 519.092 491.172 508.49 491.172 508.49H487.306C490.655 505.736 492.749 490.777 492.749 490.777H490.461C492.827 488.217 495.051 471.085 495.051 471.085L492.53 472.663C496.499 468.849 494.598 449.83 494.598 449.83L491.844 451.006C494.003 445.692 490.461 431.91 490.461 431.91C489.983 433.345 489.039 434.689 487.914 435.905C487.203 438.736 485.729 442.589 482.807 444.813C482.807 444.813 484.009 448.175 487.603 444.813C487.603 444.813 489.284 456.811 482.807 461.117C482.807 461.117 487.849 462.552 488.56 459.682C488.56 459.682 487.603 472.637 482.807 477.912C482.807 477.912 488.082 477.666 488.56 476.477C488.573 476.438 488.586 476.425 488.599 476.386C488.431 476.826 488.082 477.666 488.082 477.666C488.082 477.666 485.444 489.174 480.88 493.738C480.88 493.738 483.414 494.462 484.785 493.738C484.785 493.738 482.794 503.577 477.286 509.809C477.286 509.809 478.967 511.722 481.359 509.809C481.359 509.809 478.954 516.286 473.446 523.721H476.329C476.329 523.721 469.128 529.474 468.649 537.387L472.011 535.228C472.011 535.228 471.532 550.342 468.649 552.501C465.766 554.66 466.012 558.022 466.012 558.022L468.649 557.065C468.649 557.065 464.809 588.251 463.607 594.961C462.404 601.671 454.491 632.133 452.332 635.016C452.332 635.016 451.608 630.943 448.014 631.654C448.014 631.654 445.855 628.06 441.536 629.495C437.218 630.93 437.218 633.335 437.218 633.335C437.218 633.335 433.624 634.538 433.857 642.45C437.516 635.456 449.294 639.8 450.678 640.976ZM488.638 476.257C488.702 476.102 488.69 476.128 488.638 476.257Z" fill="#FCB873"/>
<path d="M477.026 640.537C477.026 640.537 463.075 651.397 464.083 664.779C466.23 669.486 470.561 671.955 470.561 671.955C465.842 664.728 471.35 652.212 471.35 652.212C471.945 644.933 477.039 640.55 477.039 640.55L477.026 640.537Z" fill="#FCB873"/>
<path d="M598.912 660.668C598.912 660.668 598.718 663.822 597.735 666.576C597.735 666.576 598.692 666.77 599.972 666.628C600.619 665.025 601.239 663.215 601.769 661.133C605.131 647.945 586.422 634.266 586.422 634.266C586.422 634.266 577.346 554.505 559.077 531.129L563.149 533.288C563.149 533.288 554.034 516.739 554.28 512.899L559.801 521.29C559.801 521.29 554.28 499.698 552.845 496.104L557.887 499.465C557.887 499.465 551.177 470.917 550.685 465.164L553.802 470.206C553.802 470.206 548.048 452.454 549.729 445.02C550.285 442.563 551.022 440.999 551.759 440.003C551.759 440.003 545.578 440.973 544.596 457.316C544.596 457.316 543.73 467.944 547.802 473.852L545.772 472.676C545.772 472.676 546.561 484.286 549.121 489.018H545.772C545.772 489.018 547.104 504.508 550.698 508.71H547.802C547.802 508.71 554.254 531.22 559.374 539.094C559.374 539.094 543.548 536.533 539.631 538.033C539.631 538.033 557.008 541.744 566.046 559.173C575.083 576.601 584.353 628.396 584.353 628.396C584.353 628.396 581.793 614.807 570.971 614.614C570.971 614.614 582.504 622.475 583.035 633.607C583.035 633.607 600.683 649.342 598.925 660.681L598.912 660.668Z" fill="#FCB873"/>
<path d="M476.794 611.472C476.794 611.472 474.027 593.319 477.04 572.645C477.04 572.645 467.162 622.63 464.447 629.961C461.732 637.292 460.077 644.7 450.289 644.118C440.502 643.537 433.869 642.438 433.869 642.438C433.869 642.438 448.143 657.836 461.318 649.833C465.468 647.312 476.794 611.459 476.794 611.459V611.472Z" fill="#341511"/>
</g>
<defs>
<filter id="filter0_d_1_1208" x="0.349609" y="646.973" width="1023.65" height="129.636" filterUnits="userSpaceOnUse" color-interpolation-filters="sRGB">
<feFlood flood-opacity="0" result="BackgroundImageFix"/>
<feColorMatrix in="SourceAlpha" type="matrix" values="0 0 0 0 0 0 0 0 0 0 0 0 0 0 0 0 0 0 127 0" result="hardAlpha"/>
<feOffset dy="1.28379"/>
<feColorMatrix type="matrix" values="0 0 0 0 1 0 0 0 0 1 0 0 0 0 1 0 0 0 0.6 0"/>
<feBlend mode="normal" in2="BackgroundImageFix" result="effect1_dropShadow_1_1208"/>
<feBlend mode="normal" in="SourceGraphic" in2="effect1_dropShadow_1_1208" result="shape"/>
</filter>
<linearGradient id="paint0_linear_1_1208" x1="70.8138" y1="624.233" x2="254.216" y2="621.027" gradientUnits="userSpaceOnUse">
<stop stop-color="#FCB873"/>
<stop offset="0.04" stop-color="#D99157"/>
<stop offset="0.13" stop-color="#914120"/>
<stop offset="0.17" stop-color="#82391D"/>
<stop offset="0.3" stop-color="#5B2616"/>
<stop offset="0.4" stop-color="#421A11"/>
<stop offset="0.46" stop-color="#3A1610"/>
<stop offset="0.53" stop-color="#3E1710"/>
<stop offset="0.61" stop-color="#4A1D12"/>
<stop offset="0.69" stop-color="#5E2716"/>
<stop offset="0.76" stop-color="#7A351B"/>
<stop offset="0.81" stop-color="#944422"/>
<stop offset="0.84" stop-color="#B4683B"/>
<stop offset="0.86" stop-color="#CE854F"/>
<stop offset="0.89" stop-color="#E29B5F"/>
<stop offset="0.92" stop-color="#F0AB6A"/>
<stop offset="0.95" stop-color="#F9B570"/>
<stop offset="1" stop-color="#FCB873"/>
</linearGradient>
<linearGradient id="paint1_linear_1_1208" x1="82.6189" y1="609.184" x2="240.085" y2="606.43" gradientUnits="userSpaceOnUse">
<stop stop-color="#FCB873"/>
<stop offset="0.04" stop-color="#D99157"/>
<stop offset="0.13" stop-color="#914120"/>
<stop offset="0.17" stop-color="#82391D"/>
<stop offset="0.3" stop-color="#5B2616"/>
<stop offset="0.4" stop-color="#421A11"/>
<stop offset="0.46" stop-color="#3A1610"/>
<stop offset="0.53" stop-color="#3E1710"/>
<stop offset="0.61" stop-color="#4A1D12"/>
<stop offset="0.69" stop-color="#5E2716"/>
<stop offset="0.76" stop-color="#7A351B"/>
<stop offset="0.81" stop-color="#944422"/>
<stop offset="0.84" stop-color="#B4683B"/>
<stop offset="0.86" stop-color="#CE854F"/>
<stop offset="0.89" stop-color="#E29B5F"/>
<stop offset="0.92" stop-color="#F0AB6A"/>
<stop offset="0.95" stop-color="#F9B570"/>
<stop offset="1" stop-color="#FCB873"/>
</linearGradient>
<linearGradient id="paint2_linear_1_1208" x1="78.2619" y1="296.954" x2="227.518" y2="294.342" gradientUnits="userSpaceOnUse">
<stop stop-color="#FCB873"/>
<stop offset="0.04" stop-color="#D99157"/>
<stop offset="0.13" stop-color="#914120"/>
<stop offset="0.17" stop-color="#82391D"/>
<stop offset="0.3" stop-color="#5B2616"/>
<stop offset="0.4" stop-color="#421A11"/>
<stop offset="0.46" stop-color="#3A1610"/>
<stop offset="0.53" stop-color="#3E1710"/>
<stop offset="0.61" stop-color="#4A1D12"/>
<stop offset="0.69" stop-color="#5E2716"/>
<stop offset="0.76" stop-color="#7A351B"/>
<stop offset="0.81" stop-color="#944422"/>
<stop offset="0.84" stop-color="#B4683B"/>
<stop offset="0.86" stop-color="#CE854F"/>
<stop offset="0.89" stop-color="#E29B5F"/>
<stop offset="0.92" stop-color="#F0AB6A"/>
<stop offset="0.95" stop-color="#F9B570"/>
<stop offset="1" stop-color="#FCB873"/>
</linearGradient>
<linearGradient id="paint3_linear_1_1208" x1="953.186" y1="624.233" x2="769.771" y2="621.027" gradientUnits="userSpaceOnUse">
<stop stop-color="#FCB873"/>
<stop offset="0.04" stop-color="#D99157"/>
<stop offset="0.13" stop-color="#914120"/>
<stop offset="0.17" stop-color="#82391D"/>
<stop offset="0.3" stop-color="#5B2616"/>
<stop offset="0.4" stop-color="#421A11"/>
<stop offset="0.46" stop-color="#3A1610"/>
<stop offset="0.53" stop-color="#3E1710"/>
<stop offset="0.61" stop-color="#4A1D12"/>
<stop offset="0.69" stop-color="#5E2716"/>
<stop offset="0.76" stop-color="#7A351B"/>
<stop offset="0.81" stop-color="#944422"/>
<stop offset="0.84" stop-color="#B4683B"/>
<stop offset="0.86" stop-color="#CE854F"/>
<stop offset="0.89" stop-color="#E29B5F"/>
<stop offset="0.92" stop-color="#F0AB6A"/>
<stop offset="0.95" stop-color="#F9B570"/>
<stop offset="1" stop-color="#FCB873"/>
</linearGradient>
<linearGradient id="paint4_linear_1_1208" x1="941.382" y1="609.184" x2="783.916" y2="606.43" gradientUnits="userSpaceOnUse">
<stop stop-color="#FCB873"/>
<stop offset="0.04" stop-color="#D99157"/>
<stop offset="0.13" stop-color="#914120"/>
<stop offset="0.17" stop-color="#82391D"/>
<stop offset="0.3" stop-color="#5B2616"/>
<stop offset="0.4" stop-color="#421A11"/>
<stop offset="0.46" stop-color="#3A1610"/>
<stop offset="0.53" stop-color="#3E1710"/>
<stop offset="0.61" stop-color="#4A1D12"/>
<stop offset="0.69" stop-color="#5E2716"/>
<stop offset="0.76" stop-color="#7A351B"/>
<stop offset="0.81" stop-color="#944422"/>
<stop offset="0.84" stop-color="#B4683B"/>
<stop offset="0.86" stop-color="#CE854F"/>
<stop offset="0.89" stop-color="#E29B5F"/>
<stop offset="0.92" stop-color="#F0AB6A"/>
<stop offset="0.95" stop-color="#F9B570"/>
<stop offset="1" stop-color="#FCB873"/>
</linearGradient>
<linearGradient id="paint5_linear_1_1208" x1="945.739" y1="296.954" x2="796.483" y2="294.342" gradientUnits="userSpaceOnUse">
<stop stop-color="#FCB873"/>
<stop offset="0.04" stop-color="#D99157"/>
<stop offset="0.13" stop-color="#914120"/>
<stop offset="0.17" stop-color="#82391D"/>
<stop offset="0.3" stop-color="#5B2616"/>
<stop offset="0.4" stop-color="#421A11"/>
<stop offset="0.46" stop-color="#3A1610"/>
<stop offset="0.53" stop-color="#3E1710"/>
<stop offset="0.61" stop-color="#4A1D12"/>
<stop offset="0.69" stop-color="#5E2716"/>
<stop offset="0.76" stop-color="#7A351B"/>
<stop offset="0.81" stop-color="#944422"/>
<stop offset="0.84" stop-color="#B4683B"/>
<stop offset="0.86" stop-color="#CE854F"/>
<stop offset="0.89" stop-color="#E29B5F"/>
<stop offset="0.92" stop-color="#F0AB6A"/>
<stop offset="0.95" stop-color="#F9B570"/>
<stop offset="1" stop-color="#FCB873"/>
</linearGradient>
<clipPath id="clip0_1_1208">
<rect width="1024" height="768" fill="white"/>
</clipPath>
</defs>
</svg>
