<svg width="1024" height="768" viewBox="0 0 1024 768" fill="none" xmlns="http://www.w3.org/2000/svg">
<rect width="1024" height="768" fill="white"/>
<path d="M1024 698.783H1.40723V767.537H1024V698.783Z" fill="#246F85"/>
<path d="M615.686 727.201C635.867 726.672 663.704 725.665 683.588 726.646C688.985 727.77 694.395 728.88 699.83 729.81C706.235 730.972 715.298 732.405 721.715 733.412C718.178 733.67 708.417 734.367 704.737 734.626C687.345 735.723 665.886 736.975 648.546 737.402C640.941 737.608 633.336 737.828 625.718 737.905C622.284 734.419 619.03 730.623 615.686 727.189V727.201ZM615.931 727.305C619.443 730.597 623.059 733.528 626.493 736.73L625.977 736.536C633.465 735.943 640.941 735.478 648.43 735.013C669.811 733.683 694.446 732.895 715.905 732.521L715.815 733.838C705.369 731.656 693.994 729.435 683.484 727.873C664.595 728.88 635.518 727.808 615.931 727.318V727.305Z" fill="#1E5B72"/>
<path d="M789.617 734.342C831.231 734.058 877.119 732.728 918.874 733.786C938.707 737.776 960.462 741.714 980.475 745.149L980.346 746.543C970.998 746.711 952.289 746.956 942.954 747.034C909.578 747.382 864 747.369 830.637 746.982C816.912 742.915 803.226 738.28 789.63 734.329L789.617 734.342ZM789.863 734.38C803.639 738.241 817.351 741.417 831.024 745.136C829.565 745.045 868.532 744.735 868.158 744.697C902.567 744.516 946.079 744.619 980.333 745.149L980.204 746.543C960.269 742.527 938.616 738.357 918.655 734.936C877.441 736.02 831.502 734.626 789.863 734.38Z" fill="#1E5B72"/>
<path d="M594.601 748.131C578.268 747.963 561.044 747.356 544.724 747.176C532.432 747.24 519.443 745.781 507.978 751.088C504.711 752.74 500.373 755.284 500.489 759.364L499.908 758.886C527.655 758.112 557.687 757.84 585.421 758.512L597.636 758.86L597.042 759.635C596.228 755.904 595.441 752.095 594.601 748.131ZM594.769 747.937C595.97 751.837 597.248 755.968 598.462 760.074L597.649 760.1L585.434 760.461C557.687 761.133 527.655 760.862 499.921 760.087H499.379C498.966 757.492 500.502 755.349 502.258 753.748C517.313 740.242 574.098 745.639 594.782 747.95L594.769 747.937Z" fill="#1E5B72"/>
<path d="M365.358 724.981C385.422 722.812 437.972 718.99 454.241 728.945C456.126 730.223 458.205 731.914 457.727 734.613L457.197 734.626C444.015 735.078 423.24 735.31 409.89 735.4C394.112 735.439 378.347 735.116 362.582 734.574L361.807 734.548L362.065 733.864L365.371 724.981H365.358ZM365.526 725.187L363.111 734.2L362.582 733.489C378.347 732.947 394.112 732.624 409.89 732.663C423.279 732.753 443.963 732.999 457.197 733.438L456.616 733.89C456.707 732.147 455.106 730.7 453.724 729.758C441.536 722.657 426.662 724.787 413.13 724.671C399.444 724.839 379.031 725.291 365.526 725.2V725.187Z" fill="#1E5B72"/>
<path d="M386.636 735.749C373.853 735.826 354.964 735.4 341.936 735.22C330.884 735.22 319.38 733.903 308.831 737.879C305.952 739.08 301.587 740.901 301.484 744.451L300.903 743.999C322.168 743.367 346.016 742.992 367.281 743.405C374.654 743.522 382.026 743.767 389.412 744.025L388.869 744.761L386.662 735.749H386.636ZM386.791 735.555L389.928 744.438L390.173 745.148C382.53 745.42 374.886 745.678 367.256 745.794C345.99 746.207 322.143 745.846 300.877 745.2L300.348 745.187C299.896 742.669 301.678 740.965 303.421 739.674C318.863 729.474 367.514 733.386 386.791 735.555Z" fill="#1E5B72"/>
<path d="M396.991 709.203L391.052 694.832L390.948 694.574L391.103 694.38L409.528 670.972L391.8 694.91L391.852 694.458L399.315 708.092L396.991 709.203Z" fill="#074057"/>
<path d="M605.24 702.166C605.24 702.166 607.242 703.961 607.861 703.728C608.481 703.496 610.753 702.166 610.753 702.166C610.753 702.166 608.003 702.941 605.24 702.166Z" fill="#04253F"/>
<path d="M537.197 701.947L530.754 634.949L506.7 629.306L495.583 638.306L496.926 657.583H490.47V629.306H484.841L475.364 596.279L473.853 631.437H468.727V649.113L440.89 638.306L431.297 640.991L430.109 625.962H435.57V620.449H430.109V612.663H424.815V622.708H420.787L422.323 628.106L426.429 627.705L426.016 642.205L416.022 647.034L405.047 699.467L537.197 701.947Z" fill="#074057"/>
<path d="M810.301 517.157L793.516 447.267L810.301 441.663L797.015 401.831L778.151 408.816L775.35 398.332L792.819 392.741L786.015 369.539L795.582 366.88L802.683 389.242L819.494 382.787L823.238 394.226L806.105 399.726L818.41 438.177L834.058 433.981L867.615 533.929L810.301 517.157Z" fill="#074057"/>
<path d="M848.261 439.21C847.693 439.21 834.059 433.981 834.059 433.981L854.239 494.11L867.564 490.507L846.918 441.883L848.261 439.21Z" fill="#081C32"/>
<path d="M38.4247 372.018L124.545 398.409L110.032 410.198L98.2567 470.921H108.224L99.1605 502.657L160.8 519.868L149.916 530.753L99.6124 712.043H0V472.741L12.1368 475.453L16.6688 460.049L13.0406 446.647H22.1174L34.7966 389.346L38.4247 372.018Z" fill="#1E5B72"/>
<path d="M156.268 547.977L196.152 521.689V501.74L188.896 492.677L250.535 446.647H268.663L289.451 474.549L279.548 482.709L277.727 526.221L313.079 535.285L303.111 547.977L313.079 550.688L304.919 574.264L387.41 535.285L425.487 591.488H431.271L421.484 600.217L413.453 709.254H118.489L156.268 547.977Z" fill="#1E5B72"/>
<path d="M964.93 292.328L839.817 341.25L826.183 366.763L829.333 383.187C829.333 383.187 848.21 380.036 850.301 387.383C852.393 394.73 862.877 440.501 862.877 440.501L850.301 457.273L855.892 479.287L826.183 487.331L880.708 704.71H1022.59V388.777L1016.3 391.218L984.504 337.054C984.504 337.054 981.353 327.964 991.489 324.117L989.397 314.678L964.93 292.316V292.328Z" fill="#1E5B72"/>
<path d="M646.906 708.209L619.301 534.51C619.301 534.51 616.499 526.117 610.211 526.828L607.061 518.086L668.572 503.755L658.087 471.256C658.087 471.256 648.3 461.469 642.012 463.212L639.572 452.031L727.642 423.729L733.232 439.455C733.232 439.455 728.339 446.789 729.385 449.939C730.431 453.09 744.414 488.028 744.414 488.028L761.883 484.077L762.464 496.46C762.464 496.46 755.414 502.489 757.855 509.126C760.295 515.762 821.999 704.71 821.999 704.71L646.906 708.209Z" fill="#1E5B72"/>
<path d="M829.333 383.187L989.397 314.691L991.488 324.13C991.488 324.13 982.889 326.454 984.503 337.067L850.301 387.396C850.301 387.396 841.65 384.246 829.333 383.2V383.187Z" fill="#081C32"/>
<path d="M854.691 506.647L1022.59 457.906V468.635L865.356 510.068L905.821 676.278H899.481L854.691 506.647Z" fill="#081C32"/>
<path d="M975.517 356.034L870.237 394.549L878.074 432.418L885.033 429.32L878.513 397.467L978.926 360.914L975.517 356.034Z" fill="#081C32"/>
<path d="M563.756 520.707L567.72 432.096L573.336 425.808L587.229 515.749L563.756 520.707Z" fill="#246F85"/>
<path d="M599.133 519.055L601.109 514.097L579.624 434.407L573.336 425.808L587.229 515.749L599.133 519.055Z" fill="#074057"/>
<path d="M563.756 520.707L587.229 515.749L602.439 519.055V528.429L619.288 534.51L648.468 704.71L633.969 705.058L590.663 525.214L568.456 530.933L563.756 520.707Z" fill="#074057"/>
<path d="M538.914 710.649L525.899 602.102C525.899 602.102 527.332 598.086 515.854 597.415L512.704 582.734L612.652 565.962L614.395 582.734C614.395 582.734 606.351 586.233 607.061 590.417C607.771 594.6 633.969 705.045 633.969 705.045L538.914 710.636V710.649Z" fill="#1E5B72"/>
<path d="M590.663 525.214C590.663 525.214 556.047 533.774 556.047 534.846C556.047 535.917 552.833 545.911 552.833 545.911L560.14 551.837L561.16 574.613L600.941 567.938L596.357 544.129L598.139 534.846L590.65 525.214H590.663Z" fill="#1E5B72"/>
<path d="M552.833 545.911L598.152 534.846L596.37 544.129L560.14 551.837L552.833 545.911Z" fill="#074057"/>
<path d="M515.841 597.428L614.395 582.747C614.395 582.747 605.964 585.497 607.061 590.43L525.899 602.102C525.899 602.102 527.126 597.763 515.854 597.415L515.841 597.428Z" fill="#074057"/>
<path d="M598.152 605.794L542.077 614.161L552.832 709.254L557.481 709.358L546.312 618.783L598.152 611.191V605.794Z" fill="#074057"/>
<path d="M726.944 423.729L795.272 454.73V471.282L790.65 477.054L803.355 507.473L832.625 515.711L878.061 696.885L821.302 704.684L757.855 509.1C757.855 509.1 756.344 498.629 762.464 496.434L761.883 484.052L743.716 488.003L728.687 449.914C728.687 449.914 725.64 440.32 732.535 439.429L726.944 423.703V423.729Z" fill="#053442"/>
<path d="M642.013 463.225L732.535 439.455C732.535 439.455 725.473 443.419 728.688 449.939L658.088 471.256C658.088 471.256 653.259 463.212 642.013 463.212V463.225Z" fill="#074057"/>
<path d="M610.211 526.827L762.464 496.472C762.464 496.472 755.44 502.851 757.855 509.139L619.301 534.523C619.301 534.523 617.984 525.239 610.211 526.84V526.827Z" fill="#074057"/>
<path d="M637.222 545.601L742.464 528.08L744.62 532.392L642.012 548.687L671.67 707.718H665.201L637.222 545.601Z" fill="#074057"/>
<path d="M44.0282 557.441C44.3639 555.233 40.8391 555.13 39.3542 554.536C37.3529 553.98 35.3258 553.451 33.3504 553.671C30.6131 554.445 30.7681 558.267 30.3033 560.836C30.1483 564.762 33.983 568.325 37.7661 569.913C40.7487 571.359 43.9507 572.289 47.1915 573.102C49.2186 573.593 51.2328 575.685 53.2212 574.368C54.0475 573.774 54.5898 572.754 55.0805 571.785C56.165 569.048 58.3083 565.239 56.0488 562.683C48.5343 557.35 43.4343 558.732 46.4943 547.279C47.9791 538.784 56.0617 542.257 61.3426 544.568C64.493 545.885 67.5143 546.931 70.7938 548.002C75.5969 549.668 74.7705 553.567 73.4019 557.428C72.666 559.597 72.2011 562.295 69.8383 563.457C65.8099 564.697 61.7686 563.432 57.8177 562.734L57.8435 562.554C61.6783 562.825 65.7712 563.793 69.451 562.45C71.0133 561.585 71.5297 558.887 72.0591 557.028C72.4981 555.168 73.5052 552.831 72.511 551.153C71.3361 549.591 68.87 549.371 67.0107 548.661C63.912 547.692 60.5808 546.272 57.5466 545.046C54.6027 543.664 49.8255 542.244 48.4956 546.117C46.1586 554.755 45.668 555.672 53.7764 560.178C55.7906 561.172 58.063 563.031 57.6757 565.562C57.4691 567.899 56.5136 569.978 55.5969 572.044C55.0934 573.051 54.5769 574.109 53.5956 574.871C51.5169 576.459 49.025 574.432 46.9849 574.006C41.4717 572.857 35.4679 571.656 31.3878 567.37C29.7481 565.575 28.741 563.057 28.9088 560.591C29.3994 557.789 29.5544 553.167 33.2213 552.56C35.4808 552.418 37.6241 553.102 39.5996 553.825C41.0456 554.458 42.75 554.729 43.912 555.904C44.3123 556.33 44.4156 557.002 44.209 557.505L44.0411 557.454L44.0282 557.441Z" fill="#074057"/>
<path d="M136.759 514.871L142.337 495.582L124.377 490.094L126.662 483.019L143.589 488.997L150.058 470.585L156.449 473.154L152.046 492.728L166.869 497.363L165.733 503.238L149.787 497.97L145.203 517.221L136.759 514.871Z" fill="#074057"/>
<path d="M355.532 552.276L363.317 523.625L350.29 519.636L351.942 514.51L364.221 518.848L368.908 505.485L373.543 507.357L370.354 521.547L381.109 524.917L380.283 529.177L368.714 525.356L361.652 553.98L355.532 552.276Z" fill="#074057"/>
<path d="M839.843 341.689L964.955 292.755L978.951 306.944L826.208 367.202L839.843 341.689Z" fill="#246F85"/>
<path d="M862.903 440.94L1022.62 389.216V406.273L850.327 457.712L862.903 440.94Z" fill="#246F85"/>
<path d="M337.482 709.035L349.373 589.526L343.628 581.404L350.742 580.384L387.436 535.724L304.945 574.703L282.943 709.693L337.482 709.035Z" fill="#074057"/>
<path d="M188.922 493.115L229.154 463.07L236.63 473.619L232.614 515.207L212.782 512.405C212.782 512.405 216.191 520.449 214.448 527.783C212.705 535.117 176.359 709.693 176.359 709.693H118.515L152.614 564.142L150.213 558.719L154.345 558.022L154.939 554.239L152.769 550.339L196.191 522.128V502.179L188.935 493.115H188.922Z" fill="#074057"/>
<path d="M59.8834 382.464C59.8834 382.464 46.081 375.801 42.9951 369.862C42.9951 369.862 48.702 367.486 49.8899 362.967C51.0777 358.448 59.8834 328.713 59.8834 328.713C59.8834 328.713 60.5935 319.43 58.6955 315.866C56.7975 312.303 70.1093 299.688 72.0202 295.414C73.9311 291.141 83.434 280.669 84.3895 278.281C85.3449 275.892 103.421 262.103 106.274 259.494C109.128 256.886 116.733 252.354 118.398 252.109C120.064 251.864 121.962 252.109 121.962 252.109C121.962 252.109 125.061 256.396 125.526 257.338C125.99 258.281 127.669 259.959 127.669 262.567C127.669 265.175 126.481 269.23 125.526 271.851C124.57 274.472 119.341 281.367 119.109 287.551C118.876 293.736 122.917 313.955 122.917 313.955C122.917 313.955 128.87 317.519 127.669 319.907C126.468 322.296 129.89 322.761 127.824 328.468C127.824 328.468 131.71 330.366 132.188 334.175C132.666 337.984 139.083 341.792 139.083 341.792C139.083 341.792 140.89 343.497 138.786 343.678C136.681 343.858 133.802 341.935 133.802 341.935C133.802 341.935 136.333 350.146 135.287 352.419C134.241 354.691 134.15 351.721 134.15 351.721C134.15 351.721 133.363 353.387 132.575 353.038C131.788 352.69 129.864 347.448 129.864 347.448C129.864 347.448 129.515 350.159 128.986 350.676C128.456 351.192 127.32 344.904 127.32 344.904C127.32 344.904 121.897 373.826 120.245 378.1C118.592 382.373 117.365 385.782 117.017 386.144C116.668 386.505 99.2764 395.672 96.6554 396.021C94.0344 396.369 59.8447 382.477 59.8447 382.477L59.8834 382.464Z" fill="#1E5B72"/>
<path d="M111.452 258.41C111.452 258.41 114.254 254.808 116.165 254.459C118.076 254.11 120.012 254.808 121.058 255.337C122.104 255.866 124.235 257.79 125.952 260.179C127.669 262.567 125.952 263.897 125.952 263.897C125.952 263.897 126.649 262.593 125.461 261.018C124.273 259.443 121.265 256.576 120.581 256.486C119.896 256.396 117.03 255.401 115.506 256.189C113.983 256.977 111.452 258.41 111.452 258.41Z" fill="#1E5B72"/>
<path opacity="0.5" d="M80.1678 299.895C80.6972 296.396 99.7417 280.153 99.7417 280.153L79.4706 296.408L96.5913 275.066L87.3596 282.606C82.9567 288.894 68.1085 302.18 66.0168 307.59C63.9251 313 70.7295 302.696 73.8799 302.167C77.0303 301.638 80.6972 307.59 77.5468 317.196C77.5468 317.196 81.0458 313 81.3944 307.06L103.718 280.476L81.3944 302.348C81.3944 302.348 79.6514 303.394 80.1678 299.908V299.895Z" fill="#081C32"/>
<path opacity="0.5" d="M113.995 286.931C113.673 287.732 113.453 288.429 113.401 288.92C113.401 288.92 113.685 288.068 113.995 286.931Z" fill="#081C32"/>
<path opacity="0.5" d="M124.893 334.162C123.602 336.37 113.014 347.486 113.014 347.486C113.014 347.486 119.599 334.368 122.62 330.275C125.642 326.17 127.824 328.481 127.824 328.481C127.824 328.481 126.83 325.537 124.234 326.454C121.639 327.37 114.628 340.166 114.628 340.166C114.628 340.166 117.107 328.558 120.128 324.026C123.15 319.494 127.088 320.682 127.088 320.682C126.765 319.171 124.802 318.797 124.802 318.797C121.058 318.578 116.449 326.725 116.449 326.725C116.939 321.599 114.512 310.159 114.512 310.159C114.512 310.159 116.617 315.931 118.889 316.796C121.161 317.661 121.316 314.64 121.316 314.64C119.961 316.46 119.108 315.13 119.108 315.13C115.17 313.671 112.42 292.948 112.472 287.332C112.524 281.715 113.763 279.882 114.577 281.444C115.08 282.412 114.499 285.072 113.983 286.957C115.648 282.813 120.18 275.621 120.18 275.621C120.18 275.621 120.451 275.13 121.265 273.516C122.078 271.902 124.557 268.61 124.777 265.911C124.996 263.213 124.506 259.598 117.004 258.462C112.33 257.751 98.5404 274.975 98.5404 274.975L100.697 278.526C106.016 278.177 103.718 280.501 103.718 280.501C103.718 280.501 102.478 284.375 101.665 285.718C100.852 287.061 88.3403 311.399 88.3403 311.399C88.3403 311.399 66.1067 357.712 65.5644 356.46C65.0221 355.208 63.292 347.771 63.292 347.771C60.3223 349.927 56.2939 340.798 56.2939 340.798C53.2339 356.111 42.9692 369.875 42.9692 369.875C47.9014 378.707 67.5786 385.575 67.5786 385.575L92.2783 323.368C92.2783 323.368 77.1719 378.745 80.6709 372.806C84.1828 366.867 94.6541 326.88 94.6541 326.88C94.6541 326.88 85.3578 377.39 85.1124 378.719C85.3319 377.609 95.8419 326.609 95.8419 326.609C95.8419 326.609 87.3203 387.706 88.7148 389.268C90.1092 390.83 91.1421 387.112 91.1421 387.112C91.3358 378.255 98.8116 326.88 98.8116 326.88C100.542 325.963 101.613 324.827 101.613 324.827L91.6844 392.018C93.3113 389.901 102.478 327.202 103.344 326.609C104.209 326.015 104.26 325.369 104.26 325.369C104.48 328.235 93.492 395.285 93.7761 395.362C94.0601 395.453 113.272 367.512 114.835 364.594C116.397 361.676 120.929 350.934 120.4 353.903C119.857 356.873 106.584 388.235 106.584 388.235C110.845 383.6 122.078 355.259 123.318 351.541C124.557 347.822 125.371 343.226 125.526 338.423C125.68 333.619 131.736 332.535 131.736 332.535C130.819 330.366 126.171 331.954 124.88 334.162H124.893ZM110.729 284.285C110.058 285.421 108.095 289.927 108.095 289.927C108.095 289.927 108.508 283.316 108.237 282.503C107.979 281.689 107.062 282.038 107.062 282.038C107.062 282.038 107.475 278.41 109.98 277.467C111.052 277.067 110.703 274.872 109.812 273.71C109.167 272.871 110.019 268.068 110.342 267.073C110.587 266.325 111.684 264.362 112.201 263.458C112.201 263.458 112.394 263.742 112.524 264.44C112.653 265.137 114.163 266.996 114.589 266.97C115.016 266.944 115.661 266.596 115.661 266.596C115.661 266.596 114.047 269.695 113.802 269.746C113.557 269.798 113.402 269.527 113.402 269.527C113.402 270.172 114.189 271.747 113.673 271.412C113.156 271.063 112.188 271.605 112.188 271.605L114.344 273.168C114.964 272.07 114.125 272.032 114.125 272.032C113.802 272.186 114.473 271.257 114.822 271.334C115.17 271.412 115.661 271.502 115.661 271.502C115.661 271.502 115.506 270.43 115.261 270.108C115.016 269.785 114.318 269.811 114.318 269.811C114.318 269.811 115.777 267.035 116.061 266.389C116.358 265.744 117.946 264.401 117.946 264.401C117.946 264.401 115.855 262.916 115.442 262.567C115.041 262.219 112.188 263.471 112.188 263.471C112.356 263.187 112.459 262.993 112.459 262.993C112.459 262.993 113.776 261.237 114.099 260.863C114.422 260.489 118.489 260.101 119.238 260.217C119.999 260.334 120.877 261.444 121.342 261.819C121.807 262.193 122.827 262.348 122.982 263.135C123.124 263.923 123.046 267.603 121.807 268.92C120.58 270.237 119.121 271.515 117.546 273.155C115.971 274.795 113.66 275.079 112.963 277.106C112.265 279.12 112.085 284.297 112.085 284.297C112.085 284.297 111.387 283.161 110.716 284.297L110.729 284.285ZM113.234 264.143C113.234 264.143 114.176 263.549 114.396 263.6C114.615 263.652 115.558 264.414 115.558 264.414V265.602C115.558 265.602 115.106 264.788 114.667 264.607C114.241 264.427 113.247 264.155 113.247 264.155L113.234 264.143Z" fill="#081C32"/>
<path opacity="0.5" d="M113.557 273.93C113.557 273.93 113.802 273.284 113.402 273.31C113.002 273.336 112.653 272.69 112.653 272.69H111.878V273.142C111.878 273.594 112.421 273.361 112.756 273.684C113.105 274.007 113.57 273.93 113.57 273.93H113.557Z" fill="#081C32"/>
<path opacity="0.5" d="M119.431 270.056C120.051 270.004 120.568 269.333 120.568 269.333C120.568 269.333 120.697 269.41 121.058 269.165C121.407 268.92 121.407 268.713 121.433 268.068C121.459 267.422 120.413 266.35 120.413 266.35H119.096C119.096 266.35 119.147 266.725 119.096 266.97C119.044 267.216 118.528 267.59 118.334 267.822C118.14 268.055 117.985 269.01 117.985 269.01C117.985 269.01 118.825 270.108 119.444 270.056H119.431ZM120.077 268.21C120.297 268.532 120.413 269.062 120.077 269.527C120.077 269.527 119.457 269.294 118.889 268.558C118.889 268.558 119.858 267.887 120.077 268.21Z" fill="#081C32"/>
<path opacity="0.5" d="M64.1055 311.244L58.6826 315.866C58.6826 315.866 61.8976 325.898 58.6826 333.981C58.6826 333.981 66.4295 331.244 69.4379 328.507C72.4463 325.769 75.5967 320.282 75.5967 320.282V317.196L72.0331 321.625C68.8827 322.309 70.2772 320.45 70.2772 320.45C70.2772 320.45 68.4696 319.882 68.7407 318.784C69.0118 317.687 70.5225 313.013 70.5225 313.013C70.5225 313.013 68.7407 316.305 67.9144 316.305C67.088 316.305 70.1093 308.765 70.1093 308.765C70.1093 308.765 73.2597 304.246 68.0564 309.307C62.853 314.368 64.0796 311.231 64.0796 311.231L64.1055 311.244Z" fill="#081C32"/>
<g opacity="0.5">
<path d="M119.108 287.551C119.509 291.515 120.012 296.989 120.542 300.876C121.187 305.15 121.613 309.772 123.447 313.658C124.712 314.549 129.618 319.171 126.92 321.87L126.804 321.392C128.379 322.077 129.037 323.923 128.482 325.498C128.753 324.026 128.069 322.386 126.61 321.947L126.21 321.818C128.676 319.249 124.286 315.957 122.427 314.381C120.296 310.172 119.909 305.576 119.405 301.018C119.031 296.55 118.889 292.057 119.096 287.577L119.108 287.551Z" fill="#CBE0CF"/>
</g>
<g opacity="0.5">
<path d="M121.962 252.109C124.984 254.872 127.437 258.436 128.25 262.542C128.082 264.659 127.631 266.725 126.869 268.7C125.281 272.871 126.249 268.016 126.378 266.492C126.585 265.15 126.83 263.82 127.101 262.503V262.671C126.469 258.784 124.403 255.208 121.962 252.109Z" fill="#CBE0CF"/>
</g>
<path d="M289.476 474.988L229.154 463.07L236.63 473.619L279.573 483.148L289.476 474.988Z" fill="#074057"/>
<path d="M212.782 512.405L232.614 515.207L277.753 526.66L313.104 535.724L303.137 548.416L214.008 529.746C214.008 529.746 215.493 518.629 212.782 512.418V512.405Z" fill="#074057"/>
<path d="M350.742 580.384L425.499 591.914H431.297L421.51 600.656L349.373 589.526L343.627 581.404L350.742 580.384Z" fill="#074057"/>
<path d="M365.693 575.827L385.977 548.416L411.71 584.503L407.358 583.548L385.822 553.864L368.779 575.982L365.693 575.827Z" fill="#074057"/>
<path d="M357.998 598.022L410.587 605.73L401.742 709.693H397.559L405.59 607.989L357.998 601.947V598.022Z" fill="#074057"/>
<path d="M225.242 550.391L298.695 563.457L274.899 712.482L268.883 709.797L289.477 566.466L225.242 554.316V550.391Z" fill="#074057"/>
<path d="M38.4509 372.457L124.558 398.848L110.058 410.624L34.8228 389.785L38.4509 372.457Z" fill="#074057"/>
<path d="M13.0664 447.086H22.1303L98.2825 471.36H108.25L104.157 485.691L16.6945 460.488L13.0664 447.086Z" fill="#074057"/>
<path d="M160.826 520.307L0.0258789 473.18V485.691L149.942 531.192L160.826 520.307Z" fill="#074057"/>
<path d="M38.4506 372.457L22.0013 377.764L23.8606 387.486L0.0258789 473.18L12.1627 475.892L22.1304 447.086L34.8224 389.785L38.4506 372.457Z" fill="#074057"/>
<path d="M387.41 708.932L386.467 676.485L386.674 677.053L369.992 654.122L369.812 653.864L369.979 653.619L388.701 625.962L370.715 654.096L370.702 653.593L388.249 675.852L388.43 676.085L388.443 676.407L389.992 708.841L387.41 708.932Z" fill="#074057"/>
<path d="M581.741 684.929L568.882 685.484L568.275 685.51L567.939 685.136L555.983 671.746L569.669 683.354L568.714 683.005L581.522 681.792L581.741 684.929Z" fill="#074057"/>
<path d="M580.464 709.125L588.585 693.283L588.675 694.316L564.014 660.823L563.821 660.578L563.989 660.32L582.71 632.663L564.725 660.797L564.712 660.294L590.251 693.115L590.625 693.58L590.354 694.148L582.788 710.262L580.464 709.125Z" fill="#074057"/>
<path d="M660.192 651.669L702.981 625.756L702.71 627.189L678.036 593.709L677.855 593.451L678.023 593.206L696.744 565.549L678.759 593.683L678.746 593.18L704.285 626.001L704.956 626.853L704.014 627.434L661.548 653.877L660.192 651.669Z" fill="#074057"/>
<path d="M693.065 614.174L714.421 611.682L713.568 612.728L712.523 588.958L712.51 588.738L712.677 588.596L735.066 570.171L713.246 589.268L713.401 588.906L715.544 612.599L715.621 613.515L714.679 613.645L693.401 616.73L693.065 614.174Z" fill="#074057"/>
<path d="M939.985 530.481C931.721 532.676 923.058 534.484 914.91 537.144C913.309 537.764 911.411 538.19 910.236 539.468C909.785 541.637 910.843 544.064 911.476 546.182C912.948 550.249 914.872 554.174 916.963 557.97L916.511 557.738C926.97 555.982 937.454 554.381 947.977 553.077L947.241 554.277C945.033 547.551 941.986 537.415 939.985 530.481ZM940.075 530.339C943.251 538.28 946.453 546.556 949.32 554.729L948.222 554.897C937.622 556.408 926.97 557.609 916.305 558.654C914.42 554.6 912.573 550.559 910.908 546.401C910.12 544.297 909.216 542.308 909.062 539.984C909.062 539.636 909.087 539.261 909.255 538.939C910.43 537.195 912.573 536.537 914.394 535.736C922.748 532.793 931.269 531.334 940.062 530.327L940.075 530.339Z" fill="#074057"/>
<path d="M935.711 557.531C937.957 562.58 941.185 569.887 943.251 574.884L942.554 574.445C953.541 573.206 964.619 573.516 975.62 572.366L975.336 572.818C972.56 566.311 968.764 557.17 966.182 550.688L967.163 551.204C956.976 553.8 946.13 555.672 935.723 557.518L935.711 557.531ZM935.556 557.441C946.001 554.484 956.86 551.514 967.499 549.397C970.107 556.137 973.477 565.665 975.956 572.573L976.111 572.999L975.672 573.025C964.452 573.516 953.374 575.491 942.141 575.853C940.023 570.43 937.518 562.967 935.556 557.441Z" fill="#074057"/>
<path d="M539.418 711.875C539.418 711.875 530.302 711.54 530.909 712.689C531.516 713.838 535.208 714.638 547.1 714.948C547.1 714.948 543.162 716.382 544.724 717.143C546.287 717.905 556.835 717.711 566.467 716.679C576.099 715.646 586.855 715.207 588.391 714.716C589.927 714.225 596.332 713.296 596.332 713.296C596.332 713.296 623.756 714.187 633.594 710.713C643.433 707.24 643.639 704.58 642.813 704.58C641.987 704.58 539.418 711.863 539.418 711.863V711.875Z" fill="#074057"/>
<path d="M634.304 703.625C634.304 703.625 634.614 700.113 632.316 698.589C630.018 697.066 633.233 689.577 631.244 687.899C629.256 686.22 625.137 683.47 621.315 684.542C617.493 685.613 603.136 686.53 600.089 685.768C597.042 685.007 585.576 685.007 582.671 686.375C579.766 687.744 562.051 692.637 562.051 692.637C562.051 692.637 560.98 689.577 559.908 689.732C558.836 689.887 554.873 692.018 553.646 691.411C552.419 690.804 549.979 689.887 548.146 690.042C546.312 690.197 544.479 691.566 544.479 691.566C544.479 691.566 541.884 690.959 541.574 691.566C541.264 692.172 539.74 697.828 539.74 699.054C539.74 700.281 533.323 699.971 533.323 702.566C533.323 705.161 536.228 712.65 537.145 712.947C538.062 713.244 547.384 712.947 547.384 712.947C547.384 712.947 548.753 715.542 550.289 715.852C551.825 716.162 579.921 713.102 582.671 713.257C585.421 713.412 585.421 711.888 585.421 711.888L595.802 711.733C595.802 711.733 637.042 710.016 634.291 703.638L634.304 703.625Z" fill="#072B47"/>
<path d="M581.496 700.061C584.75 702.385 588.133 708.299 585.357 711.863C584.995 709.681 584.969 707.757 584.492 705.652C583.949 703.651 582.865 701.753 581.406 700.165L581.496 700.049V700.061Z" fill="#1E5B72"/>
<path d="M595.815 711.72C598.513 708.97 602.581 708.209 606.183 707.305C609.914 706.504 613.684 705.988 617.48 705.665L617.416 706.311C615.118 705.523 607.203 703.405 608.132 700.113C609.643 697.324 611.644 694.884 613.684 692.469C614.679 691.411 615.466 690.3 616.77 689.551C619.52 689.216 622.387 689.603 625.137 689.706C622.438 689.706 619.533 689.539 616.886 689.913C613.775 692.469 611.451 696.149 609.204 699.48C608.92 700.01 608.468 700.5 608.752 701.094C610.637 703.664 614.627 704.58 617.571 705.652L619.223 706.169C614.885 706.466 610.534 706.969 606.26 707.744C602.658 708.583 598.617 709.099 595.789 711.695L595.815 711.72Z" fill="#1E5B72"/>
<path d="M539.753 699.041C539.753 697.815 541.277 692.172 541.587 691.553C541.897 690.946 544.492 691.553 544.492 691.553C544.492 691.553 546.325 690.184 548.159 690.029C549.992 689.874 552.432 690.791 553.659 691.398C554.886 692.005 558.849 689.874 559.921 689.719C560.993 689.564 562.064 692.624 562.064 692.624C562.064 692.624 579.779 687.731 582.684 686.362C585.589 684.994 597.042 684.994 600.102 685.755C603.162 686.517 617.519 685.6 621.328 684.529C625.15 683.457 629.269 686.207 631.257 687.886C631.67 688.234 631.851 688.841 631.916 689.577C631.851 689.551 627.293 687.925 627.745 689.577C628.21 691.243 619.65 689.409 618.578 691.088C617.506 692.766 610.934 696.123 609.721 698.112C608.494 700.1 609.566 693.838 610.483 692.611C611.399 691.385 600.863 694.29 597.649 692.611C594.446 690.933 579.017 694.755 576.719 696.123L564.634 697.13C564.634 697.13 561.445 694.29 559.921 694.29C558.397 694.29 555.105 698.499 555.105 698.499C555.105 698.499 553.052 695.517 550.909 694.91C548.765 694.303 540.98 696.898 540.98 698.499C540.98 700.1 544.957 699.183 546.635 702.088C546.635 702.088 538.54 703.922 538.849 705.988C538.849 705.988 535.893 705.265 533.569 704.219C533.427 703.56 533.349 702.979 533.349 702.553C533.349 699.958 539.766 700.268 539.766 699.041H539.753Z" fill="#2E7D96"/>
<path d="M540.463 701.908C540.463 701.908 535.763 700.191 534.278 701.908C532.794 703.625 533.504 704.658 533.504 704.658L537.326 706.349L538.191 706.737C538.191 706.737 541.225 704.374 540.463 701.921V701.908Z" fill="#072B47"/>
<path d="M550.147 699.429C550.147 699.429 549.631 700.242 548.611 700.023C547.591 699.803 546.351 699.429 546.351 699.429C546.351 699.429 546.687 701.133 547.888 701.133C549.088 701.133 550.147 699.429 550.147 699.429Z" fill="#1E5B72"/>
<path d="M574.537 706.298C574.537 706.298 568.817 709.022 565.964 709.022C563.11 709.022 555.725 708.26 554.446 709.706V708.764C554.446 708.764 548.778 709.061 548.985 710.042C548.985 710.042 547.836 709.099 548.236 708.415C548.636 707.731 556.099 706.582 560.153 706.84C564.208 707.098 573.969 707.008 574.524 706.285L574.537 706.298Z" fill="#2E7D96"/>
<path d="M544.724 709.797C544.724 709.797 542.787 709.835 541.587 709.797C540.386 709.758 538.191 706.724 538.191 706.724C538.191 706.724 537.08 711.501 537.119 711.617C537.158 711.733 537.649 709.758 538.785 709.719C539.921 709.681 541.29 710.855 541.922 710.817C542.555 710.778 544.724 709.797 544.724 709.797Z" fill="#1E5B72"/>
<path d="M561.135 692.624C562.478 694.006 563.73 695.465 564.686 697.208C564.97 697.763 565.344 698.499 565.202 699.235C564.918 700.836 563.73 702.14 562 701.985C560.838 701.843 559.599 702.282 558.346 702.05C555.247 701.34 554.808 697.815 554.873 695.168C555.428 697.557 556.061 701.159 559.134 701.081C559.986 701.004 561.045 700.81 562.039 700.888C562.904 700.939 563.511 700.642 563.885 699.894C564.04 699.571 564.234 699.171 564.26 698.796C563.782 696.601 562.258 694.639 561.122 692.637L561.135 692.624Z" fill="#1E5B72"/>
<path d="M630.779 712.715C630.779 712.715 604.169 711.656 604.104 713.128C604.04 714.6 630.172 715.426 630.172 715.426C630.172 715.426 629.036 715.504 627.81 716.549C626.583 717.595 626.17 718.564 632.987 718.499C639.804 718.435 665.834 718.925 670.159 718.435C674.485 717.944 692.522 712.405 696.06 712.702C699.598 712.999 721.831 712.702 721.831 712.702C721.831 712.702 718.358 714.045 719.636 715.93C720.915 717.815 729.63 717.879 737.79 716.601C745.95 715.323 749.062 711.966 753.516 711.359C757.971 710.752 770.392 710.145 769.243 708.919C768.093 707.692 763.871 706.724 763.871 706.724L642.697 708.312L630.792 712.715H630.779Z" fill="#074057"/>
<path d="M607.875 711.863C607.875 711.863 604.647 706.866 605.228 703.922C605.809 700.978 616.977 702.45 616.977 702.45C616.977 702.45 624.621 697.75 626.674 696.575C626.674 696.575 623.149 688.932 623.149 683.651C623.149 683.651 632.845 684.245 633.142 693.644C633.142 693.644 638.139 695.994 638.139 687.176C638.139 678.357 634.614 681.882 636.37 680.126L638.139 678.357C638.139 678.357 637.261 674.238 638.139 673.657C639.017 673.076 642.839 666.905 652.832 690.998C652.832 690.998 666.648 687.77 675.75 688.054C684.853 688.338 715.712 677.479 724.233 677.763C732.755 678.047 769.785 688.673 763.019 708.635C763.019 708.635 746.557 708.906 743.626 711.85C740.695 714.793 723.355 717.427 723.058 714.793C722.761 712.16 722.464 708.648 722.464 708.648H694.55C694.55 708.648 676.035 717.143 663.691 717.143H630.483C630.483 717.143 629.308 713.916 631.361 712.741L607.849 711.863H607.875Z" fill="#5CC0B7"/>
<path d="M738.862 691.63C733.956 693.192 722.697 699.17 722.697 699.17C724.969 691.152 740.902 687.912 740.902 687.912C740.902 687.912 734.55 686.349 731.438 686.001C728.326 685.639 697.778 693.67 694.434 694.832C691.077 696.007 664.608 698.086 664.608 698.086C664.608 698.086 656.099 693.296 654.782 693.412C653.465 693.528 649.747 696.407 649.747 696.407C650.341 685.394 641.961 675.568 640.644 674.729C639.327 673.89 638.139 673.644 638.372 674.729C638.604 675.814 639.108 679.403 639.108 679.403L636.383 680.113L638.256 680.72C640.166 686.466 638.372 691.617 637.662 693.412C636.939 695.207 621.496 702.153 621.496 702.153L624.247 704.903C624.247 704.903 617.778 704.787 615.028 704.903C612.278 705.019 606.881 707.537 606.881 707.537C606.881 707.537 606.132 706.608 605.383 706.272C606.015 708.945 607.888 711.837 607.888 711.837L631.4 712.715C629.347 713.89 630.522 717.118 630.522 717.118H663.73C676.073 717.118 694.589 708.609 694.589 708.609H722.503C722.503 708.609 722.8 712.121 723.097 714.755C723.394 717.402 740.734 714.755 743.665 711.811C746.609 708.867 763.058 708.596 763.058 708.596L761.277 699.48C758.397 690.623 743.794 690.016 738.875 691.579L738.862 691.63Z" fill="#1E5B72"/>
<path d="M608.159 708.919C608.159 708.919 605.163 706.401 605.163 705.2C605.163 703.999 608.882 702.205 610.069 702.566C611.257 702.928 613.891 703.47 613.891 703.47C613.891 703.47 608.404 706.866 608.159 708.919Z" fill="#04253F"/>
<path d="M748.442 711.307C748.442 711.307 737.648 718.796 748.442 719.041C759.236 719.287 789.449 714.006 795.104 719.041C800.759 724.077 841.482 726.014 854.265 722.657C867.047 719.3 872.728 718.693 872.728 718.693C872.728 718.693 883.69 729.616 908.506 727.253C933.322 724.89 996.317 717.776 999.158 708.906L748.442 711.307Z" fill="#074057"/>
<path d="M783.341 696.562C783.341 696.562 782.412 700.074 772.793 699.713C763.174 699.351 762.438 702.489 762.438 702.489C762.438 702.489 752.083 702.489 754.859 709.887L790.017 712.069C790.017 712.069 791.876 700.926 790.017 697.079C788.157 693.231 783.341 696.562 783.341 696.562Z" fill="#438E91"/>
<path d="M772.806 699.713C763.187 699.338 762.451 702.489 762.451 702.489C762.451 702.489 755.272 702.502 754.484 706.801C754.756 706.646 759.133 704.167 761.909 704.89C764.775 705.639 763.342 706.814 763.342 706.814C763.342 706.814 767.796 704.374 771.928 703.651C776.06 702.941 787.577 701.417 790.017 697.079C789.384 695.775 788.416 695.31 787.396 695.245C785.472 695.672 783.342 696.562 783.342 696.562C783.342 696.562 782.412 700.074 772.793 699.713H772.806Z" fill="#5CC0B7"/>
<path d="M993.283 694.161C1013.81 662.347 974.6 637.75 965.356 635.336C956.111 632.922 955.556 638.112 955.556 638.112C955.556 638.112 912.276 618.319 881.754 626.453C866.996 630.391 850.972 635.969 838.358 640.681C837.325 630.365 828.868 618.448 825.007 615.168C820.424 611.282 823.858 617.57 824.969 603.509C825.653 594.845 816.641 618.68 815.724 625.885C814.807 633.089 807.771 651.592 807.771 651.592C798.526 650.481 795.375 656.769 789.088 658.745C782.8 660.72 782.619 663.806 782.619 663.806C769.113 654.006 755.608 663.625 755.608 663.625L758.565 663.444C742.283 669.913 746.906 683.974 746.906 683.974C747.835 679.907 752.819 681.378 752.819 681.378C764.285 689.706 772.057 685.626 777.971 688.777C783.884 691.927 784.995 704.309 784.995 704.309L785.924 700.604C785.924 700.604 790.366 704.116 788.7 707.628C787.035 711.14 779.262 712.25 779.262 712.25L797.39 711.875C797.39 711.875 816.073 717.053 824.026 715.581C826.35 715.155 827.938 714.161 829.062 712.986C829.139 713.205 829.191 713.347 829.191 713.347L904.671 712.03L907.202 713.761L914.291 712.03C914.665 714.587 917.441 713.541 917.441 713.541C917.441 713.541 964.426 710.029 972.56 709.099C980.695 708.17 975.155 703.548 974.962 701.146C974.781 698.744 993.27 694.122 993.27 694.122L993.283 694.161Z" fill="#072B47"/>
<path d="M800.179 672.702C800.179 672.702 803.135 667.15 808.868 668.454C814.601 669.745 811.27 676.588 816.447 679.003C821.625 681.404 834.394 687.692 835.311 693.98C836.24 700.268 831.605 706.194 831.605 706.194C831.605 706.194 831.696 713.709 826.647 714.793C821.599 715.878 818.836 712.302 818.836 712.302C818.836 712.302 816.06 715.232 813.477 715.891C810.895 716.549 798.5 713.593 797.39 711.927C796.279 710.261 789.811 699.351 805.162 684.735C805.162 684.735 808.674 681.779 806.092 678.267C803.497 674.755 801.095 677.337 800.179 672.715V672.702Z" fill="#438E91"/>
<path d="M793.245 684.077C794.897 685.368 795.827 685.342 797.583 684.787C799.094 684.322 800.424 683.677 802.309 682.411C802.619 684.8 800.669 686.943 798.474 687.589C796.137 688.544 792.651 686.93 793.245 684.064V684.077Z" fill="#074057"/>
<path d="M820.617 678.344C822.296 678.512 824.103 679.145 825.433 678.706C826.931 678.112 828.39 676.976 830.056 676.123C829.978 681.882 822.877 684.012 820.617 678.344Z" fill="#074057"/>
<path d="M964.426 651.062C964.426 651.062 941.676 640.333 932.431 642.373L935.762 643.483C935.762 643.483 907.835 648.841 903.574 663.457C903.574 663.457 902.283 671.411 909.126 676.214C909.126 676.214 901.728 659.016 920.23 652.728L916.524 652.173C916.524 652.173 927.693 644.774 943.535 646.814C959.378 648.854 964.439 651.062 964.439 651.062H964.426Z" fill="#074057"/>
<path d="M933.954 686.478C933.954 686.478 894.148 690.649 884.335 665.678C884.335 665.678 882.489 668.454 883.225 671.785C883.225 671.785 877.312 666.052 878.047 653.283C878.047 653.283 864.361 661.611 872.496 681.585C872.496 681.585 871.011 683.406 867.873 680.281C867.873 680.281 866.944 690.391 886.556 697.092C886.556 697.092 898.77 701.946 909.306 702.127C909.306 702.127 899.868 699.274 898.202 697.092C898.202 697.092 907.266 700.281 914.29 699.351C914.29 699.351 905.962 696.201 904.297 693.993C904.297 693.993 922.05 697.789 928.338 695.245C928.338 695.245 916.124 692.172 913.361 689.293C913.361 689.293 930.275 690.081 933.942 686.491L933.954 686.478Z" fill="#438E91"/>
<path d="M764.129 664.916C778.125 663.005 787.189 670.326 787.189 670.326C787.189 670.326 790.211 665.717 797.764 665.239C797.764 665.239 811.05 657.131 817.893 658.086C817.893 658.086 815.349 647.912 819.003 631.527C822.657 615.142 822.838 613.67 822.838 613.67C822.076 613.206 824.142 613.838 824.955 603.535C825.64 594.871 816.628 618.706 815.711 625.911C814.794 633.115 807.757 651.617 807.757 651.617C798.513 650.507 795.362 656.795 789.074 658.77C782.786 660.746 782.606 663.832 782.606 663.832C769.1 654.032 755.595 663.651 755.595 663.651L758.552 663.47C742.27 669.939 746.892 683.999 746.892 683.999C746.892 683.999 750.12 666.84 764.116 664.929L764.129 664.916Z" fill="#074057"/>
<path d="M994.032 658.77C993.271 657.531 992.457 656.317 991.579 655.155C991.386 654.961 991.192 654.768 990.985 654.587C993.193 658.603 994.523 660.668 994.032 658.783V658.77Z" fill="#074057"/>
<path d="M842.037 660.939C842.037 660.939 848.429 650.288 852.56 649.332C856.692 648.377 893.903 629.707 937.17 642.231L961.985 645.2C961.985 645.2 958.964 640.591 961.985 639.481C964.477 638.564 983.393 647.447 990.972 654.587C990.843 654.355 990.726 654.135 990.597 653.903C982.205 643.38 969.991 636.575 965.342 635.362C956.098 632.96 955.543 638.138 955.543 638.138C955.543 638.138 912.263 618.344 881.74 626.479C866.982 630.417 850.959 635.994 838.345 640.707C838.345 640.707 842.657 651.889 842.037 660.965V660.939Z" fill="#074057"/>
<path d="M979.339 663.328C979.339 663.328 990.972 680.281 933.955 686.466L921.095 689.267C921.095 689.267 952.457 699.106 971.863 685.755C991.269 672.392 979.339 663.328 979.339 663.328Z" fill="#074057"/>
<path d="M816.447 679.003C815.879 678.744 815.427 678.409 815.039 678.06H815.026C815.026 678.06 811.23 678.628 807.021 681.301C806.828 683.328 805.162 684.735 805.162 684.735C799.907 689.732 797.209 694.303 795.982 698.215C798.035 697.389 801.03 696.588 804.297 697.092C810.249 698.008 824.4 690.843 824.4 690.843C824.4 690.843 831.902 689.487 835.31 693.993C834.381 687.705 821.624 681.417 816.447 679.016V679.003Z" fill="#5CC0B7"/>
<path d="M884.335 665.678C884.335 665.678 882.489 668.454 883.225 671.785C883.225 671.785 894.29 685.859 922.063 689.229C926.814 688.983 932.082 688.299 933.942 686.466C933.942 686.466 894.135 690.636 884.322 665.665L884.335 665.678Z" fill="#5CC0B7"/>
<path d="M805.356 694.716C805.356 694.716 809.061 691.759 812.38 689.913C814.381 688.803 818.293 689.358 821.121 689.978C823.006 690.391 824.4 690.843 824.4 690.843C824.4 690.843 824.775 696.575 823.471 698.241C822.167 699.906 816.808 702.489 817.738 704.903C817.738 704.903 816.072 702.682 811.631 702.682C807.189 702.682 802.012 698.615 805.343 694.729L805.356 694.716Z" fill="#072B47"/>
<path d="M421.148 708.596C421.148 708.596 410.535 708.596 414.202 711.669C417.868 714.742 430.896 713.464 433.556 714.845C436.216 716.227 445.447 718.731 453.943 717.143C462.439 715.555 452.2 713.915 452.2 713.915C452.2 713.915 467.061 714.535 472.691 715.568C478.333 716.588 484.686 719.868 489.902 719.971C495.118 720.074 513.879 718.538 513.879 718.538C513.879 718.538 515.105 716.278 513.465 715.568C511.826 714.858 529.385 715.362 531.374 714.29C533.362 713.218 523.304 712.908 523.304 712.908L421.122 708.596H421.148Z" fill="#074057"/>
<path d="M524.969 713.606C524.969 713.606 527.138 710.261 526.738 708.299C526.338 706.336 518.875 707.318 518.875 707.318C518.875 707.318 513.762 704.167 512.38 703.38C512.38 703.38 514.743 698.267 514.743 694.729C514.743 694.729 508.249 695.116 508.055 701.417C508.055 701.417 504.711 702.992 504.711 697.092C504.711 691.191 507.074 693.554 505.886 692.379L504.711 691.204C504.711 691.204 505.305 688.454 504.711 688.054C504.117 687.653 501.561 683.535 494.885 699.661C494.885 699.661 485.641 697.492 479.546 697.699C473.452 697.905 452.807 690.623 447.1 690.817C441.393 691.01 416.616 698.125 421.148 711.475C421.148 711.475 432.161 711.656 434.124 713.618C436.086 715.581 447.694 717.35 447.887 715.581C448.081 713.812 448.275 711.462 448.275 711.462H466.958C466.958 711.462 479.34 717.156 487.603 717.156C495.867 717.156 509.824 717.156 509.824 717.156C509.824 717.156 510.611 714.987 509.23 714.212L524.956 713.618L524.969 713.606Z" fill="#5CC0B7"/>
<path d="M525.64 710.726C525.64 710.726 527.642 709.048 527.642 708.247C527.642 707.447 525.163 706.246 524.362 706.478C523.562 706.711 521.806 707.085 521.806 707.085C521.806 707.085 525.472 709.358 525.64 710.726Z" fill="#04253F"/>
<path d="M437.339 700.074C440.618 701.12 448.158 705.123 448.158 705.123C446.635 699.752 435.983 697.595 435.983 697.595C435.983 697.595 440.231 696.549 442.309 696.317C444.388 696.072 464.827 701.443 467.074 702.231C469.32 703.018 487.022 704.413 487.022 704.413C487.022 704.413 492.716 701.211 493.594 701.288C494.472 701.365 496.964 703.289 496.964 703.289C496.564 695.917 502.167 689.345 503.058 688.79C503.936 688.234 504.737 688.067 504.582 688.79C504.427 689.513 504.091 691.914 504.091 691.914L505.912 692.392L504.659 692.792C503.381 696.64 504.582 700.087 505.06 701.288C505.537 702.489 515.879 707.137 515.879 707.137L514.033 708.983C514.033 708.983 518.358 708.906 520.205 708.983C522.051 709.061 525.653 710.752 525.653 710.752C525.653 710.752 526.157 710.132 526.66 709.913C526.234 711.708 524.982 713.631 524.982 713.631L509.256 714.225C510.637 715.013 509.85 717.169 509.85 717.169C509.85 717.169 495.892 717.169 487.629 717.169C479.366 717.169 466.983 711.475 466.983 711.475H448.3C448.3 711.475 448.107 713.825 447.913 715.594C447.719 717.363 436.112 715.594 434.149 713.631C432.187 711.669 421.173 711.488 421.173 711.488L422.374 705.394C424.298 699.467 434.072 699.067 437.364 700.1L437.339 700.074Z" fill="#1E5B72"/>
<path d="M450.199 716.756C450.199 716.756 462.981 719.145 463.795 721.094C464.608 723.044 433.84 721.753 433.84 721.753C433.84 721.753 446.648 725.768 424.867 726.465C403.085 727.163 343.924 719.622 343.924 719.622C343.924 719.622 348.74 725.923 344.712 727.24C340.683 728.557 337.197 731.243 332.653 730.249C328.108 729.254 314.305 719.3 307.669 719.997C301.032 720.694 269.748 722.811 269.748 709.874L450.186 716.743L450.199 716.756Z" fill="#074057"/>
<path d="M271.981 702.243C271.981 702.243 271.426 695.865 275.583 693.089C279.741 690.313 273.918 676.717 277.52 673.67C281.123 670.623 288.624 665.626 295.558 667.563C302.491 669.5 328.585 671.165 334.124 669.784C339.676 668.402 360.49 668.402 365.758 670.894C371.025 673.386 403.214 682.269 403.214 682.269C403.214 682.269 405.151 676.717 407.1 677.001C409.05 677.285 416.255 681.159 418.475 680.049C420.696 678.938 425.138 677.273 428.469 677.557C431.8 677.841 435.131 680.333 435.131 680.333C435.131 680.333 439.844 679.222 440.399 680.333C440.954 681.443 443.73 691.708 443.73 693.928C443.73 696.149 455.389 695.594 455.389 700.307C455.389 705.019 450.121 718.615 448.456 719.17C446.79 719.726 429.863 719.17 429.863 719.17C429.863 719.17 427.371 723.883 424.595 724.438C421.819 724.994 370.767 719.442 365.77 719.726C360.774 719.997 360.774 717.234 360.774 717.234L341.91 716.963C341.91 716.963 345.241 718.899 343.576 722.515C341.91 726.13 337.197 727.511 333.582 727.227C329.98 726.956 315.545 716.679 307.217 717.789C298.889 718.899 266.984 713.838 271.968 702.243H271.981Z" fill="#5CC0B7"/>
<path d="M368.082 695.956C365.474 698.783 363.485 702.231 362.478 705.91C361.807 708.686 361.703 711.424 361.29 714.225C361.161 715.181 361.148 716.149 360.916 717.195L360.658 717.247C357.262 711.617 359.947 704.735 363.601 699.945C364.867 698.37 366.287 696.911 367.927 695.762L368.095 695.968L368.082 695.956Z" fill="#1E5B72"/>
<path d="M341.91 716.95C334.344 709.577 309.98 707.834 299.212 706.905C304.944 705.2 310.974 703.393 316.009 700.139C318.282 698.447 319.444 697.298 317.572 694.755C313.672 688.79 309.489 682.76 304.312 677.841L303.963 677.57L303.627 677.389C301.252 676.911 298.643 677.053 296.203 676.976L288.65 677.001C293.737 676.782 298.76 676.098 303.847 676.717C304.479 676.963 305.022 677.44 305.512 677.879C310.535 682.721 314.796 688.299 318.592 694.148C319.354 695.297 320.206 696.795 319.508 698.176C317.468 701.74 313.388 703.096 309.915 704.671C307.552 705.613 305.151 706.427 302.698 707.137L302.581 705.962C313.117 707.072 334.692 709.19 341.949 716.963L341.91 716.95Z" fill="#1E5B72"/>
<path d="M443.756 693.916C443.756 691.695 440.98 681.43 440.425 680.32C439.87 679.209 435.157 680.32 435.157 680.32C435.157 680.32 431.826 677.828 428.495 677.544C425.164 677.26 420.722 678.925 418.501 680.036C416.281 681.146 409.063 677.26 407.126 676.988C405.19 676.717 403.24 682.256 403.24 682.256C403.24 682.256 371.051 673.373 365.784 670.881C360.516 668.389 339.702 668.389 334.15 669.771C328.598 671.152 302.517 669.5 295.584 667.55C288.65 665.601 281.149 670.597 277.546 673.657C276.797 674.29 276.475 675.387 276.358 676.743C276.475 676.704 284.751 673.748 283.925 676.743C283.085 679.764 298.631 676.433 300.58 679.493C302.53 682.553 314.46 688.648 316.681 692.263C318.902 695.865 316.952 684.49 315.3 682.269C313.647 680.049 332.782 685.316 338.605 682.269C344.428 679.222 372.459 686.156 376.616 688.648L398.579 690.481C398.579 690.481 404.363 685.329 407.139 685.329C409.915 685.329 415.893 692.973 415.893 692.973C415.893 692.973 419.638 687.55 423.511 686.44C427.397 685.329 441.548 690.068 441.548 692.973C441.548 695.878 434.331 694.212 431.284 699.493C431.284 699.493 445.99 702.824 445.435 706.569C445.435 706.569 450.806 705.252 455.015 703.354C455.273 702.166 455.428 701.107 455.428 700.32C455.428 695.607 443.769 696.162 443.769 693.941L443.756 693.916Z" fill="#97D5D1"/>
<path d="M442.478 699.119C442.478 699.119 451.025 695.994 453.698 699.106C456.371 702.218 455.105 704.103 455.105 704.103L448.159 707.176L446.597 707.873C446.597 707.873 441.084 703.573 442.478 699.132V699.119Z" fill="#072B47"/>
<path d="M424.879 694.626C424.879 694.626 425.809 696.098 427.668 695.71C429.528 695.323 431.774 694.626 431.774 694.626C431.774 694.626 431.154 697.724 428.985 697.724C426.816 697.724 424.879 694.626 424.879 694.626Z" fill="#1E5B72"/>
<path d="M380.567 707.098C380.567 707.098 390.948 712.056 396.139 712.056C401.329 712.056 414.731 710.662 417.055 713.296V711.591C417.055 711.591 427.359 712.134 426.971 713.916C426.971 713.916 429.063 712.211 428.327 710.972C427.591 709.732 414.034 707.641 406.674 708.105C399.315 708.57 381.574 708.415 380.567 707.098Z" fill="#97D5D1"/>
<path d="M298.372 707.64C298.372 707.64 322.852 710.662 325.486 712.056C328.12 713.451 335.945 716.627 336.487 717.711C337.029 718.796 336.874 722.127 338.191 722.36C338.191 722.36 343.485 723.793 343.937 719.635C344.389 715.478 327.772 707.098 298.372 707.64Z" fill="#97D5D1"/>
<path d="M434.73 713.451C434.73 713.451 438.242 713.515 440.437 713.451C442.632 713.386 446.596 707.86 446.596 707.86C446.596 707.86 448.623 716.549 448.559 716.756C448.494 716.963 447.59 713.386 445.537 713.322C443.484 713.257 440.993 715.387 439.83 715.323C438.668 715.258 434.743 713.464 434.743 713.464L434.73 713.451Z" fill="#1E5B72"/>
<path d="M403.24 682.256C400.942 687.408 398.049 692.379 396.9 697.802C396.719 698.757 397.081 699.713 397.378 700.617C398.075 702.812 399.237 704.283 401.652 703.987C404.04 703.677 406.7 704.877 408.882 704.348C410.199 703.754 411.594 702.992 412.407 701.662C414.692 697.957 415.351 693.193 416.28 688.906C416.28 694.626 416.552 702.902 410.664 706.039C409.876 706.582 408.598 707.008 407.694 706.956C405.732 706.917 404.35 706.478 402.581 706.517C401.29 706.582 399.973 706.685 398.708 706.13C395.751 704.8 394.744 701.353 394.55 698.447C394.654 696.859 395.248 695.323 395.854 693.967C397.817 689.693 400.373 685.859 403.24 682.244V682.256Z" fill="#1E5B72"/>
<path d="M331.555 737.66C331.245 733.773 344.118 734.871 343.356 737.66C342.594 740.449 330.509 737.557 328.108 741.081C325.706 744.606 332.175 750.171 320.567 750.391C308.96 750.623 276.345 746.052 276.345 746.052C276.345 746.052 248.715 758.744 227.527 754.677C206.339 750.61 182.543 735.142 174.757 739.997C174.757 739.997 198.295 755.039 166.042 757.247C133.789 759.454 29.748 770.959 26.249 747.963V722.592L326.687 733.167L331.542 737.66H331.555Z" fill="#074057"/>
<path d="M31.0263 724.593C31.0263 724.593 18.967 672.663 78.6053 669.655C138.244 666.633 152.653 669.655 159.677 667.641L150.961 665.626C150.961 665.626 165.371 665.291 179.444 666.969C193.518 668.648 224.338 674.677 227.359 674.006C230.38 673.335 246.119 666.298 250.135 660.268C254.15 654.238 262.866 655.581 262.866 655.581C262.866 655.581 287.991 657.26 289.67 667.976C289.67 667.976 293.35 672.327 299.715 676.02C306.081 679.7 305.073 690.029 305.073 690.029C305.073 690.029 310.432 691.437 309.76 695.116C309.089 698.796 303.395 716.227 306.739 717.892C310.083 719.558 312.097 724.593 312.097 724.593C312.097 724.593 331.865 720.242 331.529 737.66L323.821 739.003C323.821 739.003 322.142 742.024 319.47 742.024C316.797 742.024 268.882 741.352 262.853 742.024C256.823 742.695 248.443 748.389 227.346 746.375C206.236 744.361 189.489 738.331 174.744 740.01C160 741.688 157.327 746.801 157.327 746.801C157.327 746.801 168.379 752.069 141.239 754.419C114.099 756.769 72.227 743.031 67.1915 741.688C62.1689 740.345 34.0218 733.644 31.0134 724.606L31.0263 724.593Z" fill="#072B47"/>
<path d="M266.558 705.058C266.558 705.058 266.222 698.46 257.507 700.797C248.792 703.134 237.068 701.469 234.731 706.491C232.394 711.514 223.343 721.236 219.651 721.572C219.651 721.572 224.673 724.916 227.694 721.572C227.694 721.572 218.308 728.609 219.651 732.96C219.651 732.96 223.666 727.266 226.687 729.28C226.687 729.28 224.002 732.301 225.68 739.325L228.701 735.31C228.701 735.31 231.051 748.376 236.074 750.391C236.074 750.391 234.06 745.032 235.403 742.347C235.403 742.347 241.665 748.751 256.242 747.782C256.242 747.782 259.689 747.201 262 745.859C262 745.859 255.093 746.052 254.525 745.097C254.525 745.097 258.217 744.477 262.891 742.011L262.581 743.948C262.581 743.948 269.683 738.77 271.981 734.174C274.279 729.577 271.219 720.178 271.981 713.657C271.981 713.657 270.444 717.105 268.908 717.492C267.372 717.879 266.571 705.071 266.571 705.071L266.558 705.058Z" fill="#5CC0B7"/>
<path d="M244.338 726.504C244.338 726.504 242.608 717.879 244.338 714.806C246.068 711.733 251.246 711.927 251.246 711.927L259.677 715.568C259.677 715.568 263.899 720.939 263.705 727.653C263.512 734.367 258.915 734.561 258.915 734.561C258.915 734.561 249.709 731.114 247.605 731.114C245.5 731.114 239.935 738.977 241.846 740.707C241.846 740.707 237.818 743.78 238.592 740.707C239.367 737.634 244.725 730.352 244.725 730.352C244.725 730.352 235.158 737.931 230.923 733.606V729.19C230.923 729.19 232.266 732.263 233.996 732.637C235.726 733.012 244.351 726.504 244.351 726.504H244.338Z" fill="#0C121D"/>
<path d="M252.394 687.576C252.394 687.576 249.515 693.515 252.394 695.439C255.274 697.363 261.019 696.976 261.019 696.976L254.886 693.335L252.394 687.576Z" fill="#0C121D"/>
<path d="M274.254 707.524C274.254 707.524 272.717 713.464 276.358 715.387C279.999 717.311 283.266 715.387 283.266 715.387C283.266 715.387 278.85 715.581 277.507 713.464C276.164 711.346 274.254 707.524 274.254 707.524Z" fill="#0C121D"/>
<path d="M303.215 692.289C306.662 691.63 309.051 698.099 309.051 698.099C309.399 696.795 309.657 695.736 309.774 695.103C310.445 691.424 305.087 690.016 305.087 690.016C305.087 690.016 306.094 679.7 299.728 676.007C293.363 672.315 289.683 667.963 289.683 667.963C288.005 657.247 262.879 655.568 262.879 655.568C262.879 655.568 254.164 654.226 250.148 660.255C246.133 666.285 230.381 673.322 227.372 673.993C224.351 674.664 193.531 668.635 179.458 666.956C165.384 665.278 150.975 665.613 150.975 665.613L159.69 667.628C152.653 669.642 138.244 666.621 78.6186 669.642C44.4806 671.372 33.8415 689.125 30.9751 703.999C39.2643 689.164 60.0906 689.332 61.7949 688.531C66.8562 686.169 52.589 700.294 52.589 700.294C61.2139 697.866 95.5456 693.515 105.513 692.289C115.481 691.062 120.09 697.001 120.09 697.001C121.24 693.012 118.167 690.636 118.167 690.636C107.05 680.862 82.1176 690.83 82.1176 690.83C102.44 671.656 121.808 687.576 121.808 687.576C145.965 673.967 225.745 681.249 232.64 678.176C239.548 675.103 246.83 668.209 250.084 666.672C253.337 665.136 254.771 672.934 254.771 672.934C260.607 669.035 263.705 658.047 263.705 658.047C261.601 664.568 267.54 672.043 267.54 672.043C273.299 673.193 284.983 683.548 284.983 683.548C292.085 682.205 303.202 692.289 303.202 692.289H303.215Z" fill="#074057"/>
<path d="M40.8908 709.823C40.8908 709.823 37.6371 723.819 50.0967 723.625C62.5563 723.431 75.0289 727.085 87.1011 723.625L79.238 720.746C79.238 720.746 109.348 720.823 124.299 705.058C124.299 705.058 115.481 706.75 103.783 707.511L106.275 705.058C106.275 705.058 78.0889 709.435 68.4956 709.242L72.9114 707.511C72.9114 707.511 46.8301 712.883 40.8908 709.81V709.823Z" fill="#074057"/>
<path d="M123.344 734.742C123.344 734.742 146.74 733.012 147.501 741.068C147.501 741.068 150.574 738.189 149.606 736.085C149.606 736.085 162.982 735.349 160.155 741.068C160.155 741.068 170.329 733.967 160.542 732.637C150.755 731.307 123.331 734.742 123.331 734.742H123.344Z" fill="#074057"/>
<path opacity="0.5" d="M313.376 726.995C313.376 726.995 325.564 727.176 329.348 729.138C333.131 731.101 329.657 719.609 312.124 724.593L313.376 726.995Z" fill="white"/>
<path d="M243.047 700.307C243.047 700.307 236.488 698.951 233.608 704.012L232.24 710.481C232.24 710.481 237.249 706.375 240.503 706.181C240.503 706.181 236.668 711.824 236.281 711.875C235.894 711.927 243.382 709.629 243.951 710.584C244.519 711.54 244.338 714.806 244.338 714.806C244.338 714.806 249.193 712.508 256.062 714.806C262.93 717.105 268.586 704.077 265.448 702.256C262.311 700.436 243.034 700.307 243.034 700.307H243.047Z" fill="#97D5D1"/>
<path d="M257.379 663.987C257.379 663.987 258.915 673.193 248.947 676.834C238.98 680.475 238.98 690.442 238.98 690.442L236.1 692.276C236.1 692.276 238.592 692.96 241.665 692.276C241.665 692.276 235.532 697.337 232.072 696.188L225.268 680.849C225.268 680.849 231.53 692.379 234.448 690.998C234.448 690.998 240.129 678.357 244.532 676.446C248.934 674.535 257.159 672.237 257.379 663.987Z" fill="#0C121D"/>
<path d="M122.259 695.452C122.259 695.452 139.909 722.14 119.896 734.096L141.303 732.327L133.931 728.673C133.931 728.673 139.354 700.449 122.259 695.452Z" fill="#0C121D"/>
<path d="M302.142 695.852C302.31 695.284 289.889 735.465 265.151 741.869L290.186 741.74C290.186 741.74 292.911 727.382 313.375 726.982L295.893 725.329C295.893 725.329 301.084 699.416 302.142 695.839V695.852Z" fill="#0C121D"/>
</svg>
