<svg width="1024" height="768" viewBox="0 0 1024 768" fill="none" xmlns="http://www.w3.org/2000/svg">
<path d="M1024 698.783H1.40625V767.537H1024V698.783Z" fill="#246F85"/>
<path d="M615.686 727.202C635.866 726.672 663.703 725.665 683.587 726.646C688.984 727.77 694.394 728.88 699.83 729.81C706.234 730.972 715.298 732.405 721.715 733.412C718.177 733.67 708.416 734.367 704.736 734.626C687.344 735.723 665.886 736.976 648.545 737.402C640.94 737.608 633.336 737.828 625.718 737.905C622.283 734.419 619.03 730.623 615.686 727.189V727.202ZM615.931 727.305C619.443 730.597 623.058 733.528 626.492 736.73L625.976 736.537C633.465 735.943 640.94 735.478 648.429 735.013C669.811 733.683 694.446 732.896 715.905 732.521L715.814 733.838C705.369 731.656 693.994 729.435 683.484 727.873C664.594 728.88 635.518 727.808 615.931 727.318V727.305Z" fill="#1E5B72"/>
<path d="M789.617 734.341C831.231 734.057 877.119 732.728 918.874 733.786C938.707 737.776 960.462 741.714 980.475 745.148L980.346 746.543C970.998 746.711 952.289 746.956 942.954 747.033C909.578 747.382 864 747.369 830.637 746.982C816.912 742.915 803.226 738.279 789.63 734.329L789.617 734.341ZM789.863 734.38C803.639 738.241 817.351 741.417 831.024 745.135C829.565 745.045 868.532 744.735 868.158 744.696C902.567 744.516 946.079 744.619 980.333 745.148L980.204 746.543C960.269 742.527 938.616 738.357 918.655 734.935C877.441 736.02 831.502 734.626 789.863 734.38Z" fill="#1E5B72"/>
<path d="M594.601 748.131C578.268 747.963 561.044 747.356 544.724 747.176C532.432 747.24 519.443 745.781 507.978 751.088C504.711 752.74 500.373 755.284 500.489 759.364L499.908 758.886C527.655 758.112 557.687 757.841 585.421 758.512L597.635 758.861L597.041 759.635C596.228 755.904 595.44 752.095 594.601 748.131ZM594.769 747.937C595.97 751.837 597.248 755.968 598.461 760.074L597.648 760.1L585.434 760.462C557.687 761.133 527.655 760.862 499.921 760.087H499.378C498.965 757.492 500.502 755.349 502.258 753.748C517.313 740.242 574.097 745.639 594.782 747.95L594.769 747.937Z" fill="#1E5B72"/>
<path d="M365.357 724.981C385.422 722.812 437.972 718.99 454.24 728.945C456.125 730.223 458.204 731.914 457.726 734.613L457.197 734.626C444.014 735.078 423.24 735.31 409.889 735.4C394.111 735.439 378.346 735.116 362.581 734.574L361.807 734.548L362.065 733.864L365.37 724.981H365.357ZM365.525 725.187L363.111 734.2L362.581 733.489C378.346 732.947 394.111 732.624 409.889 732.663C423.278 732.753 443.963 732.999 457.197 733.438L456.616 733.89C456.706 732.147 455.105 730.7 453.724 729.758C441.535 722.657 426.661 724.787 413.13 724.671C399.444 724.839 379.031 725.291 365.525 725.2V725.187Z" fill="#1E5B72"/>
<path d="M386.636 735.749C373.854 735.826 354.964 735.4 341.936 735.22C330.884 735.22 319.38 733.903 308.831 737.879C305.952 739.08 301.588 740.901 301.485 744.451L300.904 743.999C322.169 743.367 346.017 742.992 367.282 743.405C374.654 743.522 382.027 743.767 389.412 744.025L388.87 744.761L386.662 735.749H386.636ZM386.791 735.555L389.929 744.438L390.174 745.148C382.53 745.42 374.887 745.678 367.256 745.794C345.991 746.207 322.143 745.846 300.878 745.2L300.348 745.187C299.897 742.669 301.678 740.965 303.421 739.674C318.864 729.474 367.514 733.386 386.791 735.555Z" fill="#1E5B72"/>
<path d="M396.99 709.203L391.051 694.832L390.947 694.574L391.102 694.38L409.527 670.972L391.799 694.91L391.851 694.458L399.314 708.092L396.99 709.203Z" fill="#074057"/>
<path d="M605.24 702.166C605.24 702.166 607.242 703.961 607.861 703.728C608.481 703.496 610.753 702.166 610.753 702.166C610.753 702.166 608.003 702.941 605.24 702.166Z" fill="#04253F"/>
<path d="M537.196 701.946L530.753 634.949L506.699 629.306L495.582 638.306L496.925 657.582H490.47V629.306H484.84L475.363 596.279L473.852 631.437H468.727V649.112L440.889 638.306L431.296 640.991L430.108 625.962H435.57V620.449H430.108V612.663H424.814V622.708H420.786L422.322 628.105L426.428 627.705L426.015 642.205L416.022 647.034L405.047 699.467L537.196 701.946Z" fill="#074057"/>
<path d="M810.301 517.157L793.516 447.267L810.301 441.663L797.015 401.831L778.151 408.816L775.35 398.332L792.819 392.741L786.015 369.539L795.582 366.879L802.683 389.242L819.494 382.786L823.238 394.226L806.105 399.726L818.41 438.177L834.058 433.981L867.615 533.929L810.301 517.157Z" fill="#074057"/>
<path d="M848.261 439.21C847.693 439.21 834.059 433.981 834.059 433.981L854.239 494.11L867.564 490.507L846.918 441.883L848.261 439.21Z" fill="#081C32"/>
<path d="M38.4247 372.018L124.545 398.409L110.032 410.198L98.2567 470.921H108.224L99.1605 502.657L160.8 519.868L149.916 530.753L99.6124 712.043H0V472.741L12.1368 475.453L16.6688 460.049L13.0406 446.647H22.1174L34.7966 389.346L38.4247 372.018Z" fill="#1E5B72"/>
<path d="M156.267 547.977L196.151 521.689V501.74L188.895 492.677L250.534 446.647H268.662L289.45 474.549L279.547 482.709L277.726 526.221L313.078 535.285L303.11 547.977L313.078 550.688L304.918 574.264L387.409 535.285L425.486 591.488H431.27L421.483 600.217L413.452 709.254H118.488L156.267 547.977Z" fill="#1E5B72"/>
<path d="M964.929 292.328L839.816 341.25L826.182 366.763L829.332 383.187C829.332 383.187 848.209 380.036 850.3 387.383C852.392 394.73 862.876 440.501 862.876 440.501L850.3 457.273L855.891 479.287L826.182 487.331L880.707 704.709H1022.59V388.777L1016.3 391.218L984.503 337.054C984.503 337.054 981.352 327.964 991.488 324.117L989.396 314.678L964.929 292.315V292.328Z" fill="#1E5B72"/>
<path d="M646.905 708.209L619.301 534.51C619.301 534.51 616.499 526.117 610.211 526.828L607.061 518.086L668.571 503.755L658.087 471.256C658.087 471.256 648.3 461.469 642.012 463.212L639.572 452.031L727.641 423.729L733.232 439.455C733.232 439.455 728.338 446.789 729.384 449.939C730.43 453.09 744.413 488.028 744.413 488.028L761.883 484.077L762.464 496.46C762.464 496.46 755.414 502.489 757.854 509.126C760.295 515.762 821.999 704.71 821.999 704.71L646.905 708.209Z" fill="#1E5B72"/>
<path d="M829.332 383.187L989.396 314.691L991.488 324.129C991.488 324.129 982.889 326.454 984.503 337.067L850.3 387.396C850.3 387.396 841.65 384.246 829.332 383.2V383.187Z" fill="#081C32"/>
<path d="M854.691 506.647L1022.59 457.906V468.635L865.356 510.068L905.821 676.278H899.481L854.691 506.647Z" fill="#081C32"/>
<path d="M975.517 356.034L870.236 394.549L878.074 432.418L885.033 429.32L878.513 397.467L978.926 360.914L975.517 356.034Z" fill="#081C32"/>
<path d="M563.756 520.707L567.72 432.096L573.336 425.808L587.229 515.749L563.756 520.707Z" fill="#246F85"/>
<path d="M599.133 519.055L601.109 514.097L579.624 434.407L573.336 425.808L587.229 515.749L599.133 519.055Z" fill="#074057"/>
<path d="M563.756 520.707L587.229 515.749L602.439 519.055V528.428L619.288 534.51L648.468 704.709L633.969 705.058L590.663 525.213L568.456 530.933L563.756 520.707Z" fill="#074057"/>
<path d="M538.914 710.649L525.899 602.102C525.899 602.102 527.332 598.086 515.854 597.415L512.703 582.734L612.651 565.962L614.394 582.734C614.394 582.734 606.35 586.233 607.061 590.417C607.771 594.6 633.968 705.045 633.968 705.045L538.914 710.636V710.649Z" fill="#1E5B72"/>
<path d="M590.663 525.213C590.663 525.213 556.047 533.774 556.047 534.845C556.047 535.917 552.832 545.911 552.832 545.911L560.14 551.837L561.16 574.613L600.94 567.938L596.357 544.129L598.139 534.845L590.65 525.213H590.663Z" fill="#1E5B72"/>
<path d="M552.832 545.911L598.151 534.845L596.37 544.129L560.14 551.837L552.832 545.911Z" fill="#074057"/>
<path d="M515.842 597.428L614.395 582.747C614.395 582.747 605.964 585.497 607.062 590.43L525.9 602.102C525.9 602.102 527.126 597.763 515.855 597.415L515.842 597.428Z" fill="#074057"/>
<path d="M598.153 605.794L542.078 614.161L552.833 709.254L557.482 709.358L546.313 618.783L598.153 611.191V605.794Z" fill="#074057"/>
<path d="M726.945 423.729L795.273 454.73V471.282L790.651 477.054L803.356 507.473L832.626 515.711L878.062 696.885L821.303 704.684L757.856 509.1C757.856 509.1 756.345 498.629 762.465 496.434L761.884 484.052L743.717 488.003L728.688 449.914C728.688 449.914 725.641 440.32 732.536 439.429L726.945 423.703V423.729Z" fill="#053442"/>
<path d="M642.014 463.225L732.536 439.455C732.536 439.455 725.474 443.419 728.689 449.939L658.089 471.256C658.089 471.256 653.26 463.212 642.014 463.212V463.225Z" fill="#074057"/>
<path d="M610.211 526.827L762.464 496.472C762.464 496.472 755.44 502.851 757.854 509.139L619.301 534.523C619.301 534.523 617.984 525.239 610.211 526.84V526.827Z" fill="#074057"/>
<path d="M637.223 545.601L742.464 528.08L744.621 532.392L642.013 548.687L671.671 707.718H665.202L637.223 545.601Z" fill="#074057"/>
<path d="M44.0282 557.441C44.3639 555.233 40.8391 555.129 39.3542 554.536C37.3529 553.98 35.3258 553.451 33.3504 553.67C30.6131 554.445 30.7681 558.267 30.3033 560.836C30.1483 564.761 33.983 568.325 37.7661 569.913C40.7487 571.359 43.9507 572.289 47.1915 573.102C49.2186 573.593 51.2328 575.685 53.2212 574.368C54.0475 573.774 54.5898 572.754 55.0805 571.785C56.165 569.048 58.3083 565.239 56.0488 562.683C48.5343 557.35 43.4343 558.732 46.4943 547.279C47.9791 538.783 56.0617 542.257 61.3426 544.568C64.493 545.885 67.5143 546.931 70.7938 548.002C75.5969 549.668 74.7705 553.567 73.4019 557.428C72.666 559.597 72.2011 562.295 69.8383 563.457C65.8099 564.697 61.7686 563.432 57.8177 562.734L57.8435 562.554C61.6783 562.825 65.7712 563.793 69.451 562.45C71.0133 561.585 71.5297 558.887 72.0591 557.027C72.4981 555.168 73.5052 552.831 72.511 551.153C71.3361 549.59 68.87 549.371 67.0107 548.661C63.912 547.692 60.5808 546.272 57.5466 545.046C54.6027 543.664 49.8255 542.244 48.4956 546.117C46.1586 554.755 45.668 555.672 53.7764 560.178C55.7906 561.172 58.063 563.031 57.6757 565.562C57.4691 567.899 56.5136 569.978 55.5969 572.044C55.0934 573.051 54.5769 574.109 53.5956 574.871C51.5169 576.459 49.025 574.432 46.9849 574.006C41.4717 572.857 35.4679 571.656 31.3878 567.37C29.7481 565.575 28.741 563.057 28.9088 560.591C29.3994 557.789 29.5544 553.167 33.2213 552.56C35.4808 552.418 37.6241 553.102 39.5996 553.825C41.0456 554.458 42.75 554.729 43.912 555.904C44.3123 556.33 44.4156 557.002 44.209 557.505L44.0411 557.454L44.0282 557.441Z" fill="#074057"/>
<path d="M136.759 514.871L142.337 495.582L124.377 490.094L126.662 483.019L143.589 488.997L150.058 470.585L156.449 473.154L152.046 492.728L166.869 497.363L165.733 503.238L149.787 497.97L145.203 517.221L136.759 514.871Z" fill="#074057"/>
<path d="M355.531 552.276L363.317 523.626L350.289 519.636L351.942 514.51L364.221 518.848L368.907 505.485L373.543 507.357L370.354 521.547L381.109 524.917L380.283 529.177L368.714 525.356L361.651 553.981L355.531 552.276Z" fill="#074057"/>
<path d="M839.844 341.689L964.956 292.754L978.952 306.944L826.209 367.202L839.844 341.689Z" fill="#246F85"/>
<path d="M862.904 440.94L1022.62 389.217V406.273L850.328 457.712L862.904 440.94Z" fill="#246F85"/>
<path d="M337.482 709.035L349.373 589.526L343.628 581.405L350.742 580.385L387.436 535.724L304.945 574.704L282.943 709.693L337.482 709.035Z" fill="#074057"/>
<path d="M188.922 493.115L229.154 463.07L236.63 473.619L232.615 515.207L212.783 512.405C212.783 512.405 216.191 520.449 214.448 527.783C212.705 535.117 176.359 709.693 176.359 709.693H118.516L152.615 564.142L150.213 558.719L154.345 558.022L154.939 554.239L152.77 550.339L196.191 522.128V502.179L188.935 493.115H188.922Z" fill="#074057"/>
<path d="M59.8824 382.464C59.8824 382.464 46.08 375.801 42.9941 369.862C42.9941 369.862 48.701 367.486 49.8889 362.967C51.0768 358.448 59.8824 328.713 59.8824 328.713C59.8824 328.713 60.5925 319.43 58.6946 315.866C56.7966 312.303 70.1083 299.688 72.0192 295.414C73.9301 291.141 83.433 280.669 84.3885 278.281C85.3439 275.892 103.42 262.103 106.274 259.494C109.127 256.886 116.732 252.354 118.397 252.109C120.063 251.864 121.961 252.109 121.961 252.109C121.961 252.109 125.06 256.396 125.525 257.338C125.989 258.281 127.668 259.959 127.668 262.567C127.668 265.175 126.48 269.23 125.525 271.851C124.569 274.472 119.34 281.367 119.108 287.551C118.875 293.736 122.916 313.955 122.916 313.955C122.916 313.955 128.869 317.519 127.668 319.907C126.467 322.296 129.889 322.761 127.823 328.468C127.823 328.468 131.709 330.366 132.187 334.175C132.665 337.984 139.082 341.792 139.082 341.792C139.082 341.792 140.889 343.497 138.785 343.678C136.68 343.858 133.801 341.935 133.801 341.935C133.801 341.935 136.332 350.146 135.286 352.419C134.24 354.691 134.149 351.721 134.149 351.721C134.149 351.721 133.362 353.387 132.574 353.038C131.787 352.69 129.863 347.448 129.863 347.448C129.863 347.448 129.514 350.159 128.985 350.676C128.456 351.192 127.319 344.904 127.319 344.904C127.319 344.904 121.896 373.826 120.244 378.1C118.591 382.373 117.365 385.782 117.016 386.144C116.667 386.505 99.2755 395.672 96.6544 396.021C94.0334 396.369 59.8437 382.477 59.8437 382.477L59.8824 382.464Z" fill="#1E5B72"/>
<path d="M111.451 258.41C111.451 258.41 114.253 254.808 116.164 254.459C118.075 254.11 120.012 254.808 121.057 255.337C122.103 255.866 124.234 257.79 125.951 260.179C127.668 262.567 125.951 263.897 125.951 263.897C125.951 263.897 126.648 262.593 125.46 261.018C124.272 259.443 121.264 256.577 120.58 256.486C119.895 256.396 117.029 255.402 115.505 256.189C113.982 256.977 111.451 258.41 111.451 258.41Z" fill="#1E5B72"/>
<path opacity="0.5" d="M80.1664 299.895C80.6957 296.396 99.7402 280.153 99.7402 280.153L79.4692 296.408L96.5898 275.066L87.3581 282.606C82.9553 288.894 68.107 302.18 66.0153 307.59C63.9237 313 70.7281 302.696 73.8785 302.167C77.0289 301.638 80.6958 307.59 77.5453 317.196C77.5453 317.196 81.0444 313 81.393 307.06L103.717 280.476L81.393 302.348C81.393 302.348 79.6499 303.394 80.1664 299.907V299.895Z" fill="#081C32"/>
<path opacity="0.5" d="M113.994 286.931C113.672 287.732 113.452 288.429 113.4 288.92C113.4 288.92 113.684 288.068 113.994 286.931Z" fill="#081C32"/>
<path opacity="0.5" d="M124.892 334.162C123.601 336.37 113.014 347.487 113.014 347.487C113.014 347.487 119.599 334.368 122.62 330.275C125.641 326.17 127.823 328.481 127.823 328.481C127.823 328.481 126.829 325.537 124.234 326.454C121.639 327.37 114.628 340.166 114.628 340.166C114.628 340.166 117.107 328.558 120.128 324.026C123.149 319.494 127.087 320.682 127.087 320.682C126.765 319.172 124.802 318.797 124.802 318.797C121.058 318.578 116.448 326.725 116.448 326.725C116.939 321.599 114.512 310.159 114.512 310.159C114.512 310.159 116.616 315.931 118.889 316.796C121.161 317.661 121.316 314.64 121.316 314.64C119.96 316.46 119.108 315.13 119.108 315.13C115.17 313.671 112.42 292.948 112.471 287.332C112.523 281.715 113.763 279.882 114.576 281.444C115.08 282.412 114.499 285.072 113.982 286.957C115.648 282.813 120.18 275.621 120.18 275.621C120.18 275.621 120.451 275.13 121.264 273.516C122.078 271.902 124.557 268.61 124.776 265.912C124.996 263.213 124.505 259.598 117.003 258.462C112.329 257.751 98.5399 274.975 98.5399 274.975L100.696 278.526C106.016 278.177 103.717 280.502 103.717 280.502C103.717 280.502 102.478 284.375 101.665 285.718C100.851 287.061 88.3398 311.399 88.3398 311.399C88.3398 311.399 66.1062 357.712 65.5639 356.46C65.0216 355.208 63.2915 347.771 63.2915 347.771C60.3218 349.927 56.2934 340.798 56.2934 340.798C53.2334 356.111 42.9688 369.875 42.9688 369.875C47.901 378.707 67.5781 385.575 67.5781 385.575L92.2779 323.368C92.2779 323.368 77.1714 378.745 80.6704 372.806C84.1823 366.867 94.6536 326.88 94.6536 326.88C94.6536 326.88 85.3573 377.39 85.112 378.719C85.3315 377.609 95.8414 326.609 95.8414 326.609C95.8414 326.609 87.3198 387.706 88.7143 389.268C90.1087 390.83 91.1416 387.112 91.1416 387.112C91.3353 378.255 98.8111 326.88 98.8111 326.88C100.541 325.963 101.613 324.827 101.613 324.827L91.6839 392.018C93.3108 389.901 102.478 327.203 103.343 326.609C104.208 326.015 104.26 325.369 104.26 325.369C104.479 328.235 93.4915 395.285 93.7756 395.362C94.0596 395.453 113.272 367.512 114.834 364.594C116.397 361.676 120.929 350.934 120.399 353.904C119.857 356.873 106.584 388.235 106.584 388.235C110.845 383.6 122.078 355.259 123.317 351.541C124.557 347.822 125.37 343.226 125.525 338.423C125.68 333.62 131.735 332.535 131.735 332.535C130.819 330.366 126.171 331.954 124.879 334.162H124.892ZM110.728 284.285C110.057 285.421 108.094 289.927 108.094 289.927C108.094 289.927 108.508 283.316 108.236 282.503C107.978 281.689 107.062 282.038 107.062 282.038C107.062 282.038 107.475 278.41 109.98 277.467C111.051 277.067 110.703 274.872 109.812 273.71C109.166 272.871 110.018 268.068 110.341 267.074C110.586 266.325 111.684 264.362 112.2 263.458C112.2 263.458 112.394 263.742 112.523 264.44C112.652 265.137 114.163 266.996 114.589 266.97C115.015 266.944 115.661 266.596 115.661 266.596C115.661 266.596 114.047 269.695 113.801 269.746C113.556 269.798 113.401 269.527 113.401 269.527C113.401 270.172 114.189 271.748 113.672 271.412C113.156 271.063 112.187 271.605 112.187 271.605L114.344 273.168C114.963 272.07 114.124 272.032 114.124 272.032C113.801 272.187 114.473 271.257 114.821 271.334C115.17 271.412 115.661 271.502 115.661 271.502C115.661 271.502 115.506 270.431 115.26 270.108C115.015 269.785 114.318 269.811 114.318 269.811C114.318 269.811 115.777 267.035 116.061 266.389C116.358 265.744 117.946 264.401 117.946 264.401C117.946 264.401 115.854 262.916 115.441 262.567C115.041 262.219 112.187 263.471 112.187 263.471C112.355 263.187 112.459 262.994 112.459 262.994C112.459 262.994 113.776 261.238 114.098 260.863C114.421 260.489 118.488 260.101 119.237 260.218C119.999 260.334 120.877 261.444 121.342 261.819C121.807 262.193 122.827 262.348 122.981 263.136C123.123 263.923 123.046 267.603 121.807 268.92C120.58 270.237 119.121 271.515 117.546 273.155C115.971 274.795 113.659 275.079 112.962 277.106C112.265 279.12 112.084 284.298 112.084 284.298C112.084 284.298 111.387 283.161 110.716 284.298L110.728 284.285ZM113.233 264.143C113.233 264.143 114.176 263.549 114.395 263.6C114.615 263.652 115.557 264.414 115.557 264.414V265.602C115.557 265.602 115.105 264.788 114.666 264.607C114.24 264.427 113.246 264.156 113.246 264.156L113.233 264.143Z" fill="#081C32"/>
<path opacity="0.5" d="M113.555 273.929C113.555 273.929 113.801 273.284 113.401 273.31C113 273.336 112.652 272.69 112.652 272.69H111.877V273.142C111.877 273.594 112.419 273.361 112.755 273.684C113.104 274.007 113.568 273.929 113.568 273.929H113.555Z" fill="#081C32"/>
<path opacity="0.5" d="M119.43 270.056C120.05 270.005 120.567 269.333 120.567 269.333C120.567 269.333 120.696 269.411 121.057 269.165C121.406 268.92 121.406 268.713 121.432 268.068C121.458 267.422 120.412 266.351 120.412 266.351H119.095C119.095 266.351 119.146 266.725 119.095 266.97C119.043 267.216 118.527 267.59 118.333 267.822C118.139 268.055 117.984 269.01 117.984 269.01C117.984 269.01 118.824 270.108 119.443 270.056H119.43ZM120.076 268.21C120.296 268.533 120.412 269.062 120.076 269.527C120.076 269.527 119.456 269.294 118.888 268.558C118.888 268.558 119.857 267.887 120.076 268.21Z" fill="#081C32"/>
<path opacity="0.5" d="M64.1045 311.244L58.6816 315.866C58.6816 315.866 61.8966 325.898 58.6816 333.981C58.6816 333.981 66.4286 331.244 69.4369 328.507C72.4453 325.769 75.5957 320.282 75.5957 320.282V317.196L72.0322 321.625C68.8817 322.309 70.2762 320.45 70.2762 320.45C70.2762 320.45 68.4686 319.882 68.7397 318.784C69.0109 317.687 70.5215 313.013 70.5215 313.013C70.5215 313.013 68.7397 316.305 67.9134 316.305C67.087 316.305 70.1083 308.765 70.1083 308.765C70.1083 308.765 73.2587 304.246 68.0554 309.307C62.8521 314.368 64.0787 311.231 64.0787 311.231L64.1045 311.244Z" fill="#081C32"/>
<g opacity="0.5">
<path d="M119.108 287.551C119.508 291.515 120.012 296.99 120.541 300.876C121.187 305.15 121.613 309.772 123.446 313.658C124.712 314.549 129.618 319.172 126.919 321.87L126.803 321.392C128.378 322.077 129.037 323.923 128.482 325.498C128.753 324.026 128.069 322.387 126.61 321.948L126.209 321.818C128.675 319.249 124.286 315.957 122.426 314.381C120.296 310.172 119.909 305.576 119.405 301.018C119.031 296.551 118.889 292.057 119.095 287.577L119.108 287.551Z" fill="#CBE0CF"/>
</g>
<g opacity="0.5">
<path d="M121.961 252.109C124.982 254.872 127.435 258.436 128.249 262.542C128.081 264.659 127.629 266.725 126.867 268.7C125.279 272.871 126.248 268.016 126.377 266.493C126.583 265.15 126.829 263.82 127.1 262.503V262.671C126.467 258.784 124.401 255.208 121.961 252.109Z" fill="#CBE0CF"/>
</g>
<path d="M289.477 474.988L229.154 463.07L236.63 473.619L279.574 483.148L289.477 474.988Z" fill="#074057"/>
<path d="M212.781 512.405L232.613 515.207L277.752 526.66L313.104 535.724L303.136 548.416L214.008 529.745C214.008 529.745 215.493 518.629 212.781 512.418V512.405Z" fill="#074057"/>
<path d="M350.741 580.385L425.499 591.915H431.296L421.509 600.656L349.373 589.526L343.627 581.405L350.741 580.385Z" fill="#074057"/>
<path d="M365.693 575.827L385.977 548.416L411.71 584.503L407.359 583.548L385.822 553.864L368.779 575.982L365.693 575.827Z" fill="#074057"/>
<path d="M357.998 598.022L410.587 605.73L401.742 709.694H397.559L405.59 607.989L357.998 601.947V598.022Z" fill="#074057"/>
<path d="M225.242 550.391L298.696 563.458L274.9 712.482L268.883 709.797L289.477 566.466L225.242 554.316V550.391Z" fill="#074057"/>
<path d="M38.4504 372.457L124.557 398.848L110.058 410.624L34.8223 389.785L38.4504 372.457Z" fill="#074057"/>
<path d="M13.0664 447.086H22.1303L98.2825 471.36H108.25L104.157 485.691L16.6945 460.488L13.0664 447.086Z" fill="#074057"/>
<path d="M160.826 520.307L0.0253906 473.18V485.691L149.941 531.192L160.826 520.307Z" fill="#074057"/>
<path d="M38.4501 372.457L22.0008 377.764L23.8601 387.486L0.0253906 473.18L12.1622 475.891L22.1299 447.086L34.8219 389.785L38.4501 372.457Z" fill="#074057"/>
<path d="M387.411 708.932L386.468 676.485L386.675 677.053L369.993 654.122L369.812 653.864L369.98 653.619L388.702 625.962L370.716 654.096L370.703 653.593L388.25 675.852L388.431 676.085L388.444 676.407L389.993 708.841L387.411 708.932Z" fill="#074057"/>
<path d="M581.741 684.929L568.881 685.484L568.274 685.51L567.939 685.136L555.982 671.746L569.669 683.354L568.713 683.005L581.521 681.792L581.741 684.929Z" fill="#074057"/>
<path d="M580.463 709.125L588.585 693.283L588.675 694.316L564.014 660.823L563.82 660.578L563.988 660.32L582.71 632.663L564.724 660.798L564.711 660.294L590.25 693.115L590.625 693.58L590.354 694.148L582.787 710.262L580.463 709.125Z" fill="#074057"/>
<path d="M660.191 651.669L702.98 625.756L702.709 627.189L678.035 593.709L677.854 593.451L678.022 593.206L696.744 565.549L678.758 593.683L678.745 593.18L704.284 626.001L704.956 626.853L704.013 627.434L661.547 653.877L660.191 651.669Z" fill="#074057"/>
<path d="M693.064 614.174L714.42 611.682L713.568 612.728L712.522 588.958L712.509 588.738L712.677 588.596L735.066 570.171L713.245 589.268L713.4 588.906L715.543 612.599L715.621 613.515L714.678 613.644L693.4 616.73L693.064 614.174Z" fill="#074057"/>
<path d="M939.984 530.482C931.72 532.677 923.057 534.484 914.909 537.144C913.308 537.764 911.41 538.19 910.235 539.468C909.784 541.637 910.842 544.065 911.475 546.182C912.947 550.249 914.871 554.174 916.962 557.97L916.511 557.738C926.969 555.982 937.453 554.381 947.976 553.077L947.24 554.278C945.032 547.551 941.985 537.415 939.984 530.482ZM940.074 530.34C943.25 538.28 946.452 546.556 949.319 554.729L948.221 554.897C937.621 556.408 926.969 557.609 916.304 558.655C914.419 554.6 912.572 550.559 910.907 546.402C910.119 544.297 909.215 542.309 909.061 539.984C909.061 539.636 909.086 539.261 909.254 538.939C910.429 537.196 912.572 536.537 914.393 535.737C922.747 532.793 931.268 531.334 940.061 530.327L940.074 530.34Z" fill="#074057"/>
<path d="M935.712 557.531C937.958 562.58 941.186 569.888 943.252 574.884L942.555 574.445C953.542 573.206 964.62 573.516 975.621 572.367L975.337 572.818C972.561 566.311 968.765 557.17 966.183 550.688L967.164 551.205C956.977 553.8 946.131 555.672 935.724 557.518L935.712 557.531ZM935.557 557.441C946.002 554.484 956.861 551.514 967.5 549.397C970.108 556.137 973.478 565.665 975.957 572.573L976.112 572.999L975.673 573.025C964.453 573.516 953.375 575.491 942.141 575.853C940.024 570.43 937.519 562.967 935.557 557.441Z" fill="#074057"/>
<path d="M539.417 711.875C539.417 711.875 530.301 711.54 530.908 712.689C531.515 713.838 535.207 714.638 547.099 714.948C547.099 714.948 543.161 716.381 544.723 717.143C546.286 717.905 556.834 717.711 566.466 716.678C576.098 715.646 586.854 715.207 588.39 714.716C589.926 714.225 596.331 713.296 596.331 713.296C596.331 713.296 623.755 714.186 633.593 710.713C643.432 707.24 643.638 704.58 642.812 704.58C641.986 704.58 539.417 711.862 539.417 711.862V711.875Z" fill="#074057"/>
<path d="M634.303 703.625C634.303 703.625 634.613 700.113 632.315 698.589C630.017 697.066 633.232 689.577 631.243 687.899C629.255 686.22 625.136 683.47 621.314 684.542C617.492 685.613 603.135 686.53 600.088 685.768C597.041 685.006 585.575 685.006 582.67 686.375C579.765 687.744 562.05 692.637 562.05 692.637C562.05 692.637 560.979 689.577 559.907 689.732C558.835 689.887 554.872 692.017 553.645 691.411C552.418 690.804 549.978 689.887 548.145 690.042C546.311 690.197 544.478 691.565 544.478 691.565C544.478 691.565 541.883 690.959 541.573 691.565C541.263 692.172 539.739 697.828 539.739 699.054C539.739 700.281 533.322 699.971 533.322 702.566C533.322 705.161 536.227 712.65 537.144 712.947C538.061 713.244 547.383 712.947 547.383 712.947C547.383 712.947 548.752 715.542 550.288 715.852C551.824 716.162 579.92 713.102 582.67 713.257C585.42 713.412 585.42 711.888 585.42 711.888L595.801 711.733C595.801 711.733 637.041 710.016 634.29 703.638L634.303 703.625Z" fill="#072B47"/>
<path d="M581.495 700.061C584.748 702.385 588.131 708.299 585.355 711.862C584.994 709.68 584.968 707.757 584.49 705.652C583.948 703.651 582.863 701.753 581.404 700.165L581.495 700.048V700.061Z" fill="#1E5B72"/>
<path d="M595.815 711.72C598.513 708.97 602.581 708.209 606.183 707.305C609.914 706.504 613.684 705.988 617.48 705.665L617.416 706.311C615.118 705.523 607.203 703.405 608.132 700.113C609.643 697.324 611.644 694.884 613.684 692.469C614.679 691.411 615.466 690.3 616.77 689.551C619.52 689.216 622.387 689.603 625.137 689.706C622.438 689.706 619.533 689.539 616.886 689.913C613.775 692.469 611.451 696.149 609.204 699.48C608.92 700.01 608.468 700.5 608.752 701.094C610.637 703.664 614.627 704.58 617.571 705.652L619.223 706.169C614.885 706.466 610.534 706.969 606.26 707.744C602.658 708.583 598.617 709.099 595.789 711.695L595.815 711.72Z" fill="#1E5B72"/>
<path d="M539.752 699.041C539.752 697.815 541.275 692.172 541.585 691.553C541.895 690.946 544.49 691.553 544.49 691.553C544.49 691.553 546.324 690.184 548.157 690.029C549.991 689.874 552.431 690.791 553.657 691.398C554.884 692.004 558.848 689.874 559.92 689.719C560.991 689.564 562.063 692.624 562.063 692.624C562.063 692.624 579.778 687.731 582.683 686.362C585.588 684.994 597.04 684.994 600.1 685.755C603.16 686.517 617.518 685.6 621.327 684.529C625.149 683.457 629.267 686.207 631.256 687.886C631.669 688.234 631.85 688.841 631.914 689.577C631.85 689.551 627.292 687.924 627.744 689.577C628.209 691.243 619.648 689.409 618.577 691.088C617.505 692.766 610.933 696.123 609.719 698.112C608.493 700.1 609.564 693.838 610.481 692.611C611.398 691.385 600.862 694.29 597.647 692.611C594.445 690.933 579.016 694.755 576.717 696.123L564.632 697.13C564.632 697.13 561.443 694.29 559.92 694.29C558.396 694.29 555.104 698.499 555.104 698.499C555.104 698.499 553.051 695.516 550.907 694.91C548.764 694.303 540.978 696.898 540.978 698.499C540.978 700.1 544.955 699.183 546.634 702.088C546.634 702.088 538.538 703.922 538.848 705.988C538.848 705.988 535.891 705.265 533.567 704.219C533.425 703.56 533.348 702.979 533.348 702.553C533.348 699.958 539.765 700.268 539.765 699.041H539.752Z" fill="#2E7D96"/>
<path d="M540.463 701.908C540.463 701.908 535.763 700.191 534.278 701.908C532.794 703.625 533.504 704.658 533.504 704.658L537.326 706.349L538.191 706.737C538.191 706.737 541.225 704.374 540.463 701.921V701.908Z" fill="#072B47"/>
<path d="M550.146 699.429C550.146 699.429 549.629 700.242 548.609 700.023C547.589 699.803 546.35 699.429 546.35 699.429C546.35 699.429 546.685 701.133 547.886 701.133C549.087 701.133 550.146 699.429 550.146 699.429Z" fill="#1E5B72"/>
<path d="M574.536 706.298C574.536 706.298 568.816 709.022 565.963 709.022C563.109 709.022 555.724 708.26 554.446 709.706V708.764C554.446 708.764 548.777 709.061 548.984 710.042C548.984 710.042 547.835 709.099 548.235 708.415C548.635 707.731 556.098 706.582 560.152 706.84C564.207 707.098 573.968 707.008 574.523 706.285L574.536 706.298Z" fill="#2E7D96"/>
<path d="M544.723 709.797C544.723 709.797 542.786 709.835 541.586 709.797C540.385 709.758 538.19 706.724 538.19 706.724C538.19 706.724 537.079 711.501 537.118 711.617C537.157 711.733 537.648 709.758 538.784 709.719C539.92 709.68 541.289 710.855 541.921 710.817C542.554 710.778 544.723 709.797 544.723 709.797Z" fill="#1E5B72"/>
<path d="M561.133 692.624C562.476 694.006 563.728 695.465 564.684 697.208C564.968 697.763 565.342 698.499 565.2 699.235C564.916 700.836 563.728 702.14 561.998 701.985C560.836 701.843 559.597 702.282 558.344 702.05C555.245 701.34 554.806 697.815 554.871 695.168C555.426 697.556 556.059 701.159 559.132 701.081C559.984 701.004 561.043 700.81 562.037 700.888C562.902 700.939 563.509 700.642 563.883 699.893C564.038 699.571 564.232 699.17 564.258 698.796C563.78 696.601 562.256 694.638 561.12 692.637L561.133 692.624Z" fill="#1E5B72"/>
<path d="M630.779 712.715C630.779 712.715 604.168 711.656 604.104 713.128C604.039 714.6 630.172 715.426 630.172 715.426C630.172 715.426 629.036 715.503 627.809 716.549C626.583 717.595 626.169 718.563 632.987 718.499C639.804 718.434 665.834 718.925 670.159 718.434C674.484 717.944 692.522 712.405 696.059 712.702C699.597 712.999 721.831 712.702 721.831 712.702C721.831 712.702 718.358 714.044 719.636 715.93C720.914 717.815 729.629 717.879 737.79 716.601C745.95 715.323 749.061 711.966 753.516 711.359C757.97 710.752 770.391 710.145 769.242 708.919C768.093 707.692 763.871 706.724 763.871 706.724L642.696 708.312L630.792 712.715H630.779Z" fill="#074057"/>
<path d="M607.873 711.862C607.873 711.862 604.645 706.866 605.226 703.922C605.807 700.978 616.976 702.45 616.976 702.45C616.976 702.45 624.619 697.75 626.672 696.575C626.672 696.575 623.147 688.932 623.147 683.651C623.147 683.651 632.844 684.245 633.141 693.644C633.141 693.644 638.138 695.994 638.138 687.176C638.138 678.357 634.613 681.882 636.369 680.126L638.138 678.357C638.138 678.357 637.26 674.238 638.138 673.657C639.016 673.076 642.837 666.905 652.831 690.997C652.831 690.997 666.646 687.77 675.749 688.054C684.852 688.338 715.71 677.479 724.232 677.763C732.753 678.047 769.784 688.673 763.018 708.635C763.018 708.635 746.556 708.906 743.625 711.85C740.694 714.793 723.354 717.427 723.057 714.793C722.76 712.159 722.463 708.648 722.463 708.648H694.548C694.548 708.648 676.033 717.143 663.69 717.143H630.481C630.481 717.143 629.306 713.915 631.359 712.74L607.847 711.862H607.873Z" fill="#5CC0B7"/>
<path d="M738.862 691.63C733.956 693.192 722.697 699.17 722.697 699.17C724.969 691.152 740.902 687.912 740.902 687.912C740.902 687.912 734.55 686.349 731.438 686.001C728.326 685.639 697.778 693.67 694.434 694.832C691.077 696.007 664.608 698.086 664.608 698.086C664.608 698.086 656.099 693.296 654.782 693.412C653.465 693.528 649.747 696.407 649.747 696.407C650.341 685.394 641.961 675.568 640.644 674.729C639.327 673.89 638.139 673.644 638.372 674.729C638.604 675.814 639.108 679.403 639.108 679.403L636.383 680.113L638.256 680.72C640.166 686.466 638.372 691.617 637.662 693.412C636.939 695.207 621.496 702.153 621.496 702.153L624.247 704.903C624.247 704.903 617.778 704.787 615.028 704.903C612.278 705.019 606.881 707.537 606.881 707.537C606.881 707.537 606.132 706.608 605.383 706.272C606.015 708.945 607.888 711.837 607.888 711.837L631.4 712.715C629.347 713.89 630.522 717.118 630.522 717.118H663.73C676.073 717.118 694.589 708.609 694.589 708.609H722.503C722.503 708.609 722.8 712.121 723.097 714.755C723.394 717.402 740.734 714.755 743.665 711.811C746.609 708.867 763.058 708.596 763.058 708.596L761.277 699.48C758.397 690.623 743.794 690.016 738.875 691.579L738.862 691.63Z" fill="#1E5B72"/>
<path d="M608.158 708.919C608.158 708.919 605.162 706.401 605.162 705.2C605.162 703.999 608.881 702.205 610.068 702.566C611.256 702.928 613.89 703.47 613.89 703.47C613.89 703.47 608.403 706.866 608.158 708.919Z" fill="#04253F"/>
<path d="M748.44 711.307C748.44 711.307 737.646 718.796 748.44 719.041C759.234 719.287 789.447 714.006 795.102 719.041C800.757 724.077 841.48 726.014 854.263 722.657C867.045 719.3 872.726 718.693 872.726 718.693C872.726 718.693 883.688 729.616 908.504 727.253C933.32 724.89 996.315 717.776 999.156 708.906L748.44 711.307Z" fill="#074057"/>
<path d="M783.34 696.562C783.34 696.562 782.411 700.074 772.792 699.713C763.173 699.351 762.437 702.489 762.437 702.489C762.437 702.489 752.082 702.489 754.858 709.887L790.016 712.069C790.016 712.069 791.875 700.926 790.016 697.079C788.156 693.231 783.34 696.562 783.34 696.562Z" fill="#438E91"/>
<path d="M772.804 699.713C763.185 699.338 762.449 702.489 762.449 702.489C762.449 702.489 755.27 702.502 754.482 706.801C754.754 706.646 759.131 704.167 761.907 704.89C764.773 705.639 763.34 706.814 763.34 706.814C763.34 706.814 767.794 704.374 771.926 703.651C776.058 702.941 787.575 701.417 790.015 697.079C789.382 695.775 788.414 695.31 787.394 695.245C785.47 695.671 783.34 696.562 783.34 696.562C783.34 696.562 782.41 700.074 772.791 699.713H772.804Z" fill="#5CC0B7"/>
<path d="M993.281 694.161C1013.81 662.347 974.598 637.75 965.353 635.336C956.109 632.921 955.553 638.112 955.553 638.112C955.553 638.112 912.274 618.319 881.751 626.453C866.993 630.391 850.97 635.969 838.355 640.681C837.323 630.365 828.865 618.448 825.005 615.168C820.421 611.282 823.856 617.57 824.966 603.509C825.651 594.845 816.638 618.68 815.722 625.885C814.805 633.089 807.768 651.592 807.768 651.592C798.523 650.481 795.373 656.769 789.085 658.744C782.797 660.72 782.616 663.806 782.616 663.806C769.111 654.006 755.605 663.625 755.605 663.625L758.562 663.444C742.281 669.913 746.903 683.974 746.903 683.974C747.833 679.906 752.817 681.378 752.817 681.378C764.282 689.706 772.055 685.626 777.968 688.777C783.882 691.927 784.992 704.309 784.992 704.309L785.922 700.604C785.922 700.604 790.363 704.116 788.698 707.628C787.032 711.139 779.259 712.25 779.259 712.25L797.387 711.875C797.387 711.875 816.07 717.053 824.024 715.581C826.348 715.155 827.936 714.161 829.059 712.986C829.137 713.205 829.188 713.347 829.188 713.347L904.669 712.03L907.2 713.761L914.288 712.03C914.663 714.587 917.439 713.541 917.439 713.541C917.439 713.541 964.424 710.029 972.558 709.099C980.692 708.17 975.153 703.547 974.959 701.146C974.779 698.744 993.268 694.122 993.268 694.122L993.281 694.161Z" fill="#072B47"/>
<path d="M800.176 672.702C800.176 672.702 803.132 667.15 808.865 668.454C814.598 669.745 811.267 676.588 816.444 679.003C821.622 681.404 834.391 687.692 835.308 693.98C836.237 700.268 831.602 706.194 831.602 706.194C831.602 706.194 831.693 713.709 826.644 714.793C821.596 715.878 818.833 712.302 818.833 712.302C818.833 712.302 816.057 715.232 813.474 715.891C810.892 716.549 798.497 713.593 797.387 711.927C796.276 710.261 789.808 699.351 805.159 684.735C805.159 684.735 808.671 681.779 806.089 678.267C803.494 674.755 801.092 677.337 800.176 672.715V672.702Z" fill="#438E91"/>
<path d="M793.243 684.077C794.895 685.368 795.825 685.342 797.581 684.787C799.092 684.322 800.422 683.677 802.307 682.411C802.617 684.8 800.667 686.943 798.472 687.589C796.135 688.544 792.649 686.93 793.243 684.064V684.077Z" fill="#074057"/>
<path d="M820.615 678.344C822.294 678.512 824.101 679.145 825.431 678.706C826.929 678.112 828.388 676.975 830.054 676.123C829.976 681.882 822.875 684.012 820.615 678.344Z" fill="#074057"/>
<path d="M964.424 651.062C964.424 651.062 941.673 640.333 932.429 642.373L935.76 643.483C935.76 643.483 907.832 648.841 903.572 663.457C903.572 663.457 902.28 671.411 909.123 676.214C909.123 676.214 901.725 659.016 920.227 652.728L916.522 652.173C916.522 652.173 927.69 644.774 943.533 646.814C959.375 648.854 964.436 651.062 964.436 651.062H964.424Z" fill="#074057"/>
<path d="M933.951 686.478C933.951 686.478 894.145 690.649 884.332 665.678C884.332 665.678 882.486 668.454 883.222 671.785C883.222 671.785 877.309 666.052 878.045 653.283C878.045 653.283 864.358 661.611 872.493 681.585C872.493 681.585 871.008 683.406 867.87 680.281C867.87 680.281 866.941 690.391 886.553 697.092C886.553 697.092 898.768 701.946 909.303 702.127C909.303 702.127 899.865 699.274 898.199 697.092C898.199 697.092 907.263 700.281 914.287 699.351C914.287 699.351 905.959 696.201 904.294 693.993C904.294 693.993 922.047 697.789 928.335 695.245C928.335 695.245 916.121 692.172 913.358 689.293C913.358 689.293 930.272 690.081 933.939 686.491L933.951 686.478Z" fill="#438E91"/>
<path d="M764.126 664.916C778.122 663.005 787.186 670.326 787.186 670.326C787.186 670.326 790.208 665.717 797.761 665.239C797.761 665.239 811.047 657.131 817.89 658.086C817.89 658.086 815.346 647.912 819 631.527C822.654 615.142 822.835 613.67 822.835 613.67C822.073 613.206 824.139 613.838 824.953 603.535C825.637 594.871 816.625 618.706 815.708 625.911C814.791 633.115 807.754 651.617 807.754 651.617C798.51 650.507 795.359 656.795 789.071 658.77C782.784 660.746 782.603 663.832 782.603 663.832C769.097 654.032 755.592 663.651 755.592 663.651L758.549 663.47C742.267 669.939 746.889 683.999 746.889 683.999C746.889 683.999 750.117 666.84 764.113 664.929L764.126 664.916Z" fill="#074057"/>
<path d="M994.031 658.77C993.27 657.531 992.456 656.317 991.578 655.155C991.385 654.961 991.191 654.768 990.984 654.587C993.192 658.602 994.522 660.668 994.031 658.783V658.77Z" fill="#074057"/>
<path d="M842.036 660.939C842.036 660.939 848.428 650.287 852.559 649.332C856.691 648.376 893.902 629.706 937.169 642.231L961.985 645.2C961.985 645.2 958.963 640.591 961.985 639.48C964.476 638.564 983.392 647.447 990.971 654.587C990.842 654.354 990.726 654.135 990.596 653.903C982.204 643.38 969.99 636.575 965.341 635.362C956.097 632.96 955.542 638.138 955.542 638.138C955.542 638.138 912.262 618.344 881.739 626.478C866.981 630.416 850.958 635.994 838.344 640.707C838.344 640.707 842.656 651.888 842.036 660.965V660.939Z" fill="#074057"/>
<path d="M979.336 663.328C979.336 663.328 990.969 680.281 933.952 686.466L921.092 689.267C921.092 689.267 952.454 699.106 971.86 685.755C991.266 672.392 979.336 663.328 979.336 663.328Z" fill="#074057"/>
<path d="M816.445 679.003C815.877 678.744 815.425 678.409 815.038 678.06H815.025C815.025 678.06 811.229 678.628 807.02 681.301C806.826 683.328 805.161 684.735 805.161 684.735C799.906 689.732 797.207 694.303 795.98 698.215C798.033 697.389 801.029 696.588 804.295 697.092C810.248 698.008 824.399 690.842 824.399 690.842C824.399 690.842 831.9 689.487 835.309 693.993C834.379 687.705 821.623 681.417 816.445 679.015V679.003Z" fill="#5CC0B7"/>
<path d="M884.332 665.678C884.332 665.678 882.486 668.454 883.222 671.785C883.222 671.785 894.287 685.859 922.06 689.229C926.811 688.983 932.079 688.299 933.939 686.465C933.939 686.465 894.132 690.636 884.32 665.665L884.332 665.678Z" fill="#5CC0B7"/>
<path d="M805.354 694.716C805.354 694.716 809.06 691.759 812.378 689.913C814.379 688.803 818.291 689.358 821.119 689.977C823.004 690.391 824.398 690.843 824.398 690.843C824.398 690.843 824.773 696.575 823.469 698.241C822.165 699.906 816.806 702.489 817.736 704.903C817.736 704.903 816.07 702.682 811.629 702.682C807.187 702.682 802.01 698.615 805.341 694.729L805.354 694.716Z" fill="#072B47"/>
<path d="M421.147 708.596C421.147 708.596 410.533 708.596 414.2 711.669C417.867 714.742 430.895 713.463 433.555 714.845C436.214 716.226 445.446 718.731 453.942 717.143C462.438 715.555 452.199 713.915 452.199 713.915C452.199 713.915 467.06 714.535 472.689 715.568C478.332 716.588 484.684 719.867 489.9 719.971C495.117 720.074 513.877 718.538 513.877 718.538C513.877 718.538 515.104 716.278 513.464 715.568C511.824 714.858 529.384 715.361 531.372 714.29C533.361 713.218 523.302 712.908 523.302 712.908L421.121 708.596H421.147Z" fill="#074057"/>
<path d="M524.968 713.605C524.968 713.605 527.137 710.261 526.737 708.299C526.336 706.336 518.873 707.318 518.873 707.318C518.873 707.318 513.76 704.167 512.379 703.38C512.379 703.38 514.742 698.267 514.742 694.729C514.742 694.729 508.247 695.116 508.054 701.417C508.054 701.417 504.709 702.992 504.709 697.092C504.709 691.191 507.072 693.554 505.884 692.379L504.709 691.204C504.709 691.204 505.303 688.454 504.709 688.054C504.116 687.653 501.559 683.535 494.884 699.661C494.884 699.661 485.639 697.492 479.545 697.698C473.451 697.905 452.805 690.623 447.098 690.817C441.391 691.01 416.614 698.125 421.146 711.475C421.146 711.475 432.16 711.656 434.122 713.618C436.085 715.581 447.692 717.35 447.886 715.581C448.08 713.812 448.273 711.462 448.273 711.462H466.956C466.956 711.462 479.338 717.156 487.602 717.156C495.865 717.156 509.822 717.156 509.822 717.156C509.822 717.156 510.61 714.987 509.228 714.212L524.955 713.618L524.968 713.605Z" fill="#5CC0B7"/>
<path d="M525.639 710.726C525.639 710.726 527.641 709.048 527.641 708.247C527.641 707.447 525.162 706.246 524.361 706.478C523.561 706.711 521.805 707.085 521.805 707.085C521.805 707.085 525.472 709.358 525.639 710.726Z" fill="#04253F"/>
<path d="M437.337 700.074C440.617 701.12 448.157 705.123 448.157 705.123C446.633 699.751 435.981 697.595 435.981 697.595C435.981 697.595 440.229 696.549 442.308 696.317C444.387 696.072 464.826 701.443 467.072 702.23C469.319 703.018 487.021 704.412 487.021 704.412C487.021 704.412 492.715 701.21 493.593 701.288C494.471 701.365 496.962 703.289 496.962 703.289C496.562 695.917 502.166 689.345 503.057 688.789C503.935 688.234 504.735 688.066 504.58 688.789C504.425 689.513 504.09 691.914 504.09 691.914L505.91 692.392L504.658 692.792C503.38 696.64 504.58 700.087 505.058 701.288C505.536 702.489 515.878 707.137 515.878 707.137L514.032 708.983C514.032 708.983 518.357 708.906 520.203 708.983C522.05 709.061 525.652 710.752 525.652 710.752C525.652 710.752 526.155 710.132 526.659 709.913C526.233 711.707 524.981 713.631 524.981 713.631L509.254 714.225C510.636 715.013 509.848 717.169 509.848 717.169C509.848 717.169 495.891 717.169 487.627 717.169C479.364 717.169 466.982 711.475 466.982 711.475H448.299C448.299 711.475 448.105 713.825 447.912 715.594C447.718 717.363 436.11 715.594 434.148 713.631C432.185 711.669 421.172 711.488 421.172 711.488L422.373 705.394C424.296 699.467 434.07 699.067 437.363 700.1L437.337 700.074Z" fill="#1E5B72"/>
<path d="M450.198 716.756C450.198 716.756 462.98 719.144 463.793 721.094C464.607 723.044 433.839 721.753 433.839 721.753C433.839 721.753 446.647 725.768 424.865 726.465C403.083 727.163 343.923 719.622 343.923 719.622C343.923 719.622 348.739 725.923 344.71 727.24C340.682 728.557 337.196 731.243 332.651 730.248C328.106 729.254 314.304 719.299 307.667 719.997C301.031 720.694 269.746 722.811 269.746 709.874L450.185 716.743L450.198 716.756Z" fill="#074057"/>
<path d="M271.98 702.243C271.98 702.243 271.425 695.865 275.582 693.089C279.74 690.313 273.916 676.717 277.519 673.67C281.121 670.623 288.623 665.626 295.556 667.563C302.49 669.5 328.584 671.165 334.123 669.784C339.675 668.402 360.488 668.402 365.756 670.894C371.024 673.386 403.212 682.269 403.212 682.269C403.212 682.269 405.149 676.717 407.099 677.001C409.048 677.285 416.253 681.159 418.474 680.049C420.695 678.938 425.136 677.273 428.467 677.557C431.799 677.841 435.13 680.333 435.13 680.333C435.13 680.333 439.842 679.222 440.398 680.333C440.953 681.443 443.729 691.708 443.729 693.928C443.729 696.149 455.388 695.594 455.388 700.307C455.388 705.019 450.12 718.615 448.454 719.17C446.789 719.726 429.862 719.17 429.862 719.17C429.862 719.17 427.37 723.883 424.594 724.438C421.818 724.994 370.766 719.442 365.769 719.726C360.772 719.997 360.772 717.234 360.772 717.234L341.909 716.963C341.909 716.963 345.24 718.899 343.574 722.515C341.909 726.13 337.196 727.511 333.581 727.227C329.978 726.956 315.543 716.679 307.215 717.789C298.887 718.899 266.983 713.838 271.967 702.243H271.98Z" fill="#5CC0B7"/>
<path d="M368.081 695.955C365.473 698.783 363.485 702.23 362.478 705.91C361.806 708.686 361.703 711.423 361.29 714.225C361.161 715.181 361.148 716.149 360.915 717.195L360.657 717.246C357.261 711.617 359.947 704.735 363.601 699.945C364.866 698.37 366.286 696.911 367.926 695.762L368.094 695.968L368.081 695.955Z" fill="#1E5B72"/>
<path d="M341.908 716.95C334.342 709.577 309.978 707.834 299.21 706.904C304.943 705.2 310.972 703.393 316.008 700.139C318.28 698.447 319.442 697.298 317.57 694.755C313.671 688.79 309.488 682.76 304.31 677.841L303.962 677.569L303.626 677.389C301.25 676.911 298.642 677.053 296.202 676.976L288.648 677.001C293.736 676.782 298.758 676.098 303.845 676.717C304.478 676.963 305.02 677.44 305.511 677.879C310.533 682.721 314.794 688.299 318.59 694.148C319.352 695.297 320.204 696.795 319.507 698.176C317.467 701.74 313.387 703.096 309.914 704.671C307.551 705.613 305.149 706.427 302.696 707.137L302.58 705.962C313.116 707.072 334.691 709.19 341.947 716.963L341.908 716.95Z" fill="#1E5B72"/>
<path d="M443.755 693.915C443.755 691.695 440.979 681.43 440.424 680.32C439.869 679.209 435.156 680.32 435.156 680.32C435.156 680.32 431.825 677.828 428.494 677.544C425.163 677.26 420.721 678.925 418.5 680.036C416.28 681.146 409.062 677.26 407.125 676.988C405.189 676.717 403.239 682.256 403.239 682.256C403.239 682.256 371.051 673.373 365.783 670.881C360.515 668.389 339.701 668.389 334.149 669.771C328.597 671.152 302.516 669.5 295.583 667.55C288.649 665.6 281.148 670.597 277.545 673.657C276.796 674.29 276.474 675.387 276.357 676.743C276.474 676.704 284.75 673.748 283.924 676.743C283.084 679.764 298.63 676.433 300.579 679.493C302.529 682.553 314.459 688.648 316.68 692.263C318.901 695.865 316.951 684.49 315.299 682.269C313.646 680.048 332.781 685.316 338.604 682.269C344.427 679.222 372.458 686.156 376.615 688.648L398.578 690.481C398.578 690.481 404.362 685.329 407.138 685.329C409.914 685.329 415.892 692.973 415.892 692.973C415.892 692.973 419.637 687.55 423.51 686.44C427.396 685.329 441.547 690.068 441.547 692.973C441.547 695.878 434.33 694.212 431.283 699.493C431.283 699.493 445.989 702.824 445.434 706.569C445.434 706.569 450.805 705.252 455.014 703.354C455.272 702.166 455.427 701.107 455.427 700.32C455.427 695.607 443.768 696.162 443.768 693.941L443.755 693.915Z" fill="#97D5D1"/>
<path d="M442.476 699.119C442.476 699.119 451.023 695.994 453.696 699.106C456.369 702.218 455.104 704.103 455.104 704.103L448.157 707.176L446.595 707.873C446.595 707.873 441.082 703.573 442.476 699.132V699.119Z" fill="#072B47"/>
<path d="M424.879 694.625C424.879 694.625 425.809 696.097 427.668 695.71C429.527 695.323 431.774 694.625 431.774 694.625C431.774 694.625 431.154 697.724 428.985 697.724C426.816 697.724 424.879 694.625 424.879 694.625Z" fill="#1E5B72"/>
<path d="M380.566 707.098C380.566 707.098 390.947 712.056 396.138 712.056C401.328 712.056 414.73 710.662 417.054 713.296V711.591C417.054 711.591 427.358 712.134 426.97 713.915C426.97 713.915 429.062 712.211 428.326 710.972C427.59 709.732 414.033 707.64 406.674 708.105C399.314 708.57 381.574 708.415 380.566 707.098Z" fill="#97D5D1"/>
<path d="M298.371 707.64C298.371 707.64 322.851 710.662 325.485 712.056C328.119 713.451 335.944 716.627 336.486 717.711C337.028 718.796 336.873 722.127 338.19 722.359C338.19 722.359 343.484 723.793 343.936 719.635C344.388 715.478 327.771 707.098 298.371 707.64Z" fill="#97D5D1"/>
<path d="M434.729 713.451C434.729 713.451 438.24 713.515 440.435 713.451C442.63 713.386 446.594 707.86 446.594 707.86C446.594 707.86 448.621 716.549 448.557 716.756C448.492 716.963 447.588 713.386 445.535 713.321C443.483 713.257 440.991 715.387 439.829 715.323C438.667 715.258 434.741 713.463 434.741 713.463L434.729 713.451Z" fill="#1E5B72"/>
<path d="M403.238 682.256C400.94 687.408 398.048 692.379 396.899 697.802C396.718 698.757 397.079 699.713 397.376 700.617C398.074 702.811 399.236 704.283 401.65 703.986C404.039 703.677 406.699 704.877 408.881 704.348C410.198 703.754 411.592 702.992 412.405 701.662C414.691 697.957 415.349 693.192 416.279 688.906C416.279 694.626 416.55 702.902 410.662 706.039C409.875 706.582 408.597 707.008 407.693 706.956C405.73 706.917 404.349 706.478 402.58 706.517C401.289 706.582 399.972 706.685 398.706 706.13C395.75 704.8 394.743 701.352 394.549 698.447C394.652 696.859 395.246 695.323 395.853 693.967C397.815 689.693 400.372 685.859 403.238 682.243V682.256Z" fill="#1E5B72"/>
<path d="M331.556 737.66C331.246 733.774 344.119 734.871 343.357 737.66C342.595 740.449 330.51 737.557 328.109 741.082C325.707 744.606 332.176 750.171 320.568 750.391C308.961 750.623 276.346 746.053 276.346 746.053C276.346 746.053 248.716 758.745 227.528 754.677C206.34 750.61 182.544 735.142 174.758 739.997C174.758 739.997 198.296 755.039 166.043 757.247C133.79 759.455 29.749 770.959 26.25 747.963V722.592L326.688 733.167L331.543 737.66H331.556Z" fill="#074057"/>
<path d="M31.0273 724.593C31.0273 724.593 18.968 672.663 78.6063 669.655C138.245 666.634 152.654 669.655 159.678 667.641L150.962 665.627C150.962 665.627 165.372 665.291 179.445 666.969C193.519 668.648 224.339 674.677 227.36 674.006C230.381 673.335 246.12 666.298 250.136 660.268C254.151 654.239 262.867 655.581 262.867 655.581C262.867 655.581 287.992 657.26 289.671 667.976C289.671 667.976 293.351 672.328 299.716 676.02C306.081 679.7 305.074 690.029 305.074 690.029C305.074 690.029 310.433 691.437 309.761 695.116C309.09 698.796 303.396 716.227 306.74 717.892C310.084 719.558 312.098 724.593 312.098 724.593C312.098 724.593 331.866 720.242 331.53 737.66L323.822 739.003C323.822 739.003 322.143 742.024 319.471 742.024C316.798 742.024 268.883 741.353 262.854 742.024C256.824 742.695 248.444 748.389 227.347 746.375C206.237 744.361 189.49 738.331 174.745 740.01C160.001 741.688 157.328 746.801 157.328 746.801C157.328 746.801 168.38 752.069 141.24 754.419C114.1 756.769 72.228 743.031 67.1925 741.688C62.1699 740.346 34.0228 733.644 31.0144 724.606L31.0273 724.593Z" fill="#072B47"/>
<path d="M266.559 705.058C266.559 705.058 266.223 698.46 257.508 700.797C248.792 703.134 237.069 701.469 234.732 706.491C232.395 711.514 223.344 721.236 219.651 721.572C219.651 721.572 224.674 724.916 227.695 721.572C227.695 721.572 218.308 728.609 219.651 732.96C219.651 732.96 223.666 727.266 226.688 729.28C226.688 729.28 224.002 732.301 225.681 739.325L228.702 735.31C228.702 735.31 231.052 748.376 236.074 750.391C236.074 750.391 234.06 745.032 235.403 742.347C235.403 742.347 241.665 748.751 256.242 747.782C256.242 747.782 259.69 747.201 262.001 745.859C262.001 745.859 255.093 746.052 254.525 745.097C254.525 745.097 258.218 744.477 262.892 742.011L262.582 743.948C262.582 743.948 269.683 738.77 271.981 734.174C274.28 729.577 271.22 720.178 271.981 713.657C271.981 713.657 270.445 717.105 268.908 717.492C267.372 717.879 266.571 705.071 266.571 705.071L266.559 705.058Z" fill="#5CC0B7"/>
<path d="M244.339 726.504C244.339 726.504 242.609 717.879 244.339 714.807C246.069 711.734 251.247 711.927 251.247 711.927L259.678 715.568C259.678 715.568 263.9 720.94 263.706 727.653C263.513 734.367 258.916 734.561 258.916 734.561C258.916 734.561 249.71 731.114 247.606 731.114C245.501 731.114 239.936 738.977 241.847 740.707C241.847 740.707 237.819 743.78 238.593 740.707C239.368 737.634 244.726 730.352 244.726 730.352C244.726 730.352 235.159 737.931 230.924 733.606V729.19C230.924 729.19 232.267 732.263 233.997 732.637C235.727 733.012 244.352 726.504 244.352 726.504H244.339Z" fill="#0C121D"/>
<path d="M252.395 687.576C252.395 687.576 249.516 693.515 252.395 695.439C255.274 697.363 261.02 696.976 261.02 696.976L254.887 693.335L252.395 687.576Z" fill="#0C121D"/>
<path d="M274.254 707.524C274.254 707.524 272.717 713.464 276.358 715.388C279.999 717.311 283.266 715.388 283.266 715.388C283.266 715.388 278.85 715.581 277.507 713.464C276.164 711.346 274.254 707.524 274.254 707.524Z" fill="#0C121D"/>
<path d="M303.216 692.289C306.663 691.63 309.052 698.099 309.052 698.099C309.401 696.795 309.659 695.736 309.775 695.103C310.446 691.424 305.088 690.016 305.088 690.016C305.088 690.016 306.095 679.7 299.73 676.007C293.365 672.315 289.685 667.963 289.685 667.963C288.006 657.247 262.88 655.568 262.88 655.568C262.88 655.568 254.165 654.226 250.15 660.255C246.134 666.285 230.382 673.322 227.374 673.993C224.352 674.665 193.533 668.635 179.459 666.956C165.386 665.278 150.976 665.614 150.976 665.614L159.692 667.628C152.655 669.642 138.245 666.621 78.6201 669.642C44.482 671.372 33.8429 689.125 30.9766 704C39.2658 689.164 60.092 689.332 61.7964 688.532C66.8577 686.169 52.5905 700.294 52.5905 700.294C61.2153 697.867 95.5471 693.515 105.515 692.289C115.482 691.062 120.092 697.001 120.092 697.001C121.241 693.012 118.168 690.636 118.168 690.636C107.051 680.862 82.1191 690.83 82.1191 690.83C102.442 671.656 121.809 687.576 121.809 687.576C145.967 673.967 225.747 681.249 232.642 678.177C239.549 675.104 246.831 668.209 250.085 666.672C253.339 665.136 254.772 672.934 254.772 672.934C260.608 669.035 263.707 658.047 263.707 658.047C261.602 664.568 267.541 672.044 267.541 672.044C273.3 673.193 284.985 683.548 284.985 683.548C292.086 682.205 303.203 692.289 303.203 692.289H303.216Z" fill="#074057"/>
<path d="M40.8908 709.823C40.8908 709.823 37.6371 723.819 50.0967 723.625C62.5563 723.431 75.0289 727.085 87.1011 723.625L79.238 720.746C79.238 720.746 109.348 720.823 124.299 705.058C124.299 705.058 115.481 706.75 103.783 707.512L106.275 705.058C106.275 705.058 78.0889 709.435 68.4956 709.242L72.9114 707.512C72.9114 707.512 46.8301 712.883 40.8908 709.81V709.823Z" fill="#074057"/>
<path d="M123.345 734.742C123.345 734.742 146.741 733.012 147.502 741.069C147.502 741.069 150.575 738.189 149.607 736.085C149.607 736.085 162.983 735.349 160.156 741.069C160.156 741.069 170.33 733.967 160.543 732.637C150.756 731.307 123.332 734.742 123.332 734.742H123.345Z" fill="#074057"/>
<path opacity="0.5" d="M313.377 726.995C313.377 726.995 325.566 727.176 329.349 729.138C333.132 731.101 329.659 719.609 312.125 724.593L313.377 726.995Z" fill="white"/>
<path d="M243.047 700.307C243.047 700.307 236.488 698.951 233.609 704.012L232.24 710.481C232.24 710.481 237.25 706.375 240.504 706.182C240.504 706.182 236.669 711.824 236.282 711.876C235.894 711.927 243.383 709.629 243.951 710.584C244.519 711.54 244.338 714.806 244.338 714.806C244.338 714.806 249.193 712.508 256.062 714.806C262.931 717.105 268.586 704.077 265.449 702.256C262.311 700.436 243.034 700.307 243.034 700.307H243.047Z" fill="#97D5D1"/>
<path d="M257.379 663.987C257.379 663.987 258.915 673.193 248.947 676.834C238.98 680.475 238.98 690.443 238.98 690.443L236.1 692.276C236.1 692.276 238.592 692.96 241.665 692.276C241.665 692.276 235.532 697.337 232.072 696.188L225.268 680.849C225.268 680.849 231.53 692.379 234.448 690.998C234.448 690.998 240.129 678.357 244.532 676.446C248.934 674.536 257.159 672.237 257.379 663.987Z" fill="#0C121D"/>
<path d="M122.259 695.452C122.259 695.452 139.909 722.14 119.896 734.096L141.304 732.327L133.931 728.673C133.931 728.673 139.354 700.449 122.259 695.452Z" fill="#0C121D"/>
<path d="M302.144 695.852C302.312 695.284 289.891 735.465 265.152 741.869L290.188 741.74C290.188 741.74 292.912 727.382 313.377 726.982L295.895 725.329C295.895 725.329 301.085 699.416 302.144 695.839V695.852Z" fill="#0C121D"/>
</svg>
