<svg width="1024" height="768" viewBox="0 0 1024 768" fill="none" xmlns="http://www.w3.org/2000/svg">
<g clip-path="url(#clip0_1_1542)">
<g clip-path="url(#clip1_1_1542)">
<path d="M597.561 463.449C597.561 463.449 596.077 460.819 595.296 460.91C594.515 461.002 596.09 465.571 596.142 465.18C596.142 465.18 596.65 467.42 596.377 468.865C596.103 470.31 595.973 474.033 596.377 476.181C596.78 478.329 597.132 483.679 596.963 484.031C596.963 484.031 595.231 484.382 595.01 484.903C594.789 485.424 595.492 486.088 595.492 486.088L599.176 485.958C599.176 485.958 599.228 486.413 600.959 486.088C602.691 485.762 602.456 485.58 602.456 485.58C602.456 485.58 602.899 486.062 603.901 485.945C604.904 485.827 608.249 484.916 608.249 484.916C608.249 484.916 613.209 484.044 613.405 477.431C613.405 477.431 611.257 480.256 609.525 480.737C609.525 480.737 610.046 480.685 609.76 480.112C609.76 480.112 608.913 481.31 608.692 481.505C608.692 481.505 608.991 476.038 607.091 475.322C607.091 475.322 605.724 472.679 603.563 472.536C603.563 472.536 601.571 466.053 601.923 463.931C601.923 463.931 602.6 460.468 601.571 460.26C601.089 460.155 599.918 463.058 599.918 463.058C599.527 463.202 599.137 462.915 598.694 463.098C598.251 463.28 597.718 462.876 597.535 463.462L597.561 463.449Z" fill="#914120"/>
<path d="M334.553 599.841L387.147 588.163L387.72 456.849L389.972 447.736C389.972 447.736 363.298 422.233 363.298 421.569C363.298 420.905 364.17 401.847 364.17 401.847H375.782L375.561 396.587H364.378L365.042 381.46L358.689 380.588L358.247 396.809H349.915L350.136 401.847L358.468 402.068C358.468 402.068 358.246 420.476 358.025 421.361C357.804 422.246 334.527 443.935 334.527 443.935V599.841H334.553Z" fill="#914120"/>
<path d="M456.899 507.711L456.456 498.728L459.529 499.6V495.435L456.027 493.026C446.771 464.686 432.021 455.755 427.686 453.672L428.324 440.055L431.982 438.962C431.982 438.962 433.245 438.688 433.245 437.803C433.245 436.918 432.49 437.191 432.49 437.191L428.181 438.389V431.307C428.181 431.307 428.011 430.695 427.126 430.76C426.241 430.825 426.345 431.515 426.345 431.515L426.553 438.936L423.403 440.133C423.403 440.133 422.817 440.342 422.895 441.019C422.96 441.709 423.989 441.526 423.989 441.526L426.592 440.563L426.449 453.138C419.003 457.747 414.746 468.838 414.746 468.838L407.391 554.615L468.758 568.428L470.516 514.506L456.925 507.711H456.899Z" fill="#914120"/>
<path d="M470.087 531.417L442.853 515.847V523.632L418.535 509.364L415.944 477.261C415.944 477.261 416.27 474.02 418.535 472.067L389.973 447.723C389.973 447.723 386.432 449.702 387.721 456.836C389.009 463.97 387.148 588.15 387.148 588.15L334.554 599.828V427.011L331.638 424.746C331.638 424.746 332.289 416.31 340.712 418.588L344.279 400.102L284.617 320.34L277.157 352.117V367.687C277.157 367.687 272.184 367.036 275.322 380.328L278.133 382.593V617.012H1028.79V316.447L1014.16 326.172C1014.16 326.172 1006.7 267.486 986.272 267.486C986.272 267.486 961.303 296.347 961.303 354.057L921.103 377.399V607.938H782.003L782.654 374.808C782.654 374.808 782.328 365.083 787.523 362.493V356.661L722.028 401.404L721.703 408.213C721.703 408.213 725.595 406.911 726.897 415.347C728.199 423.782 726.897 597.888 726.897 597.888L675.019 586.536V535.309L672.429 528.175L647.134 541.142L646.484 493.807L650.05 491.868L649.725 485.71L645.507 488.952L644.205 477.6L647.447 475.972L646.47 471.429L643.229 473.694L637.071 453.92L640.638 452.618L637.397 448.074L602.703 482.117L606.596 485.033L603.029 487.624L604.656 496.697L601.089 498.963L602.065 504.795L605.307 503.493L604.656 514.194L595.582 520.026L593.643 484.031L575.482 508.023L576.133 563.142H466.22L470.113 531.365L470.087 531.417Z" fill="#FCB873"/>
<path d="M-1.55078 283.693L32.2965 278.981V328.489L-0.847798 319.428L-1.55078 283.693Z" fill="#3A1610"/>
<path d="M285.332 320.34L228.494 322.292L232.725 617.285L278.836 617.012V382.593L275.906 382.124C275.906 382.124 273.498 374.678 280.072 371.384L281.608 352.755L285.332 320.34Z" fill="#3A1610"/>
<path d="M637.397 448.088L680.683 449.337C680.683 449.337 682.687 452.917 682.258 452.917C681.828 452.917 685.981 452.917 685.981 452.917L682.401 475.816L700.574 476.532C700.574 476.532 700.431 481.115 699.858 481.115H697.567V489.42H702.436V493.86H699.715L700.288 524.635L727.314 524.205L726.884 597.901L675.007 586.549V535.323L672.416 528.189L647.122 541.155L646.471 493.82L650.038 491.881L649.712 485.723L645.494 488.965L644.193 477.613L647.434 475.986L646.458 471.442L643.216 473.707L637.059 453.933L640.626 452.631L637.384 448.088H637.397Z" fill="#914120"/>
<path d="M1014.16 326.172L1028.79 316.447V286.571C1028.79 286.571 1014.95 265.429 992.051 263.32V231.608L1007.2 220.035L1007.56 212.588H1002.97L992.051 222.807V199.192L988.171 196.732L982.534 202.161L984.292 228.093L974.424 237.922V242.543L978.303 242.894L984.643 237.922L986.27 267.499C986.27 267.499 1004.2 266.418 1014.16 326.185V326.172Z" fill="#3A1610"/>
<path d="M999.809 396.991C999.809 396.991 993.821 389.818 980.074 385.249C980.074 385.249 960.69 401.808 962.46 443.388C964.23 484.968 967.745 605.126 967.745 605.126H991.712C991.712 605.126 983.836 440.12 983.966 441.526C985.125 455.299 985.021 403.096 999.822 396.991H999.809Z" fill="#3A1610"/>
<path d="M593.629 484.083L595.569 520.065L604.642 514.233L605.293 503.532L602.052 504.834L601.075 499.001L604.642 496.723L603.028 487.65L606.595 485.059L593.629 484.083Z" fill="#914120"/>
<path d="M-1.55078 319.806L31.5936 328.88V279.371L85.7883 304.119L91.7246 617.402L-1.55078 623V319.806Z" fill="#FCB873"/>
<path d="M787.522 356.661L812.661 359.29L816.28 610.672L782.016 607.938L782.823 371.723C782.823 371.723 782.953 364.198 787.522 362.493V356.661Z" fill="#3A1610"/>
<path d="M344.24 400.154C335.973 394.804 328.254 388.738 320.651 382.515C307.477 372.79 293.925 363.586 281.57 352.807L281.648 352.703C295.396 361.647 307.958 372.165 320.911 382.176C328.826 387.839 337.34 393.567 344.253 400.154H344.24Z" fill="#914120"/>
<path d="M64.335 347.34C55.5346 346.454 46.9036 344.671 38.2985 342.692C23.9264 340.114 8.82533 338.539 -5 334.438C9.6585 335.962 23.9525 339.424 38.3767 342.275C47.0077 343.603 56.1986 344.723 64.335 347.326V347.34Z" fill="#914120"/>
<path d="M50.0412 353.719C43.5451 353.263 37.2182 351.896 30.9304 350.347C20.3987 348.472 9.15098 347.6 -0.833984 344.228C9.97113 345.048 20.4247 347.795 31.0085 349.943C37.3224 350.842 44.222 351.545 50.0412 353.732V353.719Z" fill="#914120"/>
<path d="M81.8707 320.457C75.0101 319.181 68.8264 316.096 62.812 312.737C56.5242 310.016 49.7287 308.545 43.48 305.642C39.3141 303.755 35.2264 301.711 31.334 299.159L31.4381 298.925C38.2206 300.461 44.6126 302.895 50.8222 305.89C55.0011 307.738 58.8414 310.381 63.1375 311.956C67.4725 313.401 71.9508 314.508 75.9994 316.734C78.0433 317.775 80.0611 318.856 81.9748 320.21L81.8707 320.444V320.457Z" fill="#914120"/>
<path d="M1014.22 326.289C1008.44 330.872 1001.74 333.788 994.916 336.378C988.407 339.594 982.523 344.007 975.922 347.079C971.548 349.162 967.096 351.076 962.396 352.508L962.279 352.274C968.203 347.925 974.542 344.437 981.221 341.455C985.582 339.346 990.32 337.993 994.538 335.623C998.691 333.124 1002.67 330.299 1007.23 328.541C1009.46 327.591 1011.72 326.693 1014.1 326.042L1014.22 326.276V326.289Z" fill="#914120"/>
<path d="M1029.21 335.975C1016.7 343.955 1003.3 350.269 989.761 356.27C976.534 362.896 963.92 370.681 950.615 377.164C941.776 381.512 932.832 385.678 923.654 389.388L923.537 389.154C936.178 381.408 949.248 374.509 962.618 368.143C971.457 363.768 980.661 360.136 989.37 355.502C998.001 350.724 1006.48 345.647 1015.5 341.625C1019.96 339.529 1024.48 337.537 1029.09 335.727L1029.21 335.962V335.975Z" fill="#914120"/>
<path d="M1029.21 344.788C1016.67 352.456 1003.27 358.444 989.748 364.107C976.521 370.408 963.894 377.88 950.589 384.025C941.75 388.165 932.806 392.096 923.654 395.598L923.537 395.364C936.204 387.93 949.274 381.356 962.644 375.329C971.483 371.176 980.674 367.765 989.383 363.352C998.014 358.796 1006.5 353.927 1015.51 350.125C1019.98 348.134 1024.48 346.259 1029.09 344.567L1029.21 344.801V344.788Z" fill="#914120"/>
<path d="M960.326 603.629C958.412 560.435 957.123 517.214 956.564 473.981C956.394 459.543 956.316 445.093 956.082 430.643C960.079 412.209 966.145 394.023 975.844 377.763L976.039 377.438L976.403 377.464C996.23 379.325 1011.84 393.398 1015.31 413.055C1015.63 455.82 1015.55 514.324 1015.04 557.089C1014.9 569 1014.55 593.175 1014.27 605.1H1014.01L1013.56 581.094C1013.04 546.674 1012.72 495.63 1012.76 461.067C1012.62 461.314 1013.06 412.144 1013 413.277C1010.72 399.855 1001.98 387.761 989.357 382.332C985.23 380.484 980.765 379.169 976.312 378.687L976.872 378.401C966.887 394.309 960.703 412.444 957.006 430.786C958.829 487.689 961.146 546.765 960.313 603.59L960.326 603.629Z" fill="#914120"/>
<path d="M36.9715 598.539C35.188 569.43 35.2661 540.321 35.7087 511.187C34.7974 462.655 32.6234 414.149 34.3809 365.591H34.6412C37.4792 414.084 36.3857 462.642 36.5419 511.174C37.375 540.113 38.8461 570.068 36.9585 598.526L36.9715 598.539Z" fill="#914120"/>
<path d="M85.0341 331.041C78.0694 329.257 71.4301 326.601 64.8559 323.776C53.7383 319.754 41.7355 316.603 31.4121 311.188C42.9853 314.221 53.8815 319.09 65.0121 323.386C71.7295 325.573 79.0327 327.669 85.0471 331.041H85.0341Z" fill="#914120"/>
<path d="M52.8652 394.687C60.1684 395.845 67.3285 397.694 74.3713 399.92C74.5275 405.023 75.2956 410.074 75.3216 415.19C75.2565 416.362 75.3867 417.638 74.853 418.77C74.5015 419.382 73.7204 419.252 73.2387 419.226C66.3 418.51 59.5566 416.948 52.8262 415.216C59.2051 415.49 66.2089 417.013 72.731 417.846C73.0044 417.859 73.6293 417.976 73.8506 417.95C73.8896 417.976 74.1109 417.911 73.8245 418.015C74.5796 412.587 74.3973 405.921 73.8636 400.128L74.0458 400.35C66.9639 398.892 59.3353 397.369 52.8392 394.687H52.8652Z" fill="#914120"/>
<path d="M52.8529 436.176C59.3489 436.215 65.793 436.918 72.1849 438.05C72.4192 438.102 72.4062 437.998 72.4062 438.285C72.5754 443.192 73.1873 448.061 73.3305 452.969C73.2784 454.727 73.5778 456.51 72.8358 458.176C72.7447 458.359 72.3281 458.606 72.1589 458.567C71.56 458.658 70.4925 458.593 69.8937 458.593C64.2698 458.228 58.1252 457.864 52.8529 456.575C59.0625 456.562 66.1575 457.005 71.9245 457.33C71.8334 457.382 71.8074 457.421 71.8074 457.421C72.0417 456.875 72.0807 456.015 72.1458 455.364C72.4322 449.819 72.4843 443.83 71.9245 438.311L72.1458 438.532C68.9043 438.337 65.6628 438.259 62.4473 437.829C59.2318 437.438 56.0163 436.97 52.8398 436.306L52.8529 436.176Z" fill="#914120"/>
<path d="M56.6151 416.206C66.522 417.911 77.3531 419.747 87.1428 421.973L87.5203 422.064L87.5333 422.416C87.6896 427.987 88.1322 433.572 87.7156 439.144C87.6375 439.717 87.4683 440.524 86.6741 440.394C80.5816 440.042 74.5932 439.222 68.5528 438.441C64.3479 437.907 60.1691 437.243 55.9902 436.605C55.9902 430.539 56.3938 422.324 56.6151 416.206ZM56.6932 416.31C56.9536 422.064 57.253 430.383 57.3051 436.033L56.7453 435.382C66.7433 436.697 76.6892 438.584 86.6872 439.86C86.8173 439.86 86.9215 439.86 86.9866 439.86C86.9475 439.886 87.0387 439.821 87.0647 439.73C87.312 439.066 87.3381 438.298 87.4032 437.582C87.6635 432.544 87.0647 427.506 86.544 422.494L86.9345 422.936C77.0797 421.166 66.4569 418.601 56.6802 416.31H56.6932Z" fill="#914120"/>
<path d="M387.485 481.049C390.44 481.544 393.109 482.729 395.66 484.265V484.395C395.517 486.777 396.598 489.095 396.077 491.477C395.986 491.594 396.025 491.711 395.634 491.906C395.023 492.024 394.983 491.893 394.541 491.828C392.002 491.177 389.685 490.123 387.433 488.782L387.472 488.665C390.154 489.043 392.744 489.85 395.296 490.657C395.322 490.683 395.491 490.657 395.192 490.709C394.892 490.865 394.957 490.904 394.905 490.956C394.905 490.956 394.905 490.956 394.905 490.943C395.179 488.886 395.478 486.504 395.14 484.434L395.296 484.642C392.471 483.939 389.815 482.872 387.42 481.166L387.472 481.049H387.485Z" fill="#914120"/>
<path d="M387.486 496.541C390.141 496.593 392.576 497.374 394.932 498.507V498.65C394.802 501.124 395.791 503.558 395.401 506.031C395.362 506.253 395.075 506.617 394.763 506.63C394.203 506.656 394.06 506.578 393.617 506.526C391.469 506.071 389.412 505.315 387.473 504.274L387.512 504.144C388.774 504.196 390.011 504.378 391.222 504.586C392.25 504.769 393.331 505.016 394.333 505.276C394.724 505.368 394.62 505.302 394.385 505.42C394.229 505.537 394.216 505.602 394.203 505.615C394.398 504.795 394.424 503.219 394.528 502.36C394.633 501.124 394.646 499.887 394.45 498.663L394.633 498.884C392.094 498.611 389.686 497.96 387.473 496.645L387.512 496.515L387.486 496.541Z" fill="#914120"/>
<path d="M388.839 490.397C392.627 490.813 396.923 491.308 400.712 492.388C400.712 494.432 400.634 496.463 400.647 498.507C400.608 498.871 400.673 499.145 400.451 499.496C400.295 499.64 400.178 499.614 400.113 499.614C399.267 499.548 398.459 499.392 397.652 499.262C394.463 498.689 391.3 497.973 388.201 497.01C388.24 494.823 388.527 492.453 388.839 490.397ZM388.917 490.501C389.125 492.206 389.477 494.862 389.542 496.528L389.047 495.89C390.531 496.229 392.002 496.658 393.474 497.088C395.674 497.687 397.848 498.481 400.035 499.08C400.113 499.379 400.191 498.806 400.23 498.481C400.386 496.58 400.035 494.68 399.735 492.805L400.126 493.248C396.233 492.714 392.823 491.594 388.917 490.501Z" fill="#914120"/>
<path d="M646.366 498.924C644.049 501.019 641.393 502.53 638.516 503.688L638.633 503.493C638.295 505.368 638.607 507.476 638.763 509.364C638.789 509.572 638.802 509.794 638.867 509.976C638.841 510.015 638.985 510.067 638.724 509.82C638.607 509.729 638.464 509.729 638.451 509.716C638.386 509.703 638.295 509.742 638.399 509.703C638.516 509.664 638.88 509.481 638.998 509.429C641.315 508.31 643.736 507.216 646.288 506.409L646.353 506.526C644.036 508.336 641.562 509.976 638.763 510.939C636.98 511.395 637.644 508.349 637.735 507.385C637.943 506.031 638.177 504.691 638.125 503.324C640.612 501.384 643.268 499.77 646.288 498.793L646.353 498.91L646.366 498.924Z" fill="#914120"/>
<path d="M646.34 515.717C644.113 517.032 641.718 517.696 639.18 517.956L639.362 517.735C638.984 519.818 639.427 522.916 639.557 524.595C639.505 524.478 639.193 524.387 639.127 524.4C641.367 523.476 643.853 522.46 646.3 521.901L646.353 522.018C644.205 523.593 642.122 524.882 639.505 525.637C639.336 525.663 639.258 525.702 638.984 525.663C638.646 525.585 638.451 525.298 638.385 525.012C638.034 522.499 639.01 520.065 638.867 517.552C641.223 516.42 643.658 515.639 646.314 515.587L646.353 515.717H646.34Z" fill="#914120"/>
<path d="M644.869 508.257C641.002 510.21 637.696 512.137 633.751 513.569L634.051 513.152C633.751 515.196 633.256 517.539 633.673 519.479C633.504 519.414 633.673 519.44 633.725 519.388L633.985 519.271C637.526 517.422 640.976 515.378 644.595 513.686L644.231 514.285C644.322 512.254 644.66 510.405 644.856 508.257H644.869ZM644.947 508.14C645.207 510.158 645.572 512.618 645.585 514.662C641.914 516.654 638.138 518.412 634.207 519.805C633.946 519.857 633.725 520.039 633.387 519.883C633.191 519.674 633.23 519.583 633.191 519.453C633.087 517.24 633.139 515.027 633.074 512.801C636.771 510.874 641.132 509.455 644.947 508.127V508.14Z" fill="#914120"/>
<path d="M-0.834709 358.301C8.59047 359.928 27.5189 363.092 36.9181 364.81L37.3216 364.875V365.292C37.6601 384.728 37.9335 404.164 37.9075 423.6C38.0767 481.922 40.1726 540.204 40.1596 598.526V598.969L39.73 599.021C27.7012 600.427 10.6734 602.431 -1.19922 603.694C10.2047 601.872 27.7272 599.606 39.6129 598.057L39.1832 598.552C37.7382 540.256 38.4152 481.922 37.1654 423.626C36.6707 404.19 36.4755 384.754 36.3323 365.318L36.7358 365.8C27.4669 363.912 8.09578 360.501 -0.847727 358.314L-0.834709 358.301Z" fill="#914120"/>
<path d="M-0.820312 319.363C18.0951 324.102 45.3813 331.796 64.505 336.912L64.9216 337.029V347.287V347.834C61.9144 347.899 58.79 348.407 56.0692 349.67C53.5307 350.802 51.4087 353.054 51.4868 355.879L51.6821 373.415C52.346 446.317 54.1816 528.995 53.8952 601.741L53.8301 619.303H53.6999L53.3354 601.741C51.4999 522.525 52.6194 435.108 50.4844 355.853C50.5365 349.006 58.777 346.936 64.3488 346.715L63.789 347.287V337.472L64.2056 338.018C45.147 332.707 17.6004 325.078 -0.820312 319.363Z" fill="#914120"/>
<path d="M340.671 418.64C332.652 413.303 325.18 407.262 317.837 401.052C305.08 391.367 291.944 382.176 280.02 371.436L280.098 371.332C293.441 380.249 305.561 390.729 318.085 400.714C325.752 406.351 334.019 412.079 340.658 418.627L340.671 418.64Z" fill="#914120"/>
<path d="M334.515 428.235C327.004 423.092 320.078 417.247 313.27 411.246C301.54 401.847 288.704 393.007 278.186 382.541C290.657 391.146 301.892 401.274 313.543 410.92C320.69 416.362 328.423 421.895 334.528 428.235H334.515Z" fill="#914120"/>
<path d="M415.904 477.326C411.959 475.517 408.549 472.926 405.229 470.192C399.384 466.261 392.471 462.954 387.732 457.877C394.268 460.949 399.67 465.662 405.463 469.854C409.017 471.976 413.313 474.254 415.904 477.339V477.326Z" fill="#914120"/>
<path d="M419.198 581.797C418.391 572.75 418.482 563.702 418.781 554.641C418.573 539.644 417.232 524.127 418.599 509.377C419.901 524.452 419.237 539.54 419.198 554.641C419.549 563.598 420.2 573.075 419.198 581.797Z" fill="#914120"/>
<path d="M442.788 574.429C442.059 568.076 442.254 561.736 442.645 555.383C442.58 544.891 441.408 533.864 442.918 523.645C444.064 534.216 443.257 544.799 443.061 555.383C443.322 561.645 443.869 568.415 442.788 574.429Z" fill="#914120"/>
<path d="M591.95 572.593C591.221 566.241 591.416 559.901 591.807 553.548C591.742 543.055 590.57 532.029 592.08 521.809C593.226 532.38 592.419 542.964 592.224 553.548C592.484 559.81 593.031 566.592 591.95 572.593Z" fill="#914120"/>
<path d="M647.161 541.207C644.934 542.964 642.565 544.474 640.17 545.919L640.456 545.412C640.508 548.197 640.04 550.996 640.066 553.782C640.196 559.354 640.769 564.939 640.521 570.537C640.04 581.381 639.714 581.576 639.219 570.537C638.972 564.952 639.545 559.367 639.675 553.782C639.701 550.996 639.233 548.197 639.285 545.412V545.073L639.571 544.917C642.005 543.524 644.479 542.196 647.096 541.103L647.161 541.22V541.207Z" fill="#914120"/>
<path d="M637.122 453.972C633.776 458.398 629.767 462.16 625.627 465.818C619.287 472.327 613.377 479.982 606.1 485.189C611.723 477.86 618.753 471.924 625.327 465.519C628.947 461.483 632.722 456.875 637.122 453.972Z" fill="#914120"/>
<path d="M643.268 473.759C638.816 477.274 633.895 479.969 628.87 482.521C620.942 487.324 613.131 493.365 604.617 496.671C612.064 490.891 620.512 486.804 628.662 482.156C633.27 479.097 638.178 475.53 643.268 473.759Z" fill="#914120"/>
<path d="M644.243 480.255C639.336 483.966 633.972 486.869 628.504 489.615C619.834 494.758 611.268 501.124 602.025 504.769C610.227 498.65 619.418 494.224 628.296 489.251C633.347 485.983 638.724 482.221 644.243 480.255Z" fill="#914120"/>
<path d="M646.508 493.872C641.601 497.075 636.289 499.457 630.887 501.657C622.282 505.94 613.69 511.434 604.629 514.181C612.83 508.895 621.904 505.368 630.704 501.28C635.729 498.533 641.106 495.291 646.508 493.872Z" fill="#914120"/>
<path d="M675.033 535.375C670.997 538.069 666.571 539.892 662.054 541.571C654.92 544.956 647.773 549.577 640.209 551.426C646.952 547.013 654.542 544.396 661.871 541.194C666.024 538.968 670.528 536.273 675.02 535.388L675.033 535.375Z" fill="#914120"/>
<path d="M787.56 362.545C779.736 368.858 771.405 374.404 762.956 379.807C749.352 389.492 736.099 399.686 721.74 408.265L721.662 408.16C734.719 397.694 748.896 388.841 762.721 379.468C770.728 373.597 778.994 367.179 787.56 362.545Z" fill="#914120"/>
<path d="M782.693 377.477C776.118 382.658 769.049 387.071 761.863 391.328C750.355 398.97 739.016 407.822 726.857 413.993C737.845 405.401 749.913 398.462 761.629 390.977C768.386 386.225 775.402 380.953 782.693 377.477Z" fill="#914120"/>
<path d="M775.832 605.126C775.832 605.217 775.584 605.074 775.688 605.1V605.048V604.944V604.735C775.649 603.121 775.636 600.179 775.61 598.526C774.933 531.417 776.613 460.207 776.743 393.059L777.225 393.333L732.676 418.9L732.963 418.406L733.627 463.761C734.082 496.489 734.382 544.552 734.59 577.15C734.486 577.124 734.863 600.114 734.499 599.827L734.004 577.15C733.08 528.071 732.195 467.575 731.83 418.406V418.067L732.116 417.898L776.912 392.76L777.394 392.486C777.212 410.347 776.964 428.195 776.938 446.056C777.055 497.387 776.496 554.316 775.845 605.1L775.832 605.126Z" fill="#914120"/>
<path d="M328.019 599.841V441.643C321.484 439.352 324.296 430.734 324.296 430.734L291.021 407.965C290.774 414.917 285.332 413.68 285.332 413.68V603.629" stroke="#914120" stroke-width="1.30182" stroke-miterlimit="10"/>
<path d="M977.353 283.42C976.507 286.206 974.138 292.936 979.697 290.359C984.084 288.758 987.13 285.698 987.456 280.882C988.028 284.006 989.278 287.859 992.624 288.719C995.267 289.187 998.43 288.146 1000.23 286.18C1001.46 284.8 1001.88 282.73 1001.54 280.764L1001.66 280.725C1004.08 286.362 997.584 291.335 992.272 290.007C988.953 289.109 987.456 285.451 987.208 282.405H987.755C987.26 284.423 986.245 286.18 984.982 287.768C983.485 289.89 977.301 294.225 975.427 290.749C974.633 288.172 976.104 285.529 977.223 283.368L977.34 283.42H977.353Z" fill="#914120"/>
<path d="M981.884 273.37C981.988 276.507 981.077 283.615 986.206 281.168C989.76 279.306 992.416 276.559 993.731 272.719H993.861C994.303 277.067 990.502 280.946 986.414 281.741C984.175 282.405 981.767 282.053 981.051 279.488C980.504 277.393 980.908 275.258 981.741 273.331L981.871 273.357L981.884 273.37Z" fill="#914120"/>
<path d="M970.467 299.485C967.994 304.197 968.827 308.402 974.946 307.582C979.125 306.202 979.801 300.487 980.14 296.608L980.804 296.673C980.101 299.823 979.801 304.848 983.577 306.02C987.053 306.684 990.776 304.601 992.481 301.607C993.692 299.615 994.304 297.194 994.434 294.902L995.814 294.941C995.814 296.699 996.009 298.573 996.621 300.149C997.246 301.854 998.6 302.609 1000.34 301.867C1002.04 301.307 1003.65 300.396 1004.74 298.964C1005.84 297.558 1006.4 295.709 1006.29 293.861L1006.42 293.835C1007.24 297.753 1004.39 301.62 1000.71 302.83C998.535 303.885 996.283 302.896 995.423 300.656C994.629 298.769 994.434 296.842 994.447 294.889L995.827 294.928C995.501 299.979 992.637 305.564 987.261 306.502C980.374 308.129 979.294 301.828 980.166 296.517L980.83 296.582C980.856 300.943 980.244 307.257 975.219 308.624C971.21 309.379 967.239 306.879 968.84 302.479C969.205 301.372 969.712 300.331 970.376 299.394L970.48 299.459L970.467 299.485Z" fill="#914120"/>
<path d="M965.807 314.546C965.533 317.515 965.013 321.941 968.085 323.464C971.314 324.518 974.295 321.941 975.037 318.764C975.714 316.681 975.896 314.39 975.883 312.19L976.872 312.229C976.495 315.588 976.195 320.34 979.554 322.266C981.715 323.256 984.67 322.579 986.337 320.912C988.875 318.1 988.211 313.791 987.287 310.433L988.354 310.081C989.201 312.216 990.255 314.338 991.648 316.135C994.017 319.389 997.025 319.467 999.511 316.629C1001.58 313.948 1001.44 310.159 1000.75 306.957L1001.71 306.657C1002.97 310.693 1006.57 314.911 1011.23 313.87L1011.25 314C1010.16 314.286 1008.98 314.39 1007.84 314.143C1004.31 313.401 1002 310.159 1000.75 306.97L1001.71 306.67C1003.38 311.917 1002.15 319.78 995.384 320.092C990.841 319.428 988.784 314.195 987.287 310.459L988.354 310.107C989.747 314.833 989.175 322.071 983.212 322.982C976.677 324.492 975.349 316.955 975.896 312.099L976.885 312.138C977.12 316.59 976.404 322.826 971.457 324.427C966.848 325.781 964.752 322.071 965.169 317.957C965.234 316.799 965.416 315.653 965.703 314.533L965.833 314.56L965.807 314.546Z" fill="#914120"/>
<path d="M962.786 334.907C962.474 337.355 962.383 339.984 963.333 342.158C964.257 344.45 967.355 344.528 969.1 343.2C972.68 340.01 972.615 334.113 972.641 329.596L973.708 329.661C973.344 331.848 973.279 334.36 974.489 336.261C975.778 338.292 978.564 338.279 980.686 337.706C982.938 337.068 984.735 335.298 985.49 333.098C986.271 330.924 986.375 328.502 986.076 326.25L986.948 326.185C987.104 328.203 987.443 330.364 988.458 331.978C989.565 333.905 991.543 333.371 993.184 332.421C996.712 330.468 998.378 326.172 998.573 322.293L999.875 322.423C999.602 324.167 999.51 326.146 1000.2 327.682C1000.96 329.492 1002.96 329.596 1004.67 329.231C1008.99 329.635 1013.26 327.305 1013.19 322.527C1013.24 321.108 1013.01 319.676 1012.68 318.283L1012.82 318.244C1015.24 325.052 1012.15 330.507 1004.59 330.234C999.536 331.627 997.701 326.888 998.599 322.162L999.901 322.293C999.693 326.693 997.922 331.418 993.834 333.566C992.298 334.386 990.267 335.089 988.692 333.931C986.401 332.082 986.167 328.88 986.076 326.172L986.948 326.107C987.221 329.7 986.648 333.696 983.967 336.3C981.376 338.617 976.429 339.659 973.982 336.626C972.485 334.556 972.38 331.913 972.667 329.453L973.734 329.518C973.826 334.465 973.852 340.544 969.725 344.02C967.499 345.686 963.723 345.27 962.695 342.445C961.758 339.984 962.109 337.342 962.682 334.868L962.812 334.894L962.786 334.907Z" fill="#914120"/>
<path d="M991.699 605.126L983.953 441.526C983.953 441.526 987.104 402.654 999.809 396.991C999.809 396.991 1006.58 408.981 1006.41 419.565V605.113H991.699V605.126Z" fill="#914120"/>
<path d="M421.425 571.07C421.425 571.07 421.177 576.017 420.409 576.903L421.893 575.952C421.893 575.952 419.993 584.948 421.893 587.382C423.794 589.817 425.877 588.814 425.877 588.814L434.391 589.348C434.391 589.348 437.424 586.432 434.391 585.234C434.391 585.234 462.015 584.219 459.984 588.333C459.984 588.333 411.817 609.474 400.452 609.721C389.087 609.969 382.188 606.91 382.188 606.91C382.188 606.91 360.929 615.15 353.834 614.161C346.739 613.171 342.821 617.012 342.821 617.012C342.821 617.012 326.587 614.122 312.931 617.285L260.715 617.975C260.715 617.975 266.391 591.756 267.445 591.131C268.5 590.507 391.535 594.516 391.535 594.516L397.12 593.774C397.12 593.774 395.362 582.578 397.823 581.784C400.283 580.99 402.978 548.848 402.691 547.82C402.405 546.791 393.435 537.262 395.635 532.693L407.352 536.976L431.904 563.611C431.904 563.611 435.341 555.305 440.067 553.47C444.792 551.634 438.921 573.791 438.921 573.791L421.425 571.057" fill="#914120"/>
<path d="M617.44 597.888C617.44 597.888 637.058 601.924 647.121 602.614C657.184 603.304 669.421 605.517 674.889 603.577C680.357 601.637 686.722 603.212 686.722 603.212L726.884 608.459L746.372 619.785L791.74 621.477L742.727 596.925L674.993 586.562L669.174 585.768C669.174 585.768 672.025 571.747 667.703 561.841V550.072C667.703 550.072 661.662 555.423 660.66 559.68L624.652 591.236L612.441 589.244C612.441 589.244 609.785 547.208 603.354 546.661C599.865 546.362 586.717 596.612 587.354 595.389C587.354 595.389 601.102 595.362 617.427 597.901L617.44 597.888Z" fill="#914120"/>
<path d="M746.735 384.52C746.8 384.376 743.676 392.942 743.676 392.942C743.676 392.942 746.969 390.899 745.199 400.766L747.75 400.337C747.75 400.337 741.085 413.238 746.735 419.382C746.735 419.382 746.032 401.964 754.611 396.991L754.767 376.552L746.735 384.52Z" fill="#914120"/>
<path d="M788.121 357.793C788.72 357.871 780.115 364.276 780.128 367.622L782.003 366.385C782.003 366.385 779.737 376.748 780.128 379.065C780.128 379.065 780.037 401.899 777.941 405.843C777.941 405.843 777.98 401.834 776.782 401.131C776.782 401.131 774.179 408.681 776.04 414.032C776.04 414.032 765.43 398.241 765.99 385.34C766.55 372.439 777.681 356.53 788.134 357.793H788.121Z" fill="#914120"/>
<path d="M763.738 355.203C763.738 355.203 751.826 316.564 746.736 311.071L768.672 328.333L775.767 299.628L817.816 306.983L811.163 356.83L785.7 357.884L763.738 366.385V355.19V355.203Z" fill="#262B1B"/>
<path d="M795.866 353.94C795.866 353.94 766.158 330.025 766.601 253.309L774.464 260.027L766.601 242.882C766.601 242.882 764.856 208.917 786.258 180.095L789.747 189.116L790.19 172.232C790.19 172.232 801.542 154.319 813.779 146.026C813.779 146.026 827.76 179.665 825.573 214.176L816.838 228.158L825.807 224.669C825.807 224.669 830.819 311.605 795.866 353.979V353.94Z" fill="#444E30"/>
<path d="M786.689 288.016C786.689 288.016 774.894 210.219 740.383 195.365V201.041L731.205 191.434C731.205 191.434 724.214 183.571 709.803 187.059L713.735 193.178L703.685 189.103C703.685 189.103 672.233 190.119 670.488 234.68C670.488 234.68 677.909 216.337 701.94 218.511L706.314 214.137L707.629 221.558C707.629 221.558 726.415 220.868 746.502 237.075L749.118 233.352L750.433 242.139C750.433 242.139 775.337 260.951 786.689 287.99V288.016Z" fill="#444E30"/>
<path d="M775.766 233.365C775.766 233.365 752.177 170.461 739.51 159.539V166.53C739.51 166.53 741.255 152.548 713.734 150.361C713.734 150.361 725.972 160.841 728.588 171.334L722.912 169.589C722.912 169.589 731.647 192.736 748.246 209.347C764.844 225.945 775.766 233.378 775.766 233.378V233.365Z" fill="#444E30"/>
<path d="M766.601 253.296C766.601 253.296 750.002 225.06 718.98 229.434L724.226 233.365C724.226 233.365 710.857 230.553 699.492 235.383C688.14 240.213 684.039 253.296 684.039 253.296C684.039 253.296 701.08 241.671 712.002 247.776L704.673 249.963C704.673 249.963 762.721 272.576 769.165 291.218L766.601 253.296Z" fill="#444E30"/>
<path d="M765.86 355.789C765.86 355.789 785.009 302.7 755.523 278.148C726.037 253.596 692.919 260.105 692.919 260.105L698.438 263.828C698.438 263.828 685.524 261.719 678.586 262.305C671.66 262.891 670.358 264.648 665.424 261.836C665.424 261.836 661.193 274.516 691.5 278.63C691.5 278.63 686.683 281.337 681.28 280.973C681.28 280.973 690.562 290.724 718.044 291.895L713.93 293.653C713.93 293.653 739.068 297.766 751.865 310.212C764.662 322.657 765.847 355.789 765.847 355.789H765.86Z" fill="#444E30"/>
<path d="M763.737 355.202C763.737 355.202 764.206 324.662 735.436 314.677C735.436 314.677 738.612 318.673 738.495 319.962C738.495 319.962 722.99 310.094 711.834 311.149C711.834 311.149 717.822 315.497 717.939 316.786C717.939 316.786 695.392 311.735 683.636 314.794C671.881 317.853 668.483 325.482 668.483 325.482C668.483 325.482 680.108 325.248 686.331 327.825C686.331 327.825 663.08 329.465 658.029 348.498C658.029 348.498 675.994 343.33 685.159 343.095C685.159 343.095 682.217 350.373 679.171 351.792C679.171 351.792 686.331 354.499 700.547 344.514L698.086 350.854C698.086 350.854 709.946 352.495 722.873 344.866C722.873 344.866 719.579 347.326 720.881 350.503C720.881 350.503 746.137 341.807 763.75 355.202H763.737Z" fill="#444E30"/>
<path d="M768.67 359.069C768.67 359.069 751.525 345.79 728.848 358.6C728.848 358.6 735.187 359.772 736.593 361.542C736.593 361.542 718.394 361.894 709.346 375.524C709.346 375.524 715.738 374.717 716.48 375.55C716.48 375.55 700.064 383.869 700.416 400.311C700.416 400.311 707.341 394.439 710.284 393.971C710.284 393.971 697.005 403.136 707.459 426.62C707.459 426.62 712.51 403.956 719.787 400.779C719.787 400.779 717.352 405.245 718.576 410.413C718.576 410.413 726.843 404.073 728.952 392.083C728.952 392.083 730.475 394.791 729.537 399.009C729.537 399.009 738.819 395.832 744.105 382.801C744.105 382.801 744.925 385.027 744.105 386.915C744.105 386.915 756.082 378.805 761.718 370.707C767.355 362.597 768.644 359.082 768.644 359.082L768.67 359.069Z" fill="#444E30"/>
<path d="M785.711 357.897C785.711 357.897 775.14 350.503 761.627 361.777C748.114 373.05 748.948 394.661 748.948 394.661L751.525 391.719C751.525 391.719 746.708 400.063 752.345 412.392C757.982 424.72 766.561 420.619 766.561 420.619C766.561 420.619 759.635 411.454 762.213 405.349L763.736 408.291C763.736 408.291 769.842 392.435 773.135 379.156C776.429 365.877 785.698 357.897 785.698 357.897H785.711Z" fill="#444E30"/>
<path d="M460.115 533.331C460.115 533.331 460.714 532.615 462.38 532.849C464.047 533.083 467.015 539.267 467.015 539.267C467.015 539.267 466.416 540.816 465.231 542.482C464.047 544.149 461.547 540.347 461.43 539.397C461.43 539.397 461.43 546.609 462.029 550.202C462.628 553.795 464.294 558.065 461.313 562.348C458.332 566.631 459.764 582.761 460.128 583.607C460.128 583.607 463.812 584.492 464.294 585.781C464.776 587.07 463.253 588.71 463.253 588.71L455.377 588.372C455.377 588.372 455.26 589.504 451.575 588.71C447.891 587.916 448.36 587.434 448.36 587.434C448.36 587.434 447.41 588.632 445.275 588.333C443.14 588.033 436.006 585.781 436.006 585.781C436.006 585.781 425.396 583.633 424.992 567.217C424.992 567.217 429.588 574.234 433.272 575.418C433.272 575.418 432.178 575.301 432.777 573.869C432.777 573.869 434.574 576.837 435.055 577.319C435.055 577.319 434.43 563.767 438.492 561.984C438.492 561.984 441.408 555.449 446.03 555.084C446.03 555.084 449.219 541.532 448.737 539.384C448.737 539.384 448.425 541.402 446.03 541.649L444.337 537.249C444.689 535.466 447.071 531.964 448.139 531.105C449.206 530.245 450.521 532.497 450.521 532.497C450.521 532.497 451.953 529.998 452.786 530.362C453.619 530.727 454.921 531.547 455.871 532.029C456.822 532.51 458.957 530.961 460.154 533.331H460.115Z" fill="#AD804E"/>
<path d="M458.084 536.989C458.494 536.989 458.826 536.657 458.826 536.247C458.826 535.837 458.494 535.505 458.084 535.505C457.674 535.505 457.342 535.837 457.342 536.247C457.342 536.657 457.674 536.989 458.084 536.989Z" fill="black"/>
<path d="M455.051 536.989C455.46 536.989 455.793 536.657 455.793 536.247C455.793 535.837 455.46 535.505 455.051 535.505C454.641 535.505 454.309 535.837 454.309 536.247C454.309 536.657 454.641 536.989 455.051 536.989Z" fill="black"/>
<path d="M458.827 540.465C458.371 539.293 457.603 538.486 455.781 538.668C453.958 538.85 453.789 539.553 453.789 539.553C453.789 539.553 454.271 541.727 455.781 542.626C457.291 543.524 458.827 540.465 458.827 540.465Z" fill="black"/>
<path d="M458.241 544.774C458.241 544.774 457.968 551.074 457.343 551.452C456.718 551.83 454.31 552.246 454.297 549.395C454.284 546.544 453.789 544.982 453.789 544.982L456.315 543.693L458.241 544.761V544.774Z" fill="black"/>
<path d="M459.464 543.342C459.607 545.828 457.173 545.464 455.884 544.149L456.861 544.019C455.832 545.906 453.176 546.088 451.81 544.5C451.341 544.084 451.237 543.133 451.823 542.782C451.419 543.953 452.851 544.214 453.632 544.383C454.817 544.578 455.689 543.641 456.236 542.73C457.277 543.719 458.475 545.424 459.477 543.329L459.464 543.342Z" fill="black"/>
<path d="M458.084 546.31C458.084 546.31 458.422 548.471 458.084 549.551C457.745 550.632 456.886 551.257 455.78 550.905C454.673 550.554 452.811 549.291 454.295 545.958C454.295 545.958 456.118 545.425 455.988 547.495C455.988 547.495 456.443 545.789 458.084 546.323V546.31Z" fill="#F387A9"/>
<path d="M448.869 558.573C447.905 560.148 446.629 561.893 446.825 563.82C447.007 565.72 447.489 567.621 447.983 569.482H447.541C447.931 567.998 448.387 566.332 448.139 564.835L448.66 564.757C449.012 568.545 449.311 572.32 449.35 576.135C449.493 578.061 448.986 579.91 448.673 581.798C448.478 583.672 448.439 585.573 448.478 587.461L448.244 587.408C450.001 583.855 452.488 583.243 452.396 587.955L452.175 587.916C452.318 587.382 452.54 586.888 452.878 586.432C453.191 585.99 453.737 585.612 454.349 585.664L454.219 585.872C449.767 578.921 452.943 575.145 454.753 568.363L455.169 566.306C455.729 571.331 456.211 576.395 456.406 581.433C456.406 582.969 456.614 584.336 456.224 585.885L455.924 585.56C457.356 585.156 459.036 584.271 460.52 584.74C460.962 585.13 460.702 585.885 460.663 586.393C460.546 587.07 460.364 587.734 460.155 588.385L459.999 588.19C461.822 587.942 463.97 586.666 462.824 584.584L462.876 584.558C464.152 586.679 461.939 588.164 460.038 588.476C459.713 588.541 459.804 588.567 459.882 588.281C460.116 587.252 460.611 586.055 460.325 585.039C458.801 584.792 457.122 585.677 455.677 586.159C456.12 584.714 455.859 582.982 455.807 581.446C455.651 578.686 454.987 571.292 454.74 568.441L455.391 568.467C454.466 572.945 451.225 576.916 452.67 581.55C453.086 583.086 453.737 584.584 454.597 585.924C454.011 585.807 453.438 586.029 453.073 586.549C452.566 587.174 452.357 588.085 452.123 588.841C452.553 584.362 450.782 583.021 448.478 587.474L448.257 587.903C448.179 585.846 448.126 583.776 448.283 581.707C448.53 579.832 448.999 578.022 448.816 576.096C448.725 572.32 448.439 568.532 448.139 564.757L448.66 564.679C448.934 566.644 448.309 568.506 447.749 570.355C447.215 568.194 446.681 566.033 446.525 563.806C446.421 561.854 447.762 559.875 448.882 558.547L448.869 558.573Z" fill="#604529"/>
<path d="M439.626 563.676C441.201 557.87 445.64 562.778 445.575 566.488C445.809 570.068 444.312 573.479 442.164 576.186C441.097 577.54 440.068 578.946 439.274 580.443C438.923 581.159 438.545 582.11 438.962 582.565C439.157 582.8 439.561 582.904 439.951 582.969C442.125 583.229 444.169 582.487 446.46 583.086C448.504 583.724 448.192 586.471 447.528 588.033L447.476 588.163L447.345 588.189C447.007 588.254 445.106 588.567 444.82 588.619C445.523 587.564 446.564 585.664 445.119 584.778L445.145 584.726C446.629 585.416 446.031 587.356 445.393 588.463L445.184 588.163L447.228 587.695L447.046 587.851C447.489 586.549 447.879 584.31 446.252 583.737C444.208 583.229 441.956 583.919 439.847 583.594C439.404 583.516 438.897 583.412 438.519 582.969C438.142 582.513 438.194 581.914 438.311 581.485C439.04 579.389 440.628 577.749 441.969 576.056C444.221 573.44 445.263 569.899 444.989 566.553C444.82 564.913 444.377 563.155 443.141 562.062C442.555 561.502 441.696 561.176 441.032 561.645C440.042 562.322 439.964 563.298 439.6 563.702L439.626 563.676Z" fill="#604529"/>
<path d="M598.446 538.993C598.446 538.993 601.623 532.471 603.289 532.706C604.955 532.94 601.584 544.24 601.466 543.289C601.466 543.289 600.386 548.822 600.972 552.415C601.558 556.008 601.831 565.225 600.972 570.536C600.113 575.848 599.371 589.139 599.722 589.986C599.722 589.986 603.406 590.871 603.888 592.16C604.37 593.449 602.846 595.089 602.846 595.089L594.97 594.75C594.97 594.75 594.853 595.883 591.169 595.089C587.485 594.295 587.954 593.813 587.954 593.813C587.954 593.813 587.003 595.011 584.868 594.711C582.733 594.412 575.599 592.16 575.599 592.16C575.599 592.16 564.99 590.012 564.586 573.596C564.586 573.596 569.181 580.613 572.866 581.797C572.866 581.797 571.772 581.68 572.371 580.248C572.371 580.248 574.167 583.216 574.649 583.698C574.649 583.698 574.024 570.146 578.086 568.362C578.086 568.362 581.002 561.827 585.623 561.463C585.623 561.463 589.893 545.398 589.112 540.126C589.112 540.126 587.654 531.547 589.867 531.026C590.896 530.779 593.382 537.978 593.382 537.978C594.215 538.329 595.036 537.613 595.986 538.082C596.936 538.551 598.082 537.522 598.459 538.98L598.446 538.993Z" fill="#776D67"/>
<path d="M597.705 543.38C598.115 543.38 598.447 543.048 598.447 542.638C598.447 542.229 598.115 541.896 597.705 541.896C597.295 541.896 596.963 542.229 596.963 542.638C596.963 543.048 597.295 543.38 597.705 543.38Z" fill="black"/>
<path d="M594.658 543.38C595.068 543.38 595.4 543.048 595.4 542.638C595.4 542.229 595.068 541.896 594.658 541.896C594.248 541.896 593.916 542.229 593.916 542.638C593.916 543.048 594.248 543.38 594.658 543.38Z" fill="black"/>
<path d="M598.446 546.843C597.991 545.672 597.223 544.865 595.4 545.047C593.577 545.229 593.408 545.932 593.408 545.932C593.408 545.932 593.89 548.106 595.4 549.004C596.91 549.903 598.446 546.843 598.446 546.843Z" fill="black"/>
<path d="M597.847 551.152C597.847 551.152 597.573 557.453 596.949 557.831C596.324 558.208 593.915 558.625 593.902 555.774C593.889 552.923 593.395 551.361 593.395 551.361L595.92 550.072L597.847 551.139V551.152Z" fill="black"/>
<path d="M599.072 549.72C599.215 552.207 596.78 551.842 595.492 550.527L596.468 550.397C595.44 552.285 592.784 552.467 591.417 550.879C590.948 550.462 590.844 549.512 591.43 549.161C591.026 550.332 592.458 550.593 593.24 550.762C594.424 550.957 595.296 550.02 595.843 549.109C596.885 550.098 598.082 551.803 599.085 549.707L599.072 549.72Z" fill="black"/>
<path d="M597.705 552.689C597.705 552.689 598.043 554.85 597.705 555.93C597.366 557.011 596.507 557.636 595.401 557.284C594.294 556.933 592.432 555.67 593.917 552.337C593.917 552.337 595.739 551.803 595.609 553.873C595.609 553.873 596.065 552.168 597.705 552.702V552.689Z" fill="#F387A9"/>
<path d="M588.501 564.978C587.616 566.566 586.353 568.323 586.588 570.198C586.796 572.073 587.304 573.96 587.811 575.809H586.926C587.278 574.377 587.733 572.684 587.486 571.278L588.527 571.122C588.905 574.911 589.204 578.699 589.217 582.526C589.217 583.958 589.191 585.455 588.71 586.848C588.228 589.126 588.202 591.496 588.202 593.839L587.72 593.735C588.436 592.589 589.022 591.196 590.506 590.832C592.12 590.962 592.055 593.149 592.081 594.347L591.652 594.282C591.964 593.227 592.602 591.899 593.917 591.964L593.696 592.342C589.113 585.325 592.199 581.55 593.995 574.715L594.789 570.615L595.284 574.767C595.765 579.115 596.143 583.463 596.273 587.838C596.247 589.426 596.468 590.832 596.026 592.433L595.388 591.743C596.052 591.509 596.69 591.3 597.367 591.131C601.376 590.012 600.764 591.834 599.853 594.854L599.528 594.477C600.4 594.347 601.337 594.06 602.001 593.487C602.743 592.889 602.756 591.847 602.34 591.04L602.457 590.975C602.978 591.808 603.017 593.019 602.249 593.748C601.52 594.477 600.582 594.828 599.619 595.063L599.163 595.18C599.463 594.034 599.866 592.798 599.736 591.613C599.736 591.626 599.762 591.665 599.762 591.665C599.762 591.665 599.619 591.626 599.489 591.639C597.94 591.769 596.312 592.511 594.841 593.071L595.128 592.016C595.388 589.686 594.854 585.989 594.737 583.607L593.982 574.95L595.284 575.015C594.581 578.139 593.006 580.795 592.329 583.659C591.535 586.718 592.771 589.921 594.347 592.524C593.735 592.407 593.123 592.498 592.719 593.084C592.12 593.8 591.847 595.258 591.548 596.13C592.107 590.519 590.311 589.413 587.72 594.854C587.577 591.691 587.369 588.475 588.098 585.351C588.228 582.565 587.994 579.714 587.824 576.915C587.72 575.028 587.603 573.14 587.447 571.252L588.488 571.096C588.801 573.4 587.955 575.535 587.265 577.67C586.939 576.264 586.549 574.65 586.301 573.231C586.106 571.773 585.676 570.224 586.119 568.766C586.627 567.36 587.473 566.136 588.358 564.965L588.462 565.043L588.501 564.978Z" fill="#B5ACA5"/>
<path d="M579.205 570.042C579.452 567.907 581.171 566.214 583.227 567.868C584.777 569.118 585.323 571.057 585.48 572.841C585.961 578.452 581.47 582.396 579.114 586.926C578.749 587.616 578.515 588.567 578.801 588.736C581.509 590.025 587.628 586.809 587.953 591.717C587.992 592.824 587.706 593.8 587.276 594.763C586.209 594.959 585.076 595.076 583.995 595.232C584.751 594.152 586.183 592.264 584.711 591.183L584.764 591.066C585.48 591.301 585.87 592.134 585.792 592.863C585.753 593.605 585.506 594.269 585.167 594.933L584.751 594.334C585.427 594.152 586.104 593.956 586.794 593.8L586.417 594.112C586.664 593.383 586.794 592.55 586.703 591.821C586.586 591.17 586.456 590.624 585.753 590.428C583.774 589.986 581.483 590.598 579.413 590.246C578.957 590.155 578.385 590.051 577.903 589.517C576.445 587.291 580.298 584.023 581.496 582.344C583.826 579.779 584.62 576.16 584.308 572.932C584.152 571.331 583.722 569.651 582.603 568.597C582.043 568.05 581.353 567.738 580.728 568.128C580.09 568.506 579.647 569.313 579.309 570.081L579.179 570.055L579.205 570.042Z" fill="#B5ACA5"/>
<path d="M310.588 568.154C310.588 568.154 322.148 553.535 330.454 554.251C338.759 554.967 348.145 558.768 348.145 558.768C348.145 558.768 353.925 550.697 354.641 548.054C355.357 545.411 355.904 537.47 355.904 537.47C355.904 537.47 349.226 540.36 349.226 543.25C349.226 546.14 342.183 538.551 343.094 534.229C343.094 534.229 346.349 534.047 348.51 532.237C350.671 530.427 353.561 525.923 354.472 526.821C355.384 527.72 358.443 531.052 358.443 531.052C358.443 531.052 360.07 531.326 363.312 528.618C366.566 525.91 370.354 525.728 370.354 525.728L367.647 528.253C367.647 528.253 373.062 526.444 373.244 530.063C373.244 530.063 378.113 526.991 379.923 528.071C381.732 529.152 382.631 539.983 387.499 540.881C387.499 540.881 386.237 542.144 383.164 542.326L383.711 544.604C383.711 544.604 379.194 544.136 377.397 540.347C377.397 540.347 378.66 546.661 378.478 551.543C378.296 556.425 379.923 558.586 379.923 558.586C379.923 558.586 377.033 558.039 376.499 556.959C375.965 555.878 374.872 579.168 373.609 585.664C373.609 585.664 375.77 590.363 378.126 590.715C380.483 591.066 385.351 590.168 387.512 590.715C389.673 591.262 390.402 597.211 390.402 598.122H387.877C387.877 598.122 387.695 599.151 386.25 599.723C384.805 600.296 376.317 597.38 376.317 597.38C376.317 597.38 377.215 600.778 376.317 601.624C375.419 602.47 372.164 601.624 372.164 601.624C372.164 601.624 370.354 604.488 368.376 603.473C366.397 602.457 350.319 602.054 347.976 601.624C345.633 601.194 343.107 601.194 343.277 596.872C343.277 596.872 340.569 598.265 334.073 599.736C334.073 599.736 335.518 600.426 334.073 601.624C332.628 602.822 307.281 602.587 307.281 602.587L310.601 568.154H310.588Z" fill="#776D67"/>
<path d="M363.625 541.701C364.423 541.701 365.07 540.792 365.07 539.67C365.07 538.549 364.423 537.639 363.625 537.639C362.827 537.639 362.18 538.549 362.18 539.67C362.18 540.792 362.827 541.701 363.625 541.701Z" fill="#030203"/>
<path d="M372.164 540.686C372.962 540.686 373.609 539.777 373.609 538.655C373.609 537.533 372.962 536.624 372.164 536.624C371.366 536.624 370.719 537.533 370.719 538.655C370.719 539.777 371.366 540.686 372.164 540.686Z" fill="#030203"/>
<path d="M344.579 579.818C343.902 582.943 341.689 585.559 341.468 588.606L340.895 588.371C341.299 587.421 342.262 586.614 343.147 586.041L343.056 587.278C342.965 589.92 342.77 592.654 342.9 595.31L342.783 595.349C341.663 593.54 341.429 591.274 341.624 589.191C341.715 588.488 341.793 587.812 341.963 587.109L342.796 587.668C342.34 587.89 341.819 588.267 341.429 588.71L340.322 589.947C341.168 587.994 341.533 585.872 341.923 583.802C342.431 582.266 343.251 580.821 344.475 579.74L344.579 579.818Z" fill="#B5ACA5"/>
<path d="M357.179 585.664C357.127 588.15 356.568 591.092 354.094 592.433L354.276 591.548C358.052 593.722 363.571 594.881 367.854 593.878C369.078 593.618 370.237 593.37 371.552 593.344C372.814 593.318 374.311 593.67 375.327 594.776C377.514 597.536 376.915 601.819 372.632 601.338L372.866 600.635C373.504 598.786 373.27 596.378 371.044 595.831L371.07 595.701C373.713 595.727 374.559 598.786 373.921 600.96L373.4 600.244C375.809 600.127 375.34 597.003 374.298 595.662C371.734 593.227 367.464 595.323 364.287 594.685C362.126 594.477 359.093 594.399 356.984 593.956C355.435 593.631 354.003 593.032 352.857 591.782C354.159 591.301 355.162 590.428 355.813 589.048C356.372 587.968 356.724 586.835 357.062 585.651L357.179 585.69V585.664Z" fill="#B5ACA5"/>
<path d="M366.893 592.003C369.288 590.48 371.345 588.593 372.49 586.002C373.714 588.345 375.745 590.598 378.479 590.988C381.382 591.678 387.357 588.293 387.383 593.357C387.383 594.256 387.188 595.102 386.875 595.909L386.745 595.883C386.745 595.05 386.706 594.204 386.55 593.435C386.212 591.522 385.066 591.691 383.426 592.003C382.189 592.212 380.848 592.29 379.572 592.225C377.294 592.056 375.602 590.376 374.001 588.97C373.376 588.397 372.725 587.864 372.126 587.2L372.933 587.083C372.269 589.803 369.535 591.613 366.932 592.134L366.893 592.016V592.003Z" fill="#B5ACA5"/>
<path d="M366.293 565.316C366.189 565.472 366.241 569.521 367.738 569.82C369.236 570.12 371.266 565.928 371.266 565.928C371.266 565.928 370.72 564.014 368.767 564.275C366.814 564.535 366.293 565.316 366.293 565.316Z" fill="#030203"/>
<path d="M318.763 571.122C321.471 568.844 325.064 567.06 328.735 567.75C333.148 568.675 335.999 572.762 333.422 576.954C333.187 576.577 332.653 575.783 332.406 575.392L333.148 575.145C332.901 578.152 331.586 580.912 329.998 583.411C328.188 585.442 326.457 587.551 324.777 589.686C323.515 591.365 321.354 593.93 320.338 595.727C320.234 595.896 320.312 595.857 320.234 595.922L319.739 595.31C322.525 595.779 325.506 595.896 328.279 595.258C331.794 594.295 332.81 597.692 332.302 600.504L331.547 599.879C333.031 599.307 335.244 598.421 335.609 596.755C335.739 594.685 333.187 594.269 331.547 594.464L331.521 594.334C332.484 594.099 333.5 594.021 334.502 594.334C336.194 594.724 336.975 597.041 335.752 598.369C334.593 599.866 332.797 600.608 331.091 601.298L331.182 600.335C331.26 598.812 331.274 596.469 329.425 596.482C327.498 596.833 325.467 597.211 323.515 597.028C321.966 596.963 320.442 596.729 318.906 596.404C318.971 595.701 319.258 595.063 319.531 594.672C321.575 591.717 324.478 588.788 326.912 586.132C329.972 583.255 332.354 579.506 332.315 575.132L332.289 573.882C332.64 574.364 333.369 575.275 333.721 575.744L332.953 575.796C334.359 572.58 331.638 569.417 328.501 568.727C324.934 567.868 321.692 569.755 318.75 571.083L318.763 571.122Z" fill="#B5ACA5"/>
<path d="M366.969 542.808C366.969 542.808 369.208 540.829 370.718 542.274C372.228 543.719 374.337 544.63 374.337 544.63C374.337 544.63 377.852 543.381 380.95 548.028C384.049 552.676 380.469 560.565 380.469 560.565L376.134 558.69C376.134 558.69 369.143 565.316 367.164 565.16C367.164 565.16 364.977 567.334 365.081 568.545C365.081 568.545 363.831 563.468 364.795 560.369C364.795 560.369 362.66 561.632 362.855 562.687C362.855 562.687 360.824 557.805 361.748 555.136C361.748 555.136 359.093 558.521 359.861 560.695C359.861 560.695 356.528 554.889 360.681 548.796C360.681 548.796 363.337 545.359 365.758 545.216C365.758 545.216 366.24 543.315 366.969 542.795V542.808Z" fill="#B5ACA5"/>
<path d="M363.625 546.284C363.625 546.284 370.98 543.433 372.959 543.719C374.938 544.005 374.651 546.14 374.313 547.156C373.974 548.171 370.342 553.209 369.327 553.391C369.327 553.391 364.927 552.025 363.625 546.284Z" fill="#030203"/>
<path d="M369.483 553.834C369.483 553.834 368.48 559.627 365.369 560.317C365.369 560.317 370.225 559.692 370.017 561.814C370.017 561.814 374.925 558.299 376.005 559.979L376.135 558.677C376.135 558.677 371.852 560.408 369.483 553.834Z" fill="#030203"/>
<path d="M366.918 560.239C366.918 560.239 367.061 569.417 370.394 570.055C373.726 570.693 375.198 559.549 375.198 559.549C375.198 559.549 373.037 558.482 371.058 561.541C371.058 561.541 371.696 559.849 366.918 560.252V560.239Z" fill="#F387A9"/>
<path d="M282.871 452.709C282.871 452.709 279.786 452.891 275.906 451.472C272.027 450.053 271.155 454.375 271.155 454.375C271.155 454.375 265.57 451.915 263.956 453.047C262.341 454.18 259.087 463.709 255.116 466.612C251.146 469.515 257.056 474.748 257.056 474.748L256.874 473.121C256.874 473.121 258.201 475.855 259.777 475.673C261.352 475.491 263.943 466.951 263.943 466.951C263.943 466.951 267.353 471.702 264.359 483.51C261.365 495.317 254.14 519.271 256.691 533.018L258.28 531.169C258.28 531.169 256.34 542.092 265.062 558.573C265.062 558.573 268.759 563.949 270.439 567.998C272.118 572.047 272.469 605.347 269.475 608.875L314.05 607.99C314.05 607.99 315.286 608.693 315.898 603.85C315.898 603.85 331.403 582.357 330.348 555.67C329.294 528.982 315.898 531.703 315.898 531.703C315.898 531.703 324.529 543.862 324.972 550.814C325.414 557.766 323.123 576.538 318.189 576.889C318.189 576.889 319.582 562.999 305.236 543.237C292.062 525.09 292.557 506.474 292.817 486.4C292.817 486.4 300.393 485.007 300.745 477.248C301.096 469.502 298.545 467.953 298.454 467.315C298.363 466.677 297.126 459.009 297.699 456.106C298.272 453.203 293.598 455.846 293.598 455.846C293.598 455.846 292.635 451.967 289.107 451.876C285.579 451.784 282.845 452.67 282.845 452.67L282.871 452.709Z" fill="#F4D19D"/>
<path d="M284.408 466.091C284.408 466.091 294.692 464.477 296.71 465.089C298.728 465.701 297.517 470.531 294.497 472.757C291.477 474.983 289.25 474.774 289.25 474.774C289.25 474.774 283.106 472.353 284.408 466.104V466.091Z" fill="#070404"/>
<path d="M276.466 459.218C276.466 459.218 274.553 459.439 275.06 463.618C275.568 467.797 277.143 467.341 277.143 467.341C277.143 467.341 278.666 467.406 278.614 463.292C278.562 459.179 276.479 459.231 276.479 459.231L276.466 459.218Z" fill="#070404"/>
<path d="M287.844 464.568C287.844 464.568 287.961 460.168 289.536 460.233C291.111 460.298 290.226 462.433 289.536 463.957C288.846 465.48 287.844 464.581 287.844 464.581V464.568Z" fill="#070404"/>
<path d="M264.087 530.05C264.569 534.515 265.011 538.902 266.534 543.094C269.763 550.059 277.652 552.598 284.812 553.405V553.535C278.837 554.511 271.924 552.428 268.448 547.208C265.154 542.339 262.238 535.752 264.087 530.05Z" fill="#C1883D"/>
<path d="M283.718 550.02C286.243 554.941 288.678 559.953 289.823 565.407L289.771 566.319C287.832 577.996 286.335 589.777 282.572 601.064C282.702 596.924 283.926 592.264 284.629 588.02C285.879 581.55 287.871 575.223 288.925 568.714C289.068 567.685 289.186 566.566 289.107 565.537C287.389 560.46 284.772 555.136 283.705 550.033L283.718 550.02Z" fill="#C1883D"/>
<path d="M296.41 536.468C303.401 560.2 297.66 585.143 290.161 608.029L290.031 608.003C291.125 602.015 292.57 596.13 293.924 590.22C295.837 581.394 298.766 572.619 299.144 563.559C298.936 554.537 296.996 545.255 296.423 536.468H296.41Z" fill="#C1883D"/>
<path d="M311.343 566.891C310.184 564.34 307.841 560.799 304.639 562.14C303.871 562.491 303.22 563.376 302.712 564.262C300.668 567.972 299.366 572.255 298.859 576.499C298.325 580.821 298.637 585.195 299.093 589.478C299.588 593.774 300.551 597.979 301.866 602.079L302.204 603.147C299.379 602.431 295.057 601.884 293.612 605.113C293.183 605.985 293.17 607 293.131 608.003H293C291.842 602.548 296.88 600.804 301.397 601.676L300.668 602.496C297.479 594.216 297.257 585.117 298.442 576.447C299.067 572.099 299.457 567.594 301.697 563.663C305.042 557.922 310.406 561.775 311.447 566.852L311.317 566.891H311.343Z" fill="#C1883D"/>
<path d="M318.606 578.933C319.686 581.263 319.478 583.776 318.944 586.171C318.723 588.593 318.97 591.092 318.176 593.448C317.707 595.011 316.965 596.508 315.963 597.823L315.846 597.77C316.353 594.594 317.252 591.548 318.124 588.501C319.048 585.364 317.759 582.227 318.475 578.959L318.606 578.933Z" fill="#C1883D"/>
<path d="M307.321 603.837C306.435 603.876 305.745 603.746 305.082 603.485C304.496 603.095 303.663 602.756 303.077 603.342C302.074 604.397 302.191 605.777 301.515 607.039H301.384C300.382 605.581 300.786 602.965 302.803 602.665C303.715 602.639 304.444 602.496 305.329 602.418C306.162 602.509 306.904 602.952 307.386 603.72L307.321 603.837Z" fill="#C1883D"/>
<path d="M296.997 608.055C296.19 607.704 295.669 606.857 295.773 605.946C296.007 605.087 296.593 604.527 296.984 603.733C297.882 602.275 299.665 601.741 301.267 602.223L301.293 602.353C300.095 603.421 298.858 603.707 297.478 604.267C296.723 604.527 296.567 605.321 296.867 605.959C296.971 606.545 297.049 607.131 297.101 607.977L296.997 608.055Z" fill="#C1883D"/>
<path d="M276.779 480.542C276.779 480.542 281.323 489.082 286.894 485.215C286.894 485.215 287.871 484.447 288.717 481.57C289.121 480.177 289.511 478.302 289.732 475.79C289.732 475.79 288.769 485.541 292.818 486.439C292.818 486.439 291.138 489.199 289.121 496.32C287.103 503.441 282.507 501.696 282.507 501.696C282.507 501.696 280.398 500.811 280.919 497.465C281.44 494.12 279.865 485.658 279.865 485.658L276.779 480.555V480.542Z" fill="#070404"/>
<path d="M282.26 489.42C282.26 489.42 283.393 495.33 283.497 497.817C283.601 500.303 284.343 503.219 286.764 502.66C289.186 502.1 290.93 499.561 291.438 494.497C291.946 489.433 290.136 486.439 290.136 486.439C290.136 486.439 288.275 486.387 287.832 488.014C287.832 488.014 288.795 490.826 288.118 492.857C288.118 492.857 287.441 488.86 285.476 486.947C285.476 486.947 282.156 486.322 282.26 489.42Z" fill="#F387A9"/>
<path d="M265.897 493.638L256.406 499.952L265.115 492.596L265.897 493.638Z" fill="#F4D19D"/>
<path d="M256.484 505.497C258.411 504.495 260.247 502.243 260.273 500.121L261.574 500.173C261.093 502.738 258.841 504.716 256.484 505.511V505.497Z" fill="#F4D19D"/>
<path d="M255.664 511.161C256.849 510.484 257.786 509.507 258.385 508.401L259.4 509.208C258.32 510.223 257.005 510.887 255.664 511.161Z" fill="#F4D19D"/>
<path d="M258.593 494.81C259.817 493.99 261.665 493.456 262.316 492.128L263.371 492.883C262.043 494.328 260.246 494.263 258.58 494.81H258.593Z" fill="#F4D19D"/>
<path d="M261.742 486.387C262.771 486.074 263.695 485.567 264.463 484.942L265.049 486.101C263.942 486.413 262.81 486.504 261.742 486.387Z" fill="#F4D19D"/>
<path d="M258.463 516.107L255.573 517.943C254.674 518.529 253.516 519.245 253.672 520.468C253.268 519.284 254.375 518.177 255.156 517.448L257.707 515.053L258.463 516.12V516.107Z" fill="#F4D19D"/>
<path d="M257.434 520.664C256.184 522.434 255.325 524.543 254.948 526.782C254.882 524.517 255.338 522.187 256.288 520.026L257.421 520.664H257.434Z" fill="#F4D19D"/>
<path d="M257.968 528.371C257.134 529.256 256.47 530.362 256.08 531.573C255.65 532.784 255.702 534.203 255.104 535.374C255.52 534.112 255.208 532.797 255.455 531.43C255.663 530.076 256.171 528.748 256.952 527.577L257.981 528.384L257.968 528.371Z" fill="#F4D19D"/>
<path d="M403.693 575.809C403.693 575.809 403.107 573.075 404.63 570.472L402.768 572.008C402.768 572.008 403.706 566.475 405.333 565.069H404.044C404.044 565.069 405.45 561.801 406.257 560.643C407.064 559.484 406.96 557.115 406.843 554.381C406.726 551.647 407.78 548.744 407.78 548.744C407.78 548.744 408.483 545.828 406.843 545.945C406.843 545.945 408.77 544.084 407.924 541.05C407.077 538.017 405.32 536.728 404.044 530.558L405.45 531.144C405.45 531.144 404.63 529.165 404.396 525.311C404.161 521.458 400.659 522.864 400.659 522.864C400.659 522.864 403.693 520.065 406.609 523.215C409.525 526.366 412.207 529.399 412.207 529.399C412.207 529.399 412.675 527.655 414.303 527.537C415.93 527.42 418.273 527.537 418.273 527.537C418.273 527.537 419.445 523.033 421.658 521.731C423.871 520.43 427.373 519.258 427.724 519.141C428.076 519.024 427.099 519.479 425.746 522.877C424.808 525.207 427.152 526.73 424.457 530.571C424.457 530.571 423.988 536.286 426.67 538.733L425.264 539.085C425.264 539.085 427.008 540.829 428.883 543.055L427.477 543.29C427.477 543.29 428.531 544.227 429.924 548.067L428.518 547.481C428.518 547.481 432.138 554.954 432.489 557.401C432.489 557.401 437.384 572.216 435.288 585.156C435.288 585.156 438.907 585.39 438.321 590.168C438.321 590.168 424.795 588.541 420.356 589.465C415.917 590.389 401.349 592.85 401.349 592.85C401.349 592.85 399.136 587.603 400.647 587.018C402.157 586.432 405.541 585.273 405.541 585.273C405.541 585.273 402.625 582.826 403.68 575.822L403.693 575.809Z" fill="black"/>
<path d="M412.558 539.058C412.558 539.058 412.91 537.653 414.186 536.728C415.461 535.804 415.474 532.302 416.164 530.662C416.854 529.021 417.557 530.336 419.25 534.281C420.356 536.845 422.452 536.494 423.038 537.197C423.624 537.9 425.368 539.41 424.327 543.849C424.327 543.849 426.54 546.609 427.243 554.394L426.188 553.339C426.188 553.339 427.36 557.505 427.243 565.199C427.126 572.893 425.954 584.674 425.954 584.674C425.954 584.674 426.865 586.119 431.2 584.674C435.535 583.229 438.373 587.122 438.373 587.122L438.308 590.155C438.308 590.155 427.581 588.892 423.962 589.166C420.343 589.439 404.122 592.837 404.122 592.837C404.122 592.837 401.597 588.489 403.224 587.213C404.851 585.937 411.686 585.846 411.686 585.846C411.686 585.846 407.039 578.725 408.327 573.361C409.616 567.998 410.189 566.045 410.189 566.045L408.562 567.061C408.562 567.061 412.064 560.565 412.532 556.347C412.532 556.347 411.946 557.961 411.243 558.312C410.54 558.664 412.754 551.413 412.988 549.265L415.084 544.552C415.084 544.552 412.754 545.607 412.519 539.072L412.558 539.058Z" fill="#BEE5EE"/>
<path d="M418.794 541.779C418.794 541.779 415.747 541.337 415.526 539.254C415.305 537.171 418.572 538.225 418.794 538.186C419.015 538.147 421.579 537.496 421.723 538.368C421.866 539.241 421.319 540.608 420.03 541.779C420.03 541.779 419.627 544.057 420.512 544.526C421.397 544.995 423.806 544.852 424.066 544.344C424.066 544.344 422.855 545.776 421.944 545.919C421.944 545.919 420.655 552.558 417.622 552.662C414.589 552.767 416.737 546.023 416.737 546.023C416.737 546.023 415.435 546.7 415.109 544.526C415.109 544.526 415.669 545.542 416.919 545.06C418.169 544.578 418.82 544.214 418.937 543.524C419.054 542.834 418.794 541.766 418.794 541.766V541.779Z" fill="black"/>
<path d="M417.583 546.401C417.583 546.401 417.609 551.4 418.091 551.895C418.573 552.389 418.456 552.806 419.588 552.884C420.721 552.962 421.684 547.208 421.346 545.958C421.346 545.958 420.825 545.958 420.434 546.466C420.434 546.466 420.031 547.377 419.809 548.302C419.809 548.302 419.497 546.141 417.57 546.401H417.583Z" fill="#F387A9"/>
<path d="M425.889 566.045C425.655 568.506 423.793 570.563 421.775 571.825L421.892 570.823C421.476 570.484 421.111 570.628 420.903 570.94C420.968 570.745 421.072 570.133 421.111 569.886L422.244 570.263C420.539 572.619 417.596 573.713 414.811 573.791C417.206 573.01 419.783 571.799 421.189 569.651L422.478 567.451C422.361 568.467 422.465 570.745 421.984 571.617C421.736 571.903 421.398 572.06 420.968 571.721L420.369 571.227C422.517 569.808 424.509 568.271 425.889 566.032V566.045Z" fill="#517072"/>
<path d="M413.027 591.131C413.027 591.131 423.338 589.035 423.989 589.166C423.989 589.166 418.677 587.629 421.724 569.977L418.209 572.789C418.209 572.789 415.943 589.83 413.027 591.131Z" fill="#72BAC6"/>
<path d="M417.141 573.804C417.415 575.392 416.855 577.384 417.662 578.777L416.946 579.428L415.839 578.191L416.79 577.905C416.49 581.823 415.67 585.69 414.225 589.348C413.301 592.173 410.736 593.774 408.562 590.91L408.653 591.027C407.885 590.311 407.273 589.556 407.117 588.45C406.935 587.239 408.081 586.21 409.096 585.924L409.356 587.278C407.156 587.434 403.993 588.007 405.164 590.936L405.047 591.001C403.225 588.866 404.995 586.822 407.273 586.249C408.601 585.768 412.598 585.807 414.043 585.69L409.552 587.252C408.979 587.486 408.38 587.721 408.38 588.371C408.393 588.97 408.966 589.764 409.473 590.324C409.799 590.884 410.294 591.483 410.892 591.73C414.407 592.498 414.59 584.726 415.058 582.409C415.189 581.485 415.761 577.384 415.878 576.538C416.321 577.085 417.232 578.282 417.675 578.842L416.959 579.493C416.269 578.491 416.49 577.566 416.568 576.525C416.686 575.614 416.894 574.741 417.011 573.856H417.141V573.804Z" fill="#517072"/>
<path d="M663.275 521.146C662.781 521.146 660.164 506.773 661.961 498.312C661.961 498.312 661.635 491.49 664.746 488.053L666.543 494.276L670.8 496.242C670.8 496.242 674.731 491.334 676.866 491.243C679.001 491.152 672.935 500.746 672.935 500.746C672.935 500.746 673.586 504.69 676.046 505.38C678.507 506.07 684.078 503.128 689.806 502.79C695.534 502.464 698.984 510.822 702.096 512.944C705.207 515.066 709.347 517.045 708.826 519.492C708.305 521.94 689.637 522.604 688.986 522.773C688.335 522.942 685.107 522.122 685.107 522.122L682.438 521.471C682.438 521.471 683.258 523.84 681.943 523.723C680.629 523.606 669.98 524.882 669.98 524.882C669.98 524.882 672.44 531.612 669.811 531.859C667.181 532.107 664.083 526.704 664.083 526.704C664.083 526.704 664.408 530.805 662.768 530.636C661.127 530.467 657.521 525.884 657.847 522.447C658.172 519.011 663.249 521.132 663.249 521.132L663.275 521.146Z" fill="#F1A21F"/>
<path d="M666.024 498.683C666.124 498.338 666.003 498 665.755 497.928C665.506 497.856 665.224 498.078 665.124 498.423C665.024 498.769 665.145 499.107 665.394 499.179C665.642 499.25 665.925 499.029 666.024 498.683Z" fill="black"/>
<path d="M667.115 507.112C667.115 507.112 667.922 508.036 667.662 509.69C667.402 511.343 666.673 511.616 666.451 511.616C666.23 511.616 664.381 511.694 665.071 507.112C665.071 507.112 665.345 506.539 666.23 506.826L667.102 507.112H667.115Z" fill="#E887AA"/>
<path d="M669.644 500.043C669.743 499.698 669.622 499.36 669.374 499.288C669.125 499.216 668.843 499.438 668.743 499.783C668.643 500.129 668.764 500.467 669.013 500.539C669.261 500.61 669.544 500.389 669.644 500.043Z" fill="black"/>
<path d="M665.528 501.67C665.528 501.67 667.415 501.488 667.598 501.957C667.78 502.425 667.194 503.623 666.114 503.558C665.033 503.493 664.265 501.384 665.528 501.67Z" fill="black"/>
<path d="M662.91 502.295C662.91 502.295 662.246 505.094 663.822 505.38C666.061 505.797 665.853 504.04 665.853 504.04C665.853 504.04 665.527 506.76 668.066 506.292C670.604 505.823 670.708 504.951 670.708 504.951C670.708 504.951 669.836 506.435 667.623 507.164C667.623 507.164 669.003 510.471 667.844 511.369C667.844 511.369 667.258 511.447 666.907 511.148C666.907 511.148 668.43 508.713 667.128 507.125C667.128 507.125 666.061 507.229 666.256 508.687C666.256 508.687 665.865 508.947 665.826 507.45C665.826 507.45 665.748 506.656 665.097 507.125C665.097 507.125 665.097 506.669 665.527 506.513L665.058 505.784C665.058 505.784 664.551 505.927 663.861 505.862C663.171 505.797 662.52 505.94 662.923 502.308L662.91 502.295Z" fill="black"/>
<path d="M676.046 505.394C676.046 505.394 677.348 506.045 677.673 506.839C677.999 507.633 678.871 507.958 678.871 507.958C678.871 507.958 678.65 508.388 677.205 507.164C675.76 505.94 676.033 506.292 674.9 504.756L676.059 505.407L676.046 505.394Z" fill="#8B5924"/>
<path d="M685.693 509.468C685.693 509.468 681.917 511.642 681.995 514.48L682.503 514.22C682.503 514.22 682.829 519.44 687.476 519.583C687.476 519.583 684.938 520.013 684.742 521.835L685.12 522.122L685.719 522.265C685.719 522.265 684.573 521.679 686.031 520.625C686.031 520.625 685.523 521.653 686.539 522.447C686.539 522.447 686.07 520.768 687.489 520.299C688.908 519.831 691.368 520.299 692.709 520.078C694.05 519.857 695.834 519.466 696.55 518.802C696.55 518.802 696.628 519.089 694.766 518.985C692.905 518.88 694.506 518.112 694.506 518.112C694.506 518.112 694.037 518.62 690.731 518.802C687.424 518.984 685.51 518.802 684.235 516.667C682.959 514.532 682.282 514.025 685.68 509.442L685.693 509.468Z" fill="#8B5924"/>
<path d="M670.462 517.956C670.462 517.956 672.311 518.932 672.415 520.208C672.415 520.208 665.593 520.612 664.578 522.239C663.562 523.866 664.083 526.717 664.083 526.717C664.083 526.717 662.287 522.851 663.159 522.018C664.031 521.185 665.958 520.39 667.038 520.273C668.119 520.156 670.918 519.844 670.918 519.844C670.918 519.844 671.829 518.906 670.449 517.956H670.462Z" fill="#8B5924"/>
<path d="M667.299 529.022C667.299 529.022 667.768 530.805 668.718 530.948C669.668 531.092 669.408 530.154 669.408 530.154L668.861 529.035C668.861 529.035 670.02 530.232 670.241 529.647C670.462 529.061 670.501 528.957 670.501 528.123C670.501 528.123 671.282 529.1 671.035 530.154C670.788 531.209 670.618 531.755 669.837 531.873C669.056 531.99 667.351 531.599 667.312 529.022H667.299Z" fill="#8B5924"/>
<path d="M663.471 525.194C663.471 525.194 664.213 528.019 663.315 527.902C662.416 527.785 662.442 525.585 662.442 525.585C662.442 525.585 662.586 528.267 662.338 528.631C662.091 528.996 661.466 528.735 661.219 527.108C661.219 527.108 661.661 528.983 661.401 529.321C661.141 529.659 660.594 529.087 660.594 529.087C660.594 529.087 662.13 531.052 663.223 530.584C664.317 530.115 664.603 527.642 663.497 525.194H663.471Z" fill="#8B5924"/>
<path d="M679.158 516.915C679.158 516.915 680.46 517.969 681.293 518.802H680.681C680.681 518.802 681.97 520 682.439 521.484C682.439 521.484 682.725 522.603 681.345 522.968C681.345 522.968 682.751 521.731 680.812 520.104C678.872 518.477 679.458 517.93 679.158 516.915Z" fill="#8B5924"/>
<path d="M701.574 512.84C701.574 512.84 701.171 513.999 702.446 515.092C703.722 516.186 705.167 517.045 703.683 517.956C703.683 517.956 704.842 517.995 704.777 516.615C704.712 515.235 703.071 515.457 702.42 514.324C701.77 513.191 701.587 512.84 701.587 512.84H701.574Z" fill="#8B5924"/>
<path d="M691.618 516.472C691.618 516.472 690.68 515.352 688.077 515.73C685.473 516.107 680.812 525.78 680.812 525.78C680.812 525.78 681.75 528.201 683.611 530.805C685.473 533.409 689.378 527.459 689.574 525.962C689.574 525.962 689.574 537.262 688.636 542.873C687.699 548.497 685.095 555.201 689.756 561.906C694.417 568.61 692.177 593.865 691.618 595.206C691.618 595.206 685.851 596.586 685.095 598.617C684.34 600.648 686.723 603.199 686.723 603.199L699.064 602.666C699.064 602.666 699.246 604.449 705.026 603.199C710.806 601.95 710.051 601.207 710.051 601.207C710.051 601.207 711.535 603.095 714.894 602.613C718.253 602.132 729.423 598.617 729.423 598.617C729.423 598.617 746.034 595.245 746.672 569.547C746.672 569.547 739.486 580.535 733.705 582.396C733.705 582.396 735.424 582.214 734.474 579.975C734.474 579.975 731.662 584.635 730.907 585.377C730.907 585.377 731.896 564.145 725.53 561.359C725.53 561.359 720.961 551.113 713.736 550.554C713.736 550.554 708.75 529.321 709.492 525.975C709.492 525.975 709.973 529.139 713.736 529.516L716.378 522.63C715.818 519.831 712.095 514.363 710.416 512.996C708.737 511.629 706.693 515.183 706.693 515.183C706.693 515.183 704.454 511.278 703.152 511.837C701.85 512.397 699.806 513.699 698.309 514.441C696.812 515.183 693.466 512.762 691.605 516.485L691.618 516.472Z" fill="#592D29"/>
<path d="M694.782 522.2C695.421 522.2 695.94 521.681 695.94 521.041C695.94 520.401 695.421 519.883 694.782 519.883C694.142 519.883 693.623 520.401 693.623 521.041C693.623 521.681 694.142 522.2 694.782 522.2Z" fill="black"/>
<path d="M699.559 522.2C700.199 522.2 700.718 521.681 700.718 521.041C700.718 520.401 700.199 519.883 699.559 519.883C698.919 519.883 698.4 520.401 698.4 521.041C698.4 521.681 698.919 522.2 699.559 522.2Z" fill="black"/>
<path d="M693.623 527.628C694.326 525.793 695.55 524.53 698.388 524.804C701.226 525.077 701.512 526.196 701.512 526.196C701.512 526.196 700.757 529.594 698.388 531.013C696.018 532.432 693.623 527.628 693.623 527.628Z" fill="black"/>
<path d="M694.547 534.385C694.547 534.385 694.976 544.266 695.94 544.852C696.903 545.438 700.692 546.101 700.705 541.636C700.718 537.171 701.512 534.724 701.512 534.724L697.567 532.706L694.547 534.385Z" fill="black"/>
<path d="M692.633 532.146C693.713 535.01 695.497 533.955 697.137 532.263L697.671 531.755C699.103 534.307 701.576 534.802 704.024 533.265C704.727 532.836 705.039 532.055 704.623 531.287C705.43 531.885 705.234 533.213 704.505 533.825C702.357 536.051 698.621 535.817 697.033 533.044L698.009 533.174C696.057 535.153 692.776 535.856 692.646 532.159L692.633 532.146Z" fill="black"/>
<path d="M694.782 536.793C694.782 536.793 694.248 540.178 694.782 541.87C695.316 543.563 696.67 544.552 698.388 543.979C700.107 543.407 703.036 541.441 700.718 536.234C700.718 536.234 697.854 535.387 698.063 538.629C698.063 538.629 697.36 535.947 694.782 536.793Z" fill="#F387A9"/>
<path d="M709.323 555.93C710.677 557.778 711.979 559.705 712.734 561.905C713.385 564.17 712.708 566.566 712.382 568.805C712.018 570.797 711.51 572.88 711.028 574.858C710.091 571.877 709.01 568.753 709.466 565.576L710.508 565.733C710.065 571.63 709.622 577.566 709.466 583.476C709.44 584.947 709.401 586.432 709.531 587.864C709.739 589.348 710.208 590.754 710.26 592.251C710.521 595.57 710.403 598.864 710.26 602.158L709.818 601.298C705.951 593.956 703.543 596.911 704.194 603.694C703.634 601.78 702.892 598.382 700.249 598.89C701.968 596.13 703.217 593.006 703.673 589.803C704.09 586.731 703.374 583.62 702.892 580.573C701.759 574.403 700.249 568.323 698.895 562.153L700.197 562.074C699.794 568.167 698.791 583.607 698.531 589.491C698.453 592.329 698.153 595.609 698.518 598.395L698.739 599.424L697.88 599.098C695.836 598.447 693.506 597.237 691.384 597.562C691.045 599.124 691.696 600.947 692.074 602.522L692.204 602.991C689.965 602.548 686.945 601.507 686.723 598.851C686.658 598.07 686.984 597.354 687.296 596.677L687.413 596.742C686.762 598.044 686.749 599.671 687.921 600.673C688.975 601.624 690.447 602.079 691.839 602.327L691.514 602.704C691.006 601.012 690.407 599.28 690.564 597.484C690.603 597.263 690.759 597.015 690.941 596.911C691.306 596.677 691.618 596.677 691.918 596.651C694.17 596.716 696.161 597.445 698.244 598.148L697.607 598.838C697.32 597.875 697.359 597.146 697.294 596.351C697.177 584.869 698.075 573.413 698.895 561.97L699.273 557.401L700.197 561.892C701.46 568.024 702.918 574.168 703.907 580.404C704.35 583.541 704.949 586.744 704.415 589.92C703.868 593.084 702.618 596.065 700.913 598.76L700.692 598.382C701.629 598.304 702.488 598.864 703.009 599.593C703.543 600.296 703.881 601.09 704.116 601.923L703.699 601.988C703.491 599.736 704.389 594.698 707.513 597.328C708.698 598.382 709.518 599.723 710.273 601.103L709.792 601.207C709.883 596.768 709.739 592.277 708.581 587.994C707.969 580.534 708.841 573.075 709.44 565.654L710.481 565.811C710.091 568.128 710.807 570.732 711.393 573.023L710.508 573.036C711.393 568.792 713.606 564.118 711.432 559.939C710.794 558.573 710.026 557.271 709.206 555.995L709.31 555.917L709.323 555.93Z" fill="black"/>
<path d="M723.577 564.014C722.718 561.541 720.674 559.054 718.213 561.489C713.071 566.93 715.245 578.022 720.023 583.307C721.741 585.69 727.6 591.209 725.491 594.243C724.853 594.959 724.033 595.128 723.33 595.258C721.26 595.57 719.151 595.297 717.12 595.258C715.375 595.297 713.188 594.92 712.121 596.391C711.223 598.005 711.561 600.062 712.134 601.767L711.756 601.455C712.824 601.689 713.891 601.962 714.959 602.223L714.542 602.822C714.022 601.832 713.605 600.804 713.527 599.684C713.384 598.565 713.93 597.341 715.011 596.924L715.063 597.042C712.785 598.513 714.568 601.481 715.714 603.147C714.243 602.913 712.746 602.691 711.288 602.418L711.184 602.158C710.077 599.645 709.621 595.232 712.915 594.204C715.74 593.422 718.448 594.06 721.221 594.112C722.718 594.112 725.412 594.256 724.801 592.056C722.913 586.289 717.55 582.305 715.584 576.512C714.087 572.685 713.566 568.193 715.167 564.275C715.922 562.335 717.419 560.265 719.593 559.796C722.028 559.302 723.343 562.01 723.707 563.988L723.577 564.014Z" fill="black"/>
<path d="M732.924 454.987C732.924 454.987 721.468 473.98 721.767 490.566L724.788 485.137C724.788 485.137 721.169 497.491 727.352 507.151C727.352 507.151 718.76 516.199 725.1 532.172L731.427 548.145L732.937 543.315C732.937 543.315 742.284 568.636 741.985 579.493C741.685 590.35 739.576 597.888 738.665 598.786C738.665 598.786 733.236 597.276 730.529 598.786C730.529 598.786 722.392 599.684 726.91 608.432C726.91 608.432 729.136 609.253 730.373 608.432C730.373 608.432 730.021 611.049 733.9 608.797C733.9 608.797 736.895 610.424 738.131 607.964C738.131 607.964 740.071 610.073 742.714 608.315C742.714 608.315 744.653 610.424 747.114 608.315C747.114 608.315 749.574 609.721 752.399 608.133H799.447C799.447 608.133 799.799 545.945 791.87 537.835C783.942 529.724 766.498 510.874 765.261 506.656C765.261 506.656 765.795 506.656 766.498 496.268L767.383 500.668C767.383 500.668 771.614 488.34 769.323 477.235C767.032 466.131 761.929 455.742 761.929 455.742C761.929 455.742 770.208 447.462 766.511 435.303C766.511 435.303 767.566 433.194 768.62 433.194C768.62 433.194 763.686 426.152 748.715 452.93C748.715 452.93 744.133 453.633 741.49 452.045C741.49 452.045 740.787 429.315 730.034 426.152C730.034 426.152 732.143 428.261 732.143 429.68V431.086C732.143 431.086 720.895 442.255 732.95 455L732.924 454.987Z" fill="#99BFBF"/>
<path d="M739.003 465.076C739.003 465.076 736.751 464.087 736.608 461.405C736.465 458.723 738.248 457.877 739.003 458.202C739.758 458.528 740.696 462.772 739.003 465.076Z" fill="black"/>
<path d="M749.665 466.391C749.665 466.391 751.852 465.558 751.983 463.292C752.113 461.027 750.394 460.311 749.665 460.585C748.936 460.858 748.025 464.451 749.665 466.391Z" fill="black"/>
<path d="M743.899 467.055C743.899 467.055 738.613 466.065 736.595 466.729C734.577 467.393 732.091 468.656 732.182 469.789C732.273 470.921 735.241 475.386 739.238 476.428C739.238 476.428 740.136 477.131 741.165 476.858C742.193 476.584 746.294 471.403 745.304 468.2C745.304 468.2 745.122 468.955 744.315 469.372C743.508 469.789 736.088 470.973 734.955 470.075C733.822 469.177 736.231 467.823 737.546 467.576C738.86 467.328 743.899 467.055 743.899 467.055Z" fill="black"/>
<path d="M731.713 475.334C731.713 475.334 729.122 481.453 731.713 484.135C734.304 486.816 736.556 485.306 736.556 485.306C736.556 485.306 740.422 486.53 740.37 478.107C740.37 478.107 741.763 484.369 745.46 484.877C749.157 485.384 752.217 478.576 752.36 477.873C752.503 477.17 752.685 475.373 752.646 475.517C752.607 475.66 753.441 478.901 751.045 481.778C751.045 481.778 751.279 482.768 750.108 484.786C748.936 486.803 745.734 493.065 746.111 494.614C746.489 496.164 748.507 502.191 747.569 502.985C746.632 503.779 740.474 512.606 738.626 493.95C738.626 493.95 736.087 490.331 735.892 486.751C735.892 486.751 731.466 487.923 729.734 481.388C729.734 481.388 729.734 476.819 731.713 475.321V475.334Z" fill="black"/>
<path d="M744.211 547.807C746.541 553.105 748.871 558.247 751.644 563.298C752.621 565.85 752.269 568.649 752.152 571.253C751.853 575.431 751.423 579.597 750.798 583.737C750.082 588.085 749.21 592.394 748.064 596.664C746.736 596.339 745.2 596.313 743.925 596.872C741.581 597.953 741.139 600.921 741.113 603.264C741.152 604.527 741.451 605.868 742.31 606.857L742.232 606.961C739.355 604.332 739.746 597.627 743.378 595.766C744.745 595.076 746.216 594.959 747.7 595.206L746.893 595.701C747.882 591.678 748.885 587.616 749.757 583.555C751.019 577.566 752.608 571.187 751.228 565.108C750.707 563.181 749.184 561.541 748.416 559.666C746.749 555.917 744.797 551.673 744.211 547.82V547.807Z" fill="#2E4948"/>
<path d="M747.31 563.168C745.175 563.129 743.717 561.411 742.623 559.797C741.282 558.404 739.551 557.362 738.418 555.774C737.65 554.733 736.999 553.613 736.557 552.337L736.661 552.259C739.473 554.082 740.801 557.089 742.91 559.497C744.524 560.526 745.93 561.684 747.323 563.038L747.297 563.168H747.31Z" fill="#2E4948"/>
<path d="M734.343 599.632C733.77 601.481 733.796 601.064 733.21 602.405C733.132 603.447 733.978 604.345 734.173 605.347C734.33 606.011 734.46 606.701 734.369 607.534L734.252 607.586C733.575 607.105 733.145 606.467 732.859 605.777C732.403 604.696 732.767 603.499 732.793 602.392C732.767 602.028 732.611 601.611 732.637 601.194C732.728 600.4 733.366 599.567 734.278 599.515L734.343 599.632Z" fill="#2E4948"/>
<path d="M730.347 600.218C729.774 602.067 729.8 601.663 729.214 602.991C729.136 604.033 729.982 604.931 730.177 605.933C730.334 606.597 730.464 607.287 730.373 608.12L730.255 608.172C729.578 607.691 729.149 607.053 728.862 606.363C728.407 605.295 728.771 604.085 728.797 602.978C728.771 602.614 728.615 602.197 728.641 601.78C728.732 600.986 729.37 600.153 730.281 600.101L730.347 600.218Z" fill="#2E4948"/>
<path d="M738.847 599.632C738.274 601.481 738.3 601.077 737.714 602.405C737.636 603.447 738.482 604.345 738.677 605.347C738.834 606.011 738.964 606.701 738.873 607.534L738.755 607.586C738.078 607.105 737.649 606.467 737.362 605.777C736.907 604.696 737.271 603.499 737.297 602.392C737.271 602.028 737.115 601.611 737.141 601.194C737.232 600.4 737.87 599.567 738.781 599.515L738.847 599.632Z" fill="#2E4948"/>
<path d="M748.013 599.684C747.44 601.533 747.466 601.129 746.88 602.457C746.802 603.499 747.648 604.397 747.843 605.399C748 606.063 748.13 606.753 748.039 607.586L747.921 607.638C747.245 607.157 746.815 606.519 746.528 605.829C746.073 604.761 746.437 603.551 746.463 602.444C746.437 602.08 746.281 601.663 746.307 601.246C746.398 600.452 747.036 599.619 747.948 599.567L748.013 599.684Z" fill="#2E4948"/>
<path d="M741.022 495.278C741.022 495.135 739.746 494.289 739.135 494.667C738.523 495.044 734.474 504.873 737.911 506.24C741.348 507.607 744.641 503.129 744.967 501.254C745.292 499.379 744.706 493.873 745.448 492.362C745.448 492.362 741.582 493.964 740.996 497.114V495.278H741.022Z" fill="#F387A9"/>
<path d="M728.133 502.998C728.133 502.998 730.866 509.533 741.008 512.684C741.008 512.684 737.454 512.215 735.241 510.9C735.241 510.9 735.709 512.306 737.363 513.061C737.363 513.061 730.723 513.491 727.625 501.865" fill="#2E4948"/>
<path d="M762.358 538.824C764.584 543.159 766.536 547.612 768.32 552.129C767.825 552.103 766.68 552.103 766.172 552.077L766.706 551.647C764.44 558.963 763.178 566.514 761.811 574.039C760.626 580.613 758.4 589.83 756.838 596.404C757.333 585.221 760.704 573.687 763.438 562.661C764.428 558.82 764.974 554.889 765.716 550.983C766.029 550.983 767.135 550.957 767.461 550.944L766.927 551.751C765.326 547.56 763.23 543.003 762.345 538.811L762.358 538.824Z" fill="#2E4948"/>
<path d="M624.313 554.732C624.313 554.732 619.496 552.949 616.215 541.05H614.028C614.028 541.05 621.839 535.765 627.098 544.774C627.098 544.774 628.504 543.381 631.043 543.381C631.043 543.381 633.998 538.382 638.515 539.514C638.515 539.514 639.479 530.115 643.983 527.928V529.842C643.983 529.842 649.047 538.642 645.35 544.774C645.35 544.774 664.851 568.831 663.992 580.73C663.133 592.628 651.234 589.374 651.234 589.374C651.234 589.374 651.651 592.667 650.687 593.123C649.724 593.579 651 594.724 649.203 594.568C647.407 594.412 642.616 593.123 642.616 593.123C642.616 593.123 644.946 596.352 643.436 597.706C641.926 599.059 641.379 597.706 641.379 597.706C641.379 597.706 643.293 599.502 640.143 599.346C636.992 599.19 632.488 596.911 632.488 596.911C632.488 596.911 632.905 598.591 632.215 599.098C631.525 599.606 616.892 597.706 616.892 597.706C616.892 597.706 610.058 594.542 611.971 581.55C611.971 581.55 603.483 581.967 602.663 569.925C601.843 557.883 610.331 550.775 610.331 550.775C610.331 550.775 600.606 576.356 612.101 576.499C612.101 576.499 610.735 567.464 617.022 565.147C623.31 562.817 623.141 562.687 623.141 562.687L624.299 554.758L624.313 554.732Z" fill="#EE9146"/>
<path d="M630.627 554.876C631.166 554.876 631.603 554.164 631.603 553.287C631.603 552.41 631.166 551.699 630.627 551.699C630.088 551.699 629.65 552.41 629.65 553.287C629.65 554.164 630.088 554.876 630.627 554.876Z" fill="black"/>
<path d="M637.715 551.601C638.214 551.396 638.348 550.572 638.015 549.761C637.682 548.95 637.007 548.458 636.509 548.663C636.01 548.868 635.876 549.692 636.209 550.503C636.542 551.314 637.217 551.806 637.715 551.601Z" fill="black"/>
<path d="M635.872 558.026C635.872 558.026 632.786 557.128 632.904 555.657C633.021 554.185 634.14 554.185 635.195 553.782C636.249 553.378 637.486 552.753 637.968 553.287C638.449 553.821 638.723 556.073 637.968 557.245C637.213 558.416 635.859 558.039 635.859 558.039L635.872 558.026Z" fill="black"/>
<path d="M632.723 560.877C632.723 560.877 633.816 562.674 634.936 562.309C636.055 561.945 636.667 558.091 636.667 558.091C636.667 558.091 637.8 561.671 640.833 560.226C643.866 558.781 642.148 555.331 642.148 555.331C642.148 555.331 645.897 558.508 640.989 562.374C640.989 562.374 638.021 561.229 638.451 565.03C638.451 565.03 637.188 564.236 637.136 562.921C637.136 562.921 634.675 565.551 632.723 560.89V560.877Z" fill="black"/>
<path d="M635.677 563.533C635.677 563.533 634.323 572.229 637.135 572.867C639.947 573.505 641.47 571.63 641.627 570.276C641.783 568.922 640.989 562.361 640.989 562.361C640.989 562.361 638.307 562.387 638.125 566.371C638.125 566.371 636.732 563.897 637.135 562.921C637.135 562.921 636.849 563.715 635.677 563.546V563.533Z" fill="#F387A9"/>
<path d="M623.154 562.66C622.308 564.366 622.803 566.384 623.988 567.776L623.597 567.763C624.652 566.41 625.498 564.847 626.019 563.22L626.748 563.598C625.706 565.381 625.875 567.698 626.5 569.612C626.721 570.289 627.008 570.927 627.32 571.565L626.201 571.721C626.721 569.339 626.878 567.047 628.14 564.873L629.325 563.22C629.13 568.974 629.039 574.78 629.169 580.534C629.481 585.494 629.052 590.897 631.304 595.44C629.729 593.396 629.39 590.676 628.909 588.215C628.153 583.151 627.906 578.048 627.867 572.932C627.867 570.38 627.867 567.829 627.984 565.277L629.104 565.733C628.167 567.542 627.841 569.938 627.359 571.942L627.008 573.726C625.342 570.523 623.884 566.436 626.071 563.103L628.01 560.291L626.787 563.48C626.097 565.29 625.081 566.956 623.727 568.336C622.517 566.735 621.97 564.405 623.141 562.647L623.154 562.66Z" fill="#BC6F3A"/>
<path d="M625.016 548.484C625.159 550.632 625.198 552.728 624.313 554.732C623.388 552.728 623.44 550.111 625.016 548.484Z" fill="#BC6F3A"/>
<path d="M613.416 580.626C614.067 577.137 617.035 566.93 621.578 572.645C624.221 576.694 624.989 581.576 625.64 586.249C625.887 589.009 626.278 591.873 625.51 594.594C625.289 595.128 625.054 595.766 624.299 595.727L622.568 595.57C623.765 595.089 625.25 594.477 626.512 594.308C628.791 593.852 631.576 594.594 632.514 596.911C632.084 596.273 631.576 595.714 630.925 595.349C628.947 594.295 626.512 594.867 624.56 595.701L624.468 594.894C624.299 594.881 624.377 594.894 624.377 594.867C624.403 594.854 624.429 594.802 624.468 594.75C625.315 592.095 624.638 589.139 624.39 586.406C623.687 581.953 622.984 577.189 620.667 573.309C617.504 568.388 614.379 578.295 613.416 580.639V580.626Z" fill="#BC6F3A"/>
<path d="M631.302 595.44C630.404 592.902 629.128 589.478 631.12 587.083C633.568 585.117 637.278 586.666 639.53 588.267C641.131 589.465 642.342 591.027 643.214 592.863L642.003 593.331C639.959 587.512 643.422 582.513 649.528 582.279C651.181 582.149 652.821 582.162 654.201 581.381H654.188C654.332 581.264 654.488 580.847 654.553 580.522C654.774 579.428 654.709 578.282 654.644 577.163C654.878 578.282 655.074 579.428 654.943 580.587C654.865 580.977 654.865 581.394 654.475 581.81C653.03 582.865 651.194 582.891 649.632 583.138C646.612 583.49 643.448 585.195 642.876 588.371C642.576 589.83 642.784 591.47 643.227 592.889L642.016 593.357C640.584 590.168 637.512 587.603 633.971 587.161C633.125 587.07 632.266 587.161 631.667 587.669C629.87 589.699 630.795 592.98 631.302 595.44Z" fill="#BC6F3A"/>
<path d="M431.786 496.515C431.786 496.515 433.414 494.966 432.672 489.628L433.544 489.251C433.544 489.251 429.495 488.483 428.949 493C428.949 493 428.141 492.688 427.126 493.13C427.126 493.13 425.082 491.633 423.455 492.87C423.455 492.87 421.45 489.264 419.25 489.173L419.575 489.941C419.575 489.941 419.068 494.341 421.606 496.164C421.606 496.164 419.003 506.448 421.411 511.069L426.41 513.998C426.41 513.998 426.306 516.576 426.761 516.602C427.217 516.628 427.842 517.813 428.532 517.435C429.222 517.058 429.456 515.795 429.456 515.795C429.456 515.795 430.563 518.086 431.396 518.36C432.229 518.633 432.45 517.552 432.45 517.552C432.45 517.552 434.729 519.01 435.093 519.102C435.458 519.193 440.131 522.057 440.131 522.057C440.131 522.057 442.514 514.962 442.422 509.377C442.422 509.377 442.878 510.431 447.148 507.346C451.47 504.222 443.789 500.642 443.789 500.642C443.789 500.642 449.114 504.027 442.331 507.867C442.331 507.867 439.389 499.288 436.473 499.444C433.557 499.6 433.596 499.509 433.596 499.509L431.76 496.528L431.786 496.515Z" fill="#F7AC78"/>
<path d="M429.269 497.681C429.487 497.587 429.541 497.227 429.39 496.877C429.239 496.527 428.941 496.32 428.723 496.414C428.505 496.508 428.45 496.868 428.601 497.217C428.752 497.567 429.051 497.775 429.269 497.681Z" fill="black"/>
<path d="M425.846 497.584C426.083 497.58 426.27 497.268 426.264 496.887C426.257 496.506 426.059 496.201 425.822 496.205C425.585 496.209 425.398 496.521 425.404 496.902C425.411 497.283 425.609 497.588 425.846 497.584Z" fill="black"/>
<path d="M427.725 499.835C427.725 499.835 428.805 498.937 428.506 498.377C428.206 497.817 427.751 497.999 427.256 498.025C426.761 498.051 426.163 498.012 426.058 498.312C425.954 498.611 426.241 499.561 426.735 499.9C427.23 500.238 427.712 499.848 427.712 499.848L427.725 499.835Z" fill="black"/>
<path d="M429.482 500.433C429.482 500.433 429.352 501.345 428.844 501.384C428.336 501.423 427.425 499.991 427.425 499.991C427.425 499.991 427.594 501.618 426.123 501.566C424.652 501.514 424.743 499.835 424.743 499.835C424.743 499.835 423.793 501.761 426.423 502.451C426.423 502.451 426.54 504.782 427.022 506.37C427.022 506.37 430.068 508.401 428.063 501.996C428.063 501.996 429.508 502.621 429.482 500.42V500.433Z" fill="black"/>
<path d="M428.754 502.009C428.754 502.009 430.798 505.263 429.783 506.006C428.767 506.748 427.83 506.253 427.53 505.745C427.231 505.237 426.424 502.465 426.424 502.465C426.424 502.465 427.504 502.009 428.259 503.571C428.259 503.571 428.39 502.334 428.064 502.009C428.064 502.009 428.311 502.282 428.754 502.009Z" fill="#F387A9"/>
<path d="M440.638 505.016C435.053 504.495 438.269 510.249 438.542 513.36C438.789 515.001 438.88 516.68 438.906 518.346C437.136 515.964 434.623 513.946 433.387 518.021C433.504 517.435 433.66 516.836 433.986 516.303C435.157 514.259 437.696 515.847 438.815 517.149L438.216 517.396C438.047 516.107 437.813 514.819 437.553 513.556C437.24 511.564 436.238 509.807 436.081 507.763C435.782 505.146 438.49 503.402 440.664 505.029L440.638 505.016Z" fill="#BC6F3A"/>
<path d="M432.477 517.553C432.907 515.847 433.688 513.673 433.519 512.124C432.269 512.944 430.772 514.558 430.056 516.082L428.871 515.535C429.874 513.178 429.405 511.981 426.684 512.528C426.007 512.658 425.174 512.983 424.328 512.749C423.573 512.788 423.026 511.551 423.286 510.718C423.456 509.924 423.989 509.312 424.549 508.817C423.846 509.625 423.247 510.757 423.716 511.773C423.885 512.124 424.172 512.306 424.406 512.254C425.07 512.267 425.682 511.942 426.424 511.668C430.03 510.419 431.501 512.866 430.043 516.082L428.858 515.535C429.861 513.699 431.254 512.033 433.219 511.265C433.389 511.213 433.688 511.174 433.961 511.343C434.248 511.525 434.313 511.785 434.352 511.955C434.417 513.973 433.284 515.821 432.438 517.579L432.477 517.553Z" fill="#BC6F3A"/>
<path d="M631.812 420.788C631.812 420.788 634.649 421.491 638.672 420.788C642.695 420.085 644.817 419.135 644.817 419.135L648.358 427.649C648.358 427.649 647.889 428.834 644.817 427.649C644.817 427.649 648.709 438.936 648.227 444.989C648.227 444.989 652.615 442.255 652.615 448.543L642.213 448.14C642.213 448.14 643.866 451.785 641.028 452.488C638.19 453.191 636.537 448.14 636.537 448.14L622.295 462.928L621.071 456.055C621.071 456.055 610.527 452.579 615.265 439.535L619.757 434.08C619.757 434.08 616.294 441.526 618.116 446.031C618.767 447.632 621.41 449.65 621.41 449.65C621.41 449.65 619.757 442.451 622.595 440.133C625.433 437.816 632.254 437.569 633.335 437.1C634.415 436.631 633.335 428.118 633.335 428.118C633.335 428.118 632.762 431.125 630.158 431.164C627.555 431.203 631.812 420.788 631.812 420.788Z" fill="#914120"/>
<path d="M622.125 443.961C621.006 439.326 626.382 440.12 627.241 443.557C628.114 446.812 627.241 450.196 626.343 453.321C626.239 453.75 625.914 454.44 625.588 454.74C624.937 455.482 624.26 456.081 623.544 456.693L622.711 455.872C624.299 454.141 625.953 452.436 627.97 451.199C628.413 450.978 629.038 450.73 629.52 451.004C630.496 451.498 630.574 452.696 630.392 453.607C630.444 452.292 629.637 450.652 628.296 451.746C626.486 453.087 625.067 454.922 623.596 456.627L622.763 455.807C623.622 454.883 624.781 454.167 625.119 452.93C625.849 450.027 627.84 443.961 625.054 441.839C622.932 440.537 622.047 441.8 622.125 443.961Z" fill="#602D1A"/>
<path d="M642.213 448.127C641.744 446.421 640.69 443.31 638.451 444.638C637.852 444.976 637.331 445.484 636.823 445.953L636.928 445.809C636.654 446.369 636.524 447.189 636.993 447.671L637.435 448.179L636.98 448.582C635.912 449.65 633.947 450.131 633.4 448.296C632.762 445.861 633.647 443.31 634.324 441.019C634.337 443.258 633.647 446.252 634.675 448.231C635.066 448.491 635.743 447.957 636.081 447.658V448.569C635.131 447.632 635.261 446.187 635.873 445.106C636.199 444.82 636.524 444.547 636.863 444.273C640.273 441.67 642.356 444.703 642.213 448.127Z" fill="#602D1A"/>
<path d="M636.81 425.761C637.242 425.761 637.591 425.411 637.591 424.98C637.591 424.549 637.242 424.199 636.81 424.199C636.379 424.199 636.029 424.549 636.029 424.98C636.029 425.411 636.379 425.761 636.81 425.761Z" fill="#2F160E"/>
<path d="M641.928 425.371C642.359 425.371 642.709 425.021 642.709 424.59C642.709 424.158 642.359 423.809 641.928 423.809C641.496 423.809 641.146 424.158 641.146 424.59C641.146 425.021 641.496 425.371 641.928 425.371Z" fill="#2F160E"/>
<path d="M637.37 427.883C637.37 427.883 638.125 427.128 639.362 427.037C640.599 426.946 642.148 426.243 642.226 426.647C642.656 428.664 640.755 430.096 640.755 430.096C640.755 430.096 641.901 432.114 642.682 431.789C643.463 431.463 644.374 430.487 644.374 430.487C644.374 430.487 642.903 433.39 641.276 433.781C639.649 434.171 638.112 433.611 636.811 431.958C636.811 431.958 638.347 433.65 639.74 432.999C641.133 432.349 640.325 430.253 640.234 430.227C640.143 430.201 637.826 429.68 637.37 427.883Z" fill="#2F160E"/>
</g>
</g>
<defs>
<clipPath id="clip0_1_1542">
<rect width="1024" height="768" fill="white"/>
</clipPath>
<clipPath id="clip1_1_1542">
<rect width="1034.21" height="477" fill="white" transform="translate(-5 146)"/>
</clipPath>
</defs>
</svg>
