<svg width="1024" height="768" viewBox="0 0 1024 768" fill="none" xmlns="http://www.w3.org/2000/svg">
<rect width="1024" height="768" fill="white"/>
<path d="M0.0126953 422.936C0.0126953 422.936 242.111 367.431 301.779 382.829C361.447 398.228 426.545 448.096 461.182 458.336C495.832 468.575 623.908 417.143 642.81 419.238C661.713 421.332 899.143 484.323 1024 482.229V766.928H0.0126953V422.948V422.936Z" fill="#052D48"/>
<path d="M1024 487.361C1024 487.361 781.902 431.857 722.234 447.255C662.566 462.654 597.468 512.522 562.831 522.761C528.181 533.001 400.105 481.569 381.202 483.664C362.3 485.758 124.869 548.749 0.0126953 546.654V767.794H1024V487.374V487.361Z" fill="#04253F"/>
<path opacity="0.56" d="M451.64 543.073L451.86 543.862L452.61 543.823L452.571 543.112L451.64 543.073Z" fill="#DFEAD7"/>
<path opacity="0.51" d="M481.804 569.268L481.843 570.767L482.981 570.948L483.201 569.642L481.804 569.268Z" fill="#DFEAD7"/>
<path opacity="0.68" d="M518.329 538.057L518.859 538.949L519.7 538.69L519.415 537.837L518.329 538.057Z" fill="#DFEAD7"/>
<path opacity="0.57" d="M537.49 556.662L536.649 559.079L538.11 559.79L539.171 557.799L537.49 556.662Z" fill="#DFEAD7"/>
<path opacity="0.91" d="M429.312 526.601L428.627 528.58L429.816 529.161L430.683 527.532L429.312 526.601Z" fill="#DFEAD7"/>
<path opacity="0.86" d="M433.902 553.339L434.703 555.071L436.152 554.748L435.764 553.145L433.902 553.339Z" fill="#DFEAD7"/>
<path opacity="0.93" d="M507.377 586.463L507.856 587.536L508.916 587.33L508.709 586.334L507.377 586.463Z" fill="#DFEAD7"/>
<path opacity="0.82" d="M460.807 606.852L460.368 608.96L461.906 609.568L462.63 607.835L460.807 606.852Z" fill="#DFEAD7"/>
<path opacity="0.98" d="M512.653 560.101L513.713 561.135L514.786 560.463L514.075 559.403L512.653 560.101Z" fill="#DFEAD7"/>
<path opacity="0.96" d="M438.931 585.364L438.091 588.92L440.263 589.709L441.478 586.722L438.931 585.364Z" fill="#DFEAD7"/>
<path opacity="0.91" d="M475.625 555.033L474.487 557.812L476.155 558.717L477.512 556.468L475.625 555.033Z" fill="#DFEAD7"/>
<path opacity="0.99" d="M481.869 600.181L483.576 602.289L485.489 601.345L484.403 599.263L481.869 600.181Z" fill="#DFEAD7"/>
<path opacity="0.56" d="M416.939 520.9L417.159 521.688L417.909 521.65L417.87 520.938L416.939 520.9Z" fill="#DFEAD7"/>
<path opacity="0.51" d="M447.103 547.094L447.141 548.607L448.279 548.775L448.499 547.482L447.103 547.094Z" fill="#DFEAD7"/>
<path opacity="0.68" d="M483.627 515.883L484.158 516.775L484.998 516.517L484.713 515.676L483.627 515.883Z" fill="#DFEAD7"/>
<path opacity="0.57" d="M502.788 534.488L501.948 536.906L503.409 537.617L504.469 535.626L502.788 534.488Z" fill="#DFEAD7"/>
<path opacity="0.91" d="M394.61 504.441L393.912 506.419L395.115 507.001L395.981 505.372L394.61 504.441Z" fill="#DFEAD7"/>
<path opacity="0.86" d="M399.2 531.178L399.988 532.898L401.449 532.575L401.061 530.984L399.2 531.178Z" fill="#DFEAD7"/>
<path d="M685.219 395.073C684.869 396.327 684.882 396.327 684.74 397.607C684.598 398.887 684.908 398.965 684.443 400.18C684.029 401.266 684.223 399.405 683.421 398.125C683.072 397.569 682.413 397.064 681.934 396.302C681.56 395.707 681.159 395.035 680.719 394.323C680.331 393.703 679.969 393.018 679.543 392.319C679.155 391.686 678.793 391.001 678.366 390.302C677.965 389.669 677.526 389.035 677.099 388.35C676.698 387.717 676.207 387.096 675.793 386.424C675.392 385.777 675.134 385.027 674.707 384.355C674.28 383.683 673.686 383.179 673.259 382.506C672.832 381.834 672.794 380.981 672.367 380.308C671.94 379.636 671.41 379.093 670.996 378.421C670.583 377.748 670.285 377.05 669.859 376.391C669.432 375.731 668.98 375.124 668.566 374.451C668.152 373.779 667.674 373.184 667.247 372.525C666.82 371.865 666.394 371.232 665.98 370.573C665.566 369.913 665.049 369.331 664.635 368.672C664.222 368.013 663.756 367.392 663.329 366.733C662.903 366.073 662.528 365.401 662.114 364.742C661.7 364.082 661.222 363.474 660.795 362.815C660.369 362.156 659.968 361.509 659.554 360.85C659.14 360.191 658.869 359.454 658.455 358.794C658.041 358.135 657.822 357.359 657.408 356.7C656.994 356.04 656.231 355.614 655.818 354.954C655.404 354.295 655.171 353.519 654.757 352.873C654.344 352.226 653.84 351.618 653.413 350.959C652.986 350.3 652.818 349.485 652.404 348.839C651.991 348.192 651.176 347.779 650.749 347.119C650.323 346.46 650.103 345.684 649.676 345.025C649.25 344.365 648.913 343.654 648.5 343.008C648.086 342.361 647.633 341.715 647.207 341.055C646.78 340.396 646.341 339.75 645.927 339.103C645.513 338.457 644.97 337.862 644.543 337.215C644.117 336.569 643.962 335.729 643.535 335.082C643.108 334.436 642.358 333.983 641.932 333.337C641.505 332.69 641.195 331.953 640.781 331.307C640.367 330.66 640.044 329.923 639.617 329.277C639.191 328.631 638.596 328.074 638.169 327.428C637.743 326.782 637.394 326.058 636.98 325.424C636.566 324.791 635.933 324.235 635.506 323.601C635.079 322.968 634.885 322.127 634.459 321.494C634.032 320.86 633.67 320.136 633.243 319.502C632.817 318.869 632.325 318.223 631.899 317.589C631.472 316.955 631.045 316.27 630.619 315.637C630.166 314.977 629.559 314.447 629.132 313.827C628.679 313.167 628.369 312.43 627.929 311.823C627.464 311.163 626.753 310.711 626.326 310.103C625.848 309.444 625.68 308.603 625.253 308.009C624.762 307.336 624.232 307.039 623.805 306.47C624.322 306.987 624.607 307.491 625.201 308.009C625.757 308.487 626.624 308.642 627.244 309.107C627.865 309.573 628.356 310.142 629.003 310.568C629.649 310.995 630.14 311.616 630.813 312.004C631.485 312.391 632.364 312.314 633.062 312.663C633.761 313.012 634.239 313.736 634.95 314.033C635.661 314.331 636.437 314.434 637.161 314.693C637.885 314.951 638.57 315.326 639.307 315.533C640.044 315.74 640.82 315.805 641.57 315.947C642.32 316.089 643.095 316.025 643.858 316.102C644.621 316.18 645.371 316.076 646.134 316.076C646.897 316.076 647.634 316.076 648.409 315.999C649.224 315.921 650.051 315.921 650.866 315.908C651.68 315.895 652.508 316.025 653.309 316.089C654.111 316.154 654.913 316.477 655.714 316.581C656.516 316.684 657.421 316.4 658.197 316.568C659.011 316.736 659.722 317.317 660.472 317.524C661.3 317.744 662.088 317.925 662.812 318.171C663.64 318.442 664.364 318.804 665.062 319.089C665.915 319.425 666.743 319.567 667.376 319.852C668.76 320.498 668.437 321.455 669.574 321.028C670.712 320.602 669.742 320.123 668.954 318.675C668.643 318.119 668.359 317.33 667.674 316.606C667.195 316.102 666.626 315.507 665.889 314.939C665.32 314.499 664.454 314.318 663.704 313.84C663.084 313.439 662.567 312.728 661.791 312.314C661.132 311.952 660.278 311.836 659.515 311.461C658.83 311.124 658.054 310.905 657.266 310.556C656.568 310.245 655.818 309.948 655.042 309.638C654.318 309.353 653.62 308.952 652.818 308.655C652.055 308.371 651.344 308.021 650.607 307.776C649.87 307.53 649.082 307.272 648.332 307.052C647.582 306.832 646.754 306.729 646.004 306.535C645.254 306.341 644.711 305.953 643.962 305.772C644.699 305.875 645.229 306.017 645.992 306.082C646.754 306.147 647.491 306.224 648.254 306.263C649.017 306.302 649.767 306.16 650.53 306.134C651.344 306.121 652.172 306.341 652.973 306.276C653.775 306.211 654.589 306.043 655.391 305.927C656.193 305.811 656.981 305.552 657.77 305.397C658.559 305.242 659.425 305.268 660.201 305.074C660.976 304.88 661.7 304.324 662.463 304.091C663.226 303.858 664.118 303.845 664.855 303.574C665.644 303.289 666.342 302.837 667.066 302.552C667.855 302.229 668.566 301.841 669.277 301.518C670.065 301.156 670.854 300.923 671.527 300.574C672.354 300.161 673 299.643 673.595 299.307C674.927 298.557 675.612 299.372 675.651 298.157C674.94 297.924 674.255 297.859 673.543 297.665C672.832 297.471 672.199 296.928 671.488 296.747C670.777 296.566 669.988 296.566 669.277 296.411C668.566 296.256 667.803 296.152 667.079 296.01C666.355 295.868 665.592 295.868 664.868 295.752C664.144 295.635 663.446 295.183 662.709 295.092C661.972 295.002 661.222 294.911 660.485 294.834C659.748 294.756 658.998 294.679 658.261 294.64C657.524 294.601 656.852 294.73 656.128 294.692C656.749 294.265 657.227 293.89 657.757 293.515C658.352 293.075 658.908 292.662 659.49 292.351C660.097 292.028 660.886 291.86 661.726 291.589C662.437 291.356 663.11 290.8 663.924 290.606C664.674 290.425 665.54 290.606 666.329 290.451C667.118 290.296 667.868 289.959 668.63 289.843C669.445 289.714 670.247 289.636 670.996 289.533C671.863 289.416 672.677 289.365 673.362 289.274C674.798 289.106 675.017 289.934 675.729 288.99C674.979 288.835 674.242 288.628 673.518 288.485C672.794 288.343 672.018 288.304 671.294 288.188C670.57 288.072 669.833 287.723 669.109 287.619C668.385 287.516 667.57 287.697 666.833 287.606C666.096 287.516 665.333 287.477 664.596 287.399C663.859 287.322 663.097 287.206 662.36 287.154C661.623 287.102 660.847 287.102 660.11 287.063C659.373 287.025 658.61 286.973 657.873 286.96C657.136 286.947 656.361 286.753 655.624 286.766C654.887 286.779 654.098 286.727 653.374 286.766C652.65 286.805 651.848 286.792 651.124 286.844C650.362 286.895 649.65 287.374 648.926 287.451C648.202 287.529 647.401 287.399 646.677 287.503C645.914 287.606 645.254 287.813 644.543 287.955C645.306 287.787 645.991 287.568 646.716 287.322C647.44 287.076 648.086 286.585 648.797 286.275C649.508 285.964 650.374 285.99 651.06 285.641C651.745 285.292 652.378 284.801 653.038 284.413C653.697 284.025 654.202 283.353 654.835 282.926C655.469 282.499 656.154 282.099 656.749 281.646C657.343 281.193 657.938 280.625 658.507 280.146C659.115 279.629 659.722 279.151 660.265 278.659C660.873 278.116 661.429 277.586 661.959 277.082C662.567 276.5 663.019 275.854 663.51 275.362C664.183 274.703 664.765 274.16 665.204 273.785C665.696 273.345 666.536 273.035 667.376 272.634C668.049 272.311 668.798 271.949 669.6 271.652C670.35 271.38 671.242 271.445 672.018 271.212C672.794 270.979 673.518 270.462 674.268 270.255C675.121 270.023 675.948 269.906 676.634 269.738C678.043 269.389 678.586 270.346 679.193 269.299C678.418 269.208 677.435 269.014 676.685 268.937C675.935 268.859 675.147 268.575 674.397 268.523C673.647 268.471 672.832 268.601 672.082 268.562C671.333 268.523 670.531 268.29 669.781 268.264C669.031 268.239 668.217 268.523 667.467 268.51C666.717 268.497 665.915 268.51 665.152 268.51C664.39 268.51 663.588 268.342 662.838 268.368C662.049 268.407 661.3 268.717 660.55 268.769C659.761 268.833 659.011 268.898 658.261 268.988C657.473 269.079 656.645 269.053 655.908 269.156C656.555 268.743 657.214 268.238 657.822 267.838C658.468 267.411 659.231 267.191 659.839 266.777C660.485 266.338 660.989 265.743 661.584 265.316C662.218 264.864 662.735 264.308 663.316 263.868C663.937 263.403 664.803 263.3 665.385 262.86C666.006 262.382 666.407 261.67 666.963 261.218C667.57 260.727 668.1 260.184 668.643 259.718C669.251 259.201 669.768 258.658 670.298 258.193C670.893 257.65 671.578 257.275 672.07 256.796C672.664 256.214 673.362 255.852 673.828 255.361C674.436 254.715 674.862 254.081 675.263 253.603C676.233 252.452 677.19 252.685 676.53 251.78C675.754 251.87 675.03 252.18 674.28 252.284C673.53 252.387 672.729 252.387 671.979 252.504C671.229 252.62 670.428 252.685 669.691 252.827C668.954 252.969 668.139 252.995 667.389 253.15C666.639 253.305 665.902 253.616 665.152 253.797C664.403 253.978 663.575 253.926 662.838 254.12C662.101 254.314 661.377 254.689 660.64 254.909C659.903 255.128 659.128 255.309 658.416 255.555C657.705 255.801 656.981 256.176 656.27 256.434C655.559 256.693 654.783 256.926 654.085 257.197C653.387 257.469 652.702 257.934 652.003 258.231C651.305 258.529 650.465 258.619 649.78 258.942C649.094 259.266 648.383 259.654 647.711 260.003C647.039 260.352 646.379 260.804 645.72 261.192C645.061 261.58 644.414 262.033 643.768 262.433C643.768 262.433 643.949 262.485 643.949 262.472C644.143 261.787 644.143 260.933 644.505 260.119C644.802 259.434 645.384 258.813 645.785 258.063C646.147 257.378 646.457 256.628 646.871 255.917C647.284 255.206 647.659 254.521 648.073 253.835C648.487 253.15 649.043 252.53 649.469 251.857C649.896 251.185 650.271 250.435 650.711 249.789C651.176 249.077 651.59 248.379 652.003 247.759C652.508 247.022 652.779 246.207 653.18 245.638C654.033 244.423 655.313 244.863 654.874 243.751C654.124 243.97 653.271 244.294 652.56 244.539C651.848 244.785 651.124 245.134 650.426 245.431C649.728 245.729 648.952 245.949 648.28 246.298C647.608 246.647 647.026 247.242 646.379 247.617C645.694 248.017 644.996 248.341 644.375 248.754C643.716 249.194 642.888 249.362 642.294 249.814C641.647 250.293 641.13 250.952 640.574 251.431C641.014 250.836 641.686 250.358 642.151 249.75C642.617 249.142 643.083 248.586 643.561 247.991C644.039 247.397 644.427 246.763 644.918 246.181C645.41 245.6 645.978 245.108 646.483 244.539C646.987 243.97 647.439 243.376 647.944 242.82C648.448 242.264 648.965 241.708 649.482 241.165C650 240.622 650.439 239.975 650.943 239.432C651.448 238.889 651.758 238.114 652.275 237.571C652.792 237.028 653.658 236.782 654.176 236.252C654.719 235.696 655.119 235.036 655.637 234.519C656.193 233.963 656.555 233.252 657.059 232.748C657.641 232.179 658.287 231.765 658.778 231.274C659.386 230.679 659.903 230.11 660.369 229.671C661.403 228.688 662.45 229.257 662.062 228.197C661.287 228.313 660.563 228.507 659.813 228.649C659.063 228.792 658.235 228.688 657.498 228.856C656.761 229.024 656.089 229.58 655.365 229.8C654.641 230.02 653.788 229.955 653.077 230.201C652.366 230.447 651.616 230.718 650.905 231.003C650.193 231.287 649.469 231.597 648.771 231.908C648.073 232.218 647.401 232.632 646.728 232.981C646.056 233.33 645.345 233.692 644.686 234.067C644.026 234.442 643.354 234.868 642.72 235.269C642.087 235.67 641.389 236.058 640.768 236.497C640.148 236.937 639.773 237.739 639.165 238.204C638.557 238.67 637.872 239.044 637.29 239.549C636.708 240.053 636.01 240.441 635.454 240.958C634.898 241.475 634.549 242.238 634.019 242.781C633.489 243.324 632.791 243.738 632.287 244.307C631.782 244.876 631.265 245.47 630.787 246.052C630.309 246.634 629.934 247.332 629.468 247.94C629.003 248.547 628.486 249.09 628.046 249.711C627.774 248.987 627.399 248.353 627.218 247.642C627.037 246.931 626.844 246.155 626.753 245.419C626.663 244.682 626.96 243.893 626.947 243.156C626.934 242.419 626.818 241.643 626.895 240.906C626.973 240.169 627.05 239.407 627.205 238.683C627.361 237.958 627.761 237.273 627.981 236.562C628.201 235.851 628.33 235.101 628.615 234.416C628.899 233.731 629.184 233.02 629.507 232.36C629.83 231.701 630.386 231.119 630.761 230.485C631.136 229.852 631.381 229.089 631.782 228.494C632.209 227.835 632.442 227.085 632.868 226.503C633.347 225.857 634.11 225.495 634.549 224.965C635.092 224.318 635.286 223.478 635.713 223.012C636.657 221.991 638.079 222.495 637.665 221.461C636.876 221.629 635.958 222.107 635.221 222.314C634.446 222.534 633.696 222.715 632.998 222.961C632.235 223.232 631.524 223.504 630.838 223.801C630.102 224.124 629.3 224.267 628.641 224.629C627.93 225.016 627.412 225.65 626.792 226.077C626.132 226.529 625.331 226.749 624.749 227.227C624.128 227.744 623.547 228.275 623.029 228.818C622.473 229.386 621.892 229.942 621.426 230.537C620.935 231.171 620.728 231.972 620.34 232.619C619.926 233.304 619.513 234.041 619.202 234.726C619.073 234.041 619.125 233.201 619.138 232.373C619.138 231.649 619.241 230.912 619.332 230.123C619.422 229.399 619.396 228.624 619.538 227.861C619.681 227.098 619.81 226.374 619.991 225.624C620.172 224.874 620.547 224.189 620.754 223.465C620.961 222.741 620.974 221.913 621.193 221.215C621.439 220.452 621.879 219.793 622.098 219.121C622.37 218.319 622.642 217.595 622.874 216.987C623.366 215.682 623.663 215.953 623.689 214.815C623.366 215.087 622.693 215.785 621.943 216.638C621.465 217.194 621 217.892 620.444 218.578C619.939 219.185 619.202 219.664 618.685 220.31C618.168 220.957 617.858 221.771 617.366 222.405C616.823 223.103 616.384 223.814 615.957 224.409C615.311 225.314 614.431 226.012 614.238 226.426C614.173 225.443 614.47 224.447 614.393 223.672C614.276 222.508 614.044 221.603 613.94 221.06C613.837 220.53 613.798 219.728 613.914 218.733C613.992 218.048 614.082 217.246 614.25 216.406C614.393 215.682 614.587 214.919 614.781 214.104C614.949 213.367 615.207 212.617 615.401 211.842C615.595 211.066 615.647 210.29 615.854 209.527C616.061 208.764 616.177 207.976 616.397 207.226C616.617 206.476 617.147 205.791 617.366 205.054C617.599 204.278 617.909 203.541 618.129 202.817C618.375 202.015 618.504 201.227 618.724 200.529C618.982 199.688 619.112 198.887 619.319 198.253C619.758 196.857 620.78 196.908 620.133 195.926C619.642 196.469 619.008 197.115 618.53 197.749C618.077 198.331 617.457 198.835 617.017 199.494C616.604 200.115 616.41 200.904 615.996 201.576C615.582 202.248 615.065 202.791 614.677 203.463C614.289 204.136 613.914 204.782 613.552 205.468C613.19 206.153 612.97 206.877 612.621 207.575C612.272 208.273 612.001 208.971 611.678 209.67C611.354 210.368 611.225 211.143 610.915 211.842C610.605 212.54 609.906 213.07 609.609 213.781C609.312 214.492 609.221 215.281 608.937 215.992C608.652 216.703 608.432 217.453 608.161 218.164C607.889 218.875 607.579 219.586 607.32 220.297C607.062 221.008 606.584 221.681 606.338 222.392C606.092 223.103 605.821 223.866 605.588 224.577C605.342 225.327 605.394 226.141 605.174 226.852C604.941 227.615 604.825 228.378 604.631 229.076C604.424 229.865 604.295 230.615 604.14 231.3C603.959 232.114 603.597 232.774 603.493 233.446C603.455 232.748 603.209 232.024 603.183 231.184C603.17 230.46 603.131 229.684 603.131 228.869C603.131 228.132 603.571 227.357 603.571 226.555C603.571 225.805 603.209 225.029 603.222 224.228C603.235 223.426 603.532 222.702 603.558 221.913C603.584 221.125 603.377 220.362 603.403 219.586C603.429 218.81 603.83 218.06 603.855 217.285C603.881 216.509 603.584 215.72 603.61 214.957C603.636 214.195 603.636 213.393 603.674 212.63C603.713 211.867 603.778 211.066 603.817 210.316C603.855 209.527 603.855 208.752 603.894 208.002C603.933 207.2 604.256 206.437 604.295 205.7C604.347 204.873 604.515 204.11 604.554 203.399C604.605 202.52 604.386 201.731 604.424 201.072C604.515 199.624 605.381 199.649 604.515 198.874C604.101 199.417 603.907 200.037 603.545 200.839C603.248 201.498 603.054 202.248 602.782 203.05C602.55 203.761 602.343 204.498 602.123 205.299C601.929 206.036 601.502 206.735 601.321 207.51C601.14 208.286 600.869 209.01 600.714 209.786C600.559 210.562 600.61 211.363 600.481 212.139C600.352 212.915 600.106 213.665 599.977 214.44C599.847 215.216 599.628 215.979 599.511 216.755C599.395 217.53 599.382 218.345 599.279 219.108C599.162 219.909 599.188 220.711 599.085 221.461C598.968 222.275 598.968 223.077 598.865 223.801C598.748 224.641 598.348 225.378 598.231 226.077C598.089 226.995 598.05 228.029 597.921 228.637C597.714 227.913 597.688 226.917 597.481 226.18C597.275 225.443 596.9 224.771 596.68 224.034C596.46 223.297 596.266 222.573 596.033 221.836C595.801 221.099 595.49 220.401 595.257 219.677C595.025 218.953 594.727 218.242 594.495 217.518C594.262 216.793 594.249 215.979 594.003 215.268C593.758 214.557 593.228 213.897 592.982 213.199C592.724 212.449 592.801 211.622 592.555 210.924C592.284 210.174 591.986 209.463 591.741 208.79C591.469 208.015 591.017 207.368 590.771 206.709C590.474 205.894 590.474 205.08 590.241 204.472C589.737 203.127 590.435 202.442 589.297 202.403C589.026 203.166 588.832 203.942 588.612 204.731C588.392 205.519 588.095 206.282 587.927 207.071C587.759 207.859 587.604 208.674 587.487 209.476C587.371 210.277 587.332 211.143 587.241 211.958C587.035 211.208 586.621 210.471 586.388 209.734C586.155 208.997 585.897 208.26 585.638 207.536C585.38 206.812 585.212 206.023 584.914 205.325C584.617 204.627 584.126 203.968 583.789 203.283C583.44 202.571 583.104 201.886 582.716 201.24C582.303 200.554 582.109 199.753 581.656 199.158C581.178 198.512 580.544 198.033 580.014 197.516C579.445 196.947 579.122 196.508 578.488 196.107C577.92 197.102 578.876 196.689 579.419 197.982C579.678 198.589 579.575 199.455 579.859 200.27C580.092 200.942 580.648 201.576 580.867 202.352C581.074 203.063 581.139 203.838 581.294 204.601C581.449 205.338 581.372 206.114 581.462 206.89C581.553 207.665 581.785 208.377 581.811 209.152C581.837 209.928 582.07 210.691 582.005 211.467C581.94 212.242 581.811 213.005 581.643 213.755C581.462 214.557 581.074 215.371 580.842 216.173C580.635 215.436 580.505 214.608 580.221 213.871C579.936 213.135 579.432 212.54 579.07 211.855C578.708 211.169 578.411 210.458 577.971 209.825C577.532 209.191 577.183 208.454 576.64 207.898C576.097 207.342 575.437 206.903 574.804 206.45C574.17 205.998 573.433 205.778 572.722 205.429C572.05 205.105 571.287 204.653 570.511 204.42C569.748 205.261 570.705 205.364 571.067 206.735C571.235 207.355 571.52 208.079 571.727 208.907C571.895 209.592 572.14 210.316 572.321 211.092C572.476 211.803 572.748 212.527 572.903 213.29C573.058 214.014 573.188 214.764 573.33 215.526C573.472 216.289 573.485 217.039 573.614 217.789C573.743 218.539 573.912 219.276 574.015 220.026C574.118 220.776 573.899 221.577 573.976 222.314C574.054 223.051 574.312 223.749 574.351 224.486C573.989 223.853 573.524 223.284 573.071 222.573C572.67 221.939 572.27 221.254 571.791 220.569C571.352 219.948 571.093 219.134 570.589 218.5C570.085 217.867 569.27 217.556 568.727 216.961C568.184 216.367 567.641 215.85 567.059 215.294C566.477 214.738 565.96 214.182 565.352 213.665C564.745 213.147 564.215 212.566 563.555 212.113C562.896 211.661 562.301 211.131 561.616 210.73C560.931 210.329 560.116 210.2 559.379 209.889C558.642 209.579 557.815 209.023 557.039 208.79C556.16 209.695 556.936 209.98 556.897 211.467C556.884 212.216 556.897 213.096 556.871 214.001C556.845 214.841 557.13 215.72 557.091 216.548C557.052 217.453 557.091 218.332 557.026 219.082C556.923 220.543 556.832 221.461 556.69 221.448C557.181 222.676 557.039 222.508 557.582 223.943C557.867 224.693 558.035 225.598 558.254 226.516C558.461 227.382 558.81 228.249 558.81 229.115C558.81 229.684 558.642 230.291 558.655 230.912C558.668 231.494 558.746 232.05 558.81 232.657C557.983 232.166 557.155 231.61 556.16 231.184C555.384 230.86 554.518 230.847 553.82 230.563C553.031 230.253 552.397 229.658 551.686 229.399C550.872 229.115 550.057 229.037 549.333 228.818C548.493 228.572 547.691 228.468 546.98 228.3C546.114 228.094 545.364 227.77 544.653 227.667C543.722 227.55 542.933 227.602 542.248 227.628C541.227 227.667 540.464 227.822 539.895 228.055C538.408 228.662 537.542 228.701 538.15 229.735C538.938 229.8 539.856 229.813 540.632 230.046C541.408 230.279 542.054 230.731 542.791 231.093C543.528 231.455 544.11 231.921 544.795 232.36C545.48 232.8 546.269 232.994 546.916 233.498C547.562 234.002 548.234 234.416 548.829 234.959C549.424 235.502 549.786 236.252 550.355 236.834C550.924 237.415 551.518 237.92 552.061 238.514C552.604 239.109 553.109 239.717 553.613 240.337C554.117 240.958 554.582 241.604 555.074 242.238C555.565 242.872 555.901 243.621 556.367 244.255C556.832 244.888 557.44 245.47 557.879 246.117C558.319 246.763 558.991 247.332 559.405 247.991C559.858 248.69 560.039 249.517 560.439 250.176C560.879 250.9 561.564 251.431 561.939 252.077C562.379 252.827 562.495 253.512 562.844 254.133C562.224 253.68 561.629 253.396 560.97 252.943C560.31 252.491 559.69 252.038 559.043 251.599C558.397 251.159 557.776 250.668 557.129 250.228C556.483 249.789 555.824 249.336 555.164 248.922C554.505 248.509 553.794 248.134 553.134 247.733C552.475 247.332 551.764 246.931 551.105 246.53C550.419 246.117 549.734 245.716 549.088 245.328C548.376 244.914 547.73 244.475 547.084 244.1C546.36 243.673 545.739 243.169 545.118 242.807C544.343 242.367 543.464 242.316 542.882 241.992C541.589 241.268 541.847 239.885 540.852 240.493C541.188 241.165 541.459 242.083 541.834 242.742C542.209 243.402 542.869 243.88 543.269 244.526C543.67 245.173 543.787 245.987 544.213 246.621C544.64 247.254 545.08 247.875 545.519 248.483C545.959 249.09 546.696 249.504 547.148 250.086C547.601 250.668 547.833 251.482 548.299 252.064C548.764 252.646 549.372 253.163 549.85 253.719C550.329 254.275 551.04 254.689 551.544 255.245C552.048 255.801 552.514 256.499 553.018 257.042C552.32 256.783 551.57 256.408 550.833 256.176C550.096 255.943 549.307 256.008 548.557 255.801C547.808 255.594 547.161 255.167 546.398 254.999C545.636 254.831 544.937 254.508 544.187 254.378C543.438 254.249 542.662 254.159 541.912 254.081C541.162 254.003 540.373 254.262 539.611 254.236C538.848 254.21 538.085 254.081 537.322 254.107C536.559 254.133 535.771 254.016 535.021 254.107C534.271 254.197 533.586 254.728 532.836 254.896C532.086 255.064 531.284 254.96 530.547 255.193C529.81 255.426 529.203 255.917 528.492 256.227C527.78 256.538 527.082 256.77 526.41 257.158C525.738 257.546 525.052 257.856 524.432 258.309C523.811 258.761 523.216 259.214 522.635 259.731C522.053 260.248 521.445 260.688 520.915 261.27C520.385 261.851 519.971 262.472 519.493 263.08C519.04 263.662 518.652 264.334 518.213 264.993C517.812 265.614 517.398 266.377 517.023 267.062C517.747 268.032 517.89 266.907 519.519 266.7C520.178 266.622 520.98 266.454 521.923 266.364C522.648 266.299 523.436 266.066 524.328 266.002C525.078 265.95 525.893 266.041 526.759 266.002C527.522 265.963 528.336 266.144 529.19 266.105C529.965 266.079 530.754 265.691 531.607 265.679C532.383 265.666 533.198 265.885 534.038 265.872C534.814 265.872 535.628 265.795 536.469 265.795C537.257 265.795 538.059 265.691 538.899 265.691C539.688 265.691 540.503 265.678 541.33 265.691C542.119 265.704 542.933 265.64 543.774 265.666C544.627 265.691 545.442 266.079 546.243 266.118C547.11 266.157 547.937 265.924 548.726 265.976C549.592 266.028 550.38 266.48 551.156 266.545C552.022 266.622 552.824 266.467 553.6 266.545C552.902 266.752 552.242 267.062 551.505 267.308C550.82 267.54 550.07 267.682 549.333 267.954C548.648 268.213 547.989 268.588 547.265 268.872C546.592 269.144 545.894 269.441 545.183 269.751C544.511 270.049 543.735 270.165 543.037 270.501C542.339 270.837 541.77 271.29 541.072 271.639C540.373 271.988 539.688 272.208 539.003 272.57C538.318 272.932 537.671 273.255 536.999 273.617C536.327 273.979 535.616 274.199 534.93 274.574C534.245 274.949 533.611 275.298 532.939 275.673C532.267 276.048 531.853 276.798 531.194 277.185C530.534 277.573 529.836 277.819 529.177 278.22C528.517 278.621 527.767 278.802 527.121 279.215C526.475 279.629 525.919 280.12 525.259 280.534C524.6 280.948 524.044 281.426 523.397 281.84C522.751 282.254 522.143 282.667 521.497 283.094C520.85 283.521 520.256 283.947 519.622 284.387C518.989 284.827 518.303 285.176 517.67 285.615C517.14 286.637 517.657 286.585 519.402 287.089C519.958 287.244 520.721 287.451 521.717 287.503C522.376 287.529 523.139 287.206 524.031 287.154C524.729 287.115 525.479 287.076 526.332 286.973C527.043 286.882 527.78 286.701 528.621 286.572C529.332 286.456 530.108 286.404 530.922 286.249C531.646 286.107 532.461 286.223 533.249 286.055C533.973 285.9 534.685 285.551 535.486 285.37C536.21 285.202 537.025 285.253 537.813 285.046C538.537 284.865 539.21 284.348 539.985 284.128C540.761 283.922 541.576 283.909 542.326 283.715C543.076 283.521 543.851 283.275 544.601 283.081C545.351 282.887 546.153 282.732 546.903 282.538C547.653 282.344 548.389 281.93 549.139 281.737C549.889 281.543 550.704 281.426 551.454 281.232C552.203 281.038 553.044 280.806 553.794 280.625C553.225 281.142 552.436 281.555 551.854 282.137C551.311 282.68 550.949 283.443 550.381 284.025C549.85 284.581 549.191 285.046 548.648 285.654C548.131 286.223 547.523 286.753 546.993 287.374C546.463 287.994 546.14 288.705 545.61 289.326C545.08 289.947 544.769 290.658 544.252 291.291C543.735 291.925 543.037 292.325 542.533 292.972C542.028 293.618 541.796 294.381 541.304 295.041C540.813 295.7 540.373 296.308 539.895 296.967C539.417 297.626 539.003 298.26 538.537 298.919C538.072 299.579 537.4 300.044 536.947 300.716C536.495 301.389 536.288 302.177 535.835 302.837C535.383 303.496 534.594 303.91 534.155 304.582C533.715 305.255 533.624 306.121 533.198 306.806C532.771 307.491 532.176 308.034 531.75 308.72C531.323 309.405 530.935 310.064 530.508 310.749C530.418 311.9 530.78 311.538 532.577 311.305C533.159 311.228 533.818 310.879 534.749 310.53C535.37 310.297 536.223 310.323 537.012 309.922C537.632 309.612 538.188 309.017 538.925 308.577C539.546 308.215 540.192 307.802 540.891 307.349C541.498 306.961 542.313 306.78 542.998 306.302C543.606 305.888 543.993 305.112 544.666 304.634C545.261 304.194 545.972 303.845 546.618 303.367C547.213 302.914 547.937 302.591 548.583 302.087C549.178 301.622 549.747 301.091 550.381 300.587C550.949 300.135 551.622 299.824 552.165 299.385C552.708 298.945 553.225 298.402 553.781 297.963C554.337 297.523 554.828 296.967 555.384 296.527C555.94 296.088 556.418 295.519 556.974 295.079C557.53 294.64 557.983 294.342 558.539 293.916C558.022 294.51 557.724 295.079 557.22 295.7C556.716 296.321 556.237 296.941 555.746 297.575C555.255 298.208 554.906 298.919 554.44 299.579C553.975 300.238 553.225 300.678 552.785 301.35C552.346 302.022 552.048 302.772 551.648 303.47C551.247 304.169 551.105 304.996 550.743 305.694C550.381 306.392 549.721 306.974 549.385 307.698C549.049 308.422 549.088 309.301 548.803 310.051C548.519 310.801 548.027 311.461 547.795 312.223C547.562 312.986 547.42 313.775 547.239 314.551C547.058 315.326 546.734 316.076 546.618 316.865C546.502 317.654 546.334 318.455 546.282 319.244C546.23 320.033 546.618 320.847 546.631 321.649C546.644 322.45 546.489 323.226 546.579 324.028C547.226 324.984 547.303 324.635 548.829 324.519C549.45 324.467 550.187 324.157 551.066 323.86C551.699 323.653 552.501 323.524 553.277 323.136C553.897 322.825 554.531 322.347 555.242 321.881C555.837 321.494 556.535 321.132 557.194 320.627C557.763 320.188 558.229 319.541 558.862 319.011C559.418 318.533 559.845 317.886 560.439 317.33C560.97 316.826 561.694 316.477 562.262 315.908C562.78 315.378 563.336 314.848 563.892 314.266C564.396 313.723 564.784 313.038 565.301 312.43C565.792 311.874 566.309 311.461 566.826 310.84C566.607 311.564 566.594 312.223 566.387 312.973C566.18 313.723 565.857 314.408 565.689 315.158C565.52 315.908 565.495 316.671 565.34 317.434C565.184 318.197 565.133 318.947 565.016 319.696C564.9 320.446 564.344 321.157 564.279 321.92C564.215 322.683 564.37 323.472 564.357 324.235C564.344 324.997 564.383 325.773 564.409 326.536C564.434 327.299 564.706 328.036 564.809 328.799C564.913 329.561 564.641 330.389 564.809 331.126C564.978 331.863 565.417 332.548 565.676 333.259C565.934 333.97 566.18 334.681 566.529 335.354C567.667 335.392 567.098 334.772 567.99 333.621C568.391 333.104 568.662 332.354 569.192 331.656C569.619 331.1 570.136 330.531 570.628 329.859C571.054 329.277 571.701 328.799 572.166 328.139C572.593 327.544 573.032 326.911 573.498 326.264C573.924 325.657 574.131 324.868 574.584 324.222C575.036 323.575 575.411 322.955 575.851 322.308C576.291 321.662 576.989 321.235 577.415 320.589C577.842 319.942 578.178 319.27 578.592 318.61C579.006 317.951 579.174 317.175 579.574 316.516C579.975 315.856 580.725 315.417 581.1 314.745C581.475 314.072 581.721 313.322 582.096 312.65C582.471 311.978 582.794 311.28 583.143 310.594C583.492 309.909 583.867 309.224 584.203 308.552C584.539 307.879 584.837 307.142 585.16 306.457C585.483 305.772 585.716 305.216 586 304.518C585.91 305.306 586 305.94 585.923 306.716C585.845 307.491 585.806 308.306 585.742 309.069C585.677 309.832 585.6 310.646 585.548 311.422C585.496 312.198 585.147 312.986 585.108 313.762C585.069 314.538 585.018 315.352 584.992 316.128C584.966 316.904 585.354 317.731 585.341 318.507C585.328 319.283 585.095 320.097 585.095 320.86C585.095 321.623 584.966 322.45 584.979 323.226C584.992 324.002 584.914 324.829 584.94 325.605C584.966 326.381 585.237 327.195 585.276 327.958C585.315 328.721 585.444 329.548 585.509 330.311C585.574 331.113 585.612 331.902 585.69 332.677C585.781 333.479 585.664 334.293 585.768 335.056C585.871 335.858 586.233 336.608 586.362 337.358C586.492 338.159 586.362 338.987 586.505 339.737C586.66 340.538 587.19 341.236 587.345 341.973C587.526 342.775 587.397 343.615 587.578 344.339C587.785 345.141 587.991 345.904 588.198 346.628C588.431 347.442 588.69 348.192 588.922 348.878C589.194 349.692 589.388 350.468 589.646 351.127C589.982 351.98 590.344 352.692 590.616 353.286C591.262 354.683 590.642 355.265 591.793 355.523C592.413 355.084 592.943 354.269 593.499 353.726C594.055 353.183 594.689 352.769 595.167 352.161C595.645 351.554 595.917 350.843 596.331 350.183C596.744 349.524 597.404 349.046 597.753 348.347C598.102 347.649 598.27 346.899 598.554 346.175C598.839 345.451 599.072 344.74 599.317 344.003C599.563 343.266 599.744 342.542 599.938 341.792C600.132 341.042 600.274 340.305 600.429 339.556C600.584 338.806 600.791 338.069 600.933 337.319C601.076 336.569 600.934 335.78 601.05 335.017C601.166 334.255 601.283 333.505 601.36 332.742C601.438 331.979 601.645 331.229 601.709 330.466C601.774 329.704 601.825 328.915 601.877 328.152C602.032 328.876 602.136 329.626 602.317 330.363C602.498 331.1 602.666 331.811 602.86 332.522C603.054 333.233 603.364 333.918 603.584 334.63C603.804 335.341 603.83 336.116 604.075 336.815C604.321 337.513 604.825 338.12 605.109 338.806C605.394 339.491 605.678 340.189 605.989 340.861C606.299 341.534 606.609 342.219 606.958 342.865C607.308 343.512 607.631 344.391 608.006 345.012C609.169 345.387 608.626 344.417 609.518 342.904C609.842 342.348 610.462 341.767 610.798 340.823C611.044 340.163 611.316 339.387 611.548 338.495C611.729 337.784 611.678 336.944 611.833 336.065C611.962 335.328 611.962 334.513 612.065 333.634C612.156 332.884 612.376 332.095 612.44 331.229C612.505 330.466 612.479 329.652 612.531 328.786C612.57 328.01 612.712 327.195 612.738 326.355C612.751 325.566 612.738 324.7 612.738 323.847C612.983 324.597 613.19 325.476 613.513 326.252C613.837 327.027 614.199 327.738 614.561 328.488C614.923 329.238 615.414 329.885 615.854 330.596C616.293 331.307 616.785 331.927 617.289 332.6C617.793 333.272 618.388 333.789 618.957 334.397C619.526 335.005 619.939 335.729 620.573 336.259C621.206 336.789 622.008 337.034 622.719 337.487C623.43 337.939 624.089 338.638 624.852 339C625.835 338.444 624.607 338.004 624.697 336.595C624.736 335.961 624.969 335.211 625.007 334.358C625.033 333.673 625.176 332.923 625.201 332.121C625.227 331.41 625.137 330.647 625.15 329.872C625.163 329.148 625.072 328.398 625.072 327.622C625.072 326.846 625.201 326.135 625.188 325.372C625.176 324.61 624.982 323.886 624.969 323.123C624.956 322.36 625.072 321.623 625.033 320.873C624.995 320.123 624.943 319.179 624.891 318.429C625.292 319.063 625.9 319.839 626.339 320.524C626.753 321.17 626.947 321.972 627.387 322.657C627.8 323.304 628.485 323.808 628.912 324.48C629.339 325.153 629.507 325.941 629.946 326.626C630.386 327.312 630.955 327.842 631.382 328.514C631.808 329.186 632.132 329.898 632.558 330.57C632.985 331.242 633.23 332.005 633.644 332.677C634.058 333.35 634.549 333.97 634.976 334.643C635.403 335.315 636.101 335.793 636.514 336.478C636.928 337.164 637.096 337.978 637.51 338.651C637.924 339.323 638.376 339.969 638.79 340.642C639.204 341.314 639.424 342.116 639.837 342.788C640.251 343.46 640.846 344.029 641.259 344.714C641.673 345.4 641.996 346.124 642.41 346.809C642.824 347.494 643.328 348.115 643.729 348.787C644.13 349.459 644.763 350.028 645.151 350.7C645.539 351.373 645.81 352.161 646.198 352.834C646.586 353.506 646.819 354.308 647.22 354.98C647.621 355.652 648.202 356.26 648.577 356.932C648.978 357.643 649.547 358.225 649.922 358.898C650.323 359.609 650.4 360.475 650.762 361.147C651.163 361.871 651.732 362.466 652.081 363.125C652.469 363.862 652.883 364.548 653.219 365.207C653.607 365.983 653.801 366.759 654.085 367.392C652.844 367.741 652.74 367.03 651.512 367.418C650.413 367.767 652.068 368.026 652.844 369.293C653.18 369.849 653.271 370.702 653.723 371.465C654.085 372.072 654.473 372.732 654.9 373.456C655.262 374.076 655.986 374.555 656.399 375.253C656.774 375.886 656.826 376.74 657.227 377.438C657.602 378.084 658.235 378.602 658.623 379.3C658.998 379.946 659.283 380.67 659.671 381.355C660.058 382.041 660.627 382.571 661.002 383.256C661.377 383.941 661.325 384.821 661.7 385.506C662.075 386.191 662.605 386.76 662.967 387.445C663.329 388.13 663.575 388.854 663.95 389.54C664.325 390.225 664.726 390.858 665.088 391.557C665.45 392.255 666.109 392.759 666.471 393.444C666.833 394.129 667.105 394.854 667.454 395.539C667.803 396.224 668.191 396.883 668.54 397.582C668.889 398.28 669.018 399.055 669.354 399.754C669.691 400.452 670.143 401.085 670.479 401.784C670.815 402.482 670.932 403.27 671.255 403.981C671.578 404.693 672.095 405.287 672.419 405.998C672.742 406.71 672.923 407.459 673.246 408.17C673.569 408.882 673.776 409.631 674.074 410.33C674.371 411.028 674.875 411.674 675.173 412.385C675.47 413.097 675.91 413.756 676.194 414.467C676.478 415.178 676.452 416.031 676.737 416.743C677.021 417.454 677.319 418.178 677.59 418.902C677.862 419.626 678.405 420.259 678.663 420.97C678.922 421.681 678.935 422.522 679.181 423.246C679.426 423.97 679.724 424.707 679.956 425.431C680.189 426.155 680.59 426.853 680.81 427.59C681.029 428.327 681.378 429.051 681.585 429.775C681.792 430.499 681.844 431.327 682.038 432.064C682.232 432.801 682.555 433.55 682.723 434.287C682.891 435.024 682.878 435.852 683.02 436.589C683.163 437.326 683.021 438.166 683.111 438.916C683.214 439.705 683.68 440.429 683.732 441.179C683.783 441.967 683.667 442.665 683.667 443.415C684.843 443.428 684.805 443.196 685.93 442.846C687.054 442.497 686.99 442.278 688.115 441.928C689.239 441.579 689.239 441.566 690.364 441.204C691.489 440.842 691.489 440.842 692.614 440.493C693.739 440.144 693.765 440.209 694.889 439.847C696.014 439.485 696.312 440.028 697.268 439.33C698.225 438.632 696.971 438.386 696.648 436.977C696.506 436.343 696.454 435.567 696.26 434.714C696.105 434.029 695.859 433.305 695.665 432.503C695.497 431.805 695.381 431.042 695.187 430.253C695.019 429.542 694.708 428.818 694.514 428.056C694.333 427.331 694.398 426.53 694.204 425.767C694.01 425.004 693.467 424.384 693.273 423.634C693.079 422.884 692.873 422.173 692.679 421.423C692.485 420.673 692.433 419.91 692.239 419.173C692.045 418.436 691.773 417.712 691.58 416.975C691.386 416.238 691.58 415.385 691.386 414.648C691.192 413.911 690.894 413.187 690.7 412.45C690.507 411.713 690.041 411.028 689.847 410.304C689.653 409.58 689.808 408.714 689.614 407.989C689.421 407.265 688.942 406.567 688.735 405.856C688.515 405.093 688.334 404.356 688.115 403.645C687.882 402.882 687.804 402.107 687.584 401.409C687.339 400.633 686.77 400.012 686.537 399.34C686.266 398.551 686.266 397.737 686.02 397.09C685.697 396.25 685.516 395.59 685.231 395.047L685.219 395.073Z" fill="#0C121D"/>
<path d="M299.09 586.67C299.09 586.67 291.345 538.858 292.716 524.74C294.086 510.621 299.09 519.27 299.09 519.27C299.09 519.27 292.095 468.265 295.819 460.52C299.542 452.776 302.27 460.52 302.27 460.52C302.27 460.52 299.077 417.712 302.27 405.417C305.464 393.121 308.645 402.223 308.645 402.223C308.645 402.223 313.648 360.785 321.393 352.588C329.137 344.391 329.59 352.588 329.59 352.588C329.59 352.588 335.511 325.721 345.531 319.8C355.552 313.878 356.457 319.8 356.457 319.8C356.457 319.8 355.551 326.626 351.905 326.626C348.259 326.626 361.473 349.395 354.181 372.628C354.181 372.628 356.909 368.982 358.732 371.258C360.555 373.533 363.736 396.767 352.358 430.913C352.358 430.913 356.909 425.909 358.732 429.09C360.555 432.27 353.729 451.405 347.807 456.409C347.807 456.409 351.453 452.763 354.181 455.039C356.909 457.314 355.551 479.63 344.161 508.772C344.161 508.772 347.807 504.674 350.082 507.402C352.358 510.13 344.613 551.115 333.688 565.699C333.688 565.699 335.964 562.053 339.157 563.876C342.351 565.699 334.154 594.389 306.369 623.079L299.077 586.644L299.09 586.67Z" fill="#0C121D"/>
<g opacity="0.5">
<path d="M347.82 456.422C349.501 454.56 353.004 452.789 354.879 455.465C355.991 457.999 355.823 460.702 355.849 463.365C355.707 468.64 354.853 473.838 353.858 478.97C351.66 489.21 348.453 499.23 344.174 508.798C347.458 498.907 350.535 488.939 352.591 478.712C353.909 472.364 355.008 465.925 354.944 459.447C354.892 458.18 354.789 456.849 354.323 455.75C352.836 453.358 349.501 454.935 347.82 456.422Z" fill="#CBE0CF"/>
</g>
<g opacity="0.5">
<path d="M352.371 430.913C353.509 429.336 355.164 427.28 357.465 427.331C359.159 427.435 360.103 429.297 360.051 430.809C359.87 439.006 354.608 451.716 347.82 456.422C352.306 450.087 354.789 442.51 357.116 435.179C358.861 429.297 358.564 426.478 352.371 430.926V430.913Z" fill="#CBE0CF"/>
</g>
<g opacity="0.5">
<path d="M354.194 372.628C360.128 364.612 361.201 378.046 361.537 382.041C361.925 387.626 361.654 393.237 361.033 398.784C359.714 409.851 356.805 420.712 352.371 430.926C353.534 425.483 354.879 420.143 355.875 414.738C357.982 403.981 359.456 393.082 359.52 382.118C359.469 379.39 359.417 376.649 359.003 373.986C358.641 369.926 356.573 370.223 354.181 372.628H354.194Z" fill="#CBE0CF"/>
</g>
<path d="M341.885 359.324C342.674 358.174 343.798 356.751 345.415 356.881C345.996 356.945 346.514 357.346 346.837 357.708C347.432 358.238 348.35 358.755 349.035 359.544C354.129 365.866 350.548 377.839 348.453 384.898C347.277 388.492 345.88 392.009 344.161 395.396C344.807 391.66 345.647 388.001 346.449 384.355C347.251 380.709 348.026 377.076 348.608 373.443C349.151 369.034 350.121 364.315 347.897 360.436C347.432 359.712 346.785 359.156 346.113 358.303C345.867 357.941 345.609 357.708 345.259 357.592C343.967 357.333 342.777 358.445 341.872 359.324H341.885Z" fill="#074057"/>
<path d="M333.494 378.252C333.494 375.318 333.391 372.357 333.029 369.461C332.732 367.974 332.667 365.647 331.387 364.845C327.534 364.819 328.504 371.335 328.297 374.038C328.284 376.934 328.297 379.869 327.922 382.868C326.422 378.576 325.724 374.089 326.164 369.564C326.345 366.771 328.116 362.802 331.568 364.056C334.529 365.323 333.546 375.33 333.482 378.252H333.494Z" fill="#074057"/>
<path d="M320.837 401.266C321.121 398.862 321.651 396.004 320.513 393.832C319.376 392.475 318.29 394.116 317.889 395.332C315.251 404.343 315.95 413.859 315.264 423.22C312.381 414.389 311.799 402.882 316.079 394.414C317.152 392.436 319.751 390.923 321.328 393.341C322.427 395.952 321.509 398.732 320.85 401.279L320.837 401.266Z" fill="#074057"/>
<path d="M338.446 423.388C338.511 420.712 338.576 417.389 341.006 415.579C343.127 414.338 345.777 415.488 346.669 417.648C350.005 426.633 343.954 439.614 337.658 446.092C340.45 437.727 344.071 429.581 344.678 420.802C344.859 418.837 344.058 415.592 341.524 416.536C339.338 417.854 338.886 420.97 338.434 423.388H338.446Z" fill="#074057"/>
<path d="M317.54 446.932C317.204 444.527 316.984 441.541 315.148 439.86C313.739 438.968 312.808 440.48 312.678 441.851C312.123 451.237 315.613 460.417 317.54 469.597C312.174 462.163 308.089 450.384 310.61 441.269C311.308 439.084 313.622 437.364 315.781 439.084C317.721 441.23 317.553 444.282 317.527 446.932H317.54Z" fill="#074057"/>
<g opacity="0.5">
<path d="M329.603 352.588C331.232 342.232 333.882 331.656 339.894 322.851C342.907 318.248 353.974 311.241 357.943 318.235C358.15 318.636 358.318 319.166 358.422 319.761C358.215 321.222 357.904 322.528 357.387 323.885C356.857 325.127 356.211 326.458 354.788 327.57C354.013 328.152 352.966 328.514 351.931 328.54C351.996 328.54 352.048 328.54 352.112 328.527C352.513 328.527 353.16 327.893 353.147 327.674C353.198 327.48 353.146 327.648 353.172 327.816C354.116 333.311 356.069 338.961 356.793 344.676C358.189 353.972 357.892 363.901 354.207 372.641C356.702 361.251 355.163 349.627 352.073 338.547C351.388 335.845 349.669 330.867 349.397 328.049C349.203 326.575 350.044 324.726 351.957 324.726C353.496 324.325 354.155 321.61 354.582 319.554V320.097C354.595 320.188 354.543 319.968 354.504 319.903C353.987 318.947 353.03 319.024 351.841 319.153C350.186 319.49 348.389 320.291 346.669 321.235C343.398 323.071 341.11 326.575 339.17 329.833C335.136 336.97 332.253 344.805 329.615 352.601L329.603 352.588Z" fill="#CBE0CF"/>
</g>
<g opacity="0.5">
<path d="M310.067 392.255C310.222 380.774 312.937 358.419 322.117 350.817C323.759 349.472 326.681 347.326 328.633 349.304C329.461 350.274 329.59 351.476 329.603 352.575C329.396 351.502 328.969 350.377 328.207 349.744C325.879 348.115 322.376 352.627 321.147 354.372C318.936 357.967 317.63 362.22 316.389 366.409C313.959 374.93 312.239 383.618 310.067 392.242V392.255Z" fill="#CBE0CF"/>
</g>
<g opacity="0.5">
<path d="M302.271 460.521C300.46 449.376 299.711 438.127 299.568 426.853C299.62 419.82 299.646 412.579 301.353 405.662C302.064 403.555 303.357 398.306 306.214 398.668C307.778 399.275 308.179 400.853 308.632 402.236C308.076 401.176 307.261 399.624 306.072 399.366C301.366 400.814 302.245 422.031 302.141 426.84C302.167 438.063 302.516 449.272 302.258 460.521H302.271Z" fill="#CBE0CF"/>
</g>
<g opacity="0.5">
<path d="M299.09 519.271C297.06 507.932 295.703 496.502 294.746 485.034C294.41 477.16 293.375 469.028 295.159 461.245C295.935 459.435 297.37 456.37 299.775 457.043C301.172 457.689 301.792 459.176 302.283 460.521C301.715 459.305 300.952 457.857 299.659 457.366C297.176 456.836 295.599 461.581 295.496 463.52C294.901 470.631 295.534 477.807 296.039 484.944C296.737 494.938 298.198 509.173 299.09 519.284V519.271Z" fill="#CBE0CF"/>
</g>
<path d="M350.108 321.752C352.914 320.886 354.685 321.558 355.797 322.58C356.301 321.106 356.469 319.8 356.469 319.8C356.469 319.8 355.564 313.878 345.544 319.8C337.748 324.403 332.447 341.663 330.469 349.123C330.417 350.235 330.417 350.248 330.417 350.248L329.603 352.588C329.603 352.588 343.747 323.704 350.108 321.752Z" fill="#074057"/>
<path d="M688.373 449.13C688.373 424.086 723.023 420.789 723.023 420.789C723.023 420.789 682.076 419.742 688.373 385.092C694.669 350.442 723.023 355.691 723.023 355.691C723.023 355.691 730.367 330.492 750.316 345.193C750.316 345.193 717.774 304.246 750.316 276.953C782.859 249.659 825.913 276.953 825.913 276.953C825.913 276.953 820.664 257.003 845.863 246.505C871.061 236.006 894.153 246.505 894.153 246.505C894.153 246.505 845.862 165.659 894.153 123.665C942.443 81.6711 981.295 112.119 981.295 112.119C981.295 112.119 978.477 66.9707 1023.99 68.0179V513.168L752.178 513.892C752.178 513.892 688.373 513.168 688.373 449.13Z" fill="#0C121D"/>
<path d="M521.16 284.891C523.759 279.435 530.534 277.845 536.042 277.16C550.316 276.216 564.137 281.194 576.51 287.813C585.211 292.985 585.586 292.946 575.54 290.166C567.692 287.93 559.819 285.589 551.893 283.715C543.347 281.866 528.168 278.465 521.147 284.891H521.16Z" fill="#074057"/>
<path d="M558.254 232.541C559.961 232.554 561.447 233.666 562.792 234.571C565.055 236.148 567.02 238.101 568.856 240.092C577.35 249.763 583.854 261.244 587.5 273.63C583 268.898 579.432 263.726 575.786 258.438C573.536 255.154 567.822 246.052 565.637 242.548C563.969 239.898 562.353 237.209 560.465 234.726C559.818 233.912 559.198 233.032 558.254 232.541Z" fill="#074057"/>
<path d="M545.222 323.278C548.493 310.672 557.362 296.243 569.8 290.942C574.196 289.119 579.898 289.158 583.647 292.235C574.416 290.438 567.912 296.708 562.068 302.785C556.082 309.25 550.962 316.399 545.222 323.265V323.278Z" fill="#074057"/>
<path d="M565.87 347.908C562.482 330.04 567.977 307.815 584.449 298.04C586.815 296.734 589.336 295.752 591.922 295.196C589.802 296.799 587.759 298.312 585.949 300.083C572.981 312.598 569.322 330.816 565.87 347.908Z" fill="#074057"/>
<path d="M0.0129418 209.204C0.0129418 209.204 22.7682 165.103 87.8664 182.958C152.965 200.813 141.406 246.996 141.406 246.996C141.406 246.996 179.198 241.747 197.053 274.289C214.895 306.832 203.349 329.936 203.349 329.936C203.349 329.936 223.299 329.936 233.798 349.886C244.296 369.836 233.798 391.88 233.798 391.88C233.798 391.88 256.889 386.631 262.138 417.079C267.387 447.527 237.987 454.871 237.987 454.871C237.987 454.871 281.235 462.214 262.759 506.316C262.759 506.316 289.432 504.221 272.624 554.606H0V209.191L0.0129418 209.204Z" fill="#0C121D"/>
<g opacity="0.5">
<path d="M233.798 391.88C248.266 387.005 260.29 397.594 264.026 411.17C267.336 422.134 266.767 434.856 258.919 443.829C253.579 449.996 245.964 453.965 237.987 454.87C254.174 446.932 262.746 433.279 258.518 415.488C256.178 402.314 248.653 392.035 233.798 391.88Z" fill="#CBE0CF"/>
</g>
<g opacity="0.5">
<path d="M203.349 329.936C226.945 327.26 243.908 350.067 240.934 372.279C240.029 379.339 237.741 386.165 233.797 391.88C236.668 378.253 237.236 363.914 230.992 351.463C225.393 340.525 215.554 333.001 203.349 329.936Z" fill="#CBE0CF"/>
</g>
<g opacity="0.5">
<path d="M141.406 246.996C156.895 243.479 174.298 246.996 186.826 257.003C193.226 262.084 198.191 268.872 201.604 276.255C205.108 283.391 207.629 291.226 208.547 299.152C209.814 309.56 208.702 320.821 203.35 329.936C206.685 317.641 205.392 304.763 201.643 292.804C199.329 285.835 196.187 278.892 192.308 272.66C181.603 255.4 161.11 247.513 141.406 246.996Z" fill="#CBE0CF"/>
</g>
<path d="M117.099 255.555C127.753 252.905 140.359 255.115 148.995 262.317C156.468 268.523 160.877 277.897 162.351 287.361C163.295 294.11 162.467 301.531 158.64 307.246C159.533 304.013 159.817 300.755 159.739 297.549C159.584 291.175 157.826 284.995 155.085 279.293C153.12 275.078 150.611 271.057 147.431 267.695C139.518 259.679 128.141 256.382 117.099 255.568V255.555Z" fill="#074057"/>
<path opacity="0.5" d="M43.0278 241.462C51.7291 233.756 64.6455 231.145 75.8163 234.325C84.0392 236.588 90.9433 242.29 96.1538 248.896C102.722 257.52 107.066 269.454 103.187 280.069C100.524 269.505 95.1841 261.606 87.9309 254.353C75.2862 241.036 61.1028 238.928 43.0278 241.462Z" fill="#074057"/>
<path d="M43.0278 241.462C55.2847 233.343 73.0881 232.567 85.2156 241.785C89.702 245.044 93.6455 249.31 96.8261 253.835C101.843 261.425 105.178 270.992 103.187 280.069C102.256 270.255 97.7311 261.748 91.4864 254.598C91.0856 254.094 90.2321 253.15 89.7667 252.711C87.5041 250.319 84.8666 247.888 82.1902 245.962C71.0582 237.571 56.2156 237.583 43.0408 241.449L43.0278 241.462Z" fill="#074057"/>
<path d="M78.4412 288.602C90.7368 281.181 104.067 288.835 109.07 301.324C111.423 307.168 111.824 313.607 110.945 319.761C110.066 325.864 108.165 331.759 105.295 337.112C107.351 331.423 108.695 325.502 109.122 319.567C111.126 301.634 98.1969 282.267 78.4282 288.602H78.4412Z" fill="#074057"/>
<path d="M155.421 348.567C177.801 344.469 196.161 356.932 200.233 379.442C201.41 386.088 200.634 393.315 197.156 398.991C199.199 392.72 199.005 386.126 197.428 380.024C191.726 358.807 176.857 349.278 155.421 348.567Z" fill="#074057"/>
<path d="M199.147 385.609C208.042 383.825 218.308 386.527 224.087 393.961C229.414 401.163 232.297 411.752 227.488 419.846C228.871 415.592 228.742 411.118 227.669 406.968C223.919 392.694 213.589 386.023 199.147 385.609Z" fill="#074057"/>
<g opacity="0.5">
<path d="M0.0126953 209.204C7.05907 194.529 21.3328 183.772 36.8348 179.04C52.5825 174.089 69.7135 175.11 85.5388 179.04C105.165 183.966 125.529 193.482 136.26 211.557C142.466 222.081 144.793 235.205 141.406 246.996C143.125 231.481 136.648 215.617 125.167 205.261C113.711 194.879 98.8817 189.06 83.9874 185.311C53.2807 177.179 19.665 182.079 0.0126953 209.191V209.204Z" fill="#CBE0CF"/>
</g>
</svg>
