<svg width="1024" height="768" viewBox="0 0 1024 768" fill="none" xmlns="http://www.w3.org/2000/svg">
<g clip-path="url(#clip0_1_657)">
<path d="M973.114 766.661C973.373 767.036 973.645 767.412 973.917 767.787H974.28C973.891 767.412 973.49 767.049 973.101 766.661H973.114Z" fill="#020303"/>
<path d="M1024.23 645.967V625.291C1024.04 626.145 1023.85 627.013 1023.79 627.893L1023.4 631.441C1023.31 632.036 1023.28 632.632 1023.3 633.227L1023.27 635.027C1023.16 637.461 1023.43 639.856 1023.63 642.316C1023.76 643.533 1024.04 644.738 1024.23 645.955V645.967Z" fill="#020303"/>
<path d="M1013.83 644.284C1013.83 644.867 1013.88 645.45 1013.98 646.019L1014.21 647.741C1014.43 650.085 1015.02 652.337 1015.57 654.655C1015.85 655.807 1016.28 656.908 1016.64 658.06L1017.21 659.769L1017.91 661.426C1019.54 665.401 1021.69 669.22 1024.23 672.807V657.918C1024.23 657.918 1024.19 657.866 1024.16 657.84L1023.18 656.597L1022.3 655.289C1021.73 654.396 1021.08 653.529 1020.57 652.609C1019.56 650.732 1018.46 648.855 1017.69 646.822L1017.06 645.307C1016.82 644.802 1016.63 644.297 1016.49 643.766L1015.5 640.607C1015.13 639.546 1014.97 638.458 1014.74 637.358L1014.08 634.043L1013.85 637.422C1013.78 638.562 1013.64 639.701 1013.73 640.84L1013.85 644.297L1013.83 644.284Z" fill="#020303"/>
<path d="M815.561 738.617C811.016 743.239 805.319 746.683 798.846 747.952C794.988 748.716 790.857 748.677 786.753 748.004C790.482 749.817 794.612 751.137 798.988 751.551C808.841 752.535 818.564 748.923 826.617 743.123C824.17 749.713 818.526 754.257 811.43 757.947C808.012 759.799 804.426 761.469 800.853 763.152C813.204 761.43 826.928 760.071 835.538 749.545C835.862 749.156 836.172 748.755 836.47 748.341C836.975 751.707 835.486 755.824 834.036 759.125C832.716 762.064 831.045 764.952 829.22 767.787H835.784C840.639 762.88 845.248 756.976 846.763 750.697C847.993 754.413 846.051 761.521 843.785 767.787H853.793C856.02 763.139 858.053 757.183 859.775 749.26C859.775 749.26 862.585 750.878 862.74 751.241C862.559 751.059 860.099 760.563 858.17 765.495C857.859 766.259 857.522 767.023 857.199 767.787H865.342C866.572 766.052 868.009 763.981 869.356 761.728L869.615 762.052C870.275 762.906 870.987 763.696 871.518 764.628C871.816 765.107 872.127 765.573 872.424 766.039C872.191 766.622 871.907 767.205 871.648 767.787H885.087C885.579 765.949 885.838 763.903 885.773 761.585L886.226 761.806C886.446 762.168 886.653 762.531 886.822 762.932C887.34 763.994 887.858 765.042 888.337 766.104C888.337 766.363 888.311 766.622 888.259 766.881C888.194 767.192 888.129 767.489 888.052 767.8H946.288C948.075 766.454 949.797 765.016 951.402 763.489C951.713 764.926 952.062 766.363 952.425 767.8H969.01C969.839 767.062 970.641 766.298 971.418 765.521C971.431 765.521 971.444 765.521 971.457 765.521C971.341 766.117 971.198 766.713 970.991 767.295C970.939 767.463 970.888 767.632 970.836 767.8H972.752C972.752 767.722 972.752 767.632 972.765 767.554C972.83 766.894 972.83 766.233 972.804 765.56L973.529 765.716L974.513 765.832L978.475 766.272C979.808 766.415 981.142 766.363 982.488 766.415H982.864C982.087 766.959 981.206 767.412 980.3 767.8H1024.2V675.72C1022.25 673.894 1020.42 671.888 1018.79 669.713L1017.85 668.495L1017.01 667.201C1016.46 666.333 1015.84 665.479 1015.35 664.56C1014.39 662.721 1013.34 660.87 1012.63 658.889C1011.74 656.947 1011.19 654.888 1010.58 652.804C1010.23 651.768 1010.09 650.706 1009.88 649.631L1009.28 646.395L1008.98 649.683C1008.9 650.784 1008.73 651.91 1008.8 653.011C1008.82 655.238 1008.8 657.516 1009.13 659.756C1009.3 662.035 1009.83 664.262 1010.32 666.54C1010.58 667.667 1010.97 668.754 1011.3 669.881L1011.83 671.564L1012.47 673.195C1014.07 677.3 1016.19 681.235 1018.77 684.925C1016.69 684.097 1014.66 683.113 1012.71 681.973C1012.86 681.443 1012.99 680.912 1013.13 680.381L1013.99 677.235L1012.31 680.018C1012.05 680.433 1011.8 680.86 1011.55 681.274C1011.2 681.054 1010.86 680.847 1010.51 680.614C1007.76 678.801 1005.13 676.691 1002.76 674.257C1003.13 673.001 1003.44 671.732 1003.76 670.489C1004.07 669.441 1004.17 668.327 1004.36 667.253L1004.83 664.029L1003.49 666.981C1003.02 667.952 1002.65 668.949 1002.06 669.855C1001.62 670.606 1001.2 671.357 1000.76 672.095C999.501 670.696 998.426 669.169 997.3 667.615C996.626 666.774 996.147 665.815 995.604 664.896L993.972 662.087L994.775 665.246C995.06 666.294 995.267 667.395 995.694 668.405C996.445 670.463 997.157 672.6 998.206 674.581C998.323 674.827 998.465 675.073 998.582 675.319C996.575 678.167 994.192 680.666 991.642 682.88C991.137 682.336 990.645 681.792 990.127 681.235C989.363 680.472 988.78 679.591 988.12 678.737L987.304 677.636C987.382 677.39 987.46 677.144 987.538 676.898L988.03 675.215L988.379 673.493C988.586 672.341 988.884 671.227 989.014 670.075C989.273 667.77 989.57 665.505 989.519 663.213C989.635 660.947 989.376 658.682 989.182 656.468C989.13 655.354 988.858 654.267 988.664 653.166L988.043 649.929L987.758 653.205C987.654 654.292 987.615 655.367 987.369 656.429C986.968 658.565 986.631 660.662 985.945 662.682C985.427 664.728 984.573 666.683 983.796 668.599C983.394 669.557 982.864 670.463 982.41 671.383L981.711 672.755L980.896 674.063C978.772 677.558 976.235 680.731 973.36 683.488C972.648 684.174 971.897 684.835 971.172 685.495C970.59 685.974 970.007 686.453 969.412 686.919C969.891 686.35 970.37 685.767 970.823 685.184C971.6 684.2 972.312 683.178 973.037 682.168C973.71 681.119 974.396 680.096 975.031 679.047C977.581 674.84 979.575 670.347 980.948 665.738L981.478 664.029L981.88 662.281C982.126 661.103 982.436 659.963 982.605 658.798C982.915 656.442 983.278 654.124 983.265 651.781L983.317 650.046C983.356 649.463 983.343 648.893 983.291 648.311L983.058 644.867C983.032 643.728 982.773 642.601 982.605 641.475L982.035 638.134L981.698 641.501C981.569 642.614 981.53 643.715 981.258 644.802L980.598 648.052C980.507 648.596 980.365 649.127 980.184 649.644L979.704 651.211C979.148 653.308 978.241 655.289 977.426 657.257C976.999 658.228 976.442 659.161 975.963 660.106L975.212 661.504L974.357 662.838C972.441 665.906 970.188 668.703 967.702 671.214C968.013 670.554 968.311 669.881 968.596 669.208C970.577 664.521 971.936 659.64 972.674 654.72L972.959 652.881C973.024 652.26 973.063 651.638 973.114 651.03C973.192 649.8 973.334 648.583 973.347 647.353C973.309 644.893 973.348 642.472 972.985 640.064L972.778 638.277C972.726 637.681 972.635 637.086 972.493 636.503L971.742 633.007C971.548 631.842 971.121 630.729 970.771 629.602L969.696 626.262L969.891 629.758C969.942 630.91 970.059 632.049 969.955 633.215L969.787 636.646C969.787 637.215 969.709 637.772 969.619 638.342L969.373 640.025C969.14 642.265 968.505 644.44 967.987 646.589C967.703 647.664 967.275 648.699 966.939 649.735C966.757 650.253 966.589 650.771 966.395 651.289L965.722 652.791C964.543 655.535 963.119 658.138 961.514 660.598C961.592 660.326 961.669 660.054 961.747 659.782C963.042 654.655 963.689 649.411 963.689 644.233V642.303C963.689 641.656 963.611 641.009 963.572 640.374C963.456 639.093 963.417 637.811 963.236 636.542C962.809 634.004 962.485 631.505 961.734 629.084L961.242 627.272C961.086 626.663 960.918 626.068 960.672 625.485L959.352 621.989C958.963 620.824 958.355 619.724 957.824 618.623L956.192 615.347L956.969 618.921C957.215 620.112 957.539 621.264 957.617 622.468L958.018 626.029C958.109 626.611 958.122 627.207 958.122 627.803L958.147 629.576C958.277 631.933 957.992 634.276 957.811 636.581C957.681 637.733 957.435 638.872 957.254 640.012C957.151 640.581 957.073 641.138 956.943 641.708L956.503 643.378C955.934 645.657 955.209 647.884 954.367 650.033C954.898 644.737 954.807 639.416 954.082 634.237L953.81 632.231C953.707 631.557 953.538 630.897 953.409 630.237C953.111 628.916 952.865 627.595 952.515 626.314C951.7 623.75 951.001 621.187 949.874 618.778L949.11 616.966C948.864 616.357 948.605 615.762 948.269 615.192L946.392 611.748C945.822 610.583 945.032 609.534 944.307 608.473L942.132 605.3L943.504 608.887C943.945 610.078 944.462 611.23 944.734 612.473L945.718 616.111C945.899 616.707 946.016 617.328 946.107 617.95L946.417 619.801C946.922 622.222 946.987 624.721 947.168 627.142C947.207 628.359 947.129 629.589 947.129 630.806C947.104 631.415 947.13 632.01 947.078 632.619L946.884 634.432C946.884 634.432 946.884 634.47 946.884 634.483C946.029 619.84 939.374 606.09 926.155 597.39C935.192 606.815 939.335 619.529 937.639 632.101C936.578 626.624 934.933 621.29 932.719 616.28L931.826 614.221C931.528 613.535 931.127 612.887 930.79 612.227C930.065 610.907 929.405 609.586 928.641 608.304C926.984 605.818 925.469 603.294 923.514 601.067L922.129 599.358C921.675 598.788 921.222 598.218 920.678 597.713L917.61 594.606C916.639 593.532 915.474 592.664 914.373 591.732L911.059 589L913.726 592.353C914.606 593.467 915.526 594.528 916.238 595.758L918.503 599.306C918.905 599.876 919.215 600.51 919.526 601.131L920.471 602.996C921.831 605.417 922.711 608.058 923.734 610.596C924.174 611.891 924.511 613.224 924.912 614.532C925.093 615.192 925.314 615.826 925.456 616.487L925.857 618.481C926.272 620.5 926.569 622.52 926.802 624.553C922.957 613.354 916.03 603.216 906.67 596.043C913.337 604.964 917.105 615.762 917.61 626.767C913.001 621.938 908.249 617.251 903.278 612.693C894.215 604.55 884.608 596.315 873.318 591.512C883.287 598.361 890.771 607.942 897.917 617.51C903.705 625.446 909.168 633.875 914.166 642.355C907.796 643.572 901.141 643.158 895.108 640.517C891.496 638.95 888.129 636.568 885.139 633.681C887.171 637.293 889.825 640.737 893.179 643.559C900.727 649.968 910.774 652.545 920.691 652.35C914.93 656.377 907.692 656.908 899.769 655.911C895.911 655.484 892.001 654.823 888.103 654.163C899.238 659.769 911.305 666.463 924.368 662.708C924.86 662.566 925.339 662.41 925.818 662.255C924.33 665.31 920.756 667.848 917.688 669.738C913.894 672.03 909.622 673.881 905.271 675.526C900.895 677.144 896.377 678.542 891.819 679.824C896.558 679.721 901.31 679.513 906.087 679.034C914.593 678.102 926.129 676.147 932.952 670.049C931.075 676.419 916.173 685.65 911.318 688.512C907.188 690.959 902.915 693.212 898.604 695.438C911.641 692.37 921.662 697.562 944.462 676.277C944.462 676.277 945.848 679.203 945.77 679.591C945.731 679.332 938.287 685.754 933.91 688.719C925.909 693.975 917.273 698.636 908.586 703.155C918.115 700.876 927.631 698.481 937.095 695.18C942.391 693.289 951.519 689.975 955.895 684.757C955.351 687.256 953.823 689.651 952.153 691.567C944.682 699.711 932.486 703.932 921.662 706.91C916.199 708.36 910.606 709.486 904.974 710.431C904.637 709.564 904.197 708.735 903.795 707.907L902.358 704.981L902.941 708.178C903.109 709.24 903.368 710.276 903.407 711.351C903.575 713.487 903.795 715.571 903.653 717.682C903.627 721.851 902.902 725.942 901.776 729.8C900.908 732.817 899.717 735.704 898.28 738.436C897.853 733.956 896.92 729.58 895.47 725.424L894.914 723.767L894.227 722.148C893.748 721.087 893.347 719.999 892.803 718.976C891.703 716.931 890.667 714.898 889.32 713.047C888.129 711.117 886.627 709.408 885.203 707.686C884.53 706.806 883.689 706.055 882.899 705.265L880.542 702.948L882.174 705.809C882.705 706.767 883.287 707.661 883.688 708.683C884.569 710.664 885.488 712.581 886.071 714.639C886.809 716.62 887.21 718.705 887.676 720.724C887.896 721.734 887.974 722.783 888.129 723.806L888.324 725.333L888.388 726.874C888.634 730.953 888.337 735.005 887.56 738.915C887.365 739.886 887.119 740.857 886.899 741.802C886.692 742.527 886.485 743.252 886.265 743.964C886.33 743.213 886.394 742.475 886.446 741.737C886.524 740.482 886.524 739.239 886.55 737.996C886.511 736.753 886.498 735.523 886.42 734.293C886.123 729.373 885.203 724.557 883.714 719.973L883.171 718.264L882.497 716.594C882.031 715.494 881.643 714.38 881.112 713.306C880.024 711.195 879.015 709.085 877.668 707.156L876.723 705.693C876.425 705.201 876.089 704.722 875.713 704.281L873.564 701.575C872.891 700.656 872.036 699.866 871.259 699.051L868.89 696.63L870.534 699.582C871.065 700.566 871.648 701.498 872.049 702.546L873.357 705.589C873.59 706.081 873.771 706.599 873.926 707.13L874.418 708.696C875.156 710.742 875.532 712.891 875.985 714.963C876.192 716.012 876.257 717.086 876.399 718.135L876.581 719.701L876.632 721.294C876.801 724.906 876.542 728.493 875.933 731.975C875.804 731.25 875.674 730.538 875.532 729.813C874.496 724.841 872.839 720.038 870.638 715.584L869.835 713.914C869.537 713.37 869.214 712.839 868.903 712.309C868.268 711.247 867.686 710.172 867 709.15C865.562 707.143 864.216 705.136 862.559 703.362L861.368 702.003C860.979 701.55 860.578 701.109 860.125 700.708L857.522 698.261C856.694 697.419 855.71 696.733 854.79 696.008L852.007 693.872L854.156 696.643C854.855 697.562 855.606 698.429 856.176 699.439L857.988 702.352C858.299 702.818 858.571 703.323 858.817 703.841L859.568 705.369C860.643 707.35 861.368 709.499 862.157 711.558C862.533 712.606 862.779 713.694 863.09 714.743C863.232 715.274 863.4 715.791 863.517 716.322L863.828 717.941C864.423 720.867 864.734 723.819 864.812 726.758C864.721 726.486 864.63 726.214 864.54 725.955C862.688 720.996 860.241 716.322 857.289 712.063L856.202 710.47C855.826 709.952 855.399 709.46 854.998 708.955C854.169 707.958 853.405 706.936 852.551 705.99C850.764 704.152 849.068 702.275 847.074 700.708L845.637 699.491C845.171 699.077 844.679 698.688 844.161 698.339L841.092 696.215C840.108 695.477 838.982 694.921 837.92 694.325L834.709 692.564L837.389 695.05C838.27 695.879 839.189 696.656 839.94 697.601L842.296 700.307C842.698 700.734 843.06 701.213 843.397 701.705L844.433 703.155C845.883 705.019 846.983 707.117 848.149 709.111C848.705 710.134 849.146 711.221 849.638 712.244C849.871 712.775 850.129 713.28 850.35 713.81L850.945 715.429C851.774 717.63 852.447 719.87 852.978 722.123C850.401 717.462 847.294 713.137 843.759 709.292L842.4 707.79C841.934 707.298 841.416 706.858 840.937 706.392C839.94 705.473 838.995 704.527 837.972 703.673C835.836 702.029 833.816 700.32 831.512 698.986L829.841 697.924C829.297 697.562 828.741 697.225 828.132 696.94L824.637 695.18C823.51 694.545 822.254 694.144 821.063 693.665L817.464 692.292L820.636 694.455C821.685 695.18 822.759 695.84 823.691 696.707L826.579 699.141C827.071 699.53 827.511 699.97 827.938 700.423L829.246 701.77C831.045 703.479 832.508 705.498 834.049 707.376C834.774 708.36 835.422 709.408 836.095 710.405C836.418 710.91 836.781 711.402 837.079 711.933L837.946 713.526C837.946 713.526 837.959 713.564 837.972 713.577C828.948 702.016 815.638 694.493 799.817 694.869C812.609 697.484 823.251 705.576 829.013 716.879C825.025 712.982 820.636 709.538 815.962 706.664L814.046 705.473C813.411 705.084 812.712 704.773 812.052 704.424C810.705 703.751 809.411 703.038 808.051 702.417C805.268 701.316 802.588 700.099 799.713 699.374L797.603 698.753C796.904 698.546 796.205 698.339 795.48 698.222L791.194 697.406C789.783 697.083 788.333 697.018 786.896 696.889L782.61 696.526L786.714 697.769C788.074 698.196 789.433 698.533 790.728 699.141L794.612 700.773C795.26 701.019 795.881 701.355 796.489 701.692L798.328 702.689C800.827 703.906 803.054 705.576 805.332 707.078C806.433 707.894 807.469 708.8 808.53 709.642C809.048 710.082 809.605 710.47 810.097 710.949L811.56 712.36C813.049 713.785 814.447 715.286 815.794 716.827C806.265 709.81 794.793 705.421 783.011 704.838C793.563 708.386 802.821 715.118 809.488 723.883C802.937 722.537 796.373 721.385 789.692 720.465C777.6 718.925 765.015 717.63 753 720.09C765.093 720.051 776.693 723.676 788.022 727.47C797.305 730.694 806.575 734.526 815.522 738.669L815.561 738.617ZM992.535 712.697C991.59 712.982 990.619 713.202 989.687 713.461C988.729 713.655 987.771 713.862 986.825 714.031C985.867 714.173 984.922 714.328 984.003 714.393C983.861 714.406 983.718 714.406 983.576 714.419C984.068 714.186 984.547 713.966 985.026 713.733C986.113 713.189 987.162 712.593 988.211 712.011C989.234 711.376 990.269 710.781 991.253 710.108C991.849 709.719 992.406 709.292 992.975 708.891C993.856 709.784 994.762 710.651 995.707 711.48C995.746 711.506 995.785 711.545 995.811 711.571C994.723 711.985 993.636 712.36 992.535 712.684V712.697ZM983.886 701.174C984.508 700.682 985.129 700.19 985.725 699.685C985.893 699.957 986.088 700.229 986.269 700.501C985.479 700.747 984.676 700.954 983.886 701.174ZM999.138 729.14C999.009 729.088 998.879 729.049 998.737 728.997C998.465 728.881 998.18 728.764 997.908 728.648C999.514 728.454 1001.11 728.182 1002.67 727.858C1001.51 728.324 1000.33 728.751 999.138 729.127V729.14ZM1004.17 707.376C1002.67 706.832 1001.18 706.236 999.734 705.524C999.203 705.265 998.672 704.981 998.141 704.696C999.449 703.492 1000.72 702.236 1001.88 700.915C1002.12 700.656 1002.32 700.397 1002.54 700.138C1004.38 701.679 1006.32 703.103 1008.38 704.398C1007.02 705.473 1005.61 706.457 1004.17 707.376ZM1020.23 710.134C1020.09 710.134 1019.94 710.146 1019.8 710.134C1018.87 710.146 1017.91 710.095 1016.95 710.043C1016 709.978 1015.02 709.862 1014.05 709.758C1013.2 709.616 1012.32 709.499 1011.45 709.331C1012.02 708.58 1012.58 707.829 1013.1 707.052C1013.85 707.428 1014.61 707.79 1015.37 708.166C1016.47 708.645 1017.57 709.124 1018.71 709.551C1019.22 709.732 1019.71 709.913 1020.22 710.095L1020.23 710.134ZM1018.44 696.863C1018.44 696.863 1018.55 696.927 1018.58 696.966C1018.53 696.966 1018.47 696.94 1018.4 696.94C1018.4 696.914 1018.42 696.902 1018.43 696.876L1018.44 696.863ZM1009.46 689.871C1011.54 691.865 1013.79 693.729 1016.2 695.4C1016.37 695.516 1016.54 695.62 1016.72 695.736C1016.51 695.995 1016.32 696.254 1016.11 696.526C1016.07 696.526 1016.02 696.513 1015.98 696.5C1013.03 695.892 1010.1 694.972 1007.28 693.755C1008.07 692.487 1008.82 691.205 1009.47 689.871H1009.46ZM1000.91 679.423C1002.34 681.715 1003.95 683.916 1005.74 686C1006.12 686.44 1006.52 686.855 1006.92 687.282C1006.82 687.385 1006.71 687.502 1006.61 687.618C1005.38 689.004 1004.03 690.273 1002.63 691.464C1000.54 690.286 998.517 688.952 996.601 687.424C998.271 684.861 999.734 682.194 1000.9 679.436L1000.91 679.423ZM993.972 691.127C995.034 692.564 996.212 693.95 997.442 695.283C997.364 695.335 997.274 695.4 997.196 695.451C994.879 696.927 992.445 698.157 989.946 699.167C989.764 699.012 989.557 698.869 989.376 698.701C988.936 698.352 988.509 697.976 988.094 697.588C990.243 695.581 992.211 693.419 993.985 691.14L993.972 691.127ZM987.11 678.439L987.395 679.177C987.797 680.187 988.133 681.261 988.664 682.206C989.039 682.944 989.415 683.708 989.79 684.446C987.486 686.272 985.039 687.851 982.488 689.185C984.417 685.741 985.958 682.129 987.11 678.426V678.439ZM945.498 681.469C945.369 681.43 945.446 681.443 945.446 681.43C945.459 681.43 945.485 681.43 945.511 681.43V681.469H945.498ZM920.005 751.966C919.397 752.743 918.723 753.468 918.089 754.219C917.416 754.931 916.756 755.643 916.056 756.316C915.357 756.976 914.658 757.637 913.946 758.232C913.829 758.336 913.726 758.413 913.609 758.504C913.881 758.038 914.14 757.572 914.399 757.119C914.982 756.057 915.513 754.969 916.043 753.895C916.522 752.794 917.027 751.707 917.468 750.606C918.879 747.072 919.915 743.421 920.562 739.731C922.4 740.507 924.239 741.258 926.103 741.996C924.485 745.622 922.426 748.975 920.005 751.979V751.966ZM926.66 740.663C924.64 740.313 922.608 739.938 920.588 739.536C920.73 738.682 920.886 737.827 920.989 736.973C921.248 734.901 921.378 732.843 921.404 730.784C924.019 731.289 926.647 731.794 929.288 732.221C928.706 735.16 927.786 737.983 926.673 740.676L926.66 740.663ZM930.272 723.417C930.156 725.489 930.117 727.522 929.741 729.528C926.958 729.723 924.187 729.852 921.404 729.956C921.404 727.716 921.235 725.489 920.886 723.301C920.873 723.119 920.834 722.938 920.808 722.757C922.763 722.873 924.731 722.977 926.699 722.99C927.799 723.055 929.016 723.068 930.272 723.081C930.272 723.184 930.272 723.301 930.259 723.404L930.272 723.417ZM933.613 732.817L937.587 733.361L941.627 733.671L945.692 733.969H948.165C947.363 735.419 946.547 736.831 945.537 738.125C944.488 739.679 943.31 741.116 942.067 742.488C940.371 742.385 938.688 742.255 937.057 742.113C935.827 741.983 934.597 741.828 933.38 741.673C933.703 738.695 933.794 735.73 933.6 732.804L933.613 732.817ZM936.345 745.66C937.005 745.881 937.639 746.062 938.287 746.256C937.833 746.657 937.38 747.072 936.914 747.46C935.205 748.884 933.393 750.166 931.515 751.305C932.163 749.079 932.68 746.813 933.043 744.547C934.144 744.922 935.244 745.298 936.345 745.66ZM939.076 759.863C939.076 760.058 939.05 760.252 939.05 760.446C938.507 760.627 937.963 760.835 937.419 761.003C936.409 761.314 935.386 761.56 934.389 761.844C934.092 761.909 933.807 761.974 933.509 762.039C935.451 760.317 937.264 758.465 938.934 756.523C939.025 756.562 939.128 756.601 939.219 756.64L939.076 759.851V759.863ZM940.034 760.109C940.009 760.006 939.983 759.902 939.97 759.799L939.296 756.678C940.772 757.3 942.274 757.921 943.802 758.53C942.559 759.113 941.316 759.643 940.034 760.109ZM949.913 755.086C947.026 754.685 944.139 754.193 941.264 753.623C941.588 753.196 941.925 752.768 942.223 752.328C943.207 750.93 944.087 749.493 944.941 748.03C949.188 748.962 953.046 749.402 957.008 749.467C954.82 751.603 952.412 753.455 949.913 755.099V755.086ZM958.458 763.786C958.225 764.68 958.057 765.586 957.785 766.467C956.49 766.881 955.183 767.256 953.875 767.567C953.176 766.078 952.503 764.563 951.868 763.048C952.269 762.66 952.658 762.246 953.046 761.844C954.872 762.427 956.71 762.958 958.549 763.437L958.458 763.799V763.786ZM960.517 765.508C960.141 765.651 959.753 765.78 959.365 765.91C959.365 765.237 959.339 764.563 959.339 763.89V763.618C960.569 763.929 961.799 764.201 963.016 764.434C962.187 764.809 961.345 765.172 960.504 765.495L960.517 765.508ZM975.963 754.296L975.121 753.636L975.717 754.387C975.251 754.542 974.785 754.698 974.293 754.853C968.997 755.94 963.546 756.174 958.057 755.876C959.572 753.791 960.944 751.616 962.083 749.35C962.964 749.299 963.857 749.247 964.764 749.169C965.864 749.596 966.952 750.114 968.091 750.399C970.447 751.085 972.83 751.862 975.315 752.212C976.545 752.458 977.801 752.665 979.057 752.807C978.216 753.429 977.154 753.895 975.963 754.309V754.296ZM979.083 748.289C977.905 748.444 976.727 748.561 975.536 748.612C973.606 748.82 971.677 748.755 969.722 748.677C972.428 748.366 975.328 747.978 978.539 747.525L979.083 748.289ZM975.743 730.292C975.743 730.422 975.717 730.551 975.704 730.681C974.37 730.435 973.05 730.111 971.703 729.8C975.497 728.739 975.807 730.292 975.743 730.292ZM969.243 730.668C969.243 730.668 969.36 730.629 969.412 730.603C969.878 730.914 970.37 731.199 970.875 731.445C972.156 732.118 973.438 732.817 974.759 733.438C974.085 734.604 973.14 735.678 972.143 736.572C970.227 738.048 968.117 739.174 965.89 740.054C965.955 739.834 966.019 739.614 966.084 739.394L967.042 736.041L965.255 739.032C964.919 739.575 964.608 740.119 964.284 740.65C959.106 742.372 953.318 742.799 947.609 742.709C948.023 741.737 948.411 740.766 948.748 739.77C949.512 737.892 949.991 735.924 950.47 733.982C955.506 733.866 967.69 731.457 969.23 730.655L969.243 730.668ZM961.902 717.979C962.679 717.63 966.783 716.348 966.783 716.348C966.809 716.62 966.783 716.918 966.693 717.177C966.667 717.487 966.486 717.746 966.33 718.031C966.188 718.381 965.968 718.705 965.696 718.976C965.165 719.701 964.44 720.336 963.702 720.88C963.352 721.203 962.86 721.566 962.433 721.786C961.967 722.071 960.75 722.783 960.297 723.055C956.672 724.699 952.995 726.033 949.02 726.848C943.841 728.065 938.558 728.803 933.25 729.269C933.017 727.211 932.512 725.204 932.072 723.223C932.072 723.184 932.046 723.145 932.046 723.094C934.558 723.068 937.147 722.977 939.271 722.912C947 722.317 954.691 721.294 961.915 717.992L961.902 717.979ZM922.336 710.392C937.212 709.434 950.224 714.406 958.924 701.135L959.999 703.013C959.999 703.259 959.973 703.505 959.895 703.802C959.844 704.255 959.455 704.799 959.261 705.278C958.795 705.809 958.484 706.392 957.966 706.897C952.723 712.037 945.188 714.458 938.222 716.672C935.71 717.371 933.172 717.979 930.609 718.549L930.052 716.892L930.143 718.64C926.932 719.339 923.695 719.934 920.445 720.478C920.187 719.235 919.876 718.005 919.578 716.775C919.371 715.701 918.931 714.678 918.581 713.642L917.506 710.613C919.112 710.561 920.717 710.483 922.336 710.392ZM917.493 710.625L917.688 713.823C917.739 714.898 917.869 715.947 917.778 717.021C917.727 718.342 917.688 719.65 917.584 720.931C915.137 721.307 912.69 721.644 910.23 721.967C912.612 722.148 915.008 722.356 917.403 722.537C917.364 722.796 917.338 723.068 917.286 723.327C916.781 727.47 915.577 731.445 914.011 735.134C912.457 738.837 910.411 742.281 908.003 745.363C907.459 746.062 906.877 746.735 906.32 747.408C906.605 746.489 906.877 745.583 907.123 744.676C908.353 740.08 908.987 735.38 909 730.732C909.026 726.097 908.521 721.514 907.317 717.177C906.838 714.989 905.996 712.904 905.233 710.846C905.207 710.768 905.181 710.703 905.155 710.625C909.246 710.742 913.363 710.768 917.493 710.625ZM874.017 749.739C874.988 752.108 875.105 754.944 874.807 757.468C874.509 759.605 873.978 761.715 873.266 763.799C873.124 763.67 872.981 763.553 872.839 763.424C872.049 762.66 871.104 762.064 870.223 761.417L869.731 761.068C871.842 757.429 873.654 753.416 873.991 749.739H874.017ZM863.478 753.053C863.478 753.053 863.517 753.027 863.53 753.014L863.543 753.053C863.426 753.092 863.478 753.053 863.478 753.053Z" fill="#020303"/>
<path d="M88.0501 2.1676C87.6029 1.51914 87.1334 0.870698 86.6638 0.22224H86.0376C86.7084 0.870698 87.4017 1.49678 88.0725 2.1676H88.0501Z" fill="#020303"/>
<path d="M-0.229615 210.613V246.323C0.105794 244.847 0.418766 243.349 0.530569 241.829L1.2015 235.702C1.35802 234.673 1.40264 233.645 1.38028 232.616L1.42505 229.508C1.62629 225.304 1.15666 221.167 0.798886 216.919C0.57528 214.817 0.105794 212.737 -0.229615 210.636V210.613Z" fill="#020303"/>
<path d="M17.7261 213.52C17.7261 212.514 17.6367 211.508 17.4802 210.524L17.0776 207.55C16.6974 203.503 15.6687 199.612 14.7296 195.609C14.2377 193.619 13.4999 191.719 12.8738 189.729L11.89 186.777L10.6825 183.915C7.86503 177.05 4.15316 170.454 -0.229524 164.26V189.975C-0.229524 189.975 -0.162333 190.064 -0.117611 190.109L1.58154 192.255L3.10218 194.514C4.08605 196.057 5.20401 197.555 6.09843 199.142C7.84256 202.385 9.74342 205.627 11.0627 209.138L12.1583 211.754C12.5608 212.626 12.8961 213.498 13.1421 214.415L14.8415 219.871C15.49 221.704 15.7582 223.583 16.1607 225.483L17.3011 231.208L17.7037 225.371C17.8155 223.404 18.0614 221.436 17.9049 219.468L17.7037 213.498L17.7261 213.52Z" fill="#020303"/>
<path d="M360.156 50.6007C368.005 42.618 377.843 36.6701 389.024 34.4788C395.687 33.1595 402.82 33.2265 409.908 34.3893C403.469 31.2588 396.336 28.978 388.778 28.2625C371.761 26.5631 354.969 32.8017 341.06 42.8193C345.286 31.4377 355.036 23.5892 367.289 17.2164C373.192 14.0188 379.386 11.1343 385.558 8.2274C364.226 11.2014 340.524 13.5492 325.654 31.7284C325.095 32.3992 324.558 33.0924 324.044 33.8079C323.172 27.9942 325.743 20.8835 328.247 15.1816C330.528 10.1057 333.413 5.11927 336.566 0.222298H325.229C316.844 8.69697 308.883 18.8934 306.267 29.7383C304.143 23.3208 307.497 11.0448 311.41 0.222298H294.125C290.279 8.24976 286.769 18.5356 283.795 32.2203C283.795 32.2203 278.942 29.4252 278.674 28.7991C278.987 29.1122 283.236 12.6995 286.567 4.18014C287.104 2.86086 287.685 1.54157 288.244 0.222298H274.18C272.055 3.21862 269.573 6.79634 267.248 10.6871L266.801 10.1281C265.66 8.65227 264.43 7.28826 263.514 5.67829C262.999 4.85095 262.463 4.04598 261.948 3.24099C262.351 2.23477 262.843 1.22853 263.29 0.222298H240.08C239.23 3.39751 238.783 6.9305 238.895 10.9331L238.112 10.5529C237.732 9.92679 237.374 9.30071 237.083 8.60753C236.189 6.77396 235.294 4.96276 234.467 3.12919C234.467 2.68197 234.512 2.23475 234.601 1.78753C234.713 1.25088 234.825 0.736605 234.959 0.19995H134.381C131.295 2.52545 128.321 5.00749 125.549 7.64604C125.012 5.16401 124.408 2.68198 123.782 0.19995H95.1382C93.7071 1.47451 92.3208 2.79377 90.9792 4.13541C90.9568 4.13541 90.9344 4.13541 90.912 4.13541C91.1133 3.10682 91.3592 2.07824 91.717 1.07201C91.8064 0.781325 91.8958 0.490638 91.9853 0.19995H88.6759C88.6759 0.334114 88.6759 0.490644 88.6536 0.624807C88.5418 1.7652 88.5417 2.90557 88.5864 4.06833L87.3344 3.80001L85.6349 3.59877L78.7925 2.83849C76.4893 2.59252 74.1862 2.68196 71.8607 2.59252H71.2122C72.5538 1.65337 74.0743 0.870769 75.6395 0.19995H-0.185115V159.229C3.19134 162.381 6.34403 165.847 9.16147 169.604L10.7938 171.706L12.2472 173.942C13.1864 175.44 14.2598 176.916 15.1095 178.503C16.7642 181.679 18.5753 184.876 19.8051 188.297C21.348 191.651 22.2873 195.207 23.3383 198.807C23.942 200.596 24.1878 202.429 24.5456 204.285L25.5967 209.875L26.111 204.196C26.2452 202.295 26.5359 200.35 26.4241 198.449C26.3794 194.603 26.424 190.668 25.8427 186.799C25.552 182.864 24.6351 179.018 23.7854 175.082C23.3382 173.137 22.6674 171.259 22.1084 169.313L21.1915 166.406L20.0735 163.589C17.3231 156.501 13.656 149.703 9.20623 143.33C12.7839 144.761 16.2947 146.461 19.6711 148.428C19.4028 149.345 19.179 150.262 18.933 151.179L17.4574 156.612L20.3642 151.805C20.8114 151.089 21.2364 150.351 21.6612 149.636C22.265 150.016 22.8686 150.374 23.4723 150.776C28.2128 153.907 32.7519 157.552 36.8439 161.755C36.2178 163.924 35.6811 166.116 35.1221 168.262C34.5855 170.074 34.4067 171.997 34.0936 173.852L33.2663 179.42L35.5919 174.322C36.3969 172.645 37.0453 170.923 38.0515 169.358C38.8117 168.061 39.5497 166.764 40.3099 165.49C42.4789 167.905 44.3349 170.543 46.2803 173.226C47.4431 174.68 48.2703 176.334 49.2094 177.922L52.0269 182.774L50.6405 177.318C50.1486 175.507 49.7909 173.606 49.053 171.862C47.7561 168.307 46.5261 164.618 44.7149 161.196C44.5137 160.771 44.2676 160.347 44.0664 159.922C47.5323 155.002 51.6468 150.687 56.0519 146.863C56.924 147.802 57.7735 148.741 58.6679 149.703C59.9872 151.022 60.9935 152.543 62.1339 154.019L63.5426 155.919C63.4085 156.344 63.2742 156.769 63.14 157.194L62.2903 160.101L61.6865 163.075C61.3288 165.065 60.8145 166.988 60.5909 168.978C60.1437 172.958 59.6293 176.871 59.7188 180.829C59.5175 184.742 59.9648 188.655 60.3002 192.479C60.3896 194.402 60.8593 196.28 61.1947 198.181L62.2679 203.771L62.7601 198.114C62.939 196.235 63.0059 194.379 63.4307 192.546C64.1239 188.856 64.7052 185.234 65.8903 181.746C66.7848 178.213 68.2606 174.836 69.6023 171.527C70.2955 169.872 71.2124 168.307 71.995 166.719L73.2023 164.349L74.611 162.091C78.2782 156.053 82.661 150.575 87.6251 145.812C88.8549 144.627 90.1517 143.487 91.4039 142.346C92.4101 141.519 93.4163 140.692 94.4449 139.887C93.6175 140.871 92.7903 141.877 92.0077 142.883C90.666 144.582 89.4363 146.349 88.1841 148.093C87.0213 149.904 85.8361 151.671 84.7405 153.482C80.3354 160.749 76.8917 168.508 74.5215 176.469L73.6049 179.42L72.9116 182.439C72.4868 184.474 71.9502 186.441 71.6596 188.454C71.1229 192.524 70.4968 196.526 70.5191 200.573L70.4296 203.57C70.3625 204.576 70.3849 205.56 70.4744 206.566L70.877 212.514C70.9217 214.482 71.3689 216.427 71.6596 218.372L72.6433 224.141L73.2247 218.328C73.4483 216.405 73.5153 214.504 73.9849 212.626L75.1253 207.013C75.2818 206.074 75.5279 205.157 75.841 204.263L76.6683 201.557C77.6298 197.935 79.1951 194.514 80.6038 191.115C81.3417 189.438 82.3032 187.828 83.1306 186.196L84.4274 183.781L85.9033 181.477C89.2126 176.178 93.1034 171.348 97.3966 167.01C96.86 168.15 96.3456 169.313 95.8536 170.476C92.4324 178.571 90.0845 187 88.81 195.498L88.3181 198.673C88.2063 199.746 88.1392 200.819 88.0498 201.87C87.9156 203.995 87.6698 206.096 87.6474 208.221C87.7145 212.469 87.6472 216.651 88.2733 220.81L88.6312 223.896C88.7206 224.924 88.8771 225.953 89.1231 226.959L90.4201 232.996C90.7556 235.009 91.4935 236.932 92.0972 238.877L93.953 244.646L93.6176 238.609C93.5281 236.619 93.327 234.651 93.5059 232.639L93.7966 226.713C93.7966 225.729 93.9305 224.768 94.087 223.784L94.512 220.877C94.9145 217.008 96.0101 213.252 96.9045 209.54C97.3964 207.684 98.1345 205.895 98.7158 204.106C99.0289 203.212 99.3197 202.318 99.6551 201.423L100.818 198.829C102.852 194.089 105.312 189.594 108.085 185.346C107.951 185.815 107.817 186.285 107.682 186.755C105.446 195.609 104.328 204.665 104.328 213.61V216.941C104.328 218.059 104.462 219.177 104.53 220.273C104.731 222.487 104.798 224.7 105.111 226.892C105.849 231.275 106.408 235.59 107.705 239.772L108.555 242.902C108.823 243.953 109.113 244.982 109.538 245.988L111.819 252.025C112.49 254.038 113.541 255.938 114.458 257.839L117.275 263.496L115.933 257.325C115.509 255.267 114.95 253.277 114.815 251.198L114.122 245.049C113.966 244.042 113.943 243.014 113.943 241.985L113.899 238.922C113.675 234.852 114.167 230.805 114.48 226.825C114.704 224.835 115.128 222.867 115.442 220.899C115.62 219.915 115.755 218.954 115.978 217.97L116.738 215.085C117.722 211.15 118.974 207.304 120.428 203.592C119.511 212.738 119.668 221.928 120.92 230.872L121.39 234.338C121.568 235.501 121.859 236.641 122.083 237.781C122.597 240.062 123.022 242.343 123.626 244.557C125.034 248.984 126.242 253.412 128.187 257.571L129.506 260.701C129.931 261.752 130.379 262.781 130.96 263.764L134.202 269.712C135.186 271.725 136.55 273.536 137.802 275.37L141.559 280.848L139.189 274.654C138.428 272.597 137.534 270.607 137.064 268.46L135.365 262.177C135.052 261.148 134.851 260.075 134.694 259.002L134.157 255.804C133.285 251.623 133.174 247.307 132.861 243.126C132.793 241.024 132.928 238.899 132.928 236.798C132.972 235.747 132.928 234.718 133.017 233.667L133.352 230.537C133.352 230.537 133.352 230.47 133.352 230.447C134.828 255.737 146.322 279.484 169.152 294.51C153.544 278.232 146.389 256.274 149.318 234.562C151.151 244.02 153.991 253.233 157.815 261.886L159.358 265.442C159.872 266.627 160.565 267.745 161.147 268.885C162.399 271.166 163.539 273.447 164.859 275.66C167.721 279.954 170.337 284.314 173.713 288.16L176.106 291.112C176.889 292.095 177.671 293.079 178.61 293.951L183.91 299.318C185.587 301.174 187.599 302.672 189.5 304.282L195.224 309L190.618 303.209C189.097 301.286 187.51 299.452 186.28 297.328L182.367 291.201C181.674 290.217 181.137 289.121 180.6 288.048L178.968 284.828C176.62 280.647 175.1 276.085 173.333 271.702C172.573 269.466 171.991 267.163 171.298 264.905C170.985 263.764 170.605 262.669 170.359 261.528L169.666 258.085C168.95 254.597 168.436 251.108 168.034 247.598C174.675 266.94 186.638 284.448 202.804 296.836C191.289 281.429 184.782 262.781 183.91 243.774C191.87 252.115 200.076 260.209 208.663 268.08C224.315 282.145 240.907 296.366 260.405 304.662C243.188 292.833 230.263 276.286 217.92 259.762C207.925 246.055 198.489 231.498 189.858 216.852C200.859 214.75 212.352 215.466 222.772 220.027C229.011 222.733 234.825 226.847 239.99 231.834C236.48 225.595 231.896 219.647 226.104 214.772C213.068 203.704 195.716 199.254 178.588 199.59C188.538 192.635 201.038 191.719 214.723 193.44C221.386 194.178 228.139 195.319 234.87 196.459C215.64 186.777 194.799 175.216 172.238 181.701C171.388 181.947 170.561 182.215 169.733 182.484C172.305 177.207 178.476 172.824 183.776 169.559C190.327 165.601 197.706 162.404 205.219 159.564C212.777 156.769 220.581 154.354 228.452 152.14C220.268 152.319 212.062 152.677 203.811 153.504C189.12 155.114 169.197 158.491 157.412 169.023C160.655 158.021 186.392 142.078 194.777 137.136C201.91 132.91 209.289 129.019 216.735 125.173C194.218 130.473 176.911 121.506 137.534 158.267C137.534 158.267 135.141 153.214 135.275 152.543C135.342 152.99 148.2 141.899 155.758 136.779C169.577 127.7 184.491 119.65 199.495 111.846C183.038 115.782 166.603 119.919 150.257 125.621C141.112 128.885 125.347 134.61 117.79 143.621C118.729 139.305 121.367 135.169 124.252 131.859C137.154 117.794 158.217 110.505 176.911 105.362C186.347 102.858 196.007 100.912 205.734 99.2798C206.315 100.778 207.075 102.209 207.769 103.64L210.251 108.694L209.244 103.171C208.954 101.337 208.506 99.5481 208.439 97.6922C208.149 94.0027 207.769 90.4026 208.015 86.7579C208.059 79.5577 209.311 72.4918 211.257 65.8283C212.755 60.6183 214.812 55.6319 217.294 50.9138C218.032 58.6506 219.642 66.2085 222.146 73.3862L223.108 76.2484L224.293 79.0434C225.12 80.877 225.814 82.7553 226.753 84.5218C228.653 88.0548 230.442 91.5654 232.768 94.763C234.825 98.0947 237.419 101.046 239.878 104.02C241.041 105.541 242.495 106.838 243.859 108.202L247.928 112.204L245.111 107.263C244.194 105.608 243.188 104.065 242.495 102.298C240.974 98.8773 239.386 95.5679 238.38 92.0126C237.106 88.5914 236.412 84.9914 235.607 81.5031C235.227 79.759 235.093 77.9478 234.825 76.1813L234.489 73.5427L234.378 70.8818C233.953 63.8382 234.467 56.8394 235.809 50.0865C236.144 48.4094 236.569 46.7324 236.949 45.1C237.307 43.8478 237.665 42.5956 238.045 41.3658C237.933 42.6627 237.821 43.9373 237.732 45.2118C237.598 47.3808 237.598 49.5274 237.553 51.6741C237.62 53.8207 237.642 55.9449 237.777 58.0692C238.291 66.5662 239.878 74.8844 242.45 82.8L243.389 85.7516L244.552 88.6361C245.357 90.5368 246.028 92.4598 246.944 94.3157C248.823 97.9605 250.567 101.605 252.892 104.937L254.525 107.464C255.039 108.313 255.62 109.141 256.269 109.901L259.981 114.574C261.143 116.162 262.619 117.526 263.961 118.935L268.053 123.116L265.213 118.018C264.296 116.319 263.29 114.709 262.597 112.897L260.338 107.643C259.936 106.793 259.623 105.899 259.354 104.982L258.505 102.276C257.23 98.7431 256.582 95.0313 255.799 91.4536C255.441 89.6424 255.33 87.7865 255.084 85.9752L254.771 83.2696L254.681 80.5193C254.39 74.2806 254.838 68.0868 255.889 62.0717C256.112 63.3239 256.336 64.5538 256.582 65.806C258.371 74.3924 261.233 82.6882 265.034 90.3803L266.42 93.2648C266.935 94.2039 267.494 95.1207 268.03 96.0375C269.126 97.8711 270.132 99.727 271.317 101.494C273.799 104.959 276.125 108.425 278.987 111.489L281.044 113.837C281.715 114.619 282.408 115.379 283.191 116.073L287.685 120.299C289.117 121.752 290.816 122.937 292.403 124.19L297.211 127.879L293.499 123.094C292.292 121.506 290.995 120.008 290.011 118.264L286.88 113.233C286.344 112.428 285.874 111.556 285.449 110.661L284.152 108.023C282.296 104.602 281.044 100.89 279.68 97.3344C279.032 95.5232 278.607 93.6449 278.07 91.8337C277.824 90.9169 277.534 90.0225 277.332 89.1057L276.796 86.3106C275.767 81.2571 275.231 76.1589 275.096 71.0831C275.253 71.5526 275.409 72.0222 275.566 72.4694C278.763 81.0335 282.99 89.1057 288.088 96.4624L289.966 99.2127C290.615 100.107 291.352 100.957 292.046 101.829C293.477 103.551 294.796 105.317 296.272 106.949C299.358 110.125 302.287 113.367 305.73 116.073L308.212 118.175C309.017 118.89 309.867 119.561 310.762 120.165L316.061 123.832C317.76 125.106 319.706 126.068 321.539 127.096L327.085 130.137L322.456 125.844C320.936 124.413 319.348 123.071 318.051 121.439L313.982 116.766C313.288 116.028 312.662 115.201 312.081 114.351L310.292 111.846C307.788 108.627 305.887 105.004 303.874 101.561C302.913 99.7941 302.153 97.9158 301.303 96.1493C300.9 95.2325 300.453 94.3605 300.073 93.4437L299.045 90.6486C297.613 86.8473 296.451 82.9789 295.534 79.0882C299.984 87.138 305.35 94.6064 311.455 101.248L313.803 103.841C314.608 104.691 315.502 105.451 316.329 106.256C318.051 107.844 319.683 109.476 321.45 110.952C325.139 113.792 328.628 116.743 332.608 119.047L335.492 120.88C336.432 121.506 337.393 122.088 338.444 122.58L344.481 125.621C346.427 126.716 348.596 127.409 350.653 128.237L356.869 130.607L351.391 126.873C349.58 125.621 347.724 124.48 346.114 122.982L341.127 118.778C340.278 118.107 339.517 117.347 338.779 116.565L336.521 114.239C333.413 111.287 330.886 107.799 328.225 104.557C326.973 102.858 325.855 101.046 324.692 99.3245C324.133 98.4525 323.507 97.6028 322.993 96.686L321.495 93.9356C321.495 93.9356 321.472 93.8685 321.45 93.8462C337.035 113.814 360.022 126.806 387.347 126.157C365.254 121.64 346.874 107.665 336.923 88.1442C343.81 94.8748 351.391 100.823 359.463 105.787L362.772 107.844C363.868 108.515 365.076 109.051 366.216 109.655C368.541 110.818 370.777 112.048 373.125 113.121C377.933 115.022 382.561 117.124 387.525 118.376L391.17 119.449C392.378 119.807 393.585 120.165 394.837 120.366L402.239 121.775C404.676 122.334 407.181 122.445 409.663 122.669L417.064 123.295L409.976 121.148C407.628 120.411 405.28 119.829 403.044 118.778L396.336 115.961C395.218 115.536 394.144 114.955 393.093 114.373L389.918 112.651C385.603 110.55 381.757 107.665 377.821 105.071C375.92 103.662 374.131 102.097 372.298 100.644C371.403 99.8835 370.442 99.2127 369.592 98.3854L367.066 95.9481C364.494 93.4884 362.079 90.8946 359.754 88.2337C376.211 100.353 396.023 107.933 416.371 108.94C398.147 102.813 382.159 91.1853 370.643 76.0471C381.958 78.3726 393.295 80.3627 404.833 81.9503C425.717 84.6112 447.452 86.8473 468.203 82.5988C447.318 82.6659 427.283 76.4049 407.717 69.8532C391.685 64.2854 375.674 57.6667 360.223 50.5113L360.156 50.6007ZM54.5089 95.3667C56.1412 94.8748 57.8181 94.4946 59.4281 94.0474C61.0828 93.712 62.7376 93.3542 64.37 93.0636C66.0247 92.8176 67.6568 92.5493 69.2444 92.4375C69.4904 92.4151 69.7365 92.4151 69.9825 92.3927C69.1328 92.7952 68.3055 93.1754 67.4781 93.5778C65.5998 94.517 63.7884 95.5456 61.9772 96.5518C60.2107 97.6475 58.4219 98.6761 56.7225 99.8388C55.694 100.51 54.7325 101.248 53.7487 101.941C52.2282 100.398 50.6629 98.8997 49.0306 97.4686C48.9635 97.4239 48.8963 97.3568 48.8516 97.3121C50.7299 96.5965 52.6082 95.9481 54.5089 95.3891V95.3667ZM69.4459 115.268C68.3726 116.117 67.2992 116.967 66.2706 117.839C65.9799 117.37 65.6444 116.9 65.3313 116.43C66.6953 116.006 68.0819 115.648 69.4459 115.268ZM43.105 66.9687C43.3286 67.0582 43.5521 67.1252 43.798 67.2147C44.2676 67.4159 44.7596 67.6172 45.2292 67.8184C42.4564 68.1538 39.7062 68.6234 37.0006 69.1824C39.0131 68.3774 41.0478 67.6395 43.105 66.9911V66.9687ZM34.4067 104.557C37.0005 105.496 39.5721 106.525 42.0765 107.754C42.9933 108.202 43.91 108.694 44.8268 109.186C42.5684 111.265 40.377 113.434 38.3646 115.715C37.9621 116.162 37.6043 116.609 37.2242 117.056C34.0489 114.396 30.6948 111.936 27.1395 109.7C29.4874 107.844 31.9247 106.145 34.4067 104.557ZM6.67947 99.7941C6.92544 99.7941 7.17158 99.7717 7.41755 99.7941C9.02751 99.7717 10.6821 99.8612 12.3368 99.9506C13.9915 100.062 15.6685 100.264 17.3455 100.443C18.8213 100.689 20.3419 100.89 21.84 101.18C20.8562 102.477 19.8946 103.774 19.0002 105.116C17.7033 104.467 16.384 103.841 15.0647 103.193C13.1641 102.366 11.2635 101.538 9.29576 100.8C8.4237 100.487 7.57392 100.174 6.70186 99.8612L6.67947 99.7941ZM9.76525 122.714C9.76525 122.714 9.5864 122.602 9.51932 122.535C9.60876 122.535 9.72059 122.58 9.8324 122.58C9.8324 122.624 9.80999 122.647 9.78763 122.691L9.76525 122.714ZM25.2837 134.788C21.6836 131.345 17.7927 128.125 13.6336 125.24C13.3429 125.039 13.0524 124.86 12.7394 124.659C13.0972 124.212 13.4325 123.765 13.7903 123.295C13.8574 123.295 13.9467 123.317 14.0138 123.34C19.112 124.391 24.1655 125.978 29.0401 128.08C27.6761 130.272 26.3793 132.485 25.2613 134.788H25.2837ZM40.0416 152.833C37.5819 148.876 34.7869 145.074 31.7011 141.474C31.0527 140.714 30.3594 139.998 29.6663 139.261C29.8451 139.082 30.024 138.88 30.2029 138.679C32.3271 136.287 34.6525 134.095 37.0675 132.038C40.6899 134.073 44.1782 136.376 47.4876 139.015C44.6031 143.442 42.0764 148.048 40.064 152.811L40.0416 152.833ZM52.0269 132.619C50.1933 130.137 48.1584 127.745 46.0341 125.442C46.1683 125.352 46.3249 125.24 46.4591 125.151C50.4616 122.602 54.6654 120.478 58.981 118.734C59.294 119.002 59.6519 119.248 59.965 119.539C60.7253 120.142 61.4631 120.791 62.1787 121.462C58.4668 124.927 55.0679 128.662 52.0045 132.597L52.0269 132.619ZM63.8781 154.533L63.386 153.258C62.6928 151.514 62.1115 149.658 61.1947 148.026C60.5462 146.751 59.8978 145.432 59.2493 144.158C63.2295 141.005 67.4557 138.277 71.8607 135.974C68.529 141.921 65.8682 148.16 63.8781 154.555V154.533ZM135.745 149.301C135.968 149.368 135.834 149.345 135.834 149.368C135.812 149.368 135.767 149.368 135.723 149.368V149.301H135.745ZM179.773 27.547C180.824 26.2053 181.987 24.9531 183.082 23.6562C184.245 22.4264 185.386 21.1966 186.593 20.0338C187.801 18.8934 189.008 17.753 190.238 16.7244C190.439 16.5456 190.618 16.4114 190.819 16.2549C190.35 17.0598 189.902 17.8648 189.455 18.6475C188.449 20.481 187.532 22.3593 186.615 24.2152C185.788 26.1159 184.916 27.9942 184.156 29.8948C181.718 35.9993 179.93 42.305 178.812 48.6777C175.636 47.3361 172.461 46.0392 169.241 44.7646C172.036 38.5037 175.592 32.7123 179.773 27.5246V27.547ZM168.28 47.0678C171.768 47.6715 175.279 48.32 178.767 49.0131C178.521 50.4889 178.253 51.9647 178.074 53.4405C177.626 57.0182 177.403 60.5736 177.358 64.1289C172.841 63.2569 168.302 62.3848 163.741 61.6469C164.747 56.571 166.334 51.6964 168.257 47.0454L168.28 47.0678ZM162.041 76.8521C162.242 73.2744 162.309 69.7638 162.958 66.2979C167.765 65.9625 172.551 65.7389 177.358 65.56C177.358 69.4284 177.649 73.2744 178.253 77.0534C178.275 77.3664 178.342 77.6794 178.387 77.9925C175.01 77.7912 171.611 77.6124 168.213 77.59C166.312 77.4782 164.21 77.4558 162.041 77.4335C162.041 77.2546 162.041 77.0533 162.064 76.8745L162.041 76.8521ZM156.272 60.6183L149.407 59.6792L142.431 59.1425L135.41 58.6282H131.139C132.525 56.1238 133.934 53.6865 135.678 51.4505C137.489 48.7672 139.524 46.2851 141.67 43.9149C144.6 44.0938 147.507 44.3174 150.324 44.5634C152.448 44.787 154.573 45.0553 156.675 45.3237C156.116 50.4666 155.959 55.5872 156.294 60.6407L156.272 60.6183ZM151.554 38.4366C150.414 38.0564 149.318 37.7434 148.2 37.408C148.983 36.7148 149.765 35.9993 150.57 35.3284C153.522 32.8688 156.652 30.6551 159.894 28.6873C158.776 32.5334 157.882 36.4465 157.256 40.3596C155.355 39.7111 153.455 39.0627 151.554 38.4366ZM146.836 13.907C146.836 13.5716 146.881 13.2362 146.881 12.9008C147.82 12.5877 148.759 12.23 149.698 11.9393C151.442 11.4026 153.209 10.9777 154.93 10.4858C155.445 10.374 155.937 10.2622 156.451 10.1504C153.097 13.1244 149.966 16.3219 147.082 19.676C146.925 19.6089 146.747 19.5419 146.59 19.4748L146.836 13.9294V13.907ZM145.181 13.4822C145.226 13.661 145.271 13.8399 145.293 14.0188L146.456 19.4077C143.907 18.3344 141.313 17.2611 138.674 16.2102C140.821 15.2039 142.968 14.2871 145.181 13.4822ZM128.12 22.1581C133.107 22.8512 138.093 23.7009 143.057 24.6848C142.498 25.4227 141.916 26.1606 141.402 26.9209C139.703 29.3358 138.182 31.8178 136.707 34.3446C129.372 32.7346 122.709 31.9744 115.867 31.8626C119.645 28.1731 123.805 24.9755 128.12 22.1357V22.1581ZM113.362 7.13172C113.765 5.58884 114.055 4.02361 114.525 2.50309C116.761 1.78755 119.019 1.13908 121.278 0.602425C122.485 3.1739 123.648 5.7901 124.744 8.40629C124.05 9.07711 123.38 9.79263 122.709 10.4858C119.556 9.47958 116.381 8.56281 113.205 7.73547L113.362 7.10937V7.13172ZM109.807 4.15779C110.455 3.91182 111.126 3.68819 111.797 3.46458C111.797 4.62733 111.842 5.79011 111.842 6.95286V7.42242C109.717 6.88576 107.593 6.41618 105.491 6.01369C106.922 5.36523 108.376 4.73915 109.829 4.18014L109.807 4.15779ZM83.1306 23.522L84.5838 24.6624L83.5553 23.3655C84.3603 23.0972 85.1652 22.8289 86.0149 22.5606C95.1604 20.6823 104.574 20.2798 114.055 20.7941C111.439 24.3941 109.069 28.1507 107.101 32.0638C105.581 32.1532 104.038 32.2427 102.472 32.3769C100.572 31.639 98.6935 30.7445 96.7257 30.2526C92.6561 29.0675 88.5418 27.7258 84.2486 27.1221C82.1243 26.6972 79.9553 26.3395 77.7863 26.0935C79.2398 25.0202 81.0734 24.2152 83.1306 23.4997V23.522ZM77.7416 33.8974C79.7764 33.629 81.8112 33.4278 83.8684 33.3383C87.2001 32.9806 90.5318 33.0924 93.9083 33.2266C89.2349 33.7632 84.2263 34.434 78.6808 35.2167L77.7416 33.8974ZM83.5105 64.9786C83.5105 64.755 83.5553 64.5314 83.5777 64.3078C85.8808 64.7327 88.1615 65.2917 90.487 65.8283C83.9354 67.6619 83.3987 64.9786 83.5105 64.9786ZM94.7356 64.3302C94.7356 64.3302 94.5343 64.3972 94.4449 64.442C93.6399 63.9053 92.7902 63.4134 91.9181 62.9885C89.7044 61.8258 87.4907 60.6183 85.2099 59.545C86.3727 57.5325 88.0051 55.6766 89.7268 54.1337C93.0362 51.5846 96.6809 49.6392 100.527 48.1187C100.415 48.4989 100.304 48.879 100.192 49.2591L98.5371 55.0505L101.623 49.8852C102.204 48.9461 102.741 48.0069 103.3 47.0901C112.244 44.1162 122.239 43.3783 132.1 43.5348C131.385 45.2118 130.714 46.8889 130.133 48.6106C128.813 51.8529 127.986 55.2518 127.158 58.6058C118.46 58.8071 97.4189 62.9662 94.758 64.3525L94.7356 64.3302ZM107.414 86.2436C106.073 86.8473 98.9842 89.061 98.9842 89.061C98.9394 88.5914 98.984 88.0771 99.1406 87.6299C99.1853 87.0933 99.4984 86.6461 99.7667 86.1541C100.013 85.5504 100.393 84.9914 100.862 84.5218C101.779 83.2696 103.031 82.1739 104.306 81.2348C104.91 80.6758 105.759 80.0497 106.497 79.6695C107.302 79.1776 109.404 77.9478 110.187 77.4782C116.448 74.6384 122.798 72.3353 129.663 70.9265C138.607 68.8246 147.73 67.5501 156.898 66.7451C157.301 70.3004 158.173 73.7664 158.933 77.1875C158.933 77.2546 158.978 77.3217 158.978 77.4111C154.64 77.4558 150.168 77.6124 146.5 77.7242C133.151 78.7528 119.869 80.5192 107.392 86.2212L107.414 86.2436ZM175.748 99.3469C150.056 101.002 127.583 92.4151 112.557 115.335L110.701 112.092C110.701 111.668 110.746 111.243 110.88 110.728C110.969 109.946 111.64 109.007 111.976 108.179C112.781 107.263 113.317 106.256 114.212 105.384C123.268 96.5071 136.282 92.3257 148.312 88.502C152.649 87.2945 157.032 86.2436 161.46 85.2597L162.421 88.1219L162.265 85.1032C167.81 83.8957 173.4 82.8671 179.013 81.928C179.46 84.0746 179.997 86.1988 180.511 88.3231C180.869 90.179 181.629 91.9455 182.233 93.7344L184.089 98.9668C181.316 99.0562 178.543 99.1904 175.748 99.3469ZM184.111 98.9444L183.776 93.4213C183.686 91.5654 183.463 89.7542 183.619 87.8982C183.708 85.6175 183.776 83.359 183.955 81.1453C188.181 80.4969 192.407 79.9155 196.655 79.3565C192.541 79.0434 188.404 78.6857 184.268 78.3726C184.335 77.9254 184.379 77.4558 184.469 77.0086C185.341 69.8532 187.42 62.9885 190.126 56.6158C192.809 50.2206 196.342 44.2727 200.501 38.9509C201.441 37.7434 202.447 36.5807 203.408 35.4179C202.916 37.0055 202.447 38.5707 202.022 40.136C199.898 48.074 198.802 56.1909 198.78 64.2184C198.735 72.2235 199.607 80.1391 201.686 87.6299C202.514 91.4089 203.967 95.0089 205.286 98.5643C205.331 98.6984 205.376 98.8102 205.421 98.9444C198.355 98.7431 191.244 98.6984 184.111 98.9444ZM259.198 31.393C257.521 27.301 257.32 22.404 257.834 18.0437C258.348 14.3542 259.265 10.7094 260.495 7.10937C260.741 7.33298 260.987 7.53421 261.233 7.75781C262.597 9.07709 264.229 10.1057 265.75 11.2237L266.599 11.8275C262.955 18.1108 259.824 25.0426 259.243 31.393H259.198ZM277.399 25.6687C277.399 25.6687 277.332 25.7134 277.31 25.7357L277.288 25.6687C277.489 25.6016 277.399 25.6687 277.399 25.6687Z" fill="#020303"/>
</g>
<defs>
<clipPath id="clip0_1_657">
<rect width="1024" height="768" fill="white"/>
</clipPath>
</defs>
</svg>
