<svg width="1024" height="768" viewBox="0 0 1024 768" fill="none" xmlns="http://www.w3.org/2000/svg">
<g clip-path="url(#clip0_1_1542)">
<g clip-path="url(#clip1_1_1542)">
<path d="M597.56 463.449C597.56 463.449 596.076 460.819 595.295 460.91C594.514 461.002 596.089 465.571 596.141 465.18C596.141 465.18 596.649 467.42 596.376 468.865C596.102 470.31 595.972 474.033 596.376 476.181C596.779 478.329 597.131 483.679 596.962 484.031C596.962 484.031 595.23 484.382 595.009 484.903C594.788 485.424 595.491 486.088 595.491 486.088L599.175 485.958C599.175 485.958 599.227 486.413 600.958 486.088C602.69 485.762 602.455 485.58 602.455 485.58C602.455 485.58 602.898 486.062 603.9 485.945C604.903 485.827 608.248 484.916 608.248 484.916C608.248 484.916 613.208 484.044 613.404 477.431C613.404 477.431 611.256 480.256 609.524 480.737C609.524 480.737 610.045 480.685 609.759 480.112C609.759 480.112 608.912 481.31 608.691 481.505C608.691 481.505 608.99 476.038 607.09 475.322C607.09 475.322 605.723 472.679 603.562 472.536C603.562 472.536 601.57 466.053 601.922 463.931C601.922 463.931 602.599 460.468 601.57 460.26C601.088 460.155 599.917 463.058 599.917 463.058C599.526 463.202 599.136 462.915 598.693 463.098C598.25 463.28 597.717 462.876 597.534 463.462L597.56 463.449Z" fill="#914120"/>
<path d="M334.554 599.84L387.147 588.163L387.72 456.849L389.972 447.736C389.972 447.736 363.298 422.233 363.298 421.569C363.298 420.905 364.17 401.847 364.17 401.847H375.783L375.561 396.587H364.379L365.043 381.46L358.69 380.588L358.247 396.809H349.915L350.137 401.847L358.468 402.068C358.468 402.068 358.247 420.476 358.026 421.361C357.804 422.246 334.528 443.934 334.528 443.934V599.84H334.554Z" fill="#914120"/>
<path d="M456.899 507.711L456.456 498.728L459.529 499.6V495.435L456.027 493.026C446.771 464.686 432.021 455.755 427.686 453.672L428.324 440.055L431.982 438.962C431.982 438.962 433.245 438.688 433.245 437.803C433.245 436.918 432.49 437.191 432.49 437.191L428.181 438.389V431.307C428.181 431.307 428.011 430.695 427.126 430.76C426.241 430.825 426.345 431.515 426.345 431.515L426.553 438.936L423.403 440.133C423.403 440.133 422.817 440.342 422.895 441.019C422.96 441.709 423.989 441.526 423.989 441.526L426.592 440.563L426.449 453.138C419.003 457.747 414.746 468.838 414.746 468.838L407.391 554.615L468.758 568.428L470.516 514.506L456.925 507.711H456.899Z" fill="#914120"/>
<path d="M470.086 531.417L442.852 515.847V523.632L418.534 509.364L415.944 477.261C415.944 477.261 416.269 474.02 418.534 472.067L389.972 447.723C389.972 447.723 386.431 449.702 387.72 456.836C389.009 463.97 387.147 588.15 387.147 588.15L334.554 599.828V427.011L331.638 424.746C331.638 424.746 332.289 416.31 340.711 418.588L344.278 400.102L284.616 320.34L277.157 352.117V367.687C277.157 367.687 272.184 367.036 275.321 380.328L278.133 382.593V617.012H1028.79V316.447L1014.16 326.172C1014.16 326.172 1006.7 267.486 986.271 267.486C986.271 267.486 961.302 296.347 961.302 354.057L921.102 377.399V607.938H782.002L782.653 374.808C782.653 374.808 782.328 365.083 787.522 362.493V356.661L722.028 401.404L721.702 408.213C721.702 408.213 725.595 406.911 726.896 415.347C728.198 423.782 726.896 597.888 726.896 597.888L675.019 586.536V535.309L672.428 528.175L647.134 541.141L646.483 493.807L650.05 491.868L649.725 485.71L645.507 488.951L644.205 477.6L647.446 475.972L646.47 471.429L643.228 473.694L637.071 453.92L640.638 452.618L637.396 448.074L602.703 482.117L606.595 485.033L603.028 487.624L604.656 496.697L601.089 498.963L602.065 504.795L605.306 503.493L604.656 514.194L595.582 520.026L593.642 484.031L575.482 508.023L576.133 563.142H466.22L470.112 531.365L470.086 531.417Z" fill="#FCB873"/>
<path d="M-1.55029 283.693L32.297 278.981V328.489L-0.84731 319.428L-1.55029 283.693Z" fill="#3A1610"/>
<path d="M285.332 320.34L228.495 322.292L232.726 617.285L278.836 617.011V382.593L275.907 382.124C275.907 382.124 273.499 374.678 280.073 371.384L281.609 352.755L285.332 320.34Z" fill="#3A1610"/>
<path d="M637.396 448.087L680.682 449.337C680.682 449.337 682.686 452.917 682.257 452.917C681.827 452.917 685.98 452.917 685.98 452.917L682.4 475.816L700.573 476.532C700.573 476.532 700.43 481.115 699.857 481.115H697.566V489.42H702.435V493.859H699.714L700.287 524.634L727.313 524.205L726.883 597.901L675.006 586.549V535.322L672.415 528.188L647.121 541.155L646.47 493.82L650.037 491.881L649.711 485.723L645.493 488.965L644.192 477.613L647.433 475.985L646.457 471.442L643.215 473.707L637.058 453.933L640.625 452.631L637.383 448.087H637.396Z" fill="#914120"/>
<path d="M1014.16 326.172L1028.79 316.447V286.571C1028.79 286.571 1014.95 265.429 992.052 263.32V231.608L1007.2 220.035L1007.56 212.588H1002.97L992.052 222.807V199.192L988.172 196.732L982.535 202.161L984.293 228.093L974.425 237.922V242.543L978.304 242.894L984.644 237.922L986.271 267.499C986.271 267.499 1004.2 266.418 1014.16 326.185V326.172Z" fill="#3A1610"/>
<path d="M999.81 396.991C999.81 396.991 993.822 389.818 980.075 385.249C980.075 385.249 960.691 401.808 962.461 443.388C964.231 484.968 967.746 605.126 967.746 605.126H991.713C991.713 605.126 983.837 440.12 983.967 441.526C985.126 455.299 985.022 403.096 999.823 396.991H999.81Z" fill="#3A1610"/>
<path d="M593.629 484.083L595.569 520.065L604.643 514.233L605.293 503.532L602.052 504.834L601.076 499.002L604.643 496.723L603.028 487.65L606.595 485.059L593.629 484.083Z" fill="#914120"/>
<path d="M-1.55029 319.806L31.5941 328.88V279.371L85.7888 304.119L91.7251 617.402L-1.55029 623V319.806Z" fill="#FCB873"/>
<path d="M787.522 356.661L812.661 359.29L816.28 610.672L782.016 607.938L782.823 371.723C782.823 371.723 782.953 364.198 787.522 362.493V356.661Z" fill="#3A1610"/>
<path d="M344.239 400.154C335.973 394.804 328.253 388.738 320.65 382.515C307.476 372.79 293.924 363.586 281.57 352.807L281.648 352.703C295.395 361.647 307.957 372.165 320.911 382.176C328.826 387.839 337.34 393.567 344.252 400.154H344.239Z" fill="#914120"/>
<path d="M64.335 347.34C55.5346 346.454 46.9036 344.671 38.2985 342.692C23.9264 340.114 8.82533 338.539 -5 334.438C9.6585 335.962 23.9525 339.424 38.3767 342.275C47.0077 343.603 56.1986 344.723 64.335 347.326V347.34Z" fill="#914120"/>
<path d="M50.0409 353.719C43.5448 353.263 37.218 351.896 30.9302 350.347C20.3985 348.472 9.15073 347.6 -0.834229 344.228C9.97088 345.048 20.4245 347.795 31.0083 349.943C37.3221 350.842 44.2218 351.545 50.0409 353.732V353.719Z" fill="#914120"/>
<path d="M81.8704 320.457C75.0098 319.181 68.8262 316.096 62.8118 312.737C56.524 310.016 49.7285 308.545 43.4797 305.642C39.3139 303.755 35.2262 301.711 31.3337 299.159L31.4379 298.925C38.2204 300.461 44.6123 302.895 50.822 305.89C55.0008 307.738 58.8412 310.381 63.1372 311.956C67.4723 313.401 71.9505 314.508 75.9992 316.734C78.0431 317.775 80.0609 318.856 81.9745 320.21L81.8704 320.444V320.457Z" fill="#914120"/>
<path d="M1014.22 326.289C1008.44 330.872 1001.74 333.788 994.915 336.378C988.406 339.594 982.522 344.007 975.922 347.079C971.548 349.162 967.095 351.076 962.396 352.508L962.279 352.273C968.202 347.925 974.542 344.436 981.22 341.455C985.581 339.346 990.32 337.992 994.538 335.623C998.69 333.124 1002.67 330.299 1007.23 328.541C1009.46 327.591 1011.72 326.693 1014.1 326.042L1014.22 326.276V326.289Z" fill="#914120"/>
<path d="M1029.21 335.975C1016.69 343.955 1003.3 350.269 989.76 356.27C976.533 362.896 963.919 370.681 950.614 377.164C941.775 381.512 932.831 385.678 923.653 389.388L923.536 389.154C936.177 381.408 949.247 374.509 962.617 368.143C971.456 363.768 980.66 360.136 989.369 355.502C998.001 350.724 1006.48 345.647 1015.5 341.625C1019.96 339.529 1024.48 337.537 1029.09 335.727L1029.21 335.962V335.975Z" fill="#914120"/>
<path d="M1029.21 344.788C1016.67 352.456 1003.27 358.444 989.747 364.107C976.52 370.408 963.893 377.88 950.588 384.025C941.749 388.165 932.805 392.096 923.653 395.598L923.536 395.364C936.203 387.93 949.273 381.356 962.643 375.329C971.482 371.176 980.673 367.765 989.382 363.352C998.014 358.796 1006.5 353.927 1015.51 350.125C1019.98 348.134 1024.48 346.259 1029.09 344.567L1029.21 344.801V344.788Z" fill="#914120"/>
<path d="M960.326 603.629C958.412 560.435 957.123 517.214 956.564 473.981C956.394 459.544 956.316 445.093 956.082 430.643C960.079 412.209 966.145 394.023 975.844 377.763L976.039 377.438L976.403 377.464C996.23 379.325 1011.84 393.398 1015.31 413.056C1015.63 455.82 1015.55 514.324 1015.04 557.089C1014.9 569.001 1014.55 593.175 1014.27 605.1H1014.01L1013.56 581.095C1013.04 546.674 1012.72 495.63 1012.76 461.067C1012.62 461.314 1013.06 412.144 1013 413.277C1010.72 399.855 1001.98 387.761 989.357 382.333C985.23 380.484 980.765 379.169 976.312 378.688L976.872 378.401C966.887 394.309 960.703 412.444 957.006 430.786C958.829 487.689 961.146 546.766 960.313 603.59L960.326 603.629Z" fill="#914120"/>
<path d="M36.9705 598.539C35.187 569.43 35.2651 540.321 35.7077 511.187C34.7965 462.655 32.6224 414.149 34.3799 365.591H34.6402C37.4782 414.084 36.3847 462.642 36.5409 511.174C37.3741 540.113 38.8451 570.068 36.9575 598.526L36.9705 598.539Z" fill="#914120"/>
<path d="M85.0339 331.041C78.0691 329.257 71.4298 326.601 64.8556 323.776C53.7381 319.754 41.7353 316.603 31.4119 311.188C42.985 314.221 53.8813 319.09 65.0118 323.386C71.7292 325.573 79.0325 327.669 85.0469 331.041H85.0339Z" fill="#914120"/>
<path d="M52.8657 394.687C60.1689 395.845 67.3289 397.694 74.3718 399.92C74.528 405.023 75.2961 410.074 75.3221 415.19C75.257 416.362 75.3872 417.638 74.8535 418.77C74.502 419.382 73.7209 419.252 73.2392 419.226C66.3005 418.51 59.5571 416.948 52.8267 415.216C59.2056 415.49 66.2094 417.013 72.7315 417.846C73.0049 417.859 73.6298 417.976 73.8511 417.95C73.8901 417.976 74.1114 417.911 73.825 418.015C74.5801 412.587 74.3978 405.921 73.8641 400.128L74.0463 400.35C66.9644 398.892 59.3358 397.369 52.8397 394.687H52.8657Z" fill="#914120"/>
<path d="M52.8529 436.176C59.3489 436.215 65.793 436.918 72.1849 438.05C72.4192 438.102 72.4062 437.998 72.4062 438.284C72.5754 443.192 73.1873 448.061 73.3305 452.969C73.2784 454.726 73.5778 456.51 72.8358 458.176C72.7447 458.359 72.3281 458.606 72.1589 458.567C71.56 458.658 70.4925 458.593 69.8937 458.593C64.2698 458.228 58.1252 457.864 52.8529 456.575C59.0625 456.562 66.1575 457.005 71.9245 457.33C71.8334 457.382 71.8074 457.421 71.8074 457.421C72.0417 456.874 72.0807 456.015 72.1458 455.364C72.4322 449.819 72.4843 443.83 71.9245 438.311L72.1458 438.532C68.9043 438.337 65.6628 438.258 62.4473 437.829C59.2318 437.438 56.0163 436.97 52.8398 436.306L52.8529 436.176Z" fill="#914120"/>
<path d="M56.6154 416.206C66.5222 417.911 77.3534 419.747 87.143 421.973L87.5206 422.064L87.5336 422.415C87.6898 427.987 88.1324 433.572 87.7158 439.144C87.6377 439.717 87.4685 440.524 86.6744 440.394C80.5819 440.042 74.5935 439.222 68.553 438.441C64.3482 437.907 60.1693 437.243 55.9905 436.605C55.9905 430.539 56.394 422.324 56.6154 416.206ZM56.6935 416.31C56.9538 422.064 57.2532 430.383 57.3053 436.033L56.7455 435.382C66.7435 436.696 76.6894 438.584 86.6874 439.86C86.8176 439.86 86.9217 439.86 86.9868 439.86C86.9478 439.886 87.0389 439.821 87.0649 439.73C87.3123 439.066 87.3383 438.298 87.4034 437.582C87.6638 432.544 87.0649 427.506 86.5442 422.494L86.9348 422.936C77.08 421.166 66.4571 418.601 56.6804 416.31H56.6935Z" fill="#914120"/>
<path d="M387.486 481.049C390.441 481.544 393.11 482.729 395.661 484.265V484.395C395.518 486.777 396.598 489.095 396.078 491.477C395.987 491.594 396.026 491.711 395.635 491.906C395.023 492.024 394.984 491.893 394.542 491.828C392.003 491.177 389.686 490.123 387.434 488.782L387.473 488.665C390.154 489.043 392.745 489.85 395.297 490.657C395.323 490.683 395.492 490.657 395.193 490.709C394.893 490.865 394.958 490.904 394.906 490.956C394.906 490.956 394.906 490.956 394.906 490.943C395.18 488.886 395.479 486.504 395.14 484.434L395.297 484.642C392.472 483.939 389.816 482.872 387.421 481.166L387.473 481.049H387.486Z" fill="#914120"/>
<path d="M387.486 496.541C390.141 496.593 392.576 497.374 394.932 498.507V498.65C394.802 501.124 395.791 503.558 395.401 506.031C395.362 506.253 395.075 506.617 394.763 506.63C394.203 506.656 394.06 506.578 393.617 506.526C391.469 506.071 389.412 505.315 387.473 504.274L387.512 504.144C388.774 504.196 390.011 504.378 391.222 504.586C392.25 504.769 393.331 505.016 394.333 505.276C394.724 505.368 394.62 505.302 394.385 505.42C394.229 505.537 394.216 505.602 394.203 505.615C394.398 504.795 394.424 503.219 394.528 502.36C394.633 501.124 394.646 499.887 394.45 498.663L394.633 498.884C392.094 498.611 389.686 497.96 387.473 496.645L387.512 496.515L387.486 496.541Z" fill="#914120"/>
<path d="M388.84 490.397C392.628 490.813 396.924 491.308 400.712 492.389C400.712 494.432 400.634 496.463 400.647 498.507C400.608 498.872 400.673 499.145 400.452 499.496C400.296 499.64 400.179 499.614 400.114 499.614C399.267 499.549 398.46 499.392 397.653 499.262C394.464 498.689 391.3 497.973 388.202 497.01C388.241 494.823 388.527 492.454 388.84 490.397ZM388.918 490.501C389.126 492.206 389.478 494.862 389.543 496.528L389.048 495.89C390.532 496.229 392.003 496.659 393.474 497.088C395.674 497.687 397.848 498.481 400.035 499.08C400.114 499.379 400.192 498.807 400.231 498.481C400.387 496.58 400.035 494.68 399.736 492.805L400.127 493.248C396.234 492.714 392.823 491.594 388.918 490.501Z" fill="#914120"/>
<path d="M646.366 498.923C644.049 501.019 641.393 502.529 638.516 503.688L638.633 503.493C638.295 505.367 638.607 507.476 638.763 509.364C638.789 509.572 638.802 509.794 638.867 509.976C638.841 510.015 638.985 510.067 638.724 509.82C638.607 509.729 638.464 509.729 638.451 509.716C638.386 509.702 638.295 509.742 638.399 509.702C638.516 509.663 638.88 509.481 638.998 509.429C641.315 508.31 643.736 507.216 646.288 506.409L646.353 506.526C644.036 508.336 641.562 509.976 638.763 510.939C636.98 511.395 637.644 508.349 637.735 507.385C637.943 506.031 638.177 504.69 638.125 503.324C640.612 501.384 643.268 499.77 646.288 498.793L646.353 498.91L646.366 498.923Z" fill="#914120"/>
<path d="M646.34 515.717C644.113 517.032 641.718 517.696 639.18 517.956L639.362 517.735C638.984 519.818 639.427 522.916 639.557 524.595C639.505 524.478 639.193 524.387 639.127 524.4C641.367 523.476 643.853 522.46 646.3 521.901L646.353 522.018C644.205 523.593 642.122 524.882 639.505 525.637C639.336 525.663 639.258 525.702 638.984 525.663C638.646 525.585 638.451 525.298 638.385 525.012C638.034 522.499 639.01 520.065 638.867 517.552C641.223 516.42 643.658 515.639 646.314 515.587L646.353 515.717H646.34Z" fill="#914120"/>
<path d="M644.869 508.257C641.003 510.21 637.696 512.137 633.751 513.569L634.051 513.152C633.751 515.196 633.257 517.539 633.673 519.479C633.504 519.414 633.673 519.44 633.725 519.388L633.986 519.271C637.527 517.422 640.976 515.378 644.596 513.686L644.231 514.285C644.322 512.254 644.661 510.405 644.856 508.257H644.869ZM644.947 508.14C645.207 510.158 645.572 512.618 645.585 514.662C641.914 516.654 638.139 518.412 634.207 519.805C633.947 519.857 633.725 520.039 633.387 519.883C633.192 519.674 633.231 519.583 633.192 519.453C633.087 517.24 633.14 515.027 633.074 512.801C636.772 510.874 641.133 509.455 644.947 508.127V508.14Z" fill="#914120"/>
<path d="M-0.834221 358.301C8.59096 359.928 27.5194 363.092 36.9186 364.81L37.3221 364.875V365.292C37.6606 384.728 37.934 404.164 37.908 423.6C38.0772 481.922 40.1731 540.204 40.1601 598.526V598.969L39.7305 599.021C27.7017 600.427 10.6739 602.431 -1.19873 603.694C10.2052 601.872 27.7277 599.606 39.6133 598.057L39.1837 598.552C37.7387 540.256 38.4157 481.922 37.1659 423.626C36.6712 404.19 36.476 384.754 36.3328 365.318L36.7363 365.8C27.4674 363.912 8.09627 360.501 -0.847239 358.314L-0.834221 358.301Z" fill="#914120"/>
<path d="M-0.821289 319.363C18.0942 324.102 45.3803 331.796 64.5041 336.912L64.9206 337.029V347.287V347.834C61.9134 347.899 58.7891 348.407 56.0683 349.67C53.5297 350.802 51.4077 353.054 51.4859 355.879L51.6811 373.415C52.3451 446.317 54.1806 528.995 53.8942 601.741L53.8291 619.303H53.699L53.3344 601.741C51.4989 522.525 52.6184 435.108 50.4835 355.853C50.5355 349.006 58.7761 346.936 64.3478 346.715L63.7881 347.287V337.472L64.2046 338.018C45.146 332.707 17.5995 325.078 -0.821289 319.363Z" fill="#914120"/>
<path d="M340.672 418.64C332.653 413.302 325.181 407.262 317.838 401.052C305.081 391.367 291.945 382.176 280.021 371.436L280.099 371.332C293.442 380.249 305.562 390.729 318.086 400.714C325.753 406.351 334.02 412.079 340.659 418.627L340.672 418.64Z" fill="#914120"/>
<path d="M334.515 428.235C327.003 423.092 320.078 417.247 313.269 411.246C301.54 401.847 288.704 393.007 278.185 382.541C290.656 391.146 301.891 401.274 313.543 410.92C320.689 416.362 328.422 421.895 334.528 428.235H334.515Z" fill="#914120"/>
<path d="M415.905 477.326C411.96 475.517 408.549 472.926 405.23 470.192C399.384 466.261 392.472 462.954 387.733 457.877C394.268 460.949 399.671 465.662 405.464 469.854C409.018 471.976 413.314 474.254 415.905 477.339V477.326Z" fill="#914120"/>
<path d="M419.198 581.797C418.391 572.75 418.482 563.702 418.782 554.641C418.573 539.644 417.232 524.127 418.599 509.377C419.901 524.452 419.237 539.54 419.198 554.641C419.55 563.598 420.201 573.075 419.198 581.797Z" fill="#914120"/>
<path d="M442.787 574.429C442.058 568.076 442.253 561.736 442.644 555.383C442.579 544.89 441.407 533.864 442.917 523.645C444.063 534.216 443.256 544.799 443.06 555.383C443.321 561.645 443.868 568.414 442.787 574.429Z" fill="#914120"/>
<path d="M591.95 572.593C591.221 566.24 591.416 559.901 591.807 553.548C591.741 543.055 590.57 532.029 592.08 521.809C593.225 532.38 592.418 542.964 592.223 553.548C592.483 559.809 593.03 566.592 591.95 572.593Z" fill="#914120"/>
<path d="M647.16 541.207C644.934 542.964 642.565 544.474 640.169 545.919L640.456 545.412C640.508 548.197 640.039 550.996 640.065 553.782C640.195 559.354 640.768 564.939 640.521 570.537C640.039 581.381 639.714 581.576 639.219 570.537C638.972 564.952 639.544 559.367 639.675 553.782C639.701 550.996 639.232 548.197 639.284 545.412V545.073L639.571 544.917C642.005 543.524 644.478 542.196 647.095 541.103L647.16 541.22V541.207Z" fill="#914120"/>
<path d="M637.123 453.972C633.777 458.398 629.767 462.16 625.628 465.818C619.288 472.327 613.378 479.982 606.1 485.189C611.724 477.86 618.754 471.924 625.328 465.519C628.947 461.483 632.723 456.875 637.123 453.972Z" fill="#914120"/>
<path d="M643.268 473.759C638.815 477.274 633.894 479.969 628.869 482.521C620.941 487.324 613.13 493.365 604.616 496.671C612.063 490.891 620.512 486.804 628.661 482.156C633.27 479.097 638.177 475.53 643.268 473.759Z" fill="#914120"/>
<path d="M644.244 480.255C639.336 483.966 633.973 486.869 628.505 489.615C619.835 494.758 611.269 501.124 602.026 504.769C610.227 498.65 619.418 494.224 628.297 489.251C633.348 485.983 638.724 482.221 644.244 480.255Z" fill="#914120"/>
<path d="M646.509 493.872C641.601 497.075 636.29 499.457 630.887 501.657C622.282 505.94 613.69 511.434 604.629 514.181C612.831 508.895 621.905 505.367 630.705 501.28C635.73 498.533 641.106 495.291 646.509 493.872Z" fill="#914120"/>
<path d="M675.032 535.375C670.997 538.069 666.57 539.892 662.053 541.571C654.919 544.956 647.772 549.577 640.208 551.426C646.952 547.013 654.542 544.396 661.871 541.194C666.024 538.968 670.528 536.273 675.019 535.388L675.032 535.375Z" fill="#914120"/>
<path d="M787.561 362.545C779.737 368.859 771.406 374.404 762.957 379.807C749.353 389.492 736.1 399.686 721.741 408.265L721.663 408.16C734.72 397.694 748.897 388.841 762.722 379.468C770.729 373.597 778.995 367.179 787.561 362.545Z" fill="#914120"/>
<path d="M782.693 377.477C776.118 382.658 769.049 387.071 761.863 391.328C750.355 398.97 739.016 407.822 726.857 413.993C737.845 405.401 749.913 398.462 761.629 390.977C768.386 386.225 775.402 380.953 782.693 377.477Z" fill="#914120"/>
<path d="M775.832 605.126C775.832 605.217 775.585 605.074 775.689 605.1V605.048V604.944V604.735C775.65 603.121 775.637 600.179 775.611 598.526C774.934 531.417 776.613 460.207 776.743 393.059L777.225 393.333L732.677 418.901L732.963 418.406L733.627 463.761C734.082 496.489 734.382 544.552 734.59 577.15C734.486 577.124 734.864 600.114 734.499 599.827L734.004 577.15C733.08 528.071 732.195 467.576 731.83 418.406V418.067L732.117 417.898L776.912 392.76L777.394 392.487C777.212 410.348 776.964 428.196 776.938 446.056C777.056 497.387 776.496 554.316 775.845 605.1L775.832 605.126Z" fill="#914120"/>
<path d="M328.019 599.841V441.643C321.484 439.352 324.296 430.734 324.296 430.734L291.021 407.965C290.774 414.917 285.332 413.68 285.332 413.68V603.629" stroke="#914120" stroke-width="1.30182" stroke-miterlimit="10"/>
<path d="M977.354 283.42C976.508 286.206 974.138 292.936 979.697 290.359C984.084 288.758 987.13 285.698 987.456 280.882C988.029 284.006 989.278 287.859 992.624 288.719C995.267 289.187 998.43 288.146 1000.23 286.18C1001.46 284.8 1001.88 282.73 1001.54 280.764L1001.66 280.725C1004.08 286.362 997.584 291.335 992.273 290.007C988.953 289.109 987.456 285.451 987.208 282.405H987.755C987.261 284.423 986.245 286.18 984.982 287.768C983.485 289.89 977.302 294.225 975.427 290.749C974.633 288.172 976.104 285.529 977.224 283.368L977.341 283.42H977.354Z" fill="#914120"/>
<path d="M981.884 273.37C981.988 276.507 981.077 283.615 986.206 281.168C989.76 279.306 992.416 276.559 993.731 272.719H993.861C994.303 277.067 990.502 280.946 986.414 281.741C984.175 282.405 981.767 282.053 981.051 279.488C980.504 277.393 980.908 275.258 981.741 273.331L981.871 273.357L981.884 273.37Z" fill="#914120"/>
<path d="M970.467 299.485C967.993 304.197 968.827 308.402 974.945 307.582C979.124 306.202 979.801 300.487 980.139 296.608L980.803 296.673C980.1 299.823 979.801 304.848 983.576 306.02C987.052 306.684 990.775 304.601 992.481 301.607C993.691 299.615 994.303 297.193 994.433 294.902L995.813 294.941C995.813 296.699 996.009 298.573 996.621 300.149C997.245 301.854 998.599 302.609 1000.34 301.867C1002.04 301.307 1003.65 300.396 1004.74 298.964C1005.84 297.558 1006.4 295.709 1006.29 293.861L1006.42 293.835C1007.24 297.753 1004.39 301.62 1000.71 302.83C998.534 303.885 996.282 302.895 995.423 300.656C994.629 298.769 994.433 296.842 994.446 294.889L995.826 294.928C995.501 299.979 992.637 305.564 987.26 306.501C980.374 308.129 979.293 301.828 980.166 296.516L980.829 296.582C980.856 300.943 980.244 307.256 975.219 308.623C971.209 309.378 967.238 306.879 968.84 302.479C969.204 301.372 969.712 300.331 970.376 299.393L970.48 299.459L970.467 299.485Z" fill="#914120"/>
<path d="M965.806 314.546C965.533 317.515 965.012 321.941 968.085 323.464C971.313 324.518 974.294 321.941 975.036 318.764C975.713 316.681 975.895 314.39 975.882 312.19L976.872 312.229C976.494 315.588 976.195 320.34 979.554 322.266C981.715 323.256 984.67 322.579 986.336 320.912C988.875 318.1 988.211 313.791 987.286 310.433L988.354 310.081C989.2 312.216 990.255 314.338 991.648 316.135C994.017 319.389 997.024 319.467 999.511 316.629C1001.58 313.948 1001.44 310.159 1000.75 306.957L1001.71 306.657C1002.97 310.693 1006.57 314.911 1011.23 313.87L1011.25 314C1010.16 314.286 1008.97 314.39 1007.84 314.143C1004.31 313.401 1002 310.159 1000.75 306.97L1001.71 306.67C1003.38 311.917 1002.15 319.78 995.384 320.092C990.84 319.428 988.784 314.195 987.286 310.459L988.354 310.107C989.747 314.833 989.174 322.071 983.212 322.982C976.677 324.492 975.349 316.955 975.895 312.099L976.885 312.138C977.119 316.59 976.403 322.826 971.456 324.427C966.848 325.781 964.752 322.071 965.169 317.957C965.234 316.799 965.416 315.653 965.702 314.533L965.832 314.56L965.806 314.546Z" fill="#914120"/>
<path d="M962.786 334.907C962.474 337.355 962.383 339.984 963.333 342.158C964.257 344.45 967.356 344.528 969.1 343.2C972.68 340.01 972.615 334.113 972.641 329.596L973.709 329.661C973.344 331.848 973.279 334.36 974.49 336.261C975.779 338.292 978.564 338.279 980.686 337.706C982.938 337.068 984.735 335.298 985.49 333.098C986.271 330.924 986.375 328.502 986.076 326.25L986.948 326.185C987.104 328.203 987.443 330.364 988.458 331.978C989.565 333.905 991.544 333.371 993.184 332.421C996.712 330.468 998.378 326.172 998.573 322.293L999.875 322.423C999.602 324.167 999.511 326.146 1000.2 327.682C1000.96 329.492 1002.96 329.596 1004.67 329.231C1008.99 329.635 1013.26 327.305 1013.19 322.527C1013.24 321.108 1013.01 319.676 1012.69 318.283L1012.82 318.244C1015.24 325.052 1012.15 330.507 1004.59 330.234C999.537 331.627 997.701 326.888 998.599 322.162L999.901 322.293C999.693 326.693 997.922 331.418 993.835 333.566C992.299 334.386 990.268 335.089 988.693 333.931C986.401 332.082 986.167 328.88 986.076 326.172L986.948 326.107C987.221 329.7 986.649 333.696 983.967 336.3C981.376 338.617 976.429 339.659 973.982 336.626C972.485 334.556 972.381 331.913 972.667 329.453L973.735 329.518C973.826 334.465 973.852 340.544 969.725 344.02C967.499 345.686 963.724 345.27 962.695 342.445C961.758 339.984 962.109 337.342 962.682 334.868L962.812 334.894L962.786 334.907Z" fill="#914120"/>
<path d="M991.699 605.126L983.954 441.526C983.954 441.526 987.104 402.654 999.81 396.991C999.81 396.991 1006.58 408.981 1006.41 419.565V605.113H991.699V605.126Z" fill="#914120"/>
<path d="M421.424 571.071C421.424 571.071 421.177 576.017 420.409 576.903L421.893 575.952C421.893 575.952 419.992 584.948 421.893 587.382C423.794 589.817 425.877 588.814 425.877 588.814L434.39 589.348C434.39 589.348 437.424 586.432 434.39 585.234C434.39 585.234 462.015 584.219 459.984 588.333C459.984 588.333 411.817 609.474 400.452 609.722C389.087 609.969 382.187 606.91 382.187 606.91C382.187 606.91 360.929 615.15 353.834 614.161C346.739 613.171 342.82 617.012 342.82 617.012C342.82 617.012 326.587 614.122 312.931 617.285L260.715 617.975C260.715 617.975 266.391 591.756 267.445 591.132C268.499 590.507 391.535 594.516 391.535 594.516L397.119 593.774C397.119 593.774 395.362 582.579 397.822 581.785C400.283 580.99 402.978 548.848 402.691 547.82C402.405 546.792 393.435 537.262 395.635 532.693L407.352 536.976L431.904 563.611C431.904 563.611 435.341 555.305 440.066 553.47C444.792 551.634 438.921 573.791 438.921 573.791L421.424 571.058" fill="#914120"/>
<path d="M617.439 597.888C617.439 597.888 637.058 601.924 647.121 602.613C657.184 603.303 669.421 605.517 674.889 603.577C680.356 601.637 686.722 603.212 686.722 603.212L726.883 608.459L746.372 619.785L791.74 621.477L742.726 596.925L674.993 586.562L669.174 585.768C669.174 585.768 672.025 571.747 667.703 561.84V550.072C667.703 550.072 661.662 555.422 660.66 559.679L624.651 591.236L612.44 589.244C612.44 589.244 609.785 547.208 603.354 546.661C599.865 546.362 586.716 596.612 587.354 595.388C587.354 595.388 601.101 595.362 617.426 597.901L617.439 597.888Z" fill="#914120"/>
<path d="M746.736 384.52C746.801 384.376 743.677 392.942 743.677 392.942C743.677 392.942 746.971 390.899 745.2 400.766L747.752 400.337C747.752 400.337 741.086 413.238 746.736 419.382C746.736 419.382 746.033 401.964 754.612 396.991L754.769 376.552L746.736 384.52Z" fill="#914120"/>
<path d="M788.121 357.793C788.72 357.871 780.115 364.276 780.128 367.622L782.003 366.385C782.003 366.385 779.737 376.748 780.128 379.065C780.128 379.065 780.037 401.899 777.941 405.843C777.941 405.843 777.98 401.834 776.782 401.131C776.782 401.131 774.179 408.681 776.04 414.032C776.04 414.032 765.43 398.241 765.99 385.34C766.55 372.439 777.681 356.53 788.134 357.793H788.121Z" fill="#914120"/>
<path d="M763.738 355.203C763.738 355.203 751.826 316.565 746.736 311.071L768.672 328.333L775.767 299.628L817.816 306.983L811.163 356.83L785.7 357.884L763.738 366.385V355.19V355.203Z" fill="#262B1B"/>
<path d="M795.867 353.94C795.867 353.94 766.16 330.025 766.602 253.309L774.465 260.027L766.602 242.882C766.602 242.882 764.858 208.917 786.26 180.095L789.748 189.116L790.191 172.232C790.191 172.232 801.543 154.319 813.78 146.026C813.78 146.026 827.762 179.665 825.575 214.176L816.839 228.158L825.809 224.669C825.809 224.669 830.821 311.605 795.867 353.979V353.94Z" fill="#444E30"/>
<path d="M786.689 288.016C786.689 288.016 774.895 210.219 740.384 195.365V201.041L731.206 191.434C731.206 191.434 724.215 183.571 709.804 187.059L713.735 193.178L703.685 189.103C703.685 189.103 672.233 190.119 670.489 234.68C670.489 234.68 677.909 216.337 701.941 218.511L706.315 214.137L707.63 221.558C707.63 221.558 726.415 220.868 746.502 237.075L749.119 233.352L750.434 242.139C750.434 242.139 775.337 260.951 786.689 287.99V288.016Z" fill="#444E30"/>
<path d="M775.767 233.365C775.767 233.365 752.178 170.461 739.511 159.539V166.53C739.511 166.53 741.256 152.548 713.735 150.361C713.735 150.361 725.972 160.841 728.589 171.334L722.913 169.589C722.913 169.589 731.648 192.736 748.246 209.347C764.845 225.945 775.767 233.378 775.767 233.378V233.365Z" fill="#444E30"/>
<path d="M766.602 253.296C766.602 253.296 750.004 225.059 718.981 229.434L724.228 233.365C724.228 233.365 710.858 230.553 699.493 235.383C688.141 240.213 684.041 253.296 684.041 253.296C684.041 253.296 701.081 241.671 712.004 247.776L704.674 249.963C704.674 249.963 762.723 272.576 769.167 291.218L766.602 253.296Z" fill="#444E30"/>
<path d="M765.86 355.789C765.86 355.789 785.01 302.7 755.523 278.148C726.037 253.596 692.919 260.105 692.919 260.105L698.439 263.828C698.439 263.828 685.525 261.719 678.586 262.305C671.66 262.891 670.358 264.648 665.424 261.836C665.424 261.836 661.194 274.516 691.5 278.63C691.5 278.63 686.683 281.337 681.281 280.973C681.281 280.973 690.563 290.724 718.044 291.895L713.93 293.653C713.93 293.653 739.068 297.766 751.865 310.212C764.662 322.657 765.847 355.789 765.847 355.789H765.86Z" fill="#444E30"/>
<path d="M763.738 355.202C763.738 355.202 764.207 324.662 735.437 314.677C735.437 314.677 738.613 318.673 738.496 319.962C738.496 319.962 722.991 310.094 711.835 311.149C711.835 311.149 717.823 315.497 717.94 316.786C717.94 316.786 695.392 311.735 683.637 314.794C671.882 317.853 668.484 325.482 668.484 325.482C668.484 325.482 680.109 325.247 686.332 327.825C686.332 327.825 663.081 329.465 658.03 348.498C658.03 348.498 675.995 343.33 685.16 343.095C685.16 343.095 682.218 350.373 679.172 351.792C679.172 351.792 686.332 354.499 700.548 344.514L698.087 350.854C698.087 350.854 709.947 352.495 722.874 344.866C722.874 344.866 719.58 347.326 720.882 350.503C720.882 350.503 746.137 341.807 763.751 355.202H763.738Z" fill="#444E30"/>
<path d="M768.672 359.069C768.672 359.069 751.527 345.79 728.849 358.6C728.849 358.6 735.189 359.772 736.595 361.542C736.595 361.542 718.396 361.894 709.348 375.524C709.348 375.524 715.74 374.717 716.482 375.55C716.482 375.55 700.066 383.869 700.417 400.31C700.417 400.31 707.343 394.439 710.285 393.971C710.285 393.971 697.007 403.135 707.46 426.62C707.46 426.62 712.511 403.956 719.789 400.779C719.789 400.779 717.354 405.244 718.578 410.413C718.578 410.413 726.844 404.073 728.953 392.083C728.953 392.083 730.476 394.791 729.539 399.009C729.539 399.009 738.821 395.832 744.107 382.801C744.107 382.801 744.927 385.027 744.107 386.915C744.107 386.915 756.083 378.804 761.72 370.707C767.357 362.597 768.646 359.082 768.646 359.082L768.672 359.069Z" fill="#444E30"/>
<path d="M785.713 357.897C785.713 357.897 775.142 350.503 761.629 361.777C748.116 373.051 748.949 394.661 748.949 394.661L751.527 391.719C751.527 391.719 746.71 400.063 752.347 412.392C757.984 424.72 766.563 420.619 766.563 420.619C766.563 420.619 759.637 411.454 762.215 405.349L763.738 408.291C763.738 408.291 769.843 392.435 773.137 379.156C776.431 365.878 785.7 357.897 785.7 357.897H785.713Z" fill="#444E30"/>
<path d="M460.114 533.331C460.114 533.331 460.713 532.615 462.379 532.849C464.046 533.083 467.014 539.267 467.014 539.267C467.014 539.267 466.415 540.816 465.23 542.482C464.046 544.149 461.546 540.347 461.429 539.397C461.429 539.397 461.429 546.609 462.028 550.202C462.627 553.795 464.293 558.065 461.312 562.348C458.331 566.631 459.763 582.761 460.127 583.607C460.127 583.607 463.811 584.492 464.293 585.781C464.775 587.07 463.252 588.71 463.252 588.71L455.376 588.372C455.376 588.372 455.259 589.504 451.574 588.71C447.89 587.916 448.359 587.434 448.359 587.434C448.359 587.434 447.409 588.632 445.274 588.333C443.139 588.033 436.005 585.781 436.005 585.781C436.005 585.781 425.395 583.633 424.991 567.217C424.991 567.217 429.587 574.234 433.271 575.418C433.271 575.418 432.177 575.301 432.776 573.869C432.776 573.869 434.573 576.837 435.054 577.319C435.054 577.319 434.429 563.767 438.491 561.984C438.491 561.984 441.407 555.449 446.029 555.084C446.029 555.084 449.218 541.532 448.736 539.384C448.736 539.384 448.424 541.402 446.029 541.649L444.336 537.249C444.688 535.466 447.07 531.964 448.138 531.105C449.205 530.245 450.52 532.497 450.52 532.497C450.52 532.497 451.952 529.998 452.785 530.362C453.618 530.727 454.92 531.547 455.87 532.029C456.821 532.51 458.956 530.961 460.153 533.331H460.114Z" fill="#AD804E"/>
<path d="M458.084 536.989C458.494 536.989 458.826 536.657 458.826 536.247C458.826 535.837 458.494 535.505 458.084 535.505C457.674 535.505 457.342 535.837 457.342 536.247C457.342 536.657 457.674 536.989 458.084 536.989Z" fill="black"/>
<path d="M455.05 536.989C455.46 536.989 455.792 536.657 455.792 536.247C455.792 535.837 455.46 535.505 455.05 535.505C454.641 535.505 454.308 535.837 454.308 536.247C454.308 536.657 454.641 536.989 455.05 536.989Z" fill="black"/>
<path d="M458.826 540.465C458.37 539.293 457.602 538.486 455.78 538.668C453.957 538.851 453.788 539.553 453.788 539.553C453.788 539.553 454.27 541.728 455.78 542.626C457.29 543.524 458.826 540.465 458.826 540.465Z" fill="black"/>
<path d="M458.24 544.774C458.24 544.774 457.967 551.074 457.342 551.452C456.717 551.83 454.309 552.246 454.296 549.395C454.283 546.544 453.788 544.982 453.788 544.982L456.313 543.693L458.24 544.761V544.774Z" fill="black"/>
<path d="M459.464 543.342C459.607 545.828 457.172 545.464 455.884 544.149L456.86 544.019C455.831 545.906 453.176 546.088 451.809 544.5C451.34 544.084 451.236 543.133 451.822 542.782C451.418 543.953 452.85 544.214 453.631 544.383C454.816 544.578 455.688 543.641 456.235 542.73C457.276 543.719 458.474 545.424 459.477 543.329L459.464 543.342Z" fill="black"/>
<path d="M458.083 546.31C458.083 546.31 458.422 548.471 458.083 549.551C457.745 550.632 456.886 551.257 455.779 550.905C454.673 550.554 452.811 549.291 454.295 545.958C454.295 545.958 456.118 545.425 455.988 547.494C455.988 547.494 456.443 545.789 458.083 546.323V546.31Z" fill="#F387A9"/>
<path d="M448.867 558.573C447.903 560.148 446.628 561.893 446.823 563.82C447.005 565.72 447.487 567.621 447.982 569.482H447.539C447.929 567.998 448.385 566.332 448.138 564.835L448.659 564.757C449.01 568.545 449.309 572.32 449.348 576.135C449.492 578.061 448.984 579.91 448.672 581.798C448.476 583.672 448.437 585.573 448.476 587.461L448.242 587.408C449.999 583.855 452.486 583.243 452.395 587.955L452.173 587.916C452.317 587.382 452.538 586.888 452.876 586.432C453.189 585.99 453.736 585.612 454.347 585.664L454.217 585.872C449.765 578.921 452.942 575.145 454.751 568.363L455.168 566.306C455.727 571.331 456.209 576.395 456.404 581.433C456.404 582.969 456.613 584.336 456.222 585.885L455.923 585.56C457.355 585.156 459.034 584.271 460.518 584.74C460.961 585.13 460.7 585.885 460.661 586.393C460.544 587.07 460.362 587.734 460.154 588.385L459.997 588.19C461.82 587.942 463.968 586.666 462.822 584.584L462.874 584.558C464.15 586.679 461.937 588.164 460.036 588.476C459.711 588.541 459.802 588.567 459.88 588.281C460.115 587.252 460.609 586.055 460.323 585.039C458.8 584.792 457.12 585.677 455.675 586.159C456.118 584.714 455.858 582.982 455.806 581.446C455.649 578.686 454.985 571.292 454.738 568.441L455.389 568.467C454.465 572.945 451.223 576.916 452.668 581.55C453.085 583.086 453.736 584.584 454.595 585.924C454.009 585.807 453.436 586.029 453.072 586.549C452.564 587.174 452.356 588.085 452.121 588.841C452.551 584.362 450.78 583.021 448.476 587.474L448.255 587.903C448.177 585.846 448.125 583.776 448.281 581.707C448.528 579.832 448.997 578.022 448.815 576.096C448.724 572.32 448.437 568.532 448.138 564.757L448.659 564.679C448.932 566.644 448.307 568.506 447.747 570.355C447.214 568.194 446.68 566.033 446.524 563.806C446.419 561.854 447.76 559.875 448.88 558.547L448.867 558.573Z" fill="#604529"/>
<path d="M439.624 563.676C441.199 557.87 445.638 562.778 445.573 566.488C445.808 570.068 444.31 573.479 442.162 576.186C441.095 577.54 440.067 578.946 439.272 580.443C438.921 581.159 438.543 582.11 438.96 582.565C439.155 582.8 439.559 582.904 439.949 582.969C442.123 583.229 444.167 582.487 446.458 583.086C448.502 583.724 448.19 586.471 447.526 588.033L447.474 588.163L447.344 588.189C447.005 588.254 445.105 588.567 444.818 588.619C445.521 587.564 446.563 585.664 445.118 584.778L445.144 584.726C446.628 585.416 446.029 587.356 445.391 588.463L445.183 588.163L447.227 587.695L447.044 587.851C447.487 586.549 447.877 584.31 446.25 583.737C444.206 583.229 441.954 583.919 439.845 583.594C439.403 583.516 438.895 583.412 438.517 582.969C438.14 582.513 438.192 581.914 438.309 581.485C439.038 579.389 440.626 577.749 441.967 576.056C444.219 573.44 445.261 569.899 444.987 566.553C444.818 564.913 444.376 563.155 443.139 562.062C442.553 561.502 441.694 561.176 441.03 561.645C440.041 562.322 439.962 563.298 439.598 563.702L439.624 563.676Z" fill="#604529"/>
<path d="M598.446 538.993C598.446 538.993 601.622 532.471 603.289 532.706C604.955 532.94 601.583 544.24 601.466 543.289C601.466 543.289 600.386 548.822 600.971 552.415C601.557 556.008 601.831 565.225 600.971 570.536C600.112 575.848 599.37 589.139 599.722 589.986C599.722 589.986 603.406 590.871 603.887 592.16C604.369 593.449 602.846 595.089 602.846 595.089L594.97 594.75C594.97 594.75 594.853 595.883 591.169 595.089C587.484 594.295 587.953 593.813 587.953 593.813C587.953 593.813 587.003 595.011 584.868 594.711C582.733 594.412 575.599 592.16 575.599 592.16C575.599 592.16 564.989 590.012 564.585 573.596C564.585 573.596 569.181 580.613 572.865 581.797C572.865 581.797 571.772 581.68 572.37 580.248C572.37 580.248 574.167 583.216 574.649 583.698C574.649 583.698 574.024 570.146 578.085 568.362C578.085 568.362 581.001 561.827 585.623 561.463C585.623 561.463 589.893 545.398 589.112 540.126C589.112 540.126 587.654 531.547 589.867 531.026C590.895 530.779 593.382 537.978 593.382 537.978C594.215 538.329 595.035 537.613 595.985 538.082C596.936 538.551 598.081 537.522 598.459 538.98L598.446 538.993Z" fill="#776D67"/>
<path d="M597.704 543.381C598.114 543.381 598.446 543.048 598.446 542.639C598.446 542.229 598.114 541.896 597.704 541.896C597.294 541.896 596.962 542.229 596.962 542.639C596.962 543.048 597.294 543.381 597.704 543.381Z" fill="black"/>
<path d="M594.658 543.381C595.067 543.381 595.4 543.048 595.4 542.639C595.4 542.229 595.067 541.896 594.658 541.896C594.248 541.896 593.916 542.229 593.916 542.639C593.916 543.048 594.248 543.381 594.658 543.381Z" fill="black"/>
<path d="M598.446 546.843C597.99 545.672 597.222 544.865 595.399 545.047C593.577 545.229 593.408 545.932 593.408 545.932C593.408 545.932 593.889 548.106 595.399 549.004C596.91 549.903 598.446 546.843 598.446 546.843Z" fill="black"/>
<path d="M597.847 551.152C597.847 551.152 597.574 557.453 596.949 557.831C596.324 558.208 593.916 558.625 593.903 555.774C593.89 552.923 593.395 551.361 593.395 551.361L595.921 550.072L597.847 551.139V551.152Z" fill="black"/>
<path d="M599.071 549.72C599.214 552.207 596.78 551.842 595.491 550.528L596.467 550.397C595.439 552.285 592.783 552.467 591.416 550.879C590.948 550.463 590.843 549.512 591.429 549.161C591.026 550.332 592.458 550.593 593.239 550.762C594.423 550.957 595.296 550.02 595.842 549.109C596.884 550.098 598.082 551.803 599.084 549.707L599.071 549.72Z" fill="black"/>
<path d="M597.704 552.689C597.704 552.689 598.042 554.85 597.704 555.93C597.365 557.011 596.506 557.636 595.399 557.284C594.293 556.933 592.431 555.67 593.915 552.337C593.915 552.337 595.738 551.803 595.608 553.873C595.608 553.873 596.063 552.168 597.704 552.702V552.689Z" fill="#F387A9"/>
<path d="M588.5 564.978C587.615 566.566 586.352 568.323 586.586 570.198C586.794 572.073 587.302 573.96 587.81 575.809H586.925C587.276 574.377 587.732 572.684 587.484 571.278L588.526 571.122C588.903 574.911 589.203 578.699 589.216 582.526C589.216 583.958 589.19 585.455 588.708 586.848C588.226 589.126 588.2 591.496 588.2 593.839L587.719 593.735C588.435 592.589 589.021 591.196 590.505 590.832C592.119 590.962 592.054 593.149 592.08 594.347L591.65 594.282C591.963 593.227 592.601 591.899 593.915 591.964L593.694 592.342C589.112 585.325 592.197 581.55 593.994 574.715L594.788 570.615L595.282 574.767C595.764 579.115 596.142 583.463 596.272 587.838C596.246 589.426 596.467 590.832 596.024 592.433L595.387 591.743C596.05 591.509 596.688 591.3 597.365 591.131C601.375 590.012 600.763 591.834 599.852 594.854L599.526 594.477C600.399 594.347 601.336 594.06 602 593.487C602.742 592.889 602.755 591.847 602.338 591.04L602.455 590.975C602.976 591.808 603.015 593.019 602.247 593.748C601.518 594.477 600.581 594.828 599.617 595.063L599.162 595.18C599.461 594.034 599.865 592.798 599.735 591.613C599.735 591.626 599.761 591.665 599.761 591.665C599.761 591.665 599.617 591.626 599.487 591.639C597.938 591.769 596.311 592.511 594.84 593.071L595.126 592.016C595.386 589.686 594.853 585.989 594.736 583.607L593.981 574.95L595.282 575.015C594.579 578.139 593.004 580.795 592.327 583.659C591.533 586.718 592.77 589.921 594.345 592.524C593.733 592.407 593.121 592.498 592.718 593.084C592.119 593.8 591.846 595.258 591.546 596.13C592.106 590.519 590.309 589.413 587.719 594.854C587.576 591.691 587.367 588.475 588.096 585.351C588.226 582.565 587.992 579.714 587.823 576.915C587.719 575.028 587.602 573.14 587.445 571.252L588.487 571.096C588.799 573.4 587.953 575.535 587.263 577.67C586.938 576.264 586.547 574.65 586.3 573.231C586.105 571.773 585.675 570.224 586.118 568.766C586.625 567.36 587.471 566.136 588.357 564.965L588.461 565.043L588.5 564.978Z" fill="#B5ACA5"/>
<path d="M579.205 570.042C579.452 567.907 581.171 566.214 583.228 567.868C584.777 569.118 585.324 571.057 585.48 572.841C585.961 578.452 581.47 582.396 579.114 586.926C578.749 587.616 578.515 588.567 578.801 588.736C581.509 590.025 587.628 586.809 587.953 591.717C587.992 592.824 587.706 593.8 587.276 594.763C586.209 594.959 585.076 595.076 583.996 595.232C584.751 594.152 586.183 592.264 584.712 591.183L584.764 591.066C585.48 591.301 585.87 592.134 585.792 592.863C585.753 593.605 585.506 594.269 585.167 594.933L584.751 594.334C585.428 594.152 586.105 593.956 586.795 593.8L586.417 594.112C586.664 593.383 586.795 592.55 586.703 591.821C586.586 591.17 586.456 590.624 585.753 590.428C583.774 589.986 581.483 590.598 579.413 590.246C578.958 590.155 578.385 590.051 577.903 589.517C576.445 587.291 580.299 584.023 581.496 582.344C583.826 579.779 584.621 576.16 584.308 572.932C584.152 571.331 583.722 569.651 582.603 568.597C582.043 568.05 581.353 567.738 580.728 568.128C580.09 568.506 579.648 569.313 579.309 570.081L579.179 570.055L579.205 570.042Z" fill="#B5ACA5"/>
<path d="M310.587 568.154C310.587 568.154 322.147 553.535 330.453 554.251C338.759 554.967 348.145 558.768 348.145 558.768C348.145 558.768 353.925 550.697 354.641 548.054C355.357 545.412 355.904 537.47 355.904 537.47C355.904 537.47 349.225 540.36 349.225 543.251C349.225 546.141 342.182 538.551 343.094 534.229C343.094 534.229 346.348 534.047 348.509 532.237C350.67 530.428 353.56 525.923 354.472 526.822C355.383 527.72 358.442 531.052 358.442 531.052C358.442 531.052 360.069 531.326 363.311 528.618C366.565 525.91 370.354 525.728 370.354 525.728L367.646 528.254C367.646 528.254 373.061 526.444 373.244 530.063C373.244 530.063 378.113 526.991 379.922 528.071C381.732 529.152 382.63 539.983 387.499 540.881C387.499 540.881 386.236 542.144 383.164 542.326L383.71 544.604C383.71 544.604 379.193 544.136 377.397 540.347C377.397 540.347 378.659 546.661 378.477 551.543C378.295 556.425 379.922 558.586 379.922 558.586C379.922 558.586 377.032 558.039 376.498 556.959C375.965 555.878 374.871 579.168 373.608 585.664C373.608 585.664 375.769 590.363 378.126 590.715C380.482 591.066 385.351 590.168 387.512 590.715C389.673 591.262 390.402 597.211 390.402 598.122H387.876C387.876 598.122 387.694 599.151 386.249 599.723C384.804 600.296 376.316 597.38 376.316 597.38C376.316 597.38 377.214 600.778 376.316 601.624C375.418 602.47 372.163 601.624 372.163 601.624C372.163 601.624 370.354 604.488 368.375 603.473C366.396 602.457 350.319 602.054 347.975 601.624C345.632 601.195 343.107 601.195 343.276 596.873C343.276 596.873 340.568 598.265 334.072 599.737C334.072 599.737 335.517 600.426 334.072 601.624C332.627 602.822 307.281 602.588 307.281 602.588L310.6 568.154H310.587Z" fill="#776D67"/>
<path d="M363.623 541.701C364.421 541.701 365.068 540.792 365.068 539.67C365.068 538.549 364.421 537.639 363.623 537.639C362.825 537.639 362.178 538.549 362.178 539.67C362.178 540.792 362.825 541.701 363.623 541.701Z" fill="#030203"/>
<path d="M372.163 540.686C372.961 540.686 373.608 539.777 373.608 538.655C373.608 537.534 372.961 536.624 372.163 536.624C371.365 536.624 370.718 537.534 370.718 538.655C370.718 539.777 371.365 540.686 372.163 540.686Z" fill="#030203"/>
<path d="M344.577 579.819C343.901 582.943 341.687 585.56 341.466 588.606L340.893 588.372C341.297 587.421 342.26 586.614 343.145 586.041L343.054 587.278C342.963 589.921 342.768 592.655 342.898 595.31L342.781 595.349C341.661 593.54 341.427 591.275 341.622 589.192C341.714 588.489 341.792 587.812 341.961 587.109L342.794 587.669C342.338 587.89 341.818 588.267 341.427 588.71L340.321 589.947C341.167 587.994 341.531 585.872 341.922 583.802C342.429 582.266 343.25 580.821 344.473 579.74L344.577 579.819Z" fill="#B5ACA5"/>
<path d="M357.179 585.664C357.127 588.15 356.567 591.092 354.094 592.433L354.276 591.548C358.051 593.722 363.571 594.881 367.854 593.878C369.078 593.618 370.236 593.37 371.551 593.344C372.814 593.318 374.311 593.67 375.327 594.776C377.514 597.536 376.915 601.819 372.632 601.338L372.866 600.635C373.504 598.786 373.27 596.378 371.044 595.831L371.07 595.701C373.712 595.727 374.559 598.786 373.921 600.96L373.4 600.244C375.808 600.127 375.34 597.003 374.298 595.662C371.734 593.227 367.464 595.323 364.287 594.685C362.126 594.477 359.093 594.399 356.984 593.956C355.435 593.631 354.003 593.032 352.857 591.782C354.159 591.301 355.161 590.428 355.812 589.048C356.372 587.968 356.724 586.835 357.062 585.651L357.179 585.69V585.664Z" fill="#B5ACA5"/>
<path d="M366.891 592.004C369.286 590.48 371.343 588.593 372.489 586.002C373.712 588.345 375.743 590.598 378.477 590.988C381.38 591.678 387.355 588.293 387.382 593.358C387.382 594.256 387.186 595.102 386.874 595.909L386.744 595.883C386.744 595.05 386.705 594.204 386.548 593.436C386.21 591.522 385.064 591.691 383.424 592.004C382.187 592.212 380.846 592.29 379.571 592.225C377.292 592.056 375.6 590.376 373.999 588.97C373.374 588.398 372.723 587.864 372.124 587.2L372.931 587.083C372.267 589.804 369.534 591.613 366.93 592.134L366.891 592.017V592.004Z" fill="#B5ACA5"/>
<path d="M366.292 565.316C366.188 565.473 366.24 569.521 367.737 569.821C369.234 570.12 371.265 565.928 371.265 565.928C371.265 565.928 370.718 564.014 368.766 564.275C366.813 564.535 366.292 565.316 366.292 565.316Z" fill="#030203"/>
<path d="M318.763 571.122C321.47 568.844 325.063 567.061 328.734 567.751C333.148 568.675 335.999 572.763 333.421 576.954C333.187 576.577 332.653 575.783 332.406 575.392L333.148 575.145C332.9 578.152 331.585 580.912 329.997 583.411C328.188 585.442 326.456 587.551 324.777 589.686C323.514 591.366 321.353 593.93 320.338 595.727C320.234 595.896 320.312 595.857 320.234 595.922L319.739 595.31C322.525 595.779 325.506 595.896 328.279 595.258C331.794 594.295 332.809 597.692 332.301 600.504L331.546 599.879C333.03 599.307 335.244 598.421 335.608 596.755C335.738 594.685 333.187 594.269 331.546 594.464L331.52 594.334C332.484 594.099 333.499 594.021 334.502 594.334C336.194 594.724 336.975 597.042 335.751 598.369C334.593 599.866 332.796 600.608 331.091 601.298L331.182 600.335C331.26 598.812 331.273 596.469 329.424 596.482C327.498 596.833 325.467 597.211 323.514 597.028C321.965 596.963 320.442 596.729 318.906 596.404C318.971 595.701 319.257 595.063 319.531 594.672C321.574 591.717 324.478 588.788 326.912 586.132C329.971 583.255 332.354 579.506 332.314 575.132L332.288 573.882C332.64 574.364 333.369 575.275 333.72 575.744L332.952 575.796C334.358 572.58 331.638 569.417 328.5 568.727C324.933 567.868 321.692 569.755 318.75 571.083L318.763 571.122Z" fill="#B5ACA5"/>
<path d="M366.969 542.808C366.969 542.808 369.208 540.829 370.718 542.274C372.228 543.719 374.337 544.63 374.337 544.63C374.337 544.63 377.852 543.381 380.951 548.028C384.049 552.676 380.469 560.565 380.469 560.565L376.134 558.69C376.134 558.69 369.143 565.316 367.164 565.16C367.164 565.16 364.977 567.334 365.081 568.545C365.081 568.545 363.832 563.468 364.795 560.369C364.795 560.369 362.66 561.632 362.855 562.687C362.855 562.687 360.824 557.805 361.749 555.136C361.749 555.136 359.093 558.521 359.861 560.695C359.861 560.695 356.528 554.889 360.681 548.796C360.681 548.796 363.337 545.359 365.758 545.216C365.758 545.216 366.24 543.316 366.969 542.795V542.808Z" fill="#B5ACA5"/>
<path d="M363.623 546.284C363.623 546.284 370.979 543.433 372.957 543.719C374.936 544.005 374.65 546.14 374.311 547.156C373.973 548.171 370.341 553.209 369.325 553.391C369.325 553.391 364.925 552.025 363.623 546.284Z" fill="#030203"/>
<path d="M369.482 553.834C369.482 553.834 368.479 559.627 365.368 560.317C365.368 560.317 370.224 559.692 370.015 561.814C370.015 561.814 374.923 558.299 376.004 559.979L376.134 558.677C376.134 558.677 371.851 560.408 369.482 553.834Z" fill="#030203"/>
<path d="M366.917 560.239C366.917 560.239 367.06 569.417 370.393 570.055C373.725 570.693 375.197 559.549 375.197 559.549C375.197 559.549 373.036 558.482 371.057 561.541C371.057 561.541 371.695 559.849 366.917 560.252V560.239Z" fill="#F387A9"/>
<path d="M282.871 452.709C282.871 452.709 279.786 452.891 275.907 451.472C272.027 450.053 271.155 454.375 271.155 454.375C271.155 454.375 265.57 451.915 263.956 453.047C262.342 454.18 259.087 463.709 255.117 466.612C251.146 469.515 257.056 474.749 257.056 474.749L256.874 473.121C256.874 473.121 258.202 475.855 259.777 475.673C261.352 475.491 263.943 466.951 263.943 466.951C263.943 466.951 267.354 471.702 264.36 483.51C261.365 495.317 254.14 519.271 256.692 533.018L258.28 531.17C258.28 531.17 256.34 542.092 265.063 558.573C265.063 558.573 268.76 563.949 270.439 567.998C272.118 572.047 272.47 605.347 269.476 608.875L314.05 607.99C314.05 607.99 315.287 608.693 315.899 603.85C315.899 603.85 331.403 582.357 330.349 555.67C329.294 528.982 315.899 531.703 315.899 531.703C315.899 531.703 324.53 543.862 324.972 550.814C325.415 557.766 323.124 576.538 318.19 576.889C318.19 576.889 319.583 562.999 305.237 543.237C292.062 525.09 292.557 506.474 292.817 486.4C292.817 486.4 300.394 485.007 300.745 477.248C301.097 469.502 298.545 467.953 298.454 467.315C298.363 466.677 297.126 459.01 297.699 456.107C298.272 453.203 293.598 455.846 293.598 455.846C293.598 455.846 292.635 451.967 289.107 451.876C285.579 451.785 282.845 452.67 282.845 452.67L282.871 452.709Z" fill="#F4D19D"/>
<path d="M284.408 466.091C284.408 466.091 294.692 464.477 296.71 465.089C298.728 465.701 297.517 470.531 294.497 472.757C291.477 474.983 289.25 474.774 289.25 474.774C289.25 474.774 283.106 472.353 284.408 466.104V466.091Z" fill="#070404"/>
<path d="M276.467 459.218C276.467 459.218 274.553 459.439 275.061 463.618C275.568 467.797 277.143 467.341 277.143 467.341C277.143 467.341 278.667 467.406 278.615 463.292C278.562 459.179 276.48 459.231 276.48 459.231L276.467 459.218Z" fill="#070404"/>
<path d="M287.844 464.568C287.844 464.568 287.962 460.168 289.537 460.233C291.112 460.298 290.227 462.433 289.537 463.957C288.847 465.48 287.844 464.581 287.844 464.581V464.568Z" fill="#070404"/>
<path d="M264.086 530.05C264.568 534.515 265.011 538.902 266.534 543.094C269.762 550.059 277.651 552.598 284.811 553.405V553.535C278.836 554.511 271.923 552.428 268.448 547.208C265.154 542.339 262.238 535.752 264.086 530.05Z" fill="#C1883D"/>
<path d="M283.718 550.02C286.243 554.941 288.678 559.953 289.823 565.407L289.771 566.319C287.831 577.996 286.334 589.777 282.572 601.064C282.702 596.924 283.926 592.264 284.629 588.02C285.879 581.55 287.87 575.223 288.925 568.714C289.068 567.685 289.185 566.566 289.107 565.537C287.389 560.46 284.772 555.136 283.705 550.033L283.718 550.02Z" fill="#C1883D"/>
<path d="M296.411 536.468C303.401 560.2 297.66 585.143 290.162 608.029L290.032 608.003C291.125 602.015 292.57 596.13 293.924 590.22C295.838 581.394 298.767 572.62 299.144 563.559C298.936 554.537 296.996 545.255 296.424 536.468H296.411Z" fill="#C1883D"/>
<path d="M311.343 566.891C310.184 564.34 307.841 560.799 304.638 562.14C303.87 562.491 303.219 563.376 302.712 564.262C300.668 567.972 299.366 572.255 298.858 576.499C298.324 580.821 298.637 585.195 299.092 589.478C299.587 593.774 300.551 597.979 301.865 602.08L302.204 603.147C299.379 602.431 295.057 601.884 293.612 605.113C293.182 605.985 293.169 607 293.13 608.003H293C291.841 602.548 296.879 600.804 301.397 601.676L300.668 602.496C297.478 594.217 297.257 585.117 298.442 576.447C299.066 572.099 299.457 567.594 301.696 563.663C305.042 557.922 310.405 561.775 311.447 566.852L311.317 566.891H311.343Z" fill="#C1883D"/>
<path d="M318.607 578.933C319.687 581.263 319.479 583.776 318.945 586.171C318.724 588.593 318.971 591.092 318.177 593.448C317.708 595.011 316.966 596.508 315.964 597.823L315.847 597.77C316.354 594.594 317.253 591.548 318.125 588.501C319.049 585.364 317.76 582.227 318.476 578.959L318.607 578.933Z" fill="#C1883D"/>
<path d="M307.32 603.837C306.435 603.876 305.745 603.746 305.081 603.485C304.495 603.095 303.662 602.756 303.076 603.342C302.074 604.397 302.191 605.777 301.514 607.039H301.384C300.381 605.581 300.785 602.965 302.803 602.665C303.714 602.639 304.443 602.496 305.328 602.418C306.161 602.509 306.903 602.952 307.385 603.72L307.32 603.837Z" fill="#C1883D"/>
<path d="M296.996 608.055C296.189 607.704 295.668 606.857 295.772 605.946C296.007 605.087 296.593 604.527 296.983 603.733C297.881 602.275 299.665 601.741 301.266 602.223L301.292 602.353C300.095 603.421 298.858 603.707 297.478 604.267C296.723 604.527 296.567 605.321 296.866 605.959C296.97 606.545 297.048 607.131 297.1 607.977L296.996 608.055Z" fill="#C1883D"/>
<path d="M276.779 480.542C276.779 480.542 281.322 489.082 286.894 485.215C286.894 485.215 287.871 484.447 288.717 481.57C289.12 480.177 289.511 478.303 289.732 475.79C289.732 475.79 288.769 485.541 292.817 486.439C292.817 486.439 291.138 489.199 289.12 496.32C287.102 503.441 282.507 501.696 282.507 501.696C282.507 501.696 280.398 500.811 280.919 497.465C281.44 494.12 279.864 485.658 279.864 485.658L276.779 480.555V480.542Z" fill="#070404"/>
<path d="M282.26 489.42C282.26 489.42 283.392 495.33 283.496 497.817C283.601 500.303 284.343 503.219 286.764 502.66C289.185 502.1 290.93 499.561 291.438 494.497C291.945 489.433 290.136 486.439 290.136 486.439C290.136 486.439 288.274 486.387 287.832 488.014C287.832 488.014 288.795 490.826 288.118 492.857C288.118 492.857 287.441 488.86 285.475 486.947C285.475 486.947 282.156 486.322 282.26 489.42Z" fill="#F387A9"/>
<path d="M265.896 493.638L256.406 499.952L265.115 492.596L265.896 493.638Z" fill="#F4D19D"/>
<path d="M256.484 505.497C258.411 504.495 260.246 502.243 260.272 500.121L261.574 500.173C261.092 502.738 258.84 504.716 256.484 505.51V505.497Z" fill="#F4D19D"/>
<path d="M255.664 511.16C256.848 510.484 257.786 509.507 258.384 508.401L259.4 509.208C258.319 510.223 257.004 510.887 255.664 511.16Z" fill="#F4D19D"/>
<path d="M258.593 494.81C259.816 493.99 261.665 493.456 262.316 492.128L263.37 492.883C262.042 494.328 260.246 494.263 258.58 494.81H258.593Z" fill="#F4D19D"/>
<path d="M261.743 486.387C262.771 486.074 263.696 485.567 264.464 484.942L265.05 486.1C263.943 486.413 262.81 486.504 261.743 486.387Z" fill="#F4D19D"/>
<path d="M258.463 516.107L255.573 517.943C254.674 518.529 253.516 519.245 253.672 520.468C253.268 519.284 254.375 518.177 255.156 517.448L257.707 515.053L258.463 516.12V516.107Z" fill="#F4D19D"/>
<path d="M257.434 520.664C256.184 522.434 255.325 524.543 254.948 526.782C254.882 524.517 255.338 522.187 256.288 520.026L257.421 520.664H257.434Z" fill="#F4D19D"/>
<path d="M257.968 528.371C257.135 529.256 256.471 530.362 256.08 531.573C255.651 532.784 255.703 534.203 255.104 535.374C255.52 534.112 255.208 532.797 255.455 531.43C255.664 530.076 256.171 528.748 256.952 527.576L257.981 528.384L257.968 528.371Z" fill="#F4D19D"/>
<path d="M403.693 575.809C403.693 575.809 403.107 573.075 404.631 570.472L402.769 572.008C402.769 572.008 403.706 566.475 405.334 565.069H404.045C404.045 565.069 405.451 561.801 406.258 560.643C407.065 559.484 406.961 557.115 406.844 554.381C406.726 551.647 407.781 548.744 407.781 548.744C407.781 548.744 408.484 545.828 406.844 545.945C406.844 545.945 408.77 544.084 407.924 541.05C407.078 538.017 405.321 536.728 404.045 530.558L405.451 531.144C405.451 531.144 404.631 529.165 404.396 525.311C404.162 521.458 400.66 522.864 400.66 522.864C400.66 522.864 403.693 520.065 406.609 523.215C409.525 526.366 412.207 529.399 412.207 529.399C412.207 529.399 412.676 527.655 414.303 527.537C415.93 527.42 418.274 527.537 418.274 527.537C418.274 527.537 419.445 523.033 421.658 521.731C423.871 520.43 427.373 519.258 427.725 519.141C428.076 519.024 427.1 519.479 425.746 522.877C424.809 525.207 427.152 526.73 424.457 530.571C424.457 530.571 423.989 536.286 426.67 538.733L425.264 539.085C425.264 539.085 427.009 540.829 428.883 543.055L427.477 543.29C427.477 543.29 428.532 544.227 429.925 548.067L428.519 547.481C428.519 547.481 432.138 554.954 432.49 557.401C432.49 557.401 437.384 572.216 435.288 585.156C435.288 585.156 438.907 585.39 438.322 590.168C438.322 590.168 424.796 588.541 420.357 589.465C415.917 590.389 401.35 592.85 401.35 592.85C401.35 592.85 399.137 587.603 400.647 587.018C402.157 586.432 405.542 585.273 405.542 585.273C405.542 585.273 402.626 582.826 403.68 575.822L403.693 575.809Z" fill="black"/>
<path d="M412.559 539.059C412.559 539.059 412.91 537.653 414.186 536.728C415.462 535.804 415.475 532.302 416.165 530.662C416.855 529.022 417.558 530.336 419.25 534.281C420.357 536.846 422.453 536.494 423.038 537.197C423.624 537.9 425.369 539.41 424.327 543.849C424.327 543.849 426.54 546.609 427.243 554.394L426.189 553.34C426.189 553.34 427.36 557.505 427.243 565.199C427.126 572.893 425.954 584.674 425.954 584.674C425.954 584.674 426.866 586.119 431.201 584.674C435.536 583.229 438.374 587.122 438.374 587.122L438.309 590.155C438.309 590.155 427.582 588.892 423.963 589.166C420.344 589.439 404.123 592.837 404.123 592.837C404.123 592.837 401.597 588.489 403.225 587.213C404.852 585.937 411.687 585.846 411.687 585.846C411.687 585.846 407.039 578.725 408.328 573.362C409.617 567.998 410.189 566.045 410.189 566.045L408.562 567.061C408.562 567.061 412.064 560.565 412.533 556.347C412.533 556.347 411.947 557.961 411.244 558.313C410.541 558.664 412.754 551.413 412.988 549.265L415.084 544.552C415.084 544.552 412.754 545.607 412.52 539.072L412.559 539.059Z" fill="#BEE5EE"/>
<path d="M418.795 541.779C418.795 541.779 415.748 541.337 415.527 539.254C415.306 537.171 418.573 538.225 418.795 538.186C419.016 538.147 421.58 537.496 421.724 538.368C421.867 539.241 421.32 540.608 420.031 541.779C420.031 541.779 419.628 544.057 420.513 544.526C421.398 544.995 423.807 544.852 424.067 544.344C424.067 544.344 422.856 545.776 421.945 545.919C421.945 545.919 420.656 552.558 417.623 552.662C414.59 552.767 416.738 546.023 416.738 546.023C416.738 546.023 415.436 546.7 415.11 544.526C415.11 544.526 415.67 545.542 416.92 545.06C418.17 544.578 418.821 544.214 418.938 543.524C419.055 542.834 418.795 541.766 418.795 541.766V541.779Z" fill="black"/>
<path d="M417.584 546.401C417.584 546.401 417.61 551.4 418.092 551.895C418.573 552.389 418.456 552.806 419.589 552.884C420.721 552.962 421.685 547.208 421.346 545.958C421.346 545.958 420.825 545.958 420.435 546.466C420.435 546.466 420.031 547.377 419.81 548.302C419.81 548.302 419.497 546.141 417.571 546.401H417.584Z" fill="#F387A9"/>
<path d="M425.889 566.045C425.655 568.506 423.794 570.563 421.776 571.825L421.893 570.823C421.476 570.484 421.112 570.628 420.904 570.94C420.969 570.745 421.073 570.133 421.112 569.886L422.244 570.263C420.539 572.619 417.597 573.713 414.811 573.791C417.206 573.01 419.784 571.799 421.19 569.651L422.479 567.451C422.362 568.467 422.466 570.745 421.984 571.617C421.737 571.903 421.398 572.06 420.969 571.721L420.37 571.227C422.518 569.808 424.51 568.271 425.889 566.032V566.045Z" fill="#517072"/>
<path d="M413.027 591.131C413.027 591.131 423.338 589.035 423.989 589.166C423.989 589.166 418.677 587.629 421.724 569.977L418.209 572.789C418.209 572.789 415.943 589.83 413.027 591.131Z" fill="#72BAC6"/>
<path d="M417.141 573.804C417.414 575.392 416.855 577.384 417.662 578.777L416.946 579.428L415.839 578.191L416.789 577.905C416.49 581.823 415.67 585.69 414.225 589.348C413.301 592.173 410.736 593.774 408.562 590.91L408.653 591.027C407.885 590.311 407.273 589.556 407.117 588.449C406.935 587.239 408.08 586.21 409.096 585.924L409.356 587.278C407.156 587.434 403.993 588.007 405.164 590.936L405.047 591.001C403.225 588.866 404.995 586.822 407.273 586.249C408.601 585.768 412.598 585.807 414.043 585.69L409.551 587.252C408.979 587.486 408.38 587.72 408.38 588.371C408.393 588.97 408.966 589.764 409.473 590.324C409.799 590.884 410.293 591.483 410.892 591.73C414.407 592.498 414.589 584.726 415.058 582.409C415.188 581.485 415.761 577.384 415.878 576.538C416.321 577.085 417.232 578.282 417.675 578.842L416.959 579.493C416.269 578.491 416.49 577.566 416.568 576.525C416.685 575.613 416.894 574.741 417.011 573.856H417.141V573.804Z" fill="#517072"/>
<path d="M663.276 521.146C662.782 521.146 660.165 506.773 661.962 498.312C661.962 498.312 661.636 491.49 664.747 488.053L666.544 494.276L670.801 496.242C670.801 496.242 674.732 491.334 676.867 491.243C679.002 491.152 672.936 500.746 672.936 500.746C672.936 500.746 673.587 504.69 676.047 505.38C678.508 506.07 684.079 503.128 689.807 502.79C695.535 502.464 698.985 510.822 702.097 512.944C705.208 515.066 709.348 517.045 708.827 519.492C708.306 521.94 689.638 522.604 688.987 522.773C688.336 522.942 685.108 522.122 685.108 522.122L682.439 521.471C682.439 521.471 683.259 523.84 681.944 523.723C680.63 523.606 669.981 524.882 669.981 524.882C669.981 524.882 672.441 531.612 669.811 531.859C667.182 532.107 664.084 526.704 664.084 526.704C664.084 526.704 664.409 530.805 662.769 530.636C661.128 530.467 657.522 525.884 657.848 522.447C658.173 519.011 663.25 521.132 663.25 521.132L663.276 521.146Z" fill="#F1A21F"/>
<path d="M666.025 498.683C666.125 498.338 666.004 498 665.755 497.928C665.507 497.856 665.224 498.078 665.125 498.423C665.025 498.769 665.146 499.107 665.394 499.179C665.643 499.25 665.925 499.029 666.025 498.683Z" fill="black"/>
<path d="M667.117 507.112C667.117 507.112 667.924 508.036 667.664 509.69C667.403 511.343 666.674 511.616 666.453 511.616C666.232 511.616 664.383 511.694 665.073 507.112C665.073 507.112 665.346 506.539 666.231 506.826L667.104 507.112H667.117Z" fill="#E887AA"/>
<path d="M669.645 500.043C669.745 499.698 669.624 499.359 669.376 499.288C669.127 499.216 668.844 499.438 668.745 499.783C668.645 500.128 668.766 500.467 669.015 500.538C669.263 500.61 669.546 500.388 669.645 500.043Z" fill="black"/>
<path d="M665.529 501.67C665.529 501.67 667.416 501.488 667.599 501.957C667.781 502.425 667.195 503.623 666.115 503.558C665.034 503.493 664.266 501.384 665.529 501.67Z" fill="black"/>
<path d="M662.912 502.295C662.912 502.295 662.248 505.094 663.823 505.38C666.062 505.797 665.854 504.04 665.854 504.04C665.854 504.04 665.528 506.76 668.067 506.292C670.605 505.823 670.709 504.951 670.709 504.951C670.709 504.951 669.837 506.435 667.624 507.164C667.624 507.164 669.004 510.471 667.845 511.369C667.845 511.369 667.26 511.447 666.908 511.148C666.908 511.148 668.431 508.713 667.129 507.125C667.129 507.125 666.062 507.229 666.257 508.687C666.257 508.687 665.867 508.947 665.828 507.45C665.828 507.45 665.75 506.656 665.099 507.125C665.099 507.125 665.099 506.669 665.528 506.513L665.06 505.784C665.06 505.784 664.552 505.927 663.862 505.862C663.172 505.797 662.521 505.94 662.925 502.308L662.912 502.295Z" fill="black"/>
<path d="M676.047 505.394C676.047 505.394 677.349 506.045 677.675 506.839C678 507.633 678.872 507.958 678.872 507.958C678.872 507.958 678.651 508.388 677.206 507.164C675.761 505.941 676.034 506.292 674.902 504.756L676.06 505.407L676.047 505.394Z" fill="#8B5924"/>
<path d="M685.694 509.468C685.694 509.468 681.918 511.642 681.997 514.48L682.504 514.22C682.504 514.22 682.83 519.44 687.477 519.583C687.477 519.583 684.939 520.013 684.743 521.835L685.121 522.122L685.72 522.265C685.72 522.265 684.574 521.679 686.032 520.625C686.032 520.625 685.525 521.653 686.54 522.447C686.54 522.447 686.071 520.768 687.49 520.299C688.909 519.831 691.37 520.299 692.711 520.078C694.051 519.857 695.835 519.466 696.551 518.802C696.551 518.802 696.629 519.089 694.767 518.985C692.906 518.88 694.507 518.112 694.507 518.112C694.507 518.112 694.038 518.62 690.732 518.802C687.425 518.984 685.512 518.802 684.236 516.667C682.96 514.532 682.283 514.025 685.681 509.442L685.694 509.468Z" fill="#8B5924"/>
<path d="M670.463 517.956C670.463 517.956 672.311 518.932 672.415 520.208C672.415 520.208 665.594 520.612 664.578 522.239C663.563 523.866 664.084 526.717 664.084 526.717C664.084 526.717 662.287 522.851 663.159 522.018C664.032 521.185 665.958 520.39 667.039 520.273C668.119 520.156 670.918 519.844 670.918 519.844C670.918 519.844 671.829 518.906 670.449 517.956H670.463Z" fill="#8B5924"/>
<path d="M667.299 529.022C667.299 529.022 667.768 530.805 668.718 530.948C669.668 531.091 669.408 530.154 669.408 530.154L668.861 529.035C668.861 529.035 670.02 530.232 670.241 529.646C670.463 529.061 670.502 528.956 670.502 528.123C670.502 528.123 671.283 529.1 671.035 530.154C670.788 531.209 670.619 531.755 669.838 531.873C669.057 531.99 667.351 531.599 667.312 529.022H667.299Z" fill="#8B5924"/>
<path d="M663.471 525.194C663.471 525.194 664.214 528.019 663.315 527.902C662.417 527.785 662.443 525.585 662.443 525.585C662.443 525.585 662.586 528.267 662.339 528.631C662.092 528.996 661.467 528.735 661.219 527.108C661.219 527.108 661.662 528.983 661.402 529.321C661.141 529.66 660.594 529.087 660.594 529.087C660.594 529.087 662.131 531.053 663.224 530.584C664.318 530.115 664.604 527.642 663.498 525.194H663.471Z" fill="#8B5924"/>
<path d="M679.158 516.915C679.158 516.915 680.46 517.969 681.293 518.802H680.682C680.682 518.802 681.97 520 682.439 521.484C682.439 521.484 682.725 522.603 681.345 522.968C681.345 522.968 682.751 521.731 680.812 520.104C678.872 518.477 679.458 517.93 679.158 516.915Z" fill="#8B5924"/>
<path d="M701.576 512.84C701.576 512.84 701.172 513.999 702.448 515.092C703.724 516.186 705.169 517.045 703.685 517.956C703.685 517.956 704.844 517.995 704.778 516.615C704.713 515.235 703.073 515.457 702.422 514.324C701.771 513.192 701.589 512.84 701.589 512.84H701.576Z" fill="#8B5924"/>
<path d="M691.617 516.472C691.617 516.472 690.68 515.353 688.076 515.73C685.473 516.108 680.812 525.78 680.812 525.78C680.812 525.78 681.749 528.202 683.611 530.805C685.473 533.409 689.378 527.459 689.573 525.962C689.573 525.962 689.573 537.262 688.636 542.873C687.699 548.497 685.095 555.201 689.756 561.906C694.416 568.61 692.177 593.865 691.617 595.206C691.617 595.206 685.85 596.586 685.095 598.617C684.34 600.648 686.722 603.199 686.722 603.199L699.064 602.666C699.064 602.666 699.246 604.449 705.026 603.199C710.806 601.95 710.051 601.208 710.051 601.208C710.051 601.208 711.535 603.095 714.894 602.614C718.252 602.132 729.422 598.617 729.422 598.617C729.422 598.617 746.033 595.245 746.671 569.547C746.671 569.547 739.485 580.535 733.705 582.396C733.705 582.396 735.423 582.214 734.473 579.975C734.473 579.975 731.661 584.635 730.906 585.377C730.906 585.377 731.895 564.145 725.53 561.359C725.53 561.359 720.96 551.114 713.735 550.554C713.735 550.554 708.749 529.321 709.491 525.975C709.491 525.975 709.973 529.139 713.735 529.516L716.378 522.63C715.818 519.831 712.095 514.363 710.415 512.996C708.736 511.629 706.692 515.183 706.692 515.183C706.692 515.183 704.453 511.278 703.151 511.838C701.849 512.397 699.806 513.699 698.308 514.441C696.811 515.183 693.466 512.762 691.604 516.485L691.617 516.472Z" fill="#592D29"/>
<path d="M694.781 522.2C695.421 522.2 695.939 521.681 695.939 521.041C695.939 520.402 695.421 519.883 694.781 519.883C694.141 519.883 693.622 520.402 693.622 521.041C693.622 521.681 694.141 522.2 694.781 522.2Z" fill="black"/>
<path d="M699.558 522.2C700.198 522.2 700.717 521.681 700.717 521.041C700.717 520.402 700.198 519.883 699.558 519.883C698.918 519.883 698.4 520.402 698.4 521.041C698.4 521.681 698.918 522.2 699.558 522.2Z" fill="black"/>
<path d="M693.622 527.628C694.325 525.793 695.549 524.53 698.387 524.804C701.225 525.077 701.511 526.196 701.511 526.196C701.511 526.196 700.756 529.594 698.387 531.013C696.017 532.432 693.622 527.628 693.622 527.628Z" fill="black"/>
<path d="M694.546 534.385C694.546 534.385 694.976 544.266 695.939 544.852C696.903 545.438 700.691 546.102 700.704 541.636C700.717 537.171 701.511 534.724 701.511 534.724L697.567 532.706L694.546 534.385Z" fill="black"/>
<path d="M692.633 532.146C693.713 535.01 695.497 533.955 697.137 532.263L697.671 531.755C699.103 534.307 701.576 534.802 704.023 533.265C704.726 532.836 705.039 532.055 704.622 531.287C705.429 531.885 705.234 533.213 704.505 533.825C702.357 536.051 698.621 535.817 697.033 533.044L698.009 533.174C696.056 535.153 692.776 535.856 692.646 532.159L692.633 532.146Z" fill="black"/>
<path d="M694.781 536.794C694.781 536.794 694.247 540.178 694.781 541.871C695.314 543.563 696.668 544.552 698.387 543.98C700.105 543.407 703.034 541.441 700.717 536.234C700.717 536.234 697.853 535.388 698.061 538.629C698.061 538.629 697.358 535.947 694.781 536.794Z" fill="#F387A9"/>
<path d="M709.322 555.93C710.676 557.779 711.978 559.705 712.733 561.905C713.384 564.171 712.707 566.566 712.381 568.805C712.017 570.797 711.509 572.88 711.027 574.858C710.09 571.877 709.009 568.753 709.465 565.576L710.507 565.733C710.064 571.63 709.621 577.566 709.465 583.477C709.439 584.948 709.4 586.432 709.53 587.864C709.738 589.348 710.207 590.754 710.259 592.251C710.52 595.57 710.402 598.864 710.259 602.158L709.817 601.298C705.95 593.956 703.542 596.911 704.193 603.694C703.633 601.78 702.891 598.382 700.248 598.89C701.967 596.13 703.216 593.006 703.672 589.803C704.089 586.731 703.373 583.62 702.891 580.573C701.758 574.403 700.248 568.323 698.894 562.153L700.196 562.075C699.793 568.167 698.79 583.607 698.53 589.491C698.452 592.329 698.152 595.61 698.517 598.395L698.738 599.424L697.879 599.098C695.835 598.447 693.505 597.237 691.383 597.562C691.044 599.124 691.695 600.947 692.073 602.522L692.203 602.991C689.964 602.548 686.944 601.507 686.722 598.851C686.657 598.07 686.983 597.354 687.295 596.677L687.412 596.742C686.761 598.044 686.748 599.671 687.92 600.674C688.974 601.624 690.446 602.08 691.838 602.327L691.513 602.704C691.005 601.012 690.406 599.281 690.563 597.484C690.602 597.263 690.758 597.015 690.94 596.911C691.305 596.677 691.617 596.677 691.917 596.651C694.169 596.716 696.16 597.445 698.243 598.148L697.606 598.838C697.319 597.875 697.358 597.146 697.293 596.352C697.176 584.869 698.074 573.413 698.894 561.97L699.272 557.401L700.196 561.892C701.459 568.024 702.917 574.169 703.906 580.404C704.349 583.542 704.948 586.744 704.414 589.921C703.867 593.084 702.618 596.065 700.912 598.76L700.691 598.382C701.628 598.304 702.487 598.864 703.008 599.593C703.542 600.296 703.88 601.09 704.115 601.923L703.698 601.988C703.49 599.736 704.388 594.698 707.512 597.328C708.697 598.382 709.517 599.723 710.272 601.103L709.791 601.207C709.882 596.768 709.738 592.277 708.58 587.994C707.968 580.534 708.84 573.075 709.439 565.655L710.48 565.811C710.09 568.128 710.806 570.732 711.392 573.023L710.507 573.036C711.392 568.792 713.605 564.118 711.431 559.94C710.793 558.573 710.025 557.271 709.205 555.995L709.309 555.917L709.322 555.93Z" fill="black"/>
<path d="M723.577 564.014C722.718 561.541 720.674 559.055 718.213 561.489C713.071 566.931 715.245 578.022 720.023 583.307C721.741 585.69 727.6 591.21 725.491 594.243C724.853 594.959 724.033 595.128 723.33 595.258C721.26 595.571 719.151 595.297 717.12 595.258C715.375 595.297 713.188 594.92 712.121 596.391C711.223 598.005 711.561 600.062 712.134 601.767L711.756 601.455C712.824 601.689 713.891 601.963 714.959 602.223L714.542 602.822C714.022 601.832 713.605 600.804 713.527 599.684C713.384 598.565 713.93 597.341 715.011 596.925L715.063 597.042C712.785 598.513 714.568 601.481 715.714 603.147C714.243 602.913 712.746 602.692 711.288 602.418L711.184 602.158C710.077 599.645 709.621 595.232 712.915 594.204C715.74 593.423 718.448 594.061 721.221 594.113C722.718 594.113 725.412 594.256 724.801 592.056C722.913 586.289 717.55 582.305 715.584 576.512C714.087 572.685 713.566 568.193 715.167 564.275C715.922 562.335 717.419 560.265 719.593 559.797C722.028 559.302 723.343 562.01 723.707 563.988L723.577 564.014Z" fill="black"/>
<path d="M732.924 454.987C732.924 454.987 721.468 473.98 721.767 490.566L724.787 485.137C724.787 485.137 721.168 497.491 727.352 507.151C727.352 507.151 718.76 516.199 725.1 532.172L731.427 548.145L732.937 543.315C732.937 543.315 742.284 568.636 741.984 579.493C741.685 590.35 739.576 597.888 738.665 598.786C738.665 598.786 733.236 597.276 730.528 598.786C730.528 598.786 722.392 599.684 726.909 608.432C726.909 608.432 729.136 609.253 730.372 608.432C730.372 608.432 730.021 611.049 733.9 608.797C733.9 608.797 736.894 610.424 738.131 607.964C738.131 607.964 740.071 610.073 742.713 608.315C742.713 608.315 744.653 610.424 747.114 608.315C747.114 608.315 749.574 609.721 752.399 608.133H799.447C799.447 608.133 799.798 545.945 791.87 537.835C783.942 529.724 766.498 510.874 765.261 506.656C765.261 506.656 765.795 506.656 766.498 496.268L767.383 500.668C767.383 500.668 771.614 488.34 769.323 477.235C767.031 466.131 761.928 455.742 761.928 455.742C761.928 455.742 770.208 447.462 766.511 435.303C766.511 435.303 767.565 433.194 768.62 433.194C768.62 433.194 763.686 426.152 748.715 452.93C748.715 452.93 744.132 453.633 741.49 452.045C741.49 452.045 740.787 429.315 730.034 426.152C730.034 426.152 732.143 428.261 732.143 429.68V431.086C732.143 431.086 720.895 442.255 732.95 455L732.924 454.987Z" fill="#99BFBF"/>
<path d="M739.003 465.076C739.003 465.076 736.751 464.087 736.608 461.405C736.465 458.723 738.248 457.877 739.003 458.202C739.758 458.528 740.696 462.772 739.003 465.076Z" fill="black"/>
<path d="M749.665 466.391C749.665 466.391 751.852 465.558 751.983 463.293C752.113 461.027 750.394 460.311 749.665 460.585C748.936 460.858 748.025 464.451 749.665 466.391Z" fill="black"/>
<path d="M743.898 467.055C743.898 467.055 738.613 466.066 736.595 466.729C734.577 467.393 732.091 468.656 732.182 469.789C732.273 470.921 735.241 475.387 739.237 476.428C739.237 476.428 740.136 477.131 741.164 476.858C742.193 476.584 746.293 471.403 745.304 468.201C745.304 468.201 745.122 468.956 744.315 469.372C743.507 469.789 736.087 470.973 734.955 470.075C733.822 469.177 736.23 467.823 737.545 467.576C738.86 467.328 743.898 467.055 743.898 467.055Z" fill="black"/>
<path d="M731.713 475.335C731.713 475.335 729.123 481.453 731.713 484.135C734.304 486.817 736.556 485.307 736.556 485.307C736.556 485.307 740.423 486.53 740.37 478.107C740.37 478.107 741.763 484.369 745.461 484.877C749.158 485.385 752.217 478.576 752.36 477.873C752.503 477.17 752.686 475.374 752.647 475.517C752.608 475.66 753.441 478.902 751.045 481.779C751.045 481.779 751.28 482.768 750.108 484.786C748.936 486.804 745.734 493.065 746.111 494.615C746.489 496.164 748.507 502.191 747.57 502.985C746.632 503.779 740.475 512.606 738.626 493.951C738.626 493.951 736.087 490.332 735.892 486.752C735.892 486.752 731.466 487.923 729.735 481.388C729.735 481.388 729.735 476.819 731.713 475.322V475.335Z" fill="black"/>
<path d="M744.21 547.807C746.541 553.105 748.871 558.247 751.644 563.298C752.62 565.85 752.269 568.649 752.152 571.252C751.852 575.431 751.423 579.597 750.798 583.737C750.082 588.085 749.209 592.394 748.064 596.664C746.736 596.339 745.2 596.312 743.924 596.872C741.581 597.953 741.138 600.921 741.112 603.264C741.151 604.527 741.451 605.868 742.31 606.857L742.232 606.961C739.355 604.332 739.745 597.627 743.377 595.766C744.744 595.076 746.215 594.959 747.699 595.206L746.892 595.701C747.882 591.678 748.884 587.616 749.756 583.555C751.019 577.566 752.607 571.187 751.227 565.108C750.707 563.181 749.183 561.541 748.415 559.666C746.749 555.917 744.796 551.673 744.21 547.82V547.807Z" fill="#2E4948"/>
<path d="M747.309 563.169C745.174 563.129 743.716 561.411 742.623 559.797C741.282 558.404 739.55 557.362 738.418 555.774C737.65 554.733 736.999 553.613 736.556 552.337L736.66 552.259C739.472 554.082 740.8 557.089 742.909 559.497C744.523 560.526 745.929 561.684 747.322 563.038L747.296 563.169H747.309Z" fill="#2E4948"/>
<path d="M734.343 599.632C733.77 601.481 733.796 601.064 733.211 602.405C733.132 603.446 733.979 604.345 734.174 605.347C734.33 606.011 734.46 606.701 734.369 607.534L734.252 607.586C733.575 607.105 733.145 606.467 732.859 605.777C732.403 604.696 732.768 603.498 732.794 602.392C732.768 602.027 732.612 601.611 732.638 601.194C732.729 600.4 733.367 599.567 734.278 599.515L734.343 599.632Z" fill="#2E4948"/>
<path d="M730.346 600.218C729.774 602.067 729.8 601.663 729.214 602.991C729.136 604.033 729.982 604.931 730.177 605.933C730.333 606.597 730.464 607.287 730.372 608.12L730.255 608.172C729.578 607.691 729.149 607.053 728.862 606.363C728.407 605.295 728.771 604.085 728.797 602.978C728.771 602.614 728.615 602.197 728.641 601.78C728.732 600.986 729.37 600.153 730.281 600.101L730.346 600.218Z" fill="#2E4948"/>
<path d="M738.847 599.632C738.275 601.481 738.301 601.077 737.715 602.405C737.637 603.446 738.483 604.345 738.678 605.347C738.834 606.011 738.964 606.701 738.873 607.534L738.756 607.586C738.079 607.105 737.65 606.467 737.363 605.777C736.908 604.696 737.272 603.498 737.298 602.392C737.272 602.027 737.116 601.611 737.142 601.194C737.233 600.4 737.871 599.567 738.782 599.515L738.847 599.632Z" fill="#2E4948"/>
<path d="M748.012 599.684C747.439 601.533 747.465 601.129 746.88 602.457C746.801 603.499 747.648 604.397 747.843 605.399C747.999 606.063 748.129 606.753 748.038 607.586L747.921 607.638C747.244 607.157 746.814 606.519 746.528 605.829C746.072 604.761 746.437 603.551 746.463 602.444C746.437 602.08 746.281 601.663 746.307 601.246C746.398 600.452 747.036 599.619 747.947 599.567L748.012 599.684Z" fill="#2E4948"/>
<path d="M741.021 495.278C741.021 495.135 739.745 494.289 739.134 494.667C738.522 495.044 734.473 504.873 737.91 506.24C741.347 507.607 744.64 503.128 744.966 501.254C745.291 499.379 744.705 493.872 745.447 492.362C745.447 492.362 741.581 493.964 740.995 497.114V495.278H741.021Z" fill="#F387A9"/>
<path d="M728.133 502.998C728.133 502.998 730.867 509.533 741.008 512.684C741.008 512.684 737.454 512.215 735.241 510.9C735.241 510.9 735.71 512.306 737.363 513.061C737.363 513.061 730.724 513.491 727.625 501.865" fill="#2E4948"/>
<path d="M762.358 538.824C764.584 543.159 766.537 547.612 768.32 552.129C767.826 552.103 766.68 552.103 766.172 552.077L766.706 551.647C764.441 558.963 763.178 566.514 761.811 574.039C760.626 580.613 758.4 589.83 756.838 596.404C757.333 585.221 760.705 573.687 763.438 562.661C764.428 558.82 764.975 554.889 765.717 550.983C766.029 550.983 767.135 550.957 767.461 550.944L766.927 551.751C765.326 547.56 763.23 543.003 762.345 538.811L762.358 538.824Z" fill="#2E4948"/>
<path d="M624.313 554.732C624.313 554.732 619.496 552.949 616.216 541.05H614.029C614.029 541.05 621.84 535.765 627.099 544.774C627.099 544.774 628.505 543.381 631.043 543.381C631.043 543.381 633.999 538.382 638.516 539.514C638.516 539.514 639.479 530.115 643.984 527.928V529.842C643.984 529.842 649.048 538.642 645.35 544.774C645.35 544.774 664.852 568.831 663.993 580.73C663.133 592.628 651.235 589.374 651.235 589.374C651.235 589.374 651.651 592.667 650.688 593.123C649.725 593.579 651 594.724 649.204 594.568C647.407 594.412 642.617 593.123 642.617 593.123C642.617 593.123 644.947 596.352 643.437 597.706C641.927 599.059 641.38 597.706 641.38 597.706C641.38 597.706 643.294 599.502 640.143 599.346C636.993 599.19 632.488 596.911 632.488 596.911C632.488 596.911 632.905 598.591 632.215 599.098C631.525 599.606 616.893 597.706 616.893 597.706C616.893 597.706 610.058 594.542 611.972 581.55C611.972 581.55 603.484 581.967 602.664 569.925C601.844 557.883 610.331 550.775 610.331 550.775C610.331 550.775 600.607 576.356 612.102 576.499C612.102 576.499 610.735 567.464 617.023 565.147C623.311 562.817 623.141 562.687 623.141 562.687L624.3 554.758L624.313 554.732Z" fill="#EE9146"/>
<path d="M630.627 554.876C631.166 554.876 631.603 554.165 631.603 553.287C631.603 552.41 631.166 551.699 630.627 551.699C630.088 551.699 629.65 552.41 629.65 553.287C629.65 554.165 630.088 554.876 630.627 554.876Z" fill="black"/>
<path d="M637.717 551.601C638.216 551.396 638.35 550.573 638.017 549.761C637.683 548.95 637.009 548.458 636.51 548.663C636.011 548.868 635.877 549.692 636.21 550.503C636.544 551.314 637.218 551.806 637.717 551.601Z" fill="black"/>
<path d="M635.873 558.026C635.873 558.026 632.788 557.128 632.905 555.657C633.022 554.185 634.142 554.185 635.196 553.782C636.251 553.378 637.487 552.753 637.969 553.287C638.451 553.821 638.724 556.073 637.969 557.245C637.214 558.416 635.86 558.039 635.86 558.039L635.873 558.026Z" fill="black"/>
<path d="M632.723 560.877C632.723 560.877 633.816 562.674 634.936 562.309C636.055 561.945 636.667 558.091 636.667 558.091C636.667 558.091 637.8 561.671 640.833 560.226C643.866 558.781 642.148 555.331 642.148 555.331C642.148 555.331 645.897 558.508 640.989 562.374C640.989 562.374 638.021 561.229 638.451 565.03C638.451 565.03 637.188 564.236 637.136 562.921C637.136 562.921 634.675 565.551 632.723 560.89V560.877Z" fill="black"/>
<path d="M635.678 563.533C635.678 563.533 634.324 572.229 637.136 572.867C639.948 573.505 641.471 571.63 641.627 570.276C641.783 568.922 640.989 562.361 640.989 562.361C640.989 562.361 638.308 562.387 638.125 566.371C638.125 566.371 636.732 563.897 637.136 562.921C637.136 562.921 636.85 563.715 635.678 563.546V563.533Z" fill="#F387A9"/>
<path d="M623.154 562.66C622.308 564.366 622.803 566.384 623.987 567.776L623.597 567.763C624.651 566.41 625.498 564.847 626.018 563.22L626.747 563.598C625.706 565.381 625.875 567.698 626.5 569.612C626.721 570.289 627.008 570.927 627.32 571.565L626.2 571.721C626.721 569.339 626.877 567.047 628.14 564.873L629.325 563.22C629.13 568.974 629.039 574.78 629.169 580.534C629.481 585.494 629.052 590.897 631.304 595.44C629.728 593.396 629.39 590.676 628.908 588.215C628.153 583.151 627.906 578.048 627.867 572.932C627.867 570.38 627.867 567.829 627.984 565.277L629.104 565.733C628.166 567.542 627.841 569.938 627.359 571.942L627.008 573.726C625.341 570.523 623.883 566.436 626.07 563.103L628.01 560.291L626.786 563.48C626.096 565.29 625.081 566.956 623.727 568.336C622.516 566.735 621.97 564.405 623.141 562.647L623.154 562.66Z" fill="#BC6F3A"/>
<path d="M625.016 548.484C625.159 550.632 625.198 552.728 624.313 554.732C623.389 552.728 623.441 550.111 625.016 548.484Z" fill="#BC6F3A"/>
<path d="M613.417 580.626C614.068 577.137 617.036 566.93 621.579 572.645C624.222 576.694 624.99 581.576 625.641 586.249C625.888 589.009 626.279 591.873 625.511 594.594C625.289 595.128 625.055 595.766 624.3 595.727L622.569 595.57C623.766 595.089 625.25 594.477 626.513 594.308C628.791 593.852 631.577 594.594 632.514 596.911C632.085 596.273 631.577 595.714 630.926 595.349C628.947 594.295 626.513 594.867 624.56 595.701L624.469 594.894C624.3 594.881 624.378 594.894 624.378 594.867C624.404 594.854 624.43 594.802 624.469 594.75C625.315 592.095 624.638 589.139 624.391 586.406C623.688 581.953 622.985 577.189 620.668 573.309C617.504 568.388 614.38 578.295 613.417 580.639V580.626Z" fill="#BC6F3A"/>
<path d="M631.304 595.44C630.406 592.902 629.13 589.478 631.122 587.083C633.569 585.117 637.279 586.666 639.531 588.267C641.133 589.465 642.343 591.027 643.215 592.863L642.005 593.331C639.961 587.512 643.424 582.513 649.529 582.279C651.183 582.149 652.823 582.162 654.203 581.381H654.19C654.333 581.264 654.489 580.847 654.554 580.522C654.776 579.428 654.711 578.282 654.645 577.163C654.88 578.282 655.075 579.428 654.945 580.587C654.867 580.977 654.867 581.394 654.476 581.81C653.031 582.865 651.196 582.891 649.633 583.138C646.613 583.49 643.45 585.195 642.877 588.371C642.578 589.83 642.786 591.47 643.228 592.889L642.018 593.357C640.586 590.168 637.513 587.603 633.972 587.161C633.126 587.07 632.267 587.161 631.668 587.669C629.872 589.699 630.796 592.98 631.304 595.44Z" fill="#BC6F3A"/>
<path d="M431.787 496.515C431.787 496.515 433.414 494.966 432.672 489.628L433.544 489.251C433.544 489.251 429.496 488.483 428.949 493C428.949 493 428.142 492.688 427.126 493.13C427.126 493.13 425.083 491.633 423.455 492.87C423.455 492.87 421.451 489.264 419.25 489.173L419.576 489.941C419.576 489.941 419.068 494.341 421.607 496.163C421.607 496.163 419.003 506.448 421.411 511.069L426.411 513.998C426.411 513.998 426.306 516.576 426.762 516.602C427.218 516.628 427.842 517.813 428.532 517.435C429.222 517.058 429.457 515.795 429.457 515.795C429.457 515.795 430.563 518.086 431.396 518.359C432.23 518.633 432.451 517.552 432.451 517.552C432.451 517.552 434.729 519.01 435.094 519.101C435.458 519.193 440.132 522.057 440.132 522.057C440.132 522.057 442.514 514.962 442.423 509.377C442.423 509.377 442.879 510.431 447.148 507.346C451.471 504.222 443.79 500.642 443.79 500.642C443.79 500.642 449.114 504.026 442.332 507.867C442.332 507.867 439.39 499.288 436.474 499.444C433.557 499.6 433.597 499.509 433.597 499.509L431.761 496.528L431.787 496.515Z" fill="#F7AC78"/>
<path d="M429.27 497.681C429.488 497.587 429.542 497.227 429.392 496.877C429.241 496.527 428.942 496.32 428.724 496.414C428.506 496.508 428.452 496.867 428.602 497.217C428.753 497.567 429.052 497.775 429.27 497.681Z" fill="black"/>
<path d="M425.846 497.584C426.083 497.58 426.27 497.268 426.264 496.887C426.257 496.506 426.06 496.2 425.822 496.204C425.585 496.209 425.398 496.521 425.405 496.902C425.411 497.283 425.609 497.588 425.846 497.584Z" fill="black"/>
<path d="M427.725 499.835C427.725 499.835 428.806 498.936 428.506 498.376C428.207 497.817 427.751 497.999 427.257 498.025C426.762 498.051 426.163 498.012 426.059 498.311C425.955 498.611 426.241 499.561 426.736 499.9C427.231 500.238 427.712 499.848 427.712 499.848L427.725 499.835Z" fill="black"/>
<path d="M429.483 500.433C429.483 500.433 429.353 501.345 428.845 501.384C428.337 501.423 427.426 499.991 427.426 499.991C427.426 499.991 427.595 501.618 426.124 501.566C424.653 501.514 424.744 499.834 424.744 499.834C424.744 499.834 423.794 501.761 426.424 502.451C426.424 502.451 426.541 504.781 427.022 506.37C427.022 506.37 430.069 508.4 428.064 501.995C428.064 501.995 429.509 502.62 429.483 500.42V500.433Z" fill="black"/>
<path d="M428.754 502.009C428.754 502.009 430.797 505.263 429.782 506.005C428.767 506.747 427.829 506.253 427.53 505.745C427.23 505.237 426.423 502.464 426.423 502.464C426.423 502.464 427.504 502.009 428.259 503.571C428.259 503.571 428.389 502.334 428.064 502.009C428.064 502.009 428.311 502.282 428.754 502.009Z" fill="#F387A9"/>
<path d="M440.639 505.016C435.054 504.495 438.27 510.249 438.543 513.36C438.79 515.001 438.882 516.68 438.908 518.346C437.137 515.964 434.625 513.946 433.388 518.021C433.505 517.435 433.661 516.836 433.987 516.303C435.158 514.259 437.697 515.847 438.817 517.149L438.218 517.396C438.048 516.107 437.814 514.819 437.554 513.556C437.241 511.564 436.239 509.807 436.083 507.763C435.783 505.146 438.491 503.402 440.665 505.029L440.639 505.016Z" fill="#BC6F3A"/>
<path d="M432.477 517.553C432.907 515.847 433.688 513.673 433.519 512.124C432.269 512.944 430.772 514.558 430.056 516.082L428.871 515.535C429.873 513.178 429.405 511.981 426.684 512.528C426.007 512.658 425.174 512.983 424.328 512.749C423.573 512.788 423.026 511.551 423.286 510.718C423.455 509.924 423.989 509.312 424.549 508.817C423.846 509.625 423.247 510.757 423.716 511.773C423.885 512.124 424.171 512.306 424.406 512.254C425.07 512.267 425.682 511.942 426.424 511.668C430.03 510.419 431.501 512.866 430.043 516.082L428.858 515.535C429.86 513.699 431.253 512.033 433.219 511.265C433.388 511.213 433.688 511.174 433.961 511.343C434.248 511.525 434.313 511.785 434.352 511.955C434.417 513.973 433.284 515.821 432.438 517.579L432.477 517.553Z" fill="#BC6F3A"/>
<path d="M631.812 420.788C631.812 420.788 634.649 421.491 638.672 420.788C642.695 420.085 644.817 419.135 644.817 419.135L648.358 427.649C648.358 427.649 647.889 428.834 644.817 427.649C644.817 427.649 648.709 438.936 648.227 444.989C648.227 444.989 652.615 442.255 652.615 448.543L642.213 448.14C642.213 448.14 643.866 451.785 641.028 452.488C638.19 453.191 636.537 448.14 636.537 448.14L622.295 462.928L621.071 456.055C621.071 456.055 610.527 452.579 615.265 439.535L619.757 434.08C619.757 434.08 616.294 441.526 618.116 446.031C618.767 447.632 621.41 449.65 621.41 449.65C621.41 449.65 619.757 442.451 622.595 440.133C625.433 437.816 632.254 437.569 633.335 437.1C634.415 436.631 633.335 428.118 633.335 428.118C633.335 428.118 632.762 431.125 630.158 431.164C627.555 431.203 631.812 420.788 631.812 420.788Z" fill="#914120"/>
<path d="M622.126 443.961C621.006 439.326 626.383 440.12 627.242 443.557C628.114 446.812 627.242 450.196 626.344 453.321C626.24 453.75 625.914 454.44 625.589 454.74C624.938 455.482 624.261 456.081 623.545 456.693L622.712 455.872C624.3 454.141 625.953 452.436 627.971 451.199C628.414 450.978 629.039 450.73 629.52 451.004C630.497 451.498 630.575 452.696 630.393 453.607C630.445 452.292 629.638 450.652 628.297 451.746C626.487 453.087 625.068 454.922 623.597 456.627L622.764 455.807C623.623 454.883 624.782 454.167 625.12 452.93C625.849 450.027 627.841 443.961 625.055 441.839C622.933 440.537 622.048 441.8 622.126 443.961Z" fill="#602D1A"/>
<path d="M642.213 448.127C641.744 446.421 640.69 443.31 638.451 444.638C637.852 444.976 637.331 445.484 636.823 445.953L636.928 445.81C636.654 446.369 636.524 447.189 636.993 447.671L637.435 448.179L636.98 448.582C635.912 449.65 633.947 450.132 633.4 448.296C632.762 445.862 633.647 443.31 634.324 441.019C634.337 443.258 633.647 446.252 634.675 448.231C635.066 448.491 635.743 447.958 636.081 447.658V448.569C635.131 447.632 635.261 446.187 635.873 445.107C636.199 444.82 636.524 444.547 636.863 444.273C640.273 441.67 642.356 444.703 642.213 448.127Z" fill="#602D1A"/>
<path d="M636.81 425.761C637.242 425.761 637.591 425.411 637.591 424.98C637.591 424.549 637.242 424.199 636.81 424.199C636.379 424.199 636.029 424.549 636.029 424.98C636.029 425.411 636.379 425.761 636.81 425.761Z" fill="#2F160E"/>
<path d="M641.927 425.371C642.358 425.371 642.708 425.021 642.708 424.59C642.708 424.158 642.358 423.809 641.927 423.809C641.495 423.809 641.146 424.158 641.146 424.59C641.146 425.021 641.495 425.371 641.927 425.371Z" fill="#2F160E"/>
<path d="M637.37 427.883C637.37 427.883 638.125 427.128 639.362 427.037C640.599 426.946 642.148 426.243 642.226 426.646C642.656 428.664 640.755 430.096 640.755 430.096C640.755 430.096 641.901 432.114 642.682 431.789C643.463 431.463 644.374 430.487 644.374 430.487C644.374 430.487 642.903 433.39 641.276 433.78C639.649 434.171 638.112 433.611 636.811 431.958C636.811 431.958 638.347 433.65 639.74 432.999C641.133 432.348 640.325 430.252 640.234 430.226C640.143 430.2 637.826 429.68 637.37 427.883Z" fill="#2F160E"/>
</g>
</g>
<defs>
<clipPath id="clip0_1_1542">
<rect width="1024" height="768" fill="white"/>
</clipPath>
<clipPath id="clip1_1_1542">
<rect width="1034.21" height="477" fill="white" transform="translate(-5 146)"/>
</clipPath>
</defs>
</svg>
