<svg width="859" height="642" viewBox="0 0 859 642" fill="none" xmlns="http://www.w3.org/2000/svg">
<path opacity="0.1" fill-rule="evenodd" clip-rule="evenodd" d="M554.464 1.66573C551.517 3.98172 550.273 8.3303 550.828 14.3727C551.418 20.7753 552.577 24.6621 554.95 28.1902C557.695 32.2694 559.734 32.1901 563.28 27.8654C573.705 15.1527 572.19 0 560.494 0C557.825 0 555.91 0.528802 554.464 1.66573ZM695.686 13.934C689.056 16.9473 677.64 29.1156 668.926 42.4588C665.402 47.8542 656.41 65.2064 656.41 66.6118C656.41 66.8308 657.619 66.1136 659.098 65.0172C661.487 63.2448 673.249 56.4853 695.486 44.1047C708.175 37.041 713.464 31.1597 713.464 24.1167C713.464 18.1363 707.559 12.3715 701.474 12.4137C700.11 12.4227 697.506 13.1069 695.686 13.934ZM613.874 29.2816C596.392 36.6155 579.896 57.5396 560.746 96.6718C551.899 114.749 548.522 122.981 543.797 137.985C540.146 149.58 533.759 173.514 534.199 173.953C534.357 174.111 539.314 166.928 545.216 157.991C563.34 130.547 576.043 115.639 605.178 87.6194C633.255 60.6165 641.994 46.785 637.842 35.9214C635.643 30.1682 631.881 27.7539 624.653 27.4589C619.902 27.2656 617.855 27.611 613.874 29.2816ZM221.528 38.154C215.674 41.2128 212.938 45.3044 212.537 51.598C212.246 56.163 212.508 57.4272 214.502 61.0891C215.768 63.4126 218.693 67.0506 221.002 69.1732C238.533 85.2852 248.509 95.1746 252.35 100.25C262.29 113.382 274.14 136.544 280.134 154.558L284.104 166.49L284.719 156.085C286.651 123.336 276.168 81.42 259.947 57.0372C255.196 49.8967 246.943 42.1596 240.952 39.2306C234.293 35.9751 226.523 35.5447 221.528 38.154ZM366.465 48.2475C363.523 51.1881 362.874 52.3887 362.874 54.8914C362.874 58.4418 364.005 60.976 366.485 62.9838C371.554 67.0869 380.238 61.2213 380.238 53.6933C380.238 49.1266 378.29 47.018 372.552 45.3738C370.294 44.7268 369.715 45.0003 366.465 48.2475ZM312.501 54.1916C310.689 55.7152 309.424 58.0295 308.096 62.2476C306.461 67.4447 306.252 69.7276 306.384 80.973C306.509 91.5755 306.954 95.7712 308.967 105.347L311.398 116.915L312.676 114.005C313.379 112.405 316.169 106.262 318.877 100.355C329.913 76.2807 332.654 65.2485 329.231 58.6806C325.853 52.1987 317.527 49.9653 312.501 54.1916ZM733.681 56.52C719.613 59.1855 707.42 64.1876 695.101 72.3469C679.787 82.4908 656.404 107.913 641.757 130.343C633.919 142.346 633.582 143.454 639.368 138.193C657.728 121.5 703.303 99.8843 739.924 90.5005C758.262 85.8016 767.614 80.8185 770.839 74.0267C773.903 67.5753 771.401 61.3651 764.325 57.8618C760.699 56.0672 758.956 55.7962 749.856 55.6185C743.782 55.4995 737.103 55.8722 733.681 56.52ZM507.774 68.575C506.292 69.4781 504.349 71.4165 503.457 72.8823C499.129 79.9939 500.736 88.7166 509.956 108.156C516.788 122.558 518.938 128.341 521.505 139.224L523.065 145.834L524.878 139.798C527.814 130.019 529.006 122.268 529.827 107.601C530.721 91.6408 530.208 79.9749 528.456 76.4286C526.861 73.2004 523.444 69.5566 520.639 68.0925C517.364 66.3821 510.979 66.6218 507.774 68.575ZM95.2308 73.0938C92.4153 74.3167 90.0075 78.0299 90.0125 81.1382C90.0174 84.1375 92.9668 88.2002 96.3851 89.9147C98.1083 90.779 102.123 92.3323 105.306 93.3668C108.49 94.4013 112.541 95.9736 114.311 96.861L117.526 98.4755L116.941 93.3073C115.91 84.1954 110.569 75.9576 103.886 73.1673C100.166 71.614 98.6631 71.6016 95.2308 73.0938ZM158.094 85.7107C156.203 87.4219 154.249 89.6346 153.753 90.6269C150.825 96.4834 155.388 104.843 161.548 104.908C164.662 104.941 169.792 101.537 171.446 98.3417C173.66 94.0633 173.077 90.4005 169.595 86.7229C165.142 82.0198 162.436 81.7819 158.094 85.7107ZM817.309 85.9941C812.952 91.1681 815.738 97.4981 822.372 97.4981C826.159 97.4981 830.052 93.7419 830.052 90.0874C830.052 83.7153 821.532 80.9788 817.309 85.9941ZM205.12 99.7372C202.128 100.311 196.971 105.791 195.83 109.61C193.705 116.727 197.17 121.014 209.077 126.004C223.51 132.051 233.313 139.029 240.221 148.172C245.555 155.232 245.554 155.231 244.98 152.005C240.33 125.915 227.013 104.624 212.643 100.302C208.741 99.1283 208.425 99.1051 205.12 99.7372ZM758.812 101.955C751.954 104.402 739.924 113.418 739.924 116.109C739.924 117.23 748.048 120.843 753.888 122.32C758.63 123.518 767.127 123.541 770.699 122.363C774.87 120.987 778.837 116.523 779.308 112.677C780.353 104.145 769.128 98.2723 758.812 101.955ZM347.99 107.064C332.208 116.011 319.262 141.903 312.834 177.371C310.791 188.646 311.359 189.127 316.561 180.537C324.622 167.227 335.974 154.047 347.332 144.809C358.423 135.791 366.015 128.255 368.133 124.162C370.013 120.529 369.874 114.251 367.839 110.917C364.036 104.683 355.211 102.97 347.99 107.064ZM427.712 108.587C422.034 111.059 420.059 116.889 423.173 121.992C425.708 126.147 429.893 128.993 440.76 133.955C452.307 139.228 452.739 139.148 451.879 131.893C450.873 123.402 443.365 111.895 436.925 108.971C432.956 107.17 431.144 107.095 427.712 108.587ZM624.783 110.216C622.898 111.645 622.948 113.417 624.922 115.201C628.278 118.237 632.8 115.236 630.957 111.196C629.876 108.825 627.18 108.397 624.783 110.216ZM68.1271 123.205C57.6978 124.723 50.5066 128.748 48.15 134.385C44.4333 143.273 49.2729 150.982 59.3797 152.275C62.8905 152.723 66.7387 152.406 82.4797 150.369C90.4168 149.341 109.277 150.36 122.257 152.517C132.856 154.277 146.454 158.863 154.273 163.313L160.706 166.974L156.572 162.747C151.249 157.305 137.422 146.122 130.525 141.681C115.074 131.732 100.046 125.491 86.7017 123.48C78.0626 122.177 75.4522 122.139 68.1271 123.205ZM605.972 135.124C600.721 136.567 586.127 143.573 586.127 144.652C586.127 145.052 587.219 145.943 588.556 146.633C589.891 147.323 591.219 148.269 591.507 148.735C591.796 149.202 587.976 156.175 583.019 164.234C572.266 181.713 558.94 204.862 551.757 218.544C540.839 239.339 512.28 302.073 501.165 329.676C487.141 364.503 483.441 376.669 485.23 382.082C488.55 392.136 504.264 393.536 514.757 384.713C518.127 381.879 519.323 378.759 524.135 360.247C528.348 344.037 534.971 323.288 536.942 320.123C537.654 318.98 540.408 317.712 545.321 316.267C571.024 308.707 572.478 308.341 573.075 309.294C573.708 310.305 573.505 312.978 571.56 329.263C570.909 334.716 570.159 345.127 569.894 352.398C569.175 372.125 571.693 381.654 579.419 388.448C583.648 392.169 589.377 394.124 596.049 394.124C601.782 394.124 608.508 392.214 610.491 390.023C611.926 388.44 611.876 388.086 609.011 379.468C607.381 374.564 605.61 367.769 605.075 364.367C603.742 355.874 604.592 332.278 606.772 317.282C609.5 298.514 608.66 300.289 616.308 297.142C630.997 291.097 635.502 287.726 639.437 279.834C641.832 275.032 642.025 273.28 640.315 271.862C638.913 270.699 636.097 271.059 623.433 274.018C618.71 275.121 614.696 275.873 614.512 275.689C614.327 275.506 616.197 267.034 618.667 256.864C626.281 225.507 634.002 189.226 634.997 180.124C636.717 164.394 634.62 151.878 628.832 143.33C623.163 134.959 615.971 132.377 605.972 135.124ZM840.966 143.497C836.944 145.478 832.994 150.551 828.901 158.995C825.279 166.464 818.132 185.84 818.765 186.472C818.949 186.655 822.485 184.651 826.625 182.018C830.764 179.386 836.444 175.93 839.247 174.34C850.22 168.112 854.564 162.454 855.422 153.269C855.911 148.035 855.88 147.929 852.99 145.042C849.63 141.684 845.679 141.176 840.966 143.497ZM684.516 149.272C681.124 152.124 680.28 154.458 681.302 158.156C683.36 165.601 695.003 165.096 698.212 157.423C699.739 153.77 698.723 150.945 695.087 148.729C691.306 146.426 687.68 146.612 684.516 149.272ZM482.356 150.34C478.617 151.885 475.327 157.253 475.327 161.806C475.327 164.961 477.37 168.303 484.009 176.012C490.991 184.118 496.309 192.301 498.226 197.888L499.645 202.019L500.636 197.888C502.073 191.904 502.016 174.176 500.54 167.921C497.391 154.569 489.823 147.253 482.356 150.34ZM379.808 160.588C374.474 163.07 368.424 169.78 366.226 175.65C364.084 181.372 363.906 190.436 365.88 193.254C367.026 194.889 367.737 195.116 370.526 194.742C378.517 193.671 390.028 185.654 394.326 178.167C398.628 170.671 396.958 162.493 390.582 159.831C386.671 158.197 384.639 158.34 379.808 160.588ZM603.934 177.121C598.671 184.456 587.056 202.347 583.48 208.629C578.673 217.074 566.856 240.669 561.314 252.889C556.19 264.184 545.451 290.148 545.787 290.427C546.209 290.778 578.252 284.086 578.861 283.519C579.185 283.219 581.335 274.513 583.641 264.174C588.516 242.313 591.037 232.426 597.804 208.629C603.7 187.895 606.964 175.215 606.63 174.343C606.495 173.993 605.282 175.243 603.934 177.121ZM209.338 175.172C207.56 175.887 205.77 178.345 205.77 180.069C205.77 181.926 209.133 184.255 211.814 184.255C217.214 184.255 219.66 179.881 216.195 176.419C214.023 174.249 212.375 173.949 209.338 175.172ZM772.466 179.245C769.658 180.449 768.559 182.649 764.709 194.783L761.091 206.183L741.619 208.923C707.984 213.655 704.693 214.438 702.688 218.18C700.643 222 705.803 229.338 711.9 231.279C714.207 232.013 718.51 231.939 730.917 230.947C739.737 230.243 748.689 229.444 750.812 229.173L754.672 228.678L751.415 238.897C749.624 244.517 745.133 258.783 741.435 270.598C733.875 294.749 732.142 299.16 725.014 312.371C716.561 328.042 706.486 341.59 700.433 345.426C695.891 348.304 695.742 348.322 693.637 346.218C692.415 344.997 692.117 343.898 692.462 341.88C695.548 323.851 699.245 312.338 708.322 292.494C717.115 273.269 717.985 270.685 717.267 265.9C716.133 258.345 710.861 253.65 703.542 253.676C701.495 253.684 696.286 254.234 691.966 254.9C675.909 257.373 674.019 256.528 674.883 247.266C675.17 244.194 676.664 236.554 678.203 230.29L681.001 218.901L679.272 217.69C677.006 216.104 671.512 216.15 666.568 217.796C653.187 222.251 645.65 233.984 646.736 248.661C647.341 256.83 649.165 261.801 653.264 266.454L656.608 270.251L654.309 276.621C649.785 289.161 641.162 308.158 629.451 331.387C622.904 344.371 617.548 355.817 617.548 356.821C617.548 361.713 626.065 378.397 627.733 376.772C628.863 375.672 643.902 339.346 647.746 328.436C650.147 321.62 654.709 309.35 657.882 301.17C661.055 292.99 664.491 283.695 665.517 280.514C666.542 277.332 667.505 274.506 667.657 274.232C668.043 273.537 679.752 275.828 680.712 276.787C681.211 277.285 679.652 282.363 676.468 290.618C670.058 307.243 662.499 331.407 660.949 340.233C658.807 352.428 661.139 365.799 666.31 370.965C676.467 381.115 693.879 375.057 709.721 355.861C713.196 351.65 717.831 345.519 720.022 342.238L724.005 336.271L724.443 345.574C724.974 356.826 725.919 360.212 729.695 364.388C735.696 371.026 744.96 371.958 753.625 366.795C760.185 362.886 769.923 352.969 782.113 337.784C791.924 325.56 795.13 321.258 815.151 293.44C820.993 285.323 823.882 281.932 824.305 282.699C825.262 284.432 827.166 313.177 827.088 324.718C827.007 336.837 825.238 343.134 820.62 347.749C818.165 350.202 817.463 350.481 814.937 350.007C808.347 348.772 802.117 341.681 800.075 333.09C798.899 328.145 797.612 327.727 793.697 331.019C789.752 334.336 787.677 339.144 787.228 346.002C786.747 353.366 788.361 358.186 792.991 363.203C806.845 378.222 843.174 369.789 853.161 349.235C858.064 339.146 858.432 329.015 854.74 305.883C851.478 285.451 851.234 271.725 853.948 261.51C854.915 257.874 856.445 253.892 857.348 252.66C858.784 250.706 858.992 249.098 858.992 239.99V229.558L852.584 230.119C837.717 231.421 828.988 234.533 827.701 238.991C826.65 242.631 814.858 268.662 811.698 274.317C807.618 281.617 801.649 290.247 789.692 306.127C766.504 336.924 763.971 339.23 758.615 334.427L756.542 332.568L757.697 325.066C760.902 304.248 774.405 259.334 785.746 231.764C787.696 227.026 787.925 226.797 790.934 226.578C804.811 225.568 825.167 221.31 828.795 218.658C830.274 217.578 830.289 217.376 829.031 215.458C826.446 211.515 816.86 208.574 801.264 206.937C796.875 206.476 796.124 206.171 796.563 205.03C796.85 204.283 797.673 201.557 798.393 198.972C799.487 195.04 799.527 193.853 798.64 191.713C797.31 188.505 791.404 183.253 786.407 180.837C782.264 178.832 775.288 178.036 772.466 179.245ZM36.263 180.68C23.4632 182.925 16.5391 192.588 23.9916 197.805C28.1986 200.749 34.4497 198.866 46.3929 191.06C49.9187 188.755 53.2592 186.719 53.8174 186.533C55.5372 185.959 52.3058 181.972 49.7277 181.486C45.7703 180.741 38.422 180.3 36.263 180.68ZM123.613 182.221C105.563 185.621 86.3114 195.493 68.5107 210.477C46.0134 229.415 28.2665 253.181 16.0471 280.737L12.284 289.223C12.284 289.223 3.99679 310.919 1.5348 323.066C-5.08013 355.703 11.205 368.284 21.5019 378.849L27.1502 384.643L25.1401 394.961C21.0182 416.119 20.4609 432.873 23.464 445.351C27.0485 460.243 37.7365 473.324 52.1157 480.418C65.5026 487.022 77.445 488.144 92.7271 484.232C104.717 481.164 120.847 470.966 130.968 460.055C143.749 446.278 160.788 420.569 170.56 400.32C204.63 329.72 212.161 248.284 188.346 207.982C181.001 195.554 169.396 186.412 156.572 182.952C149.557 181.059 131.862 180.666 123.613 182.221ZM452.506 197.805C449.074 201.234 448.861 204.154 451.825 207.115C453.618 208.907 454.477 209.173 457.264 208.8C462.814 208.056 466.219 203.913 464.564 199.919C462.307 194.474 456.805 193.51 452.506 197.805ZM324.969 205.13C323.413 205.951 321.992 209.224 317.718 221.843C314.794 230.473 311.72 238.218 310.885 239.051C309.393 240.542 280.188 248.213 280.188 247.114C280.188 246.835 281.344 243.854 282.758 240.491C285.769 233.331 285.666 229.55 282.341 225.194C279.764 221.818 271.078 217.305 267.157 217.305C263.505 217.305 258.925 219.483 257.269 222.006C256.558 223.093 252.9 231.311 249.141 240.267L242.308 256.552L230.86 258.866C224.565 260.137 217.739 261.996 215.692 262.997L211.971 264.815L211.726 269.945C211.427 276.219 212.961 279.614 216.962 281.52C219.445 282.704 220.624 282.752 226.149 281.893C229.635 281.351 232.692 281.113 232.941 281.363C233.46 281.881 231.076 289.118 221.518 316.042C212.844 340.477 205.663 363.115 201.465 379.251C198.37 391.152 198.126 392.906 198.025 404.039C197.905 417.091 198.592 420.439 202.293 424.834C205.038 428.093 210.153 430.437 214.574 430.461C223.882 430.51 238.887 418.097 255.736 396.409C258.952 392.27 262.049 388.73 262.617 388.542C263.369 388.294 263.656 389.625 263.67 393.435C263.724 407.178 268.425 414.175 278.372 415.312C281.764 415.7 283.129 415.316 289.163 412.281C294.58 409.557 297.937 407.011 304.712 400.491C309.464 395.917 315.969 388.896 319.168 384.887C322.368 380.879 325.324 377.598 325.739 377.598C326.153 377.598 326.492 378.664 326.492 379.967C326.492 381.269 327.817 384.98 329.436 388.214C334.489 398.309 342.805 403.223 354.791 403.202C371.66 403.17 390.632 390.238 408.043 366.901C412.075 361.496 415.453 357.154 415.55 357.25C415.647 357.347 414.625 363.299 413.28 370.478C409.658 389.794 410.022 393.605 415.793 396.778C419.283 398.697 427.923 398.467 432.028 396.345C435.231 394.69 436.145 392.457 440.543 375.533C448.934 343.239 457.443 322.757 469.549 305.714C472.615 301.397 475.726 296.679 476.462 295.23C478.192 291.819 480.831 290.015 484.092 290.015C488.032 290.015 488.875 291.622 488.231 297.903C487.928 300.863 487.457 304.396 487.185 305.757C486.769 307.834 488.748 306.17 499.567 295.342C512.024 282.875 512.477 282.302 513.407 277.825C514.594 272.106 514.089 267.987 511.578 262.931C508.796 257.33 505.077 255.077 499.306 255.499C490.001 256.178 483.254 261.672 471.457 278.18C467.13 284.235 463.508 289.189 463.407 289.189C463.307 289.189 463.88 286.679 464.681 283.612C467.191 273.994 466.453 270.125 461.275 265.771C455.373 260.808 441.99 260.64 441.087 265.517C436.226 291.766 431.122 311.19 427.001 319.118C420.186 332.235 411.309 344.06 398.099 357.621C385.895 370.15 378.431 375.267 370.118 376.802C360.822 378.52 356.706 374.454 356.704 363.552C356.701 353.76 356.972 353.274 363.059 352.161C366.084 351.609 371.86 349.426 376.907 346.931C384.17 343.339 386.64 341.571 392.247 335.956C405.727 322.457 418.274 299.323 418.274 287.97C418.274 277.682 412.772 269.158 404.669 266.891C396.612 264.637 385.833 267.048 374.633 273.61C367.499 277.791 355.682 289.931 349.417 299.517C338.816 315.738 328.146 340.193 328.146 348.266C328.146 350.197 326.051 353.897 319.926 362.782C307.757 380.437 305.064 382.768 299.978 380.048C297.896 378.935 297.915 375.988 300.076 364.627C303.864 344.717 309.349 325.671 317.993 302.409C328.763 273.428 336.896 255.147 339.655 253.718C341.394 252.817 366.785 246.136 382.305 242.495C402.618 237.73 412.99 236.304 433.015 235.523C443.169 235.127 451.663 234.618 451.891 234.389C452.517 233.765 442.558 229.248 436.437 227.38C427.742 224.727 416.022 223.609 403.026 224.194C389.761 224.791 381.02 226.011 360.64 230.111C352.73 231.702 346.136 233.004 345.986 233.004C345.836 233.004 346.844 230.045 348.225 226.429L350.737 219.854L348.525 216.513C345.773 212.358 339.848 207.934 334.109 205.749C329.05 203.823 327.631 203.727 324.969 205.13ZM133.61 206.474C130.985 207.34 126.148 209.634 122.86 211.573C98.5043 225.937 80.5068 248.232 59.5384 290.015C48.0665 312.877 39.4076 336.418 39.6507 344.084L39.7309 346.614L41.0638 343.309C43.2186 337.968 52.2232 319.934 56.9603 311.473C66.3758 294.657 72.2407 287.062 87.9155 271.392C103.281 256.033 111.924 249.222 120.547 245.677C127.734 242.722 131.39 243.129 133.45 247.11C136.312 252.639 134.358 257.527 127.736 261.405C120.221 265.805 101.365 288.775 93.0495 303.66C80.5631 326.01 65.8284 370.097 67.9807 378.668C68.3387 380.094 69.8775 381.636 72.4466 383.146C76.1212 385.304 76.9588 385.448 85.8748 385.446C91.1048 385.445 96.9647 385.162 98.8979 384.817C100.831 384.471 102.412 384.494 102.412 384.865C102.412 386.281 86.4049 396.042 81.6661 397.515C76.1873 399.219 69.899 399.678 64.7047 398.755C61.5163 398.187 61.2583 398.29 60.4025 400.475C58.6901 404.849 57.7359 409.684 56.9421 418.011C54.9973 438.406 60.9796 452.36 73.4438 456.497C79.4931 458.505 86.8911 457.856 92.9635 454.786C109.976 446.185 137.063 399.952 153.917 350.745C176.091 286.011 178.71 232.37 160.67 212.417C154.801 205.926 143.077 203.35 133.61 206.474ZM284.735 268.239C275.863 270.419 269.287 272.469 268.453 273.314C266.023 275.773 248.014 325.903 240.885 350.044C236.412 365.198 231.403 387.515 231.403 392.295C231.403 394.01 231.942 395.18 232.989 395.74C235.136 396.888 241.097 391.984 250.402 381.412C265.603 364.144 270.283 355.376 280.538 324.954C284.796 312.328 290.545 295.916 293.315 288.484C299.769 271.171 301.824 264.373 300.572 264.491C300.048 264.54 292.921 266.226 284.735 268.239ZM385.859 288.994C379.241 295.844 373.042 305.187 369.44 313.737C365.823 322.326 361.215 337.457 362.115 337.794C363.599 338.348 371.096 333.497 375.73 328.983C390.322 314.772 398.153 296.386 393.923 286.271C393.264 284.695 392.395 283.405 391.992 283.405C391.588 283.405 388.828 285.921 385.859 288.994ZM849.07 385.541C842.81 387.385 838.982 389.166 841.275 389.166C842.09 389.166 852.529 394.975 856.718 397.76L858.992 399.271V391.327C858.992 382.047 859.642 382.426 849.07 385.541ZM755.906 396.644C759.849 399.393 763.076 401.776 763.076 401.938C763.076 402.1 760.077 400.969 756.411 399.424C744.913 394.579 738.389 393.225 724.097 392.717C710.457 392.233 699.611 393.427 689.563 396.518L684.937 397.941L698.58 402.288C746.781 417.643 744.869 416.92 768.037 428.525C791.827 440.441 798.084 443.077 805.966 444.506C822.019 447.415 831.352 437.11 825.033 423.45C822.72 418.447 813.979 409.65 807.528 405.831C800.868 401.89 790.99 397.799 783.334 395.812C775.621 393.81 760.058 391.645 753.382 391.645H748.735L755.906 396.644ZM517.084 407.801C478.836 410.005 446.981 413.052 418.485 417.231C336.461 429.259 281.946 439.617 226.855 453.639C199.866 460.508 193.075 462.659 172.38 470.89C151.261 479.291 148.493 480.603 141.591 485.489C135.548 489.768 132.864 493.724 126.848 507.225C124.386 512.746 119.887 521.02 116.848 525.61C110.204 535.648 109.319 539.18 112.769 541.892C117.483 545.597 120.241 544.03 138.794 527.113C155.001 512.334 159.743 508.762 168.975 504.381C225.07 477.755 234.629 473.929 264.891 465.987C283.643 461.067 319.774 453.597 324.717 453.621C325.466 453.624 319.753 456.179 312.022 459.3C284.815 470.282 265.507 479.666 259.438 484.858C253.82 489.663 252.018 496.523 255.468 499.97C256.986 501.487 257.962 501.667 263.116 501.385C268.2 501.108 270.584 500.36 280.188 496.032C324.535 476.046 368.144 460.597 412.555 449.141C495.652 427.704 566.907 420.593 615.778 428.861C626.107 430.608 640.588 434.342 641.94 435.607C642.456 436.089 641.835 436.136 640.287 435.733C638.922 435.378 625.341 435.077 610.106 435.065C588.123 435.048 580.208 435.345 571.755 436.501C537.221 441.228 505.558 450 474.743 463.375C458.867 470.266 425.903 490.5 419.042 497.564C410.733 506.121 410.362 515.736 418.206 519.271C420.865 520.469 422.716 520.677 427.152 520.275C434.213 519.637 442.23 515.697 455.483 506.353C481.603 487.937 503.05 477.33 536.336 466.363C561.162 458.184 587.118 452.424 611.094 449.773C628.669 447.83 667.638 447.797 678.746 449.716C696.367 452.76 707.662 457.312 715.614 464.574C728.497 476.341 726.693 489.432 710.753 499.84L705.623 503.189L712.644 503.175C720.913 503.158 729.243 501.552 734.217 499.016C739.182 496.486 746.644 489.145 749.505 483.978C751.596 480.202 751.906 478.781 751.91 472.993C751.913 466.965 751.622 465.757 748.786 460.017C747.066 456.536 743.717 451.561 741.344 448.962C726.374 432.559 689.339 419.402 644.007 414.38C637.413 413.65 624.204 412.152 614.654 411.05C580.203 407.078 548.149 406.01 517.084 407.801ZM788.709 467.766C788.709 469.094 795.754 486.763 798.257 491.711C804.403 503.86 808.64 508.138 814.535 508.143C818.661 508.148 822.483 504.76 823.161 500.496C824.188 494.043 818.38 484.678 809.124 477.861C801.845 472.5 788.709 466.004 788.709 467.766ZM562.148 479.969C528.552 492.097 493.563 514.321 469.373 538.9C445.599 563.055 424.867 601.483 424.897 621.338C424.914 632.92 432.848 642 442.952 642C455.17 642 466.924 626.893 481.202 592.838C487.415 578.021 494.104 564.838 501.151 553.52C508.158 542.268 525.114 519.661 532.082 512.279C538.62 505.351 554.409 491.132 564.629 482.965C568.494 479.876 571.812 477.214 572.002 477.049C572.9 476.267 570.121 477.09 562.148 479.969ZM596.98 482.966C587.987 488.103 574.541 500.907 567.944 510.614C557.813 525.521 552.643 548.389 557.157 558.324C559.391 563.242 563.019 565.338 568.583 564.928C572.195 564.661 573.459 564.117 575.89 561.783C577.507 560.231 579.525 557.615 580.375 555.969C582.688 551.485 585.074 537.957 585.604 526.324C586.345 510.051 590.845 495.652 598.839 483.979C600.006 482.275 600.879 480.884 600.779 480.89C600.679 480.896 598.97 481.83 596.98 482.966ZM386.44 489.05C374.011 493.989 365.491 498.272 351.298 506.717C323.772 523.095 317.932 528.23 309.94 543.076C304.315 553.524 305.338 561.16 312.608 563.004C318.848 564.587 322.539 561.908 330.592 549.946C350.438 520.467 371.682 499.309 393.054 487.736C399.834 484.065 398.139 484.402 386.44 489.05ZM633.544 493.319C632.111 494.237 630.332 496.262 629.593 497.819C628.406 500.317 628.386 500.978 629.426 503.463C632.708 511.312 643.066 510.619 646.505 502.321C647.945 498.849 646.066 494.873 642.097 492.991C638.358 491.218 636.729 491.28 633.544 493.319ZM63.1171 510.567C53.375 512.282 49.8922 513.338 43.594 516.487C31.6872 522.438 28.3417 535.123 37.9217 537.991C43.5254 539.668 46.9015 538.049 56.0152 529.31C65.2843 520.422 68.5603 517.811 76.8273 512.718L82.9047 508.973L77.1547 509.041C73.992 509.078 67.6756 509.765 63.1171 510.567ZM294.307 525.992C284.528 531.431 276.908 537.079 268.605 545.043C254.695 558.385 248.883 567.728 245.013 582.971C242.001 594.837 241.618 601.308 243.655 605.91C247.431 614.44 256.395 615.396 263.398 608.015C266.335 604.92 266.623 603.898 269.879 584.988C274.361 558.963 281.44 543.278 295.609 527.986C298.14 525.254 300.077 523.023 299.915 523.028C299.752 523.034 297.228 524.368 294.307 525.992ZM242.565 527.474C222.379 536.041 199.243 550.005 183.268 563.263C169.273 574.877 156.953 594.499 155.613 607.306C154.104 621.734 167.148 629.64 177.753 620.723C181.761 617.353 186.12 610.942 193.321 597.829C201.896 582.212 205.487 576.682 217.215 561.037C226.228 549.014 242.719 531.185 249.594 526.033C253.508 523.099 252.278 523.351 242.565 527.474ZM685.232 528.795C682.205 531.819 682.299 534.931 685.485 537.298C689.463 540.252 695.273 536.909 695.273 531.667C695.273 526.186 689.497 524.533 685.232 528.795ZM132.545 537.183C129.842 539.95 128.376 541.828 129.285 541.356C131.425 540.246 138.403 533.095 137.868 532.56C137.643 532.335 135.248 534.416 132.545 537.183ZM618.447 543.469C619.578 559.397 624.983 569.936 632.769 571.396C640.71 572.884 645.853 563.246 641.763 554.542C638.96 548.578 624.096 536.239 619.713 536.239C617.987 536.239 617.948 536.46 618.447 543.469ZM389.313 546.361C379.384 551.38 376.95 566.266 385.351 570.607C388.729 572.353 394.237 571.761 397.892 569.258C403.009 565.755 406.536 558.498 405.473 553.662C404.626 549.806 397.984 544.502 394.003 544.502C393.446 544.502 391.336 545.339 389.313 546.361ZM138.276 563.93C125.687 567.321 117.795 571.63 114.071 577.143C109.98 583.201 111.147 591.741 116.441 594.476C121.332 597.004 127.612 595.078 133.187 589.34C136.81 585.611 149.759 564.523 149.089 563.441C148.42 562.358 143.239 562.593 138.276 563.93ZM527.288 580.601C525.909 583.642 524.03 589.092 523.114 592.711C520.52 602.964 521.843 607.694 528.04 610.314C530.336 611.286 531.141 611.278 533.567 610.265C537.421 608.656 539.188 604.98 539.15 598.646C539.106 590.933 533.412 575.073 530.688 575.073C530.197 575.073 528.667 577.561 527.288 580.601ZM346.746 598.551C342.843 602.451 343.03 608.053 347.135 610.174C350.827 612.082 353.602 611.732 356.323 609.013C359.279 606.06 359.56 601.951 357.026 598.733C354.69 595.767 349.622 595.677 346.746 598.551Z" fill="white"/>
</svg>
