<svg width="48" height="48" viewBox="0 0 48 48" fill="none" xmlns="http://www.w3.org/2000/svg">
<path d="M0 0H48V48.0015H0V0Z" fill="#CD1F41"/>
<path d="M38.6253 24.9258V30.0126H42.4345C43.0702 29.9141 43.0193 29.1275 43.0892 28.7763C43.1385 28.5204 43.4659 28.5951 43.4659 28.7906V31.9244C43.4484 32.0897 43.0638 32.0833 43.0543 31.9244C43.0257 31.5589 43.1369 30.6864 42.2931 30.6864H38.7461C38.7461 30.6864 38.6253 30.7007 38.6253 30.8152V35.6048C38.6253 36.2532 38.557 36.5186 38.8939 36.5186C39.3389 36.5186 42.7508 36.5329 42.8064 36.5329C43.4961 36.5329 43.6264 35.2965 43.8314 34.7626C43.9267 34.5147 44.3049 34.6339 44.2779 34.8039C44.2302 35.1058 44.0618 36.4916 44.0268 36.7125C43.9935 36.9349 43.914 37.1797 43.628 37.1797C43.3467 37.1797 38.387 37.1749 38.066 37.1749C37.7481 37.1749 35.9016 37.194 35.7236 37.194V36.8984C36.1145 36.8777 36.5483 36.811 36.7502 36.66C37.0426 36.4407 37.2348 36.1976 37.2348 35.4936V26.2909C37.1808 25.4566 37.2619 24.9401 35.7792 24.9401L35.1562 24.252C39.4978 24.3219 42.5489 24.279 43.3213 24.252C43.628 24.2409 43.8187 24.4205 43.8187 24.6302C43.8187 24.6302 43.7901 26.1065 43.825 26.6341H43.3928C43.3928 24.921 42.3709 24.9258 42.158 24.9258H38.6253Z" fill="white"/>
<path d="M4.58453 30.4692C4.48918 30.3977 4.40178 30.3199 4.32709 30.2372C3.4626 29.2965 2.72524 26.4996 5.61906 24.7849C6.63611 24.1842 7.76917 24.2795 8.30312 24.2795H19.5447C19.7402 24.2795 19.7704 24.2795 19.7704 24.4766V26.2914H19.4462C19.4462 25.1377 18.8153 24.9962 18.5324 24.9406H15.1746C14.9807 24.9406 14.9505 25.0534 14.9346 25.2219V30.4692H13.4599V25.2648C13.4599 25.0948 13.4599 24.9533 13.2644 24.9533H7.8661C6.7839 24.9533 6.37231 25.1409 5.87173 25.4333C4.32709 26.3311 4.84833 28.4049 5.17092 28.8896C5.72394 29.7208 7.20661 29.9544 9.18827 30.4692H4.58453Z" fill="white"/>
<path d="M19.44 30.4692C21.0466 27.2687 22.7597 23.8489 22.8042 23.7599C22.89 23.5914 23.0283 23.6471 23.0712 23.7742L25.8506 30.4692H24.2487C24.2392 30.439 24.2249 30.4041 24.209 30.3644L22.453 26.1627L20.3601 30.4486C20.3553 30.4565 20.3522 30.4645 20.3522 30.4692H19.44Z" fill="white"/>
<path d="M30.7922 30.4692V24.9343H27.3215C26.7462 24.9343 26.5285 25.5318 26.5126 25.8401V26.1627H26.1773V24.448C26.1773 24.2938 26.198 24.2509 26.4093 24.2509H35.4785L36.7578 24.9406H32.2478V30.4692H30.7922Z" fill="white"/>
<path d="M9.18908 30.4692C9.21927 30.4771 9.2447 30.4819 9.27171 30.4915C11.6332 31.1096 11.6888 33.1978 11.6888 33.2152C11.6888 35.0173 11.1088 35.8294 9.78024 36.8973C8.2054 38.1622 5.64688 38.0208 3.70654 37.1229V34.3976H4.05774C4.05774 34.8187 4.21507 35.4575 4.27069 35.5974C4.32631 35.7388 4.36127 35.8039 4.66479 36.1679C5.88208 37.6299 8.11959 37.4598 9.47036 36.1965C10.3968 35.3256 10.721 33.4902 9.78024 32.5144C9.01904 31.7278 7.78269 31.615 7.08029 31.4465C6.46211 31.2987 5.28138 30.9984 4.58534 30.4692H9.18908Z" fill="white"/>
<path d="M20.3526 30.4692C20.2938 30.6233 20.3526 30.6742 20.4718 30.6742H21.1456L21.0884 31.4608H20.1079C19.9109 31.4608 19.8394 31.4878 19.7567 31.6865C19.6709 31.8835 17.9721 35.3383 17.9721 35.3383C17.3953 36.5047 18.4647 36.8575 18.7428 36.8575V37.1801H11.9985V36.8416C11.9985 36.8416 12.5102 36.8639 12.9552 36.786C13.4319 36.7002 13.4017 36.0836 13.4017 35.8881C13.4017 35.6895 13.4605 35.0999 13.4605 34.8743V30.4692H14.9337V34.833C14.9337 34.833 14.9798 35.2827 15.0068 35.8723C15.0322 36.4634 15.3707 36.7304 15.7092 36.7304C16.0461 36.7304 16.4799 36.2378 16.6627 36.0121C16.6627 36.0121 18.0087 33.328 19.4405 30.4692H20.3526Z" fill="white"/>
<path d="M32.247 30.4692V35.6196C32.247 36.6605 33.2021 36.8702 33.4834 36.8575H33.806V37.1801H25.4598V36.8416H26.0366C26.4308 36.8416 26.6405 36.1392 26.4991 35.8325L24.7574 31.6865C24.7002 31.5307 24.6748 31.4608 24.492 31.4608H21.007L21.0897 30.6742H24.1535C24.26 30.6742 24.2965 30.6344 24.2489 30.4692H25.8507L27.9325 35.494C28.1566 36.028 28.7541 36.6875 29.0497 36.7924C29.3452 36.8972 29.3595 36.8766 29.9142 36.8766C30.4704 36.8766 30.7707 36.26 30.7914 36.0757V30.4692H32.247Z" fill="white"/>
<path d="M9.35657 21.7305C9.75386 21.7607 10.2258 21.7559 10.6787 21.6939C13.0942 21.3729 14.8915 18.379 13.9333 14.7462C13.0911 11.5664 10.1909 9.59264 7.52429 10.3268C5.12469 10.9847 3.71512 14.2488 4.32694 16.8328C4.67496 18.3059 6.09089 21.4429 9.35657 21.7305L9.18177 22.6697H9.1039C5.41709 22.6697 2.42792 19.7171 2.42792 16.0732C2.42792 12.4293 5.4298 9.41466 9.11661 9.41466C12.8066 9.41466 15.7799 12.4293 15.7799 16.0732C15.7799 19.6694 12.8002 22.5934 9.18177 22.6697L9.35657 21.7305Z" fill="white"/>
<path d="M15.4983 22.4685H19.5442V22.13H18.9817C18.756 22.13 18.1823 21.8901 18.1823 20.8937V15.8354H24.3768V20.8937C24.3768 21.5261 23.9573 22.0966 23.622 22.13C23.3375 22.1586 23.1436 22.13 23.1436 22.13V22.4685H27.188V22.13H26.627C26.2901 22.0331 25.8404 21.7788 25.8404 20.8937V10.9043C25.8404 9.90635 26.3743 9.87616 26.6111 9.87616H27.188V9.53926H23.0276V9.87616H23.6061C23.8174 9.87616 24.3768 9.89046 24.3768 10.8868V15.0488H18.195V10.8868C18.195 9.89046 18.6321 9.87616 18.8704 9.87616H19.433V9.53926H15.3839V9.87616H15.948C16.188 9.87616 16.7346 9.89046 16.7346 10.8868V20.8937C16.7346 22.1157 16.269 22.13 16.0592 22.13H15.4983V22.4685Z" fill="white"/>
<path d="M38.6547 21.7437C38.9916 21.7564 39.4175 21.7453 39.7926 21.6944C42.2049 21.3734 44.0086 18.3795 43.0455 14.7467C42.2049 11.5653 39.3063 9.59313 36.6413 10.3257C34.2401 10.9836 32.8274 14.2493 33.4408 16.8333C33.7983 18.3334 35.2587 21.5594 38.6547 21.7437L38.3814 22.6702H38.2193C34.5325 22.6702 31.5417 19.7175 31.5417 16.0736C31.5417 12.4297 34.5452 9.41356 38.232 9.41356C41.9204 9.41356 44.8953 12.4297 44.8953 16.0736C44.8953 19.6635 41.9935 22.5844 38.3814 22.6702L38.6547 21.7437Z" fill="white"/>
<path d="M30.5609 15.0488V10.8868C30.5609 9.89046 30.9964 9.87615 31.2363 9.87615H31.7973V9.53926H27.7498V9.87615H28.3123C28.5523 9.87615 29.1005 9.89046 29.1005 10.8868V20.8937C29.1005 22.1157 28.7763 22.0331 28.4251 22.13H27.8642V22.4685H31.7973V22.13H31.3492C31.0266 22.0331 30.5482 21.8901 30.5482 20.8937V15.8354L30.5609 15.0488Z" fill="white"/>
<path d="M15.8947 40.4627C15.8947 39.9335 15.89 39.8875 16.5383 39.8525V39.6507C16.2142 39.6729 15.8947 39.6856 15.5642 39.6856C15.2321 39.6856 14.9158 39.6729 14.6123 39.6507V39.8525C15.2591 39.8875 15.2543 39.9335 15.2543 40.4627V43.5631C15.2543 44.0923 15.2591 44.1384 14.6123 44.1734V44.3752C14.9158 44.3561 15.2321 44.3418 15.5642 44.3418C15.8947 44.3418 16.2142 44.3561 16.5383 44.3752V44.1734C15.89 44.1384 15.8947 44.0923 15.8947 43.5631V40.4627Z" fill="white"/>
<path d="M23.0335 42.1418C24.5622 42.0862 24.6115 42.0464 24.6115 42.8092H24.834V41.2471H24.6115C24.6035 41.9113 24.5098 41.8303 23.0335 41.816V40.551C23.0335 40.3143 23.0414 40.1585 23.0684 39.9885C23.2925 39.9551 23.6103 39.9551 23.9059 39.9551C24.2444 39.9551 24.5892 39.9694 24.915 40.0695C24.9611 40.2809 25.0024 40.4684 25.0104 40.7338H25.2201C25.2201 40.5924 25.2392 40.4764 25.2392 40.3349C25.2472 40.1188 25.2726 39.9027 25.3473 39.6786C25.1168 39.6436 24.6512 39.6516 24.2253 39.6436C23.8185 39.6659 23.4053 39.6786 22.9858 39.6786C22.5679 39.6786 22.161 39.6659 21.7479 39.6436V39.8486C22.3978 39.8804 22.3899 39.9281 22.3899 40.4557V43.5609C22.3899 44.0154 22.1483 44.1568 21.8098 44.1695V44.3713C22.223 44.3523 22.6219 44.3396 23.0335 44.3396C23.4451 44.3396 23.8535 44.3523 24.2523 44.3713C24.6719 44.365 25.1232 44.3713 25.3743 44.3396V43.777C25.3743 43.5609 25.414 43.3718 25.4442 43.2303H25.2201L25.1582 43.6006C25.1454 43.723 25.1105 43.8453 25.0771 43.947C24.7243 44.0472 24.3525 44.0615 23.9886 44.0615C23.6644 44.0615 23.3179 44.0615 23.0684 44.0281C23.0414 43.8517 23.0335 43.6896 23.0335 43.4465V42.1418Z" fill="white"/>
<path d="M26.5128 43.5634C26.5128 44.0926 26.5207 44.1387 25.8724 44.1737V44.3755C26.1743 44.3564 26.4937 44.3421 26.8243 44.3421C27.1564 44.3421 27.4758 44.3564 27.8 44.3755V44.1737C27.15 44.1387 27.1564 44.0926 27.1564 43.5634V40.4583C27.1564 40.2501 27.1564 40.1071 27.1961 39.9926C27.3789 39.9386 27.6347 39.9036 27.8747 39.9036C28.3737 39.9036 28.914 40.1198 28.914 40.8508C28.914 41.3498 28.5072 41.7169 28.0368 41.7995C27.8318 41.8329 27.622 41.8392 27.4138 41.8249L27.3852 41.9266L28.9966 43.9973C29.0904 44.1117 29.1635 44.2341 29.2731 44.3755C29.4305 44.3564 29.5798 44.3421 29.734 44.3421C29.8897 44.3421 30.0455 44.3564 30.1932 44.3755V44.1737C30.0582 44.1514 29.9151 44.1117 29.8087 43.983L28.2736 41.9807C28.9283 41.8519 29.5926 41.4133 29.5926 40.676C29.5926 40.1071 29.1603 39.6001 28.2259 39.6478C27.8318 39.6685 27.4393 39.6828 27.042 39.6828C26.6431 39.6828 26.2522 39.6685 25.8724 39.6478V39.8512C26.5207 39.8846 26.5128 39.9307 26.5128 40.4583V43.5634Z" fill="white"/>
<path d="M33.2178 40.78C33.2258 40.5782 33.2528 40.3812 33.2655 40.1778C33.2734 40.0697 33.3005 39.9616 33.3211 39.8536C32.8936 39.6915 32.4677 39.5421 32.0085 39.5421C31.1345 39.5421 30.351 40.1317 30.351 41.0581C30.351 43.0287 33.0287 41.4967 33.0287 43.1351C33.0287 43.8058 32.436 44.1617 31.8273 44.1617C31.4809 44.1617 31.0471 44.0886 30.7785 43.8519C30.6974 43.7772 30.6831 43.6484 30.6831 43.4991V43.1812H30.4511V43.3703C30.4464 43.6357 30.4305 43.9599 30.4066 44.2174C30.7785 44.3715 31.1567 44.4732 31.5635 44.4732C32.5695 44.4732 33.6072 43.9202 33.6072 42.7633C33.6072 41.0645 30.9152 42.2818 30.9152 40.815C30.9152 40.2318 31.3855 39.8472 31.9417 39.8472C32.2596 39.8472 32.7395 39.9553 32.9222 40.2397C32.989 40.3478 32.989 40.5242 32.989 40.78H33.2178Z" fill="white"/>
<path d="M35.2662 40.4573C35.2662 39.9297 35.2583 39.882 35.9098 39.8486V39.6452C35.5856 39.6659 35.2662 39.6786 34.9341 39.6786C34.6035 39.6786 34.2841 39.6659 33.9806 39.6452V39.8486C34.6305 39.882 34.6226 39.9297 34.6226 40.4573V43.5625C34.6226 44.0901 34.6305 44.1361 33.9806 44.1695V44.3729C34.2841 44.3539 34.6035 44.3396 34.9341 44.3396C35.2662 44.3396 35.5856 44.3539 35.9098 44.3729V44.1695C35.2583 44.1361 35.2662 44.0901 35.2662 43.5625V40.4573Z" fill="white"/>
<path d="M37.8859 43.5634C37.8859 44.0926 37.8939 44.1387 37.2455 44.1737V44.3755C37.549 44.3564 37.8653 44.3437 38.1974 44.3437C38.528 44.3437 38.8458 44.3564 39.1731 44.3755V44.1737C38.5216 44.1387 38.528 44.0926 38.528 43.5634V40.668C38.5359 40.4122 38.5359 40.1945 38.5566 39.9926L39.6117 40.026C39.7532 40.0324 39.8358 40.053 39.8485 40.2294C39.8755 40.3899 39.9153 40.5695 39.9232 40.7491H40.1266C40.1266 40.6219 40.1266 40.4996 40.1314 40.3724C40.1393 40.1357 40.1441 39.8973 40.1695 39.6478C39.5085 39.6685 38.868 39.6828 38.2117 39.6828C37.549 39.6828 36.9039 39.6685 36.2634 39.6478C36.2857 39.8973 36.2904 40.1357 36.2968 40.3724C36.3032 40.4996 36.3032 40.6219 36.3032 40.7491H36.5082C36.5145 40.5695 36.5542 40.3899 36.5828 40.2294C36.594 40.053 36.6766 40.0324 36.8196 40.026L37.8589 39.9926C37.8812 40.1945 37.8812 40.4122 37.8859 40.668V43.5634Z" fill="white"/>
<path d="M10.1147 39.6433C9.91609 39.664 9.7238 39.6783 9.52357 39.6783C9.31698 39.6783 9.1247 39.664 8.92606 39.6433V39.8467H9.0214C9.40757 39.8531 9.51722 39.9151 9.51722 40.306V43.7083C9.51722 44.1024 9.39326 44.1628 8.97373 44.1628L8.8609 44.1708V44.3726C9.139 44.3519 9.41551 44.3392 9.68884 44.3392C9.96535 44.3392 10.2403 44.3519 10.5088 44.3726V44.1708L10.396 44.1628C9.96535 44.1628 9.83345 44.1024 9.83345 43.7083V40.4093L13.1579 44.379L13.6998 44.4743L13.6792 44.2248V40.306C13.6792 39.9151 13.8095 39.8531 14.2433 39.8531L14.3546 39.8467V39.6433C14.086 39.664 13.8095 39.6783 13.5346 39.6783C13.2612 39.6783 12.9847 39.664 12.7114 39.6433V39.8467L12.8194 39.8531C13.2406 39.8531 13.3613 39.9151 13.3613 40.306V43.6686L10.1147 39.6433Z" fill="white"/>
<path d="M4.66209 40.4557C4.66209 39.9281 4.65414 39.8804 5.35177 39.847V39.6436C5.00216 39.6643 4.66209 39.6786 4.30453 39.6786C3.95174 39.6786 3.61166 39.6643 3.2843 39.6436V39.847C3.98035 39.8804 3.9724 39.9281 3.9724 40.4557V42.8902C3.9724 43.2303 3.9724 43.4735 4.15356 43.777C4.50158 44.3793 5.29139 44.473 5.95247 44.473C6.24169 44.473 6.65328 44.4206 6.93138 44.3316C7.192 44.2505 7.53684 44.0074 7.68304 43.7913C7.90234 43.4671 8.00246 43.1747 8.00246 42.8044V40.3063C8.00246 39.9154 8.14072 39.8534 8.59839 39.8534L8.71281 39.847V39.6436C8.43153 39.6643 8.14072 39.6786 7.85149 39.6786C7.56068 39.6786 7.27146 39.6643 6.98064 39.6436V39.847L7.09506 39.8534C7.53684 39.8534 7.67033 39.9154 7.67033 40.3063V42.458C7.67033 42.8728 7.60359 43.2828 7.37952 43.5879C7.11731 43.9454 6.58971 44.0551 6.14634 44.0551C5.19922 44.0551 4.61759 43.777 4.66209 42.8155V40.4557Z" fill="white"/>
<path d="M18.6688 43.3445L18.9326 43.9595L19.0947 44.3997H19.4697L19.9989 43.1491L21.2464 40.3697C21.3814 40.0693 21.3957 39.8198 21.8741 39.8484V39.6434C21.6055 39.6657 21.3417 39.6784 21.0684 39.6784C20.7903 39.6784 20.5281 39.6657 20.2611 39.6434V39.8484C21.1558 39.8198 20.9238 40.1186 20.776 40.4968L20.4534 41.3152L19.4776 43.5209L18.3128 40.848L18.0283 40.0979C17.9743 39.9628 17.9314 39.8341 18.6481 39.8484V39.6434C18.3207 39.6657 17.9902 39.6784 17.6549 39.6784C17.318 39.6784 16.9906 39.6657 16.6601 39.6434V39.8484L16.8047 39.8532C17.2131 39.9072 17.1527 39.9358 17.318 40.2997L18.6688 43.3445Z" fill="white"/>
<path d="M41.7934 40.2718C41.6981 40.116 41.6012 39.973 41.4947 39.8332C41.3787 39.6917 41.277 39.5757 41.0799 39.6091L40.3648 39.7505V39.9476C40.8463 39.8936 41.2595 40.5562 41.482 40.9424L42.2924 42.3631C42.3258 42.4378 42.3258 42.5188 42.3258 42.5728V43.5661C42.3258 44.0937 42.3338 44.1413 41.6838 44.1763V44.3781C41.9905 44.359 42.3067 44.3447 42.6373 44.3447C42.9694 44.3447 43.2872 44.359 43.613 44.3781V44.1763C42.9631 44.1413 42.9694 44.0937 42.9694 43.5661V42.6603C42.9694 42.4982 42.9821 42.3281 43.0616 42.1549C43.3413 41.551 44.1613 40.4069 44.727 39.7505V39.6488H44.1867C43.9642 40.0827 43.7131 40.5022 43.4557 40.9344L42.7581 42.0373L41.7934 40.2718Z" fill="white"/>
<path d="M5.05014 7.07677C5.05014 7.59483 5.05808 7.64091 4.42243 7.67428V7.87134C4.7196 7.85386 5.03107 7.83797 5.35525 7.83797C5.68103 7.83797 5.9925 7.85386 6.31033 7.87134V7.67428C5.67308 7.64091 5.68103 7.59483 5.68103 7.07677V4.24333C5.68579 3.99225 5.68579 3.78089 5.70804 3.58225L6.73939 3.61403C6.88083 3.62039 6.96028 3.64263 6.96982 3.81267C6.99683 3.97159 7.03656 4.1448 7.04451 4.32438H7.24156C7.24156 4.19725 7.24156 4.07806 7.24951 3.95252C7.25586 3.7205 7.26381 3.48849 7.28129 3.24376C6.64087 3.26283 6.00998 3.27554 5.36955 3.27554C4.7196 3.27554 4.0903 3.26283 3.46259 3.24376C3.48324 3.48849 3.4896 3.7205 3.49437 3.95252C3.50231 4.07806 3.50231 4.19725 3.50231 4.32438H3.69937C3.70731 4.1448 3.74704 3.97159 3.77406 3.81267C3.78677 3.64263 3.86623 3.62039 4.00448 3.61403L5.02312 3.58225C5.04537 3.78089 5.04537 3.99225 5.05014 4.24333V7.07677Z" fill="white"/>
<path d="M25.7655 4.03815C25.7655 3.52168 25.7608 3.47559 26.3281 3.44222V3.24358C26.0436 3.26265 25.7655 3.27695 25.4716 3.27695C25.1823 3.27695 24.9011 3.26265 24.6325 3.24358V3.44222C25.203 3.47559 25.1982 3.52168 25.1982 4.03815V5.26338H22.8161V4.03815C22.8161 3.52168 22.8097 3.47559 23.3818 3.44222V3.24358C23.0942 3.26265 22.8161 3.27695 22.5221 3.27695C22.2297 3.27695 21.9516 3.26265 21.6846 3.24358V3.44222C22.2567 3.47559 22.2488 3.52168 22.2488 4.03815V7.07658C22.2488 7.59464 22.2567 7.64073 21.6846 7.6741V7.87115C21.9516 7.85367 22.2297 7.83937 22.5221 7.83937C22.8161 7.83937 23.0942 7.85367 23.3818 7.87115V7.6741C22.8097 7.64073 22.8161 7.59464 22.8161 7.07658V5.54306H25.1982V7.07658C25.1982 7.59464 25.203 7.64073 24.6325 7.6741V7.87115C24.9011 7.85367 25.1823 7.83937 25.4716 7.83937C25.7655 7.83937 26.0436 7.85367 26.3281 7.87115V7.6741C25.7608 7.64073 25.7655 7.59464 25.7655 7.07658V4.03815Z" fill="white"/>
<path fill-rule="evenodd" clip-rule="evenodd" d="M41.408 5.68786C42.754 5.63383 42.7969 5.5941 42.7969 6.34258H42.9939V4.81383H42.7969C42.7889 5.46061 42.7063 5.38115 41.408 5.37162V4.13209C41.408 3.89849 41.4127 3.74752 41.4382 3.58225C41.6336 3.54729 41.9133 3.54729 42.1771 3.54729C42.4743 3.54729 42.7778 3.56159 43.0623 3.6617C43.1052 3.8667 43.1417 4.05263 43.1481 4.31007H43.3308C43.3308 4.17182 43.3499 4.05899 43.3499 3.92073C43.3547 3.70779 43.3817 3.49643 43.4452 3.27554C43.2434 3.24376 42.8318 3.25012 42.4552 3.24376C42.0992 3.26283 41.7353 3.27554 41.3651 3.27554C40.9964 3.27554 40.6388 3.26283 40.2749 3.24376V3.4424C40.847 3.47419 40.8422 3.52186 40.8422 4.03833V7.07677C40.8422 7.52173 40.6261 7.66157 40.3273 7.67428V7.87134C40.6928 7.85386 41.044 7.83956 41.408 7.83956C41.7703 7.83956 42.1294 7.85386 42.479 7.87134C42.8493 7.86657 43.2482 7.87134 43.4691 7.83956V7.28971C43.4691 7.07677 43.504 6.89243 43.5279 6.75417H43.3308L43.28 7.1165C43.2673 7.23727 43.2371 7.35487 43.2053 7.45498C42.897 7.5551 42.5696 7.56781 42.2486 7.56781C41.961 7.56781 41.6575 7.56781 41.4382 7.53444C41.4127 7.36122 41.408 7.2039 41.408 6.96553V5.68786Z" fill="white"/>
<path d="M33.497 5.66309C33.7386 5.66309 33.9356 5.46762 33.9356 5.22448C33.9356 4.98452 33.7386 4.78906 33.497 4.78906C33.2555 4.78906 33.0616 4.98452 33.0616 5.22448C33.0616 5.46762 33.2555 5.66309 33.497 5.66309Z" fill="white"/>
<path d="M14.5562 5.66309C14.7962 5.66309 14.9932 5.46762 14.9932 5.22448C14.9932 4.98452 14.7962 4.78906 14.5562 4.78906C14.3147 4.78906 14.1208 4.98452 14.1208 5.22448C14.1208 5.46762 14.3147 5.66309 14.5562 5.66309Z" fill="white"/>
</svg>
