<svg width="68" height="24" viewBox="0 0 68 24" fill="none" xmlns="http://www.w3.org/2000/svg">
<path d="M36.3706 16.8001H34.7276V7.19823H36.3706V16.8001ZM57.3173 7.19775V16.8001H55.6796V7.19775H57.3173ZM65.5191 15.2281V12.3481H67.2015V15.8713C67.202 15.9611 67.1775 16.0489 67.1314 16.1257C67.0848 16.203 67.0181 16.2664 66.938 16.3096C65.1183 17.2773 62.0794 17.2552 60.434 15.7393C59.1754 14.5811 58.753 13.12 58.8951 11.499C59.0991 9.16143 60.6341 7.51119 62.9559 7.10175C64.1564 6.88959 65.6348 7.04511 66.7152 7.75407C66.7504 7.77749 66.7792 7.80926 66.799 7.84654C66.8189 7.88381 66.8292 7.92543 66.829 7.96767V9.43935C66.4813 9.20126 66.1093 9.00078 65.7192 8.84127C64.2898 8.28207 62.9127 8.32575 61.7117 9.36303C60.8314 10.1248 60.5616 11.1462 60.6183 12.2641C60.7037 13.9393 61.873 15.2224 63.4853 15.4408C64.1706 15.5248 64.866 15.4521 65.5191 15.2281ZM44.6088 15.2281V12.3481H46.2908V15.8713C46.2908 15.9606 46.2668 16.0489 46.2207 16.1257C46.174 16.2032 46.1074 16.2667 46.0277 16.3096C44.2076 17.2773 41.1687 17.2552 39.5233 15.7393C38.2642 14.5811 37.8433 13.12 37.9849 11.499C38.1889 9.16143 39.7239 7.51119 42.0457 7.10175C43.2457 6.88959 44.724 7.04511 45.804 7.75407C45.8393 7.7775 45.8681 7.80925 45.8881 7.84651C45.9082 7.88376 45.9187 7.92538 45.9188 7.96767V9.43935C45.5711 9.20127 45.1991 9.00079 44.809 8.84127C43.38 8.28207 42.0029 8.32575 40.802 9.36303C39.9221 10.1248 39.6519 11.1462 39.7085 12.2641C39.793 13.9393 40.9628 15.2224 42.576 15.4408C43.261 15.5245 43.956 15.4518 44.6088 15.2281ZM32.6252 7.74447V9.36303C32.366 9.17775 32.0962 9.00783 31.8168 8.85471C31.1256 8.47647 30.3898 8.31327 29.6031 8.48895C29.0665 8.60895 28.7209 8.96511 28.6469 9.44895C28.5586 10.0221 28.7333 10.4315 29.2776 10.6888C29.8224 10.9456 30.3932 11.1328 30.9562 11.3411C31.5687 11.5701 32.1562 11.8408 32.5858 12.3477C33.8113 13.803 33.1978 16.0485 31.3858 16.6797C30.0965 17.128 28.6455 17.164 27.0951 16.1901V14.6094C28.3335 15.4897 29.3919 15.7374 30.528 15.4465C31.0647 15.3097 31.4266 14.9752 31.5068 14.4131C31.5903 13.8261 31.3541 13.3691 30.8271 13.1085C30.3317 12.867 29.797 12.7014 29.2767 12.5113C28.6402 12.2785 28.0234 12.0131 27.5712 11.4942C26.2632 9.99375 27.049 7.64943 29.0324 7.15311C29.6404 6.9975 30.274 6.96972 30.8933 7.07151C31.5125 7.17375 32.1029 7.40271 32.6252 7.74447ZM48.2914 7.19775V16.8001H49.9277V12.8622H53.7058V11.3819H49.9277V8.62095H53.7058V7.19727L48.2914 7.19775Z" fill="#D9D9D9"/>
<path d="M3.67454 11.2201C3.75854 11.1654 3.84397 11.1112 3.93277 11.0612C6.36253 9.6726 6.85646 8.83596 6.86654 6.08268C6.87013 5.27851 7.09301 4.49055 7.51117 3.80364C7.93344 3.11065 8.53337 2.5432 9.24877 2.16012C9.9703 1.77356 10.7807 1.58322 11.5989 1.60812C12.4165 1.63178 13.2135 1.86998 13.9101 2.29884C14.5477 2.04758 15.2165 1.88416 15.8982 1.81308C15.0244 0.950732 13.917 0.363474 12.7129 0.123963C11.5039 -0.118204 10.2506 -0.00397679 9.10526 0.452763C7.96833 0.904546 6.99014 1.68202 6.29342 2.68764C5.60417 3.68351 5.23191 4.86438 5.22541 6.07548C5.21629 8.26572 5.03773 8.56812 3.10477 9.67212C3.04717 9.70572 2.99053 9.7374 2.93437 9.77292C3.05682 10.3094 3.31123 10.8068 3.67454 11.2201Z" fill="#F05A50"/>
<path d="M6.88102 18.2122C6.87345 18.113 6.86929 18.0136 6.86854 17.9141C6.8551 15.1609 6.36022 14.3257 3.92998 12.9365C3.22443 12.5364 2.63887 11.9547 2.23414 11.2517C1.83347 10.5546 1.63066 9.76126 1.64758 8.95733C1.66538 8.15295 1.9022 7.36866 2.33254 6.68885C2.7673 6.00302 3.37748 5.44587 4.0999 5.07509C4.19729 4.40929 4.38796 3.76051 4.6663 3.14789C3.4766 3.44943 2.4018 4.09408 1.57558 5.00165C0.758573 5.89942 0.23086 7.02242 0.061184 8.22437C-0.106051 9.42288 0.0939425 10.6439 0.634784 11.7265C1.1813 12.8182 2.04009 13.7227 3.10198 14.3252C5.03638 15.4282 5.21446 15.7311 5.2255 17.9213C5.2255 17.9866 5.2255 18.0519 5.2303 18.1167C5.76491 18.2805 6.33109 18.3133 6.88102 18.2122Z" fill="#F05A50"/>
<path d="M14.665 18.9908C14.5735 18.9476 14.4834 18.9015 14.3948 18.8526C11.9516 17.487 10.9628 17.487 8.52005 18.8526C7.8058 19.2518 6.99923 19.4566 6.18101 19.4463C5.36272 19.4371 4.56123 19.213 3.85685 18.7964C3.15888 18.3841 2.58408 17.7924 2.19221 17.0828C1.8041 16.3788 1.61556 15.5821 1.64693 14.7788C1.10791 14.3664 0.628778 13.8811 0.223252 13.3369C-0.104235 14.5011 -0.07076 15.7373 0.319252 16.8822C0.713526 18.0344 1.44335 19.0423 2.41493 19.7766C3.39657 20.5191 4.57374 20.9587 5.80181 21.0414C7.03149 21.126 8.2592 20.8508 9.33509 20.2494C11.2791 19.1622 11.6362 19.1617 13.5797 20.2494C13.6373 20.281 13.6959 20.3142 13.754 20.3425C14.1651 19.9745 14.4782 19.5099 14.665 18.9908Z" fill="#F05A50"/>
<path d="M19.2479 12.7777C19.164 12.8337 19.0782 12.8867 18.9906 12.9365C16.5603 14.3252 16.0659 15.1628 16.0568 17.9161C16.0529 18.7199 15.8299 19.5075 15.4117 20.1941C14.9894 20.8869 14.3894 21.4542 13.6741 21.8372C12.953 22.2239 12.1429 22.4146 11.325 22.3901C10.5074 22.3666 9.71038 22.1285 9.01378 21.6999C8.37597 21.9505 7.70718 22.1135 7.02563 22.1847C7.89943 23.0479 9.00724 23.6359 10.2119 23.8757C11.4215 24.1186 12.6781 24.0039 13.8215 23.5474C14.9591 23.0951 15.9376 22.3168 16.6343 21.3101C17.3231 20.3133 17.6946 19.1316 17.6999 17.9199C17.7095 15.7297 17.8875 15.4268 19.821 14.3233C19.8781 14.2906 19.9347 14.258 19.9909 14.2225C19.8672 13.6866 19.6118 13.19 19.2479 12.7777Z" fill="#F05A50"/>
<path d="M16.0519 5.78551C16.0586 5.88439 16.0644 5.98135 16.0644 6.08407C16.0773 8.83687 16.5722 9.67207 19.0029 11.0612C19.7084 11.4615 20.2937 12.0434 20.6983 12.7465C21.099 13.4436 21.3018 14.2369 21.2848 15.0409C21.267 15.8451 21.0302 16.6292 20.5999 17.3089C20.1651 17.9947 19.555 18.5519 18.8325 18.9226C18.7364 19.5881 18.5474 20.2369 18.2709 20.8498C19.46 20.5476 20.5341 19.9027 21.3597 18.9951C22.1763 18.0972 22.7037 16.9742 22.8732 15.7724C23.0402 14.574 22.8402 13.3532 22.2996 12.2708C21.7529 11.1794 20.8941 10.2752 19.8324 9.67303C17.8984 8.56951 17.7199 8.26663 17.7093 6.07687C17.7093 6.01159 17.7093 5.94631 17.705 5.88103C17.1696 5.71689 16.6026 5.68412 16.0519 5.78551Z" fill="#F05A50"/>
<path d="M8.25938 5.00759C8.3501 5.05127 8.44082 5.09639 8.52626 5.14583C10.9699 6.51143 11.9583 6.51143 14.4015 5.14583C15.1159 4.74648 15.9226 4.54173 16.741 4.55207C17.5608 4.56167 18.3634 4.78679 19.0647 5.20247C19.7629 5.61495 20.3379 6.207 20.7298 6.91703C21.1177 7.62112 21.3061 8.41775 21.2746 9.22103C21.8131 9.63383 22.2922 10.1189 22.6983 10.6625C23.0254 9.49847 22.9917 8.26263 22.6018 7.11815C22.2075 5.9666 21.478 4.95917 20.5071 4.22519C19.5261 3.48267 18.3496 3.04275 17.1221 2.95943C15.8928 2.87419 14.6653 3.14855 13.5893 3.74903C11.6453 4.83671 11.2887 4.83671 9.34513 3.74903C9.28705 3.71687 9.22897 3.68375 9.17041 3.65591C8.75953 4.02411 8.44649 4.48856 8.25938 5.00759Z" fill="#F05A50"/>
</svg>
