<svg width="104" height="24" viewBox="0 0 104 24" fill="none" xmlns="http://www.w3.org/2000/svg">
<g clip-path="url(#clip0_43_104)">
<path fill-rule="evenodd" clip-rule="evenodd" d="M43.1893 12.559H37.6081V12.3552C37.6326 11.7761 37.6815 11.4959 37.9263 11.0663C38.318 10.3564 39.2237 9.87085 40.3987 9.87085C41.5737 9.87085 42.455 10.3564 42.8466 11.0663C43.0913 11.4959 43.1648 11.7761 43.1893 12.3552V12.559ZM40.3256 7.53271C38.1674 7.53271 36.4406 8.59136 35.589 10.5125C35.1911 11.4105 35.0303 12.4972 35.0231 13.7517V13.9019C35.0231 18.6901 37.4915 20.321 40.685 20.321C42.6921 20.321 44.2522 19.4638 45.311 18.3339C45.3463 18.2963 45.343 18.2373 45.3046 18.2029L43.7934 16.8556C43.7565 16.8227 43.7002 16.8243 43.6648 16.8586C42.7851 17.7081 41.9939 18.0827 40.7357 18.0827C38.6482 18.0827 37.563 16.8048 37.563 14.6461V14.644H45.5134C45.5646 14.644 45.6064 14.6033 45.607 14.5527L45.6281 12.6812C45.6281 9.64209 43.6792 7.53271 40.3256 7.53271Z" fill="#FF5745"/>
<path fill-rule="evenodd" clip-rule="evenodd" d="M68.1425 12.559H62.5612V12.3552C62.5857 11.7761 62.6346 11.4959 62.8795 11.0663C63.2712 10.3564 64.1769 9.87085 65.352 9.87085C66.5269 9.87085 67.4082 10.3564 67.7998 11.0663C68.0446 11.4959 68.118 11.7761 68.1425 12.3552V12.559ZM65.2787 7.53271C63.1204 7.53271 61.3937 8.59136 60.5421 10.5125C60.1442 11.4105 59.9834 12.4972 59.9763 13.7517V13.9019C59.9763 18.6901 62.4447 20.321 65.6382 20.321C67.6452 20.321 69.2054 19.4638 70.2642 18.3339C70.2995 18.2963 70.2963 18.2373 70.2578 18.2029L68.7466 16.8556C68.7097 16.8227 68.6534 16.8243 68.618 16.8586C67.7383 17.7081 66.9469 18.0827 65.6889 18.0827C63.6014 18.0827 62.5161 16.8048 62.5161 14.6461V14.644H70.4665C70.5178 14.644 70.5595 14.6033 70.5601 14.5527L70.5812 12.6812C70.5812 9.64209 68.6324 7.53271 65.2787 7.53271Z" fill="#FF5745"/>
<path fill-rule="evenodd" clip-rule="evenodd" d="M23.8373 7.80005V9.87615C23.8373 9.92693 23.8791 9.96819 23.9308 9.96819H29.748L23.541 20.0063C23.5031 20.0676 23.548 20.146 23.6209 20.146H33.835C33.8867 20.146 33.9287 20.1049 33.9287 20.054V17.9782C33.9287 17.9274 33.8867 17.8863 33.835 17.8863H27.761L33.9403 7.8476C33.9781 7.78633 33.9331 7.70801 33.8602 7.70801H23.9308C23.8791 7.70801 23.8373 7.74927 23.8373 7.80005Z" fill="#FF5745"/>
<path fill-rule="evenodd" clip-rule="evenodd" d="M90.6397 4.46704H88.3882C88.3365 4.46704 88.2946 4.5083 88.2946 4.5592V7.68009H86.6267C86.575 7.68009 86.5331 7.72127 86.5331 7.77225V9.85465C86.5331 9.90555 86.575 9.94682 86.6267 9.94682H88.2946V16.4685C88.2946 19.1755 90.2945 20.2375 92.4838 20.2333L92.4835 20.2335C92.7087 20.2335 92.8471 20.2324 92.9721 20.2276C93.0225 20.2258 93.0622 20.185 93.0622 20.1355V18.0069C93.0622 17.9539 93.0168 17.9123 92.9631 17.9151C92.8454 17.921 92.7338 17.9192 92.5891 17.9126C91.3555 17.8561 90.7334 17.2238 90.7334 15.7837V9.94682H93.2123C93.264 9.94682 93.306 9.90555 93.306 9.85465V7.77225C93.306 7.72127 93.264 7.68009 93.2123 7.68009H90.7334V4.5592C90.7334 4.5083 90.6914 4.46704 90.6397 4.46704Z" fill="#FF5745"/>
<path fill-rule="evenodd" clip-rule="evenodd" d="M102.709 13.8776C101.877 13.3025 100.653 12.984 99.1225 12.7242C97.0961 12.3801 96.847 11.9971 96.8671 11.2063C96.8803 10.6875 97.1453 10.353 97.5231 10.1431C98.1571 9.81332 98.8225 9.79216 99.4474 9.84546C100.17 9.90718 101.081 10.1755 101.728 10.8729C101.763 10.91 101.821 10.9121 101.859 10.8783L103.384 9.51542C103.42 9.48328 103.426 9.42893 103.396 9.391C103.123 9.04349 102.771 8.71485 102.369 8.45724C101.904 8.15881 101.394 7.93114 100.862 7.7767C100.291 7.61058 99.642 7.54684 99.0481 7.5342C98.0564 7.51286 97.1126 7.77152 96.6742 7.96135C96.1534 8.18699 95.6671 8.50088 95.2901 8.92452C94.9126 9.34868 94.6578 9.86723 94.5416 10.4198C94.4081 11.0546 94.4239 11.745 94.6165 12.3676C94.7504 12.8004 94.9872 13.1928 95.2966 13.5266C96.1965 14.4969 97.6097 14.772 98.9919 15.0181C99.9369 15.1864 101.615 15.258 101.582 16.5427C101.55 17.7912 100.018 18.1744 98.9906 18.1744C97.7986 18.1744 96.7686 17.7577 95.9401 16.9176C95.9049 16.8819 95.8476 16.8794 95.8103 16.9129L94.3173 18.2469C94.2794 18.2806 94.2755 18.3386 94.3094 18.3762C95.4025 19.5941 97.2536 20.3213 99.1472 20.3213C101.571 20.3213 103.864 19.1577 103.993 16.6774C104.06 15.397 103.632 14.5155 102.709 13.8776Z" fill="#FF5745"/>
<path fill-rule="evenodd" clip-rule="evenodd" d="M83.2804 1.927C82.3206 1.927 81.5426 2.69173 81.5426 3.63494C81.5426 4.57833 82.3206 5.34306 83.2804 5.34306C84.2402 5.34306 85.0182 4.57833 85.0182 3.63494C85.0182 2.69173 84.2402 1.927 83.2804 1.927Z" fill="#FF5745"/>
<path fill-rule="evenodd" clip-rule="evenodd" d="M76.2614 7.66252V5.9382C76.3345 4.65522 77.2231 4.16004 78.2308 4.13988C78.677 4.13111 79.3055 4.16206 79.8166 4.22818C79.8728 4.23546 79.9223 4.1924 79.9223 4.13672V2.07033C79.9223 2.02587 79.8904 1.98746 79.846 1.97931C79.3387 1.88653 78.7946 1.83979 78.2734 1.83979C78.2413 1.83979 78.1858 1.83936 78.1616 1.83936C78.1382 1.83936 78.0869 1.83979 78.0459 1.83979C75.5689 1.83979 73.8114 3.20423 73.8114 5.71924V6.38191V7.66252H71.9229C71.871 7.66252 71.829 7.70356 71.829 7.7545C71.8288 8.12087 71.8288 9.47295 71.8287 9.83931C71.8287 9.89026 71.8708 9.93138 71.9227 9.93138H73.8114V20.0538C73.8114 20.1047 73.8535 20.1459 73.9054 20.1459H76.1621C76.2139 20.1459 76.2559 20.1047 76.2559 20.0538V9.93138H82.1283V20.0538C82.1283 20.1047 82.1703 20.1459 82.2222 20.1459H84.4785C84.5303 20.1459 84.5723 20.1048 84.5723 20.0539C84.5725 18.9782 84.5725 8.83036 84.5725 7.75468C84.5725 7.70373 84.5306 7.66252 84.4787 7.66252H76.2614Z" fill="#FF5745"/>
<path fill-rule="evenodd" clip-rule="evenodd" d="M56.4984 8.65545C55.6929 7.92543 54.6351 7.53296 53.2507 7.53296C52.2848 7.53296 51.4551 7.67409 50.641 8.20411C50.4589 8.32027 50.2693 8.47218 50.1465 8.57696C50.1085 8.60937 50.0707 8.64301 50.0328 8.67744V7.77265C50.0328 7.72175 49.9908 7.6804 49.9389 7.6804H47.6826C47.6308 7.6804 47.5887 7.72175 47.5887 7.77265V20.0539C47.5887 20.1048 47.6308 20.1461 47.6826 20.1461H49.9389C49.9908 20.1461 50.0328 20.1048 50.0328 20.0539V11.911C50.0328 11.263 50.5264 10.6847 51.0588 10.3582C51.7063 9.96139 52.8114 9.91286 53.555 10.0338C54.7455 10.2275 55.572 11.17 55.572 12.3908V20.0539C55.572 20.1048 55.614 20.1461 55.6658 20.1461H57.9217C57.9735 20.1461 58.0155 20.1048 58.0155 20.0539V12.3908C58.0155 11.0253 57.6436 9.69332 56.4984 8.65545Z" fill="#FF5745"/>
<path fill-rule="evenodd" clip-rule="evenodd" d="M9.91821e-05 20.0403L16.0412 23.9999V21.6963L3.00763 18.4791L6.62108 16.6245L16.0412 18.9497V16.6461L9.65205 15.0691L16.0412 11.79V9.26929L9.91821e-05 17.5019V20.0403ZM16.0411 3.95936V6.49793L0 14.7305V12.2098L6.38936 8.93074L0 7.35357V5.05L9.42015 7.37529L13.0337 5.52068L0 2.30367V0L16.0411 3.95936Z" fill="#FF5745"/>
</g>
<defs>
<clipPath id="clip0_43_104">
<rect width="104" height="24" fill="white"/>
</clipPath>
</defs>
</svg>
