<svg width="129" height="18" viewBox="0 0 129 18" fill="none" xmlns="http://www.w3.org/2000/svg">
<g clip-path="url(#clip0_43_38)">
<path d="M37.8789 14.7291H34.9015V3.27295H42.2141C45.7314 3.27295 47.4655 4.58204 47.4655 6.72568C47.4655 8.18204 46.6148 9.2784 45.028 9.83477C46.6639 10.0802 47.4001 10.9475 47.4001 12.502V14.7275H44.3899V12.6329C44.3899 11.3239 43.7356 10.8002 42.0178 10.8002H37.8789V14.7275V14.7291ZM42.0505 4.94204H37.8789V9.13113H42.0178C43.5229 9.13113 44.4554 8.29659 44.4554 6.98749C44.4554 5.6784 43.5883 4.94204 42.0505 4.94204Z" fill="#FDB71C"/>
<path d="M52.6352 3.27295H49.6578V14.7291H52.6352V3.27295Z" fill="#FDB71C"/>
<path d="M61.7636 10.9966H58.1318V14.7275H55.1544V3.27295H61.8291C65.3463 3.27295 67.1949 4.74568 67.1949 7.10204C67.1949 9.4584 65.3136 10.9966 61.7636 10.9966ZM61.6982 4.94204H58.1318V9.32749H61.6655C63.2032 9.32749 64.1521 8.54204 64.1521 7.1184C64.1521 5.69477 63.2032 4.94204 61.6982 4.94204Z" fill="#FDB71C"/>
<path d="M75.5712 10.9966H71.9394V14.7275H68.962V3.27295H75.6367C79.1539 3.27295 81.0026 4.74568 81.0026 7.10204C81.0026 9.4584 79.1212 10.9966 75.5712 10.9966ZM75.5058 4.94204H71.9394V9.32749H75.4731C77.0109 9.32749 77.9597 8.54204 77.9597 7.1184C77.9597 5.69477 77.0109 4.94204 75.5058 4.94204Z" fill="#FDB71C"/>
<path d="M85.7466 3.27295V13.0257H93.1737V14.7291H82.7692V3.27295H85.7466Z" fill="#FDB71C"/>
<path d="M98.0146 3.27295H95.0372V14.7291H98.0146V3.27295Z" fill="#FDB71C"/>
<path d="M102.497 7.10204V14.7291H100.534V3.27295H102.76L110.875 10.8984V3.27295H112.838V14.7291H110.613L102.497 7.10204Z" fill="#FDB71C"/>
<path d="M122.555 4.61439C119.725 4.61439 117.876 6.41439 117.876 9.09803C117.876 11.7817 119.643 13.3853 122.392 13.3853H122.588C123.52 13.3853 124.567 13.1889 125.533 12.878V9.7853H120.723V8.14894H128.445V13.5326C126.841 14.3671 124.42 15.0217 122.457 15.0217H122.195C117.68 15.0217 114.768 12.6326 114.768 9.16348C114.768 5.69439 117.762 2.97803 122.359 2.97803H122.621C124.535 2.97803 126.727 3.58348 128.346 4.53257L127.496 5.92348C126.04 5.12166 124.306 4.61439 122.752 4.61439H122.555Z" fill="#FDB71C"/>
<path d="M2.86289 4.99091C2.86289 3.01091 1.86497 1.37455 0 0H4.33524C5.85666 1.17818 6.78915 2.97818 6.78915 4.99091C6.78915 7.00364 5.85666 8.80364 4.33524 9.98182C5.74215 10.5709 6.54376 12.0109 6.54376 14.0727V18H2.6175V14.0727C2.6175 12.1091 1.68502 10.7345 0 9.98182C1.86497 8.60727 2.86289 6.97091 2.86289 4.99091ZM11.3698 4.99091C11.3698 3.01091 10.3719 1.37455 8.50689 0H12.8421C14.3636 1.17818 15.296 2.97818 15.296 4.99091C15.296 7.00364 14.3636 8.80364 12.8421 9.98182C14.249 10.5709 15.0506 12.0109 15.0506 14.0727V18H11.1244V14.0727C11.1244 12.1091 10.1919 10.7345 8.50689 9.98182C10.3719 8.60727 11.3698 6.97091 11.3698 4.99091ZM19.8767 4.99091C19.8767 3.01091 18.8787 1.37455 17.0138 0H21.349C22.8704 1.17818 23.8029 2.97818 23.8029 4.99091C23.8029 7.00364 22.8704 8.80364 21.349 9.98182C22.7559 10.5709 23.5575 12.0109 23.5575 14.0727V18H19.6313V14.0727C19.6313 12.1091 18.6988 10.7345 17.0138 9.98182C18.8787 8.60727 19.8767 6.97091 19.8767 4.99091Z" fill="#FDB71C"/>
</g>
<defs>
<clipPath id="clip0_43_38">
<rect width="128.445" height="18" fill="white"/>
</clipPath>
</defs>
</svg>
